<svg xmlns="http://www.w3.org/2000/svg" width="26.252" height="26.252" viewBox="0 0 26.252 26.252"><defs><style>.a{fill:none;}.b{fill:#575756;}</style></defs><path class="a" d="M20.876,26.5h2.813A2.816,2.816,0,0,0,26.5,23.689V14.313H20.876ZM19,13.376V4.938A.938.938,0,0,0,18.064,4H4.938A.938.938,0,0,0,4,4.938V25.564a.938.938,0,0,0,.938.938H19ZM8.688,9.625h1.875V7.75a.938.938,0,1,1,1.875,0V9.625h1.875a.938.938,0,0,1,0,1.875H12.438v1.875a.938.938,0,1,1-1.875,0V11.5H8.688a.938.938,0,1,1,0-1.875Zm-.938,7.5H11.5A.938.938,0,1,1,11.5,19H7.75a.938.938,0,1,1,0-1.875Zm7.5,5.625H7.75a.938.938,0,0,1,0-1.875h7.5a.938.938,0,0,1,0,1.875Z" transform="translate(-2.125 -2.125)"/><path class="b" d="M27.315,12.313H20.752v-7.5A2.816,2.816,0,0,0,17.939,2H4.813A2.816,2.816,0,0,0,2,4.813V25.439a2.816,2.816,0,0,0,2.813,2.813H23.564a4.693,4.693,0,0,0,4.688-4.688V13.251A.938.938,0,0,0,27.315,12.313ZM3.875,25.439V4.813a.938.938,0,0,1,.938-.938H17.939a.938.938,0,0,1,.938.938V26.377H4.813A.938.938,0,0,1,3.875,25.439Zm22.5-1.875a2.816,2.816,0,0,1-2.813,2.813H20.752V14.189h5.625Z" transform="translate(-2 -2)"/><path class="b" d="M8.875,11.688H10.75v1.875a.938.938,0,1,0,1.875,0V11.688H14.5a.938.938,0,0,0,0-1.875H12.625V7.938a.938.938,0,1,0-1.875,0V9.813H8.875a.938.938,0,0,0,0,1.875Zm-.938,7.5h3.75a.938.938,0,0,0,0-1.875H7.938a.938.938,0,1,0,0,1.875Zm7.5,1.875h-7.5a.938.938,0,0,0,0,1.875h7.5a.938.938,0,0,0,0-1.875Z" transform="translate(-2.312 -2.312)"/></svg>