<svg xmlns="http://www.w3.org/2000/svg" width="22.026" height="27.748" viewBox="0 0 22.026 27.748"><defs><style>.a{fill:none;stroke:#575756;stroke-linecap:round;stroke-linejoin:round;stroke-width:2px;}</style></defs><g transform="translate(1 1)"><path class="a" d="M12.152,3v7.152H19.3m-1.43,12.874H6.43A1.43,1.43,0,0,1,5,21.6V4.43A1.43,1.43,0,0,1,6.43,3h6.56A1.43,1.43,0,0,1,14,3.419L18.885,8.3A1.431,1.431,0,0,1,19.3,9.314V21.6A1.43,1.43,0,0,1,17.874,23.026Z" transform="translate(-5 -3)"/><path class="a" d="M8,25.3H20.874a2.861,2.861,0,0,0,2.861-2.861V11" transform="translate(-3.709 0.443)"/></g></svg>