<svg xmlns="http://www.w3.org/2000/svg" width="35.132" height="35.132" viewBox="0 0 35.132 35.132"><defs><style>.a{fill:#0082af;}</style></defs><path class="a" d="M19.566,2A17.566,17.566,0,1,0,37.132,19.566,17.618,17.618,0,0,0,19.566,2Zm0,8.783a5.176,5.176,0,0,1,5.27,5.27,5.27,5.27,0,1,1-10.54,0A5.176,5.176,0,0,1,19.566,10.783Zm0,22.836A13.95,13.95,0,0,1,9.378,29.227a12.186,12.186,0,0,1,17.039-3.162,13.508,13.508,0,0,1,3.162,3.162A13.284,13.284,0,0,1,19.566,33.619Z" transform="translate(-2 -2)"/></svg>