<svg xmlns="http://www.w3.org/2000/svg" width="25.511" height="25.029" viewBox="0 0 25.511 25.029"><defs><style>.a{fill:#575756;}</style></defs><path class="a" d="M11.678,22.237l.418.078a8.792,8.792,0,0,0,3.209,0l.418-.078,2.007,1.855a11.025,11.025,0,0,0,1.527-.737l-.2-2.726.322-.278a8.731,8.731,0,0,0,2-2.507l.2-.376,2.7-.413a11,11,0,0,0,.376-1.653L22.4,13.857l-.016-.426a8.646,8.646,0,0,0-.711-3.126l-.17-.391,1.361-2.367a11.131,11.131,0,0,0-1.059-1.326l-2.612.8-.343-.253a8.653,8.653,0,0,0-2.888-1.392l-.412-.111-1-2.539q-.422-.032-.848-.032t-.848.032l-1,2.539-.412.111A8.653,8.653,0,0,0,8.55,6.769l-.343.253L5.6,6.222A11.131,11.131,0,0,0,4.536,7.547L5.9,9.915l-.17.391a8.646,8.646,0,0,0-.711,3.126L5,13.857,2.743,15.4a11,11,0,0,0,.376,1.653l2.7.413.2.376a8.731,8.731,0,0,0,2,2.507l.322.278-.2,2.726a11.025,11.025,0,0,0,1.527.737Zm-1.607,3.792-.477-.162A12.721,12.721,0,0,1,6.8,24.521l-.423-.272.212-2.906a10.428,10.428,0,0,1-1.857-2.327l-2.88-.44L1.683,18.1A12.7,12.7,0,0,1,1,15.08l-.051-.5,2.4-1.645a10.333,10.333,0,0,1,.661-2.9L2.558,7.506l.265-.429A12.824,12.824,0,0,1,4.756,4.656l.36-.353L7.9,5.155a10.346,10.346,0,0,1,2.683-1.294l1.069-2.708.5-.061a12.936,12.936,0,0,1,3.1,0l.5.061,1.069,2.708A10.346,10.346,0,0,1,19.5,5.155L22.285,4.3l.36.353a12.824,12.824,0,0,1,1.933,2.421l.265.429L23.392,10.03a10.333,10.333,0,0,1,.661,2.9l2.4,1.645-.051.5a12.7,12.7,0,0,1-.687,3.022l-.171.474-2.88.44a10.428,10.428,0,0,1-1.857,2.327l.212,2.906-.423.272a12.721,12.721,0,0,1-2.791,1.346l-.477.162-2.14-1.978a10.507,10.507,0,0,1-2.978,0Z" transform="translate(-0.945 -1)"/><path class="a" d="M15.236,19.473a4.236,4.236,0,1,1,4.236-4.236A4.236,4.236,0,0,1,15.236,19.473Zm0-1.695a2.542,2.542,0,1,0-2.542-2.542A2.542,2.542,0,0,0,15.236,17.778Z" transform="translate(-2.481 -2.527)"/></svg>