<svg xmlns="http://www.w3.org/2000/svg" width="26" height="24.668" viewBox="0 0 26 24.668"><defs><style>.a{fill:#575756;}</style></defs><path class="a" d="M11.5,16A4.5,4.5,0,1,1,16,11.5,4.5,4.5,0,0,1,11.5,16Zm0-7A2.5,2.5,0,1,0,14,11.5,2.5,2.5,0,0,0,11.5,9ZM19,29H4a1,1,0,0,1-1-1V25.407A8.416,8.416,0,0,1,11.407,17h.186A8.416,8.416,0,0,1,20,25.407V28A1,1,0,0,1,19,29ZM5,27H18V25.407A6.415,6.415,0,0,0,11.593,19h-.186A6.415,6.415,0,0,0,5,25.407ZM21.5,12.4a4.034,4.034,0,1,1,4.033-4.033A4.034,4.034,0,0,1,21.5,12.4Zm0-6.067a2.034,2.034,0,1,0,2.033,2.034A2.034,2.034,0,0,0,21.5,6.333Z" transform="translate(-3 -4.332)"/><path class="a" d="M28,23.667H21.632a1,1,0,0,1-.966-.74,9.4,9.4,0,0,0-4.59-5.8,1,1,0,0,1-.283-1.532A7.417,7.417,0,0,1,21.42,13h.16A7.428,7.428,0,0,1,29,20.42v2.247A1,1,0,0,1,28,23.667Zm-5.63-2H27V20.42A5.426,5.426,0,0,0,21.58,15h-.16a5.4,5.4,0,0,0-3.237,1.079,11.445,11.445,0,0,1,4.187,5.588Z" transform="translate(-3 -4.332)"/></svg>