<svg width="80" height="80" viewBox="0 0 80 80" fill="none" xmlns="http://www.w3.org/2000/svg">
<path d="M58.36 22.3195L32 48.6795L17.64 34.3595L12 39.9995L32 59.9995L64 27.9995L58.36 22.3195ZM40 -0.000488281C17.92 -0.000488281 0 17.9195 0 39.9995C0 62.0795 17.92 79.9995 40 79.9995C62.08 79.9995 80 62.0795 80 39.9995C80 17.9195 62.08 -0.000488281 40 -0.000488281ZM40 71.9995C22.32 71.9995 8 57.6795 8 39.9995C8 22.3195 22.32 7.99951 40 7.99951C57.68 7.99951 72 22.3195 72 39.9995C72 57.6795 57.68 71.9995 40 71.9995Z" fill="#3F8627"/>
</svg>
