<svg width="206" height="151" viewBox="0 0 206 151" fill="none" xmlns="http://www.w3.org/2000/svg">
<rect width="206" height="151" fill="white"/>
<g clip-path="url(#clip0_3216:2580)">
<path opacity="0.2" d="M27.2621 76.5026C24.5528 77.3204 22.0169 79.3006 21.3401 82.0479C20.566 85.2052 22.3511 88.3878 22.6091 91.6296C23.4424 102.251 8.32022 109.745 10.4775 120.178C11.3341 124.327 14.7963 127.378 18.2078 129.9C23.6729 133.925 29.7366 137.482 36.4517 138.486C46.6438 140.012 57.2928 135.527 67.1994 138.361C75.1899 140.648 81.3043 147.349 89.2397 149.822C95.2802 151.705 101.788 150.963 108.063 150.2C111.447 149.79 114.992 149.317 117.722 147.288C122.798 143.511 123.118 136.053 126.516 130.709C131.766 122.467 143.276 120.848 152.926 122.45C162.577 124.052 171.949 127.995 181.726 127.674C183.816 127.604 185.956 127.321 187.779 126.296C189.996 125.052 191.493 122.858 192.817 120.688C201.092 107.071 205.634 91.5181 205.987 75.5918C206.044 72.855 205.947 69.9999 204.659 67.5844C203.03 64.5286 199.775 62.7006 196.535 61.4706C188.754 58.512 180.159 58.0281 172.534 54.6912C165.181 51.4726 159.225 45.8279 152.821 40.9906C140.058 31.3692 125.266 24.7866 109.571 21.7447C105.893 21.0346 102.076 20.5274 98.4209 21.3474C94.21 22.292 90.5806 24.9147 87.3172 27.738C78.6352 35.2487 71.6769 44.5156 63.6759 52.7469C58.1564 58.4235 52.1463 63.6022 45.7154 68.2227C42.7544 70.355 39.6073 72.8867 36.3079 74.4632C33.2877 75.9045 30.4557 75.541 27.2621 76.5026Z" fill="#006CB5"/>
<path d="M129.962 9.75C129.962 9.75 121.788 20.5976 127.635 33.2415C133.483 45.8854 117.443 66.2007 117.443 66.2007" stroke="#535461" stroke-width="2" stroke-miterlimit="10"/>
<path d="M133.627 5.69127C132.978 8.48294 129.871 10.1461 129.871 10.1461C129.871 10.1461 127.82 7.28259 128.469 4.49091C129.118 1.69923 130.795 -0.29573 132.225 0.0360593C133.655 0.367848 134.277 2.89959 133.627 5.69127Z" fill="#57B894"/>
<path opacity="0.3" d="M131.541 5.20356C131.745 4.32711 131.644 3.55463 131.315 3.47818C130.986 3.40173 130.554 4.05026 130.35 4.92671C130.146 5.80316 130.247 6.57565 130.576 6.6521C130.905 6.72855 131.337 6.08001 131.541 5.20356Z" fill="black"/>
<path d="M132.215 18.0949C129.516 19.067 126.431 17.3637 126.431 17.3637C126.431 17.3637 127.721 14.086 130.422 13.116C133.122 12.146 135.709 12.482 136.206 13.8472C136.703 15.2124 134.914 17.1228 132.215 18.0949Z" fill="#57B894"/>
<path opacity="0.3" d="M131.456 15.9419C132.303 15.6359 132.896 15.1309 132.781 14.8138C132.666 14.4967 131.887 14.4877 131.041 14.7937C130.194 15.0996 129.601 15.6047 129.716 15.9218C129.83 16.2388 130.61 16.2478 131.456 15.9419Z" fill="black"/>
<path d="M131.586 27.9777C128.888 28.9499 125.802 27.2465 125.802 27.2465C125.802 27.2465 127.092 23.9688 129.793 22.9988C132.494 22.0288 135.08 22.3648 135.577 23.73C136.074 25.0952 134.285 27.0077 131.586 27.9777Z" fill="#57B894"/>
<path opacity="0.3" d="M130.86 25.9743C131.708 25.6695 132.302 25.1651 132.188 24.8477C132.073 24.5304 131.294 24.5202 130.446 24.825C129.599 25.1298 129.005 25.6342 129.119 25.9516C129.234 26.269 130.013 26.2791 130.86 25.9743Z" fill="black"/>
<path d="M134.74 39.5715C132.041 40.5436 128.955 38.8403 128.955 38.8403C128.955 38.8403 130.245 35.5625 132.946 34.5925C135.647 33.6225 138.234 33.9585 138.731 35.3237C139.228 36.6889 137.438 38.6057 134.74 39.5715Z" fill="#57B894"/>
<path opacity="0.3" d="M134.014 37.5759C134.861 37.271 135.455 36.7667 135.341 36.4493C135.227 36.1319 134.447 36.1218 133.6 36.4266C132.752 36.7314 132.158 37.2358 132.272 37.5532C132.387 37.8705 133.166 37.8807 134.014 37.5759Z" fill="black"/>
<path d="M132.689 50.1789C129.99 51.151 126.904 49.4477 126.904 49.4477C126.904 49.4477 128.194 46.17 130.895 45.2C133.596 44.2299 136.183 44.566 136.68 45.9312C137.177 47.2964 135.39 49.2089 132.689 50.1789Z" fill="#57B894"/>
<path opacity="0.3" d="M131.968 48.0005C132.815 47.6945 133.408 47.1895 133.293 46.8724C133.178 46.5553 132.399 46.5463 131.552 46.8523C130.706 47.1582 130.113 47.6633 130.227 47.9804C130.342 48.2974 131.121 48.3064 131.968 48.0005Z" fill="black"/>
<path d="M120.03 20.9026C122.023 22.9652 125.544 22.8046 125.544 22.8046C125.544 22.8046 125.834 19.2944 123.842 17.2318C121.849 15.1692 119.381 14.3196 118.328 15.3298C117.275 16.34 118.038 18.84 120.03 20.9026Z" fill="#57B894"/>
<path opacity="0.3" d="M123.144 20.1703C123.387 19.9361 123.077 19.2213 122.452 18.5739C121.826 17.9265 121.122 17.5915 120.879 17.8258C120.636 18.0601 120.947 18.7748 121.572 19.4223C122.197 20.0697 122.901 20.4046 123.144 20.1703Z" fill="black"/>
<path d="M118.886 53.6585C120.878 55.721 124.4 55.5604 124.4 55.5604C124.4 55.5604 124.689 52.0502 122.697 49.9876C120.705 47.925 118.237 47.0755 117.183 48.0857C116.13 49.0958 116.894 51.5959 118.886 53.6585Z" fill="#57B894"/>
<path opacity="0.3" d="M121.997 52.9282C122.24 52.6939 121.93 51.9791 121.304 51.3317C120.679 50.6843 119.975 50.3494 119.732 50.5836C119.489 50.8179 119.799 51.5326 120.425 52.1801C121.05 52.8275 121.754 53.1624 121.997 52.9282Z" fill="black"/>
<path d="M121.528 32.4784C124.095 33.7591 127.359 32.4277 127.359 32.4277C127.359 32.4277 126.46 29.0232 123.895 27.7425C121.329 26.4619 118.717 26.4745 118.064 27.7932C117.41 29.1119 118.96 31.1978 121.528 32.4784Z" fill="#57B894"/>
<path opacity="0.3" d="M124.212 30.7465C124.362 30.4446 123.831 29.8743 123.025 29.4725C122.22 29.0707 121.444 28.9896 121.293 29.2914C121.143 29.5932 121.674 30.1636 122.48 30.5654C123.285 30.9672 124.061 31.0483 124.212 30.7465Z" fill="black"/>
<path d="M122.604 44.0116C125.172 45.2923 128.435 43.9609 128.435 43.9609C128.435 43.9609 127.537 40.5564 124.971 39.2757C122.406 37.9951 119.794 38.0077 119.14 39.3264C118.487 40.6451 120.047 42.7437 122.604 44.0116Z" fill="#57B894"/>
<path opacity="0.3" d="M125.289 42.2777C125.439 41.9759 124.908 41.4055 124.103 41.0037C123.297 40.6019 122.521 40.5209 122.371 40.8227C122.22 41.1245 122.751 41.6949 123.557 42.0967C124.363 42.4985 125.138 42.5795 125.289 42.2777Z" fill="black"/>
<path d="M153.102 56.0991H42.2051C40.865 56.0991 39.5798 56.631 38.6322 57.5778C37.6847 58.5247 37.1523 59.8088 37.1523 61.1478V126.096C37.1523 127.435 37.6847 128.719 38.6322 129.666C39.5798 130.613 40.865 131.145 42.2051 131.145H153.102C154.442 131.145 155.728 130.613 156.675 129.666C157.623 128.719 158.155 127.435 158.155 126.096V61.1478C158.155 59.8088 157.623 58.5247 156.675 57.5778C155.728 56.631 154.442 56.0991 153.102 56.0991Z" fill="url(#paint0_linear_3216:2580)"/>
<path d="M151.482 56.9829H43.8225C40.9245 56.9829 38.5752 59.3303 38.5752 62.226V125.019C38.5752 127.914 40.9245 130.262 43.8225 130.262H151.482C154.38 130.262 156.729 127.914 156.729 125.019V62.226C156.729 59.3303 154.38 56.9829 151.482 56.9829Z" fill="#006CB5"/>
<path d="M156.729 69.8062H38.5752V83.2404H156.729V69.8062Z" fill="#006CB5"/>
<path d="M157 76H39V83H157V76Z" fill="white"/>
<path d="M55 93H50V100H55V93Z" fill="white"/>
<path d="M71 109H50V116H71V109Z" fill="white"/>
<path d="M95 109H74V116H95V109Z" fill="white"/>
<path d="M63 93H58V100H63V93Z" fill="white"/>
<path d="M71 93H66V100H71V93Z" fill="white"/>
<path d="M79 93H74V100H79V93Z" fill="white"/>
<path d="M87 93H82V100H87V93Z" fill="white"/>
<path d="M95 93H90V100H95V93Z" fill="white"/>
<path d="M103 93H98V100H103V93Z" fill="white"/>
<path d="M111 93H106V100H111V93Z" fill="white"/>
<path d="M119 93H114V100H119V93Z" fill="white"/>
<path d="M127 93H122V100H127V93Z" fill="white"/>
<path d="M135 93H130V100H135V93Z" fill="white"/>
<path d="M143 93H138V100H143V93Z" fill="white"/>
<g opacity="0.1">
<path opacity="0.1" d="M188.888 132.56V109.525C188.888 109.525 189.19 100.438 190.102 91.4391C191.013 82.4407 187.564 75.5767 187.564 75.5767H187.968C187.968 75.5767 191.405 82.447 190.506 91.4391C189.607 100.431 189.292 109.525 189.292 109.525V132.56C189.292 132.56 183.023 135.288 182.921 135.895C182.921 135.895 182.921 135.759 182.89 135.527C184.256 134.578 188.888 132.56 188.888 132.56Z" fill="black"/>
<path opacity="0.1" d="M168.008 133.054C167.818 133.058 167.629 133.097 167.452 133.168V133.067C167.637 133.048 167.823 133.044 168.008 133.054Z" fill="black"/>
<path opacity="0.1" d="M174.935 131.046C176.149 130.137 175.146 113.871 174.935 110.124C174.723 106.377 177.261 90.4238 177.261 90.4238C177.394 90.5264 177.512 90.6474 177.61 90.7831C177.238 93.1669 175.157 106.72 175.341 110.124C175.552 113.863 176.555 130.129 175.341 131.046L174.33 134.48L173.962 134.357L174.935 131.046Z" fill="black"/>
</g>
</g>
<defs>
<linearGradient id="paint0_linear_3216:2580" x1="97.6537" y1="131.145" x2="97.6537" y2="56.0991" gradientUnits="userSpaceOnUse">
<stop stop-color="#808080" stop-opacity="0.25"/>
<stop offset="0.54" stop-color="#808080" stop-opacity="0.12"/>
<stop offset="1" stop-color="#808080" stop-opacity="0.1"/>
</linearGradient>
<clipPath id="clip0_3216:2580">
<rect width="206" height="151" fill="white"/>
</clipPath>
</defs>
</svg>
