<svg width="385" height="296" viewBox="0 0 385 296" fill="none" xmlns="http://www.w3.org/2000/svg">
<rect width="385" height="296" fill="white"/>
<g clip-path="url(#clip0_3613_4123)">
<path opacity="0.1" d="M378.903 194.881C369.974 213.265 351.843 225.557 333.052 233.664C307.756 244.581 279.898 248.911 252.424 247.08C247.609 246.76 242.809 246.249 238.023 245.547C221.402 243.127 205.198 238.418 189.873 231.554C185.451 229.566 181.118 227.396 176.874 225.044C169.786 221.123 162.995 216.691 156.555 211.782C154.935 210.548 153.337 209.282 151.762 207.985C150.67 207.086 149.588 206.167 148.489 205.275C146.17 203.394 143.784 201.606 141.122 200.268C140.319 199.864 139.496 199.501 138.655 199.181C130.226 195.981 120.507 197.189 111.732 199.684C105.058 201.582 98.5511 204.182 91.8834 206.037C88.9175 206.887 85.8955 207.528 82.8395 207.955C76.0167 208.817 69.0881 208.21 62.5203 206.174L61.9591 206C61.018 205.705 60.0849 205.381 59.1595 205.03L58.5983 204.816C57.7021 204.471 56.8249 204.101 55.9668 203.706L55.4055 203.451C54.5093 203.035 53.6322 202.595 52.7741 202.133C52.4649 201.972 52.159 201.797 51.8566 201.633C46.9743 198.911 42.5363 195.463 38.6958 191.406C38.5849 191.296 38.4807 191.182 38.3597 191.071C37.8253 190.494 37.3011 189.907 36.7936 189.307C36.6054 189.085 36.4172 188.864 36.2323 188.636C35.6296 187.903 35.0482 187.152 34.4881 186.385C34.4041 186.275 34.3234 186.161 34.2428 186.05C31.9479 182.882 30.0453 179.448 28.5765 175.824C28.5294 175.713 28.4858 175.599 28.4454 175.488C27.9973 174.337 27.5884 173.166 27.2187 171.976C27.0675 171.48 26.923 170.97 26.7953 170.474C26.7516 170.326 26.7113 170.175 26.6743 170.028C24.8191 162.739 24.6074 155.163 24.6074 147.63C24.6074 146.751 24.6074 145.873 24.6074 144.997C24.6612 132.812 24.8494 120.418 26.6508 108.401C26.6508 108.317 26.6743 108.233 26.6877 108.153C27.2906 104.107 28.1107 100.097 29.1445 96.1386C30.2264 91.9856 31.609 87.9165 33.2816 83.9634C37.4254 74.2368 43.4513 65.3855 50.1426 57.1815C66.9969 36.5375 89.1007 19.2072 114.972 12.7206C142.85 5.73412 173.832 12.4288 196.319 30.2957C203.175 35.7426 209.336 42.1924 217.035 46.3682C223.757 50.0039 231.624 51.5099 238.823 48.6489C244.772 46.2843 248.643 45.1104 255.324 45.4693C269.156 46.2502 282.792 49.1005 295.775 53.9248C296.299 54.116 296.823 54.3138 297.344 54.5117C331.191 67.4348 360.285 93.1099 375.408 126.103C375.809 126.975 376.198 127.854 376.574 128.74C385.591 149.759 388.851 174.395 378.903 194.881Z" fill="#006CB5"/>
<path opacity="0.1" d="M40.4306 259.201C56.8163 259.201 70.0995 257.072 70.0995 254.445C70.0995 251.818 56.8163 249.689 40.4306 249.689C24.0449 249.689 10.7617 251.818 10.7617 254.445C10.7617 257.072 24.0449 259.201 40.4306 259.201Z" fill="#6C63FF"/>
<path d="M354.218 46.1396H43.2289C40.9106 46.1396 39.0312 48.0152 39.0312 50.3288V222.508C39.0312 224.821 40.9106 226.697 43.2289 226.697H354.218C356.536 226.697 358.416 224.821 358.416 222.508V50.3288C358.416 48.0152 356.536 46.1396 354.218 46.1396Z" fill="url(#paint0_linear_3613_4123)"/>
<path d="M353.748 48.6787H43.7367C41.4184 48.6787 39.5391 50.5543 39.5391 52.8679V221.907C39.5391 224.221 41.4184 226.097 43.7367 226.097H353.748C356.066 226.097 357.945 224.221 357.945 221.907V52.8679C357.945 50.5543 356.066 48.6787 353.748 48.6787Z" fill="white"/>
<path d="M353.748 48.6787H43.7367C41.4184 48.6787 39.5391 50.5543 39.5391 52.8679V221.907C39.5391 224.221 41.4184 226.097 43.7367 226.097H353.748C356.066 226.097 357.945 224.221 357.945 221.907V52.8679C357.945 50.5543 356.066 48.6787 353.748 48.6787Z" fill="white"/>
<path opacity="0.04" d="M353.748 48.6787H43.7367C41.4184 48.6787 39.5391 50.5543 39.5391 52.8679V221.907C39.5391 224.221 41.4184 226.097 43.7367 226.097H353.748C356.066 226.097 357.945 224.221 357.945 221.907V52.8679C357.945 50.5543 356.066 48.6787 353.748 48.6787Z" fill="white"/>
<path d="M356.329 46.6431H41.1556C40.7269 46.6431 40.3157 46.813 40.0125 47.1156C39.7094 47.4181 39.5391 47.8285 39.5391 48.2564V55.0751H357.932V48.2564C357.932 47.8308 357.763 47.4225 357.463 47.1203C357.163 46.8181 356.755 46.6466 356.329 46.6431Z" fill="#5A5773"/>
<path d="M45.8974 53.0389C47.1039 53.0389 48.0819 52.0629 48.0819 50.8588C48.0819 49.6548 47.1039 48.6787 45.8974 48.6787C44.6909 48.6787 43.7129 49.6548 43.7129 50.8588C43.7129 52.0629 44.6909 53.0389 45.8974 53.0389Z" fill="white"/>
<path d="M51.7783 53.0389C52.9847 53.0389 53.9628 52.0629 53.9628 50.8588C53.9628 49.6548 52.9847 48.6787 51.7783 48.6787C50.5718 48.6787 49.5938 49.6548 49.5938 50.8588C49.5938 52.0629 50.5718 53.0389 51.7783 53.0389Z" fill="white"/>
<path d="M57.6591 53.0389C58.8656 53.0389 59.8436 52.0629 59.8436 50.8588C59.8436 49.6548 58.8656 48.6787 57.6591 48.6787C56.4526 48.6787 55.4746 49.6548 55.4746 50.8588C55.4746 52.0629 56.4526 53.0389 57.6591 53.0389Z" fill="white"/>
<path opacity="0.2" d="M151.211 70.9321H65.7637V78.1701H151.211V70.9321Z" fill="#006CB5"/>
<path opacity="0.1" d="M331.722 99.9551H65.7637V211.295H331.722V99.9551Z" fill="#5A5773"/>
<path opacity="0.1" d="M221.485 107.216H216.931V98.3886C216.931 88.4272 208.973 80.1461 198.992 79.9951C196.585 79.9699 194.197 80.4203 191.965 81.3203C189.733 82.2204 187.702 83.5523 185.989 85.2393C184.275 86.9264 182.913 88.9351 181.981 91.1499C181.049 93.3647 180.565 95.7416 180.558 98.1438V107.216H176.014C174.006 107.223 172.082 108.021 170.662 109.439C169.242 110.856 168.442 112.776 168.436 114.78V151.077C168.442 153.081 169.242 155.001 170.662 156.418C172.082 157.835 174.006 158.634 176.014 158.64H221.485C223.493 158.634 225.417 157.835 226.836 156.418C228.256 155.001 229.055 153.081 229.061 151.077V114.78C229.055 112.776 228.256 110.856 226.836 109.439C225.417 108.022 223.493 107.223 221.485 107.216ZM201.405 130.812V143.812C201.409 144.501 201.151 145.165 200.683 145.671C200.215 146.176 199.572 146.486 198.884 146.536C198.525 146.552 198.166 146.496 197.829 146.371C197.493 146.245 197.185 146.053 196.925 145.805C196.665 145.557 196.457 145.26 196.316 144.93C196.174 144.6 196.101 144.245 196.101 143.886V130.805C194.872 130.207 193.882 129.21 193.293 127.978C192.704 126.746 192.551 125.351 192.859 124.021C193.166 122.691 193.917 121.504 194.987 120.654C196.058 119.804 197.385 119.342 198.753 119.342C200.121 119.342 201.448 119.804 202.519 120.654C203.589 121.504 204.34 122.691 204.647 124.021C204.955 125.351 204.802 126.746 204.213 127.978C203.624 129.21 202.634 130.207 201.405 130.805V130.812ZM211.635 107.216H185.861V98.1438C185.861 94.7342 187.218 91.4642 189.634 89.0532C192.05 86.6423 195.327 85.2878 198.743 85.2878C202.159 85.2878 205.436 86.6423 207.852 89.0532C210.268 91.4642 211.625 94.7342 211.625 98.1438L211.635 107.216Z" fill="black"/>
<path d="M221.485 106.546H216.931V97.7177C216.931 87.7563 208.973 79.4752 198.992 79.3242C196.585 79.299 194.197 79.7494 191.965 80.6494C189.733 81.5495 187.702 82.8814 185.989 84.5684C184.275 86.2555 182.913 88.2642 181.981 90.479C181.049 92.6938 180.565 95.0707 180.558 97.4729V106.546H176.014C174.006 106.552 172.082 107.351 170.662 108.768C169.242 110.185 168.442 112.105 168.436 114.109V150.406C168.442 152.41 169.242 154.33 170.662 155.747C172.082 157.164 174.006 157.963 176.014 157.969H221.485C223.493 157.963 225.417 157.164 226.836 155.747C228.256 154.33 229.055 152.41 229.061 150.406V114.109C229.055 112.105 228.256 110.185 226.836 108.768C225.417 107.351 223.493 106.552 221.485 106.546ZM201.405 130.141V143.141C201.409 143.83 201.151 144.494 200.683 145C200.215 145.505 199.572 145.815 198.884 145.865C198.525 145.882 198.166 145.825 197.829 145.7C197.493 145.574 197.185 145.382 196.925 145.134C196.665 144.886 196.457 144.589 196.316 144.259C196.174 143.929 196.101 143.574 196.101 143.215V130.134C194.872 129.536 193.882 128.539 193.293 127.307C192.704 126.075 192.551 124.68 192.859 123.35C193.166 122.02 193.917 120.833 194.987 119.983C196.058 119.133 197.385 118.671 198.753 118.671C200.121 118.671 201.448 119.133 202.519 119.983C203.589 120.833 204.34 122.02 204.647 123.35C204.955 124.68 204.802 126.075 204.213 127.307C203.624 128.539 202.634 129.536 201.405 130.134V130.141ZM211.635 106.546H185.861V97.4729C185.861 94.0633 187.218 90.7933 189.634 88.3823C192.05 85.9714 195.327 84.6169 198.743 84.6169C202.159 84.6169 205.436 85.9714 207.852 88.3823C210.268 90.7933 211.625 94.0633 211.625 97.4729L211.635 106.546Z" fill="#006CB5"/>
<path opacity="0.1" d="M331.723 89.2388H304.803V95.5812H331.723V89.2388Z" fill="#5A5773"/>
<path opacity="0.1" d="M290.505 161.958C290.48 162.409 290.416 162.858 290.313 163.299C290.313 163.175 290.313 163.105 290.286 163.095C290.185 163.068 290.306 162.555 290.505 161.958Z" fill="black"/>
<g opacity="0.1">
<path opacity="0.1" d="M301.327 110.292C301.152 111.114 300.571 112.046 299.734 111.945C299.475 111.912 299.24 111.781 298.984 111.724C298.282 111.57 297.865 112.227 297.203 112.059C296.874 111.965 296.568 111.805 296.303 111.589C296.039 111.373 295.821 111.105 295.664 110.802C295.488 110.46 295.382 110.087 295.351 109.705C295.284 110.299 295.393 110.899 295.664 111.432C295.821 111.735 296.039 112.003 296.303 112.219C296.568 112.436 296.874 112.596 297.203 112.69C297.875 112.844 298.282 112.187 298.984 112.355C299.23 112.44 299.48 112.513 299.734 112.573C300.571 112.677 301.152 111.744 301.327 110.922C301.465 110.196 301.519 109.457 301.488 108.719C301.485 109.247 301.431 109.774 301.327 110.292Z" fill="black"/>
<path opacity="0.1" d="M296.723 105.24C296.766 104.691 296.691 104.138 296.502 103.62C296.349 103.276 296.22 102.922 296.115 102.561C296.101 102.617 296.089 102.674 296.081 102.732C296.024 103.258 296.32 103.738 296.502 104.251C296.619 104.57 296.693 104.902 296.723 105.24Z" fill="black"/>
<path opacity="0.1" d="M322.399 103.473C322.241 104.425 321.468 105.321 321.391 106.324C321.372 106.495 321.372 106.668 321.391 106.84C321.559 105.67 322.597 104.633 322.399 103.473Z" fill="black"/>
<path opacity="0.1" d="M322.456 110.55C322.427 110.69 322.361 110.82 322.264 110.925C322.015 111.19 321.592 111.211 321.256 111.341C320.439 111.653 319.912 112.639 319.024 112.629C318.797 112.616 318.579 112.535 318.399 112.396C318.219 112.257 318.086 112.067 318.016 111.851C317.996 111.924 317.98 111.998 317.969 112.073C317.96 112.219 317.979 112.367 318.027 112.506C318.075 112.645 318.15 112.773 318.248 112.883C318.346 112.994 318.464 113.083 318.597 113.147C318.73 113.211 318.874 113.248 319.021 113.256C319.898 113.256 320.436 112.28 321.253 111.972C321.589 111.841 321.999 111.821 322.261 111.556C322.359 111.429 322.429 111.281 322.465 111.124C322.501 110.967 322.503 110.805 322.469 110.647C322.466 110.607 322.459 110.58 322.456 110.55Z" fill="black"/>
<path opacity="0.1" d="M318.242 110.272C318.158 109.661 317.419 109.413 317.029 108.93C316.79 108.613 316.66 108.227 316.659 107.83C316.633 108.454 316.643 109.091 317.029 109.561C317.416 110.03 318.004 110.232 318.192 110.715C318.239 110.572 318.257 110.421 318.242 110.272Z" fill="black"/>
</g>
<g opacity="0.1">
<path opacity="0.1" d="M300.128 110.272C300.147 109.715 300.347 109.18 300.697 108.746C301.048 108.312 301.529 108.004 302.07 107.867C303.569 107.501 305.141 107.572 306.601 108.072C309.79 109.125 306.197 112.915 306.197 112.915C306.197 112.915 303.808 115.263 301.58 113.622C300.922 113.126 300.461 112.413 300.279 111.61C300.17 111.173 300.119 110.723 300.128 110.272Z" fill="black"/>
<path opacity="0.1" d="M306 107.763V107.921H311.824V107.733L306 107.763Z" fill="black"/>
<path opacity="0.1" d="M307.859 109.443H308.043V108.91C308.043 108.91 308.635 108.45 309.616 108.91V109.386H309.952V109.074H309.788C309.788 109.074 309.855 108.427 308.759 108.531C308.759 108.531 307.879 108.447 307.899 109.004H307.697L307.859 109.443Z" fill="black"/>
</g>
<path d="M41.3855 163.343H39.4766V206.241H41.3855V163.343Z" fill="#535461"/>
<path d="M53.3827 206.11L53.2617 208.042L53.0936 210.769L53.0231 211.906L52.855 214.636L52.7811 215.773L52.6131 218.5L50.6873 249.514C50.6052 250.849 50.016 252.102 49.0399 253.018C48.0639 253.935 46.7744 254.445 45.4344 254.445H35.4261C34.0865 254.445 32.7974 253.934 31.8219 253.018C30.8463 252.102 30.2579 250.849 30.1765 249.514L28.2407 218.5L28.0727 215.773L28.0021 214.636L27.8374 211.899L27.7669 210.762L27.5988 208.035L27.4778 206.103C27.4549 205.732 27.5083 205.361 27.6347 205.011C27.7612 204.662 27.958 204.342 28.2131 204.072C28.4681 203.801 28.776 203.585 29.1177 203.438C29.4595 203.291 29.8278 203.215 30.2001 203.215H50.6638C51.0365 203.215 51.4053 203.291 51.7474 203.439C52.0894 203.586 52.3974 203.803 52.6523 204.074C52.9072 204.345 53.1036 204.666 53.2292 205.016C53.3548 205.367 53.4071 205.739 53.3827 206.11Z" fill="#3F3D56"/>
<path d="M53.2619 208.042L53.0939 210.768H27.7637L27.5957 208.042H53.2619Z" fill="#9D9CB5"/>
<path d="M53.023 211.906L52.8549 214.636H28.0054L27.834 211.906H53.023Z" fill="#9D9CB5"/>
<path d="M52.7812 215.772L52.6132 218.499H28.2476L28.0762 215.772H52.7812Z" fill="#9D9CB5"/>
<path d="M24.6821 179.422C35.7995 187.448 40.4307 200.005 40.4307 200.005C40.4307 200.005 27.0313 199.546 15.897 191.52C4.76278 183.494 0.148438 170.936 0.148438 170.936C0.148438 170.936 13.5613 171.396 24.6821 179.422Z" fill="#57B894"/>
<path d="M0.164062 170.936C0.164062 170.936 14.0709 178.65 18.5307 185.023C22.9904 191.396 40.4295 200.009 40.4295 200.009" stroke="#535461" stroke-width="2" stroke-miterlimit="10"/>
<path d="M31.8559 163.266C37.9053 167.626 40.4293 174.468 40.4293 174.468C40.4293 174.468 33.1364 174.22 27.0836 169.85C21.0309 165.48 18.5137 158.647 18.5137 158.647C18.5137 158.647 25.8065 158.879 31.8559 163.266Z" fill="#57B894"/>
<path d="M18.5137 158.63C18.5137 158.63 26.0821 162.823 28.5086 166.294C30.9351 169.766 40.4293 174.451 40.4293 174.451" stroke="#535461" stroke-width="2" stroke-miterlimit="10"/>
<path d="M49.2248 174.106C42.2714 181.729 40.8027 191.691 40.8027 191.691C40.8027 191.691 50.6027 189.293 57.5528 181.669C64.5029 174.045 65.9749 164.081 65.9749 164.081C65.9749 164.081 56.1749 166.479 49.2248 174.106Z" fill="#57B894"/>
<path d="M65.9749 164.081C65.9749 164.081 56.921 171.895 54.6189 177.282C52.3167 182.669 40.8027 191.704 40.8027 191.704" stroke="#535461" stroke-width="2" stroke-miterlimit="10"/>
</g>
<defs>
<linearGradient id="paint0_linear_3613_4123" x1="198.722" y1="226.697" x2="198.722" y2="46.1396" gradientUnits="userSpaceOnUse">
<stop stop-color="#808080" stop-opacity="0.25"/>
<stop offset="0.54" stop-color="#808080" stop-opacity="0.12"/>
<stop offset="1" stop-color="#808080" stop-opacity="0.1"/>
</linearGradient>
<clipPath id="clip0_3613_4123">
<rect width="385" height="275" fill="white" transform="translate(0 10)"/>
</clipPath>
</defs>
</svg>
