<svg width="200" height="141" viewBox="0 0 200 141" fill="none" xmlns="http://www.w3.org/2000/svg">
<path d="M36.6456 88.428H165.457C166.337 88.427 167.18 88.0754 167.801 87.4502C168.423 86.8251 168.773 85.9775 168.774 85.0934V5.23357C168.773 4.58587 168.517 3.96491 168.061 3.50691C167.606 3.04891 166.988 2.79127 166.344 2.79053H35.8008C35.1454 2.79128 34.5172 3.05336 34.0538 3.51928C33.5904 3.9852 33.3297 4.6169 33.329 5.2758V85.0934C33.33 85.9775 33.6797 86.8251 34.3015 87.4502C34.9232 88.0754 35.7663 88.427 36.6456 88.428Z" fill="#F2F2F2"/>
<path d="M41.3443 83.7045H161.393C163.153 83.7045 164.585 82.3565 164.585 80.6997V11.1567C164.585 9.92796 163.524 8.92822 162.22 8.92822H40.5569C39.2313 8.92822 38.1528 9.94444 38.1528 11.1934V80.6997C38.1528 82.3565 39.5845 83.7045 41.3443 83.7045Z" fill="white"/>
<path d="M33.375 5.04239H168.82V3.34468C168.819 2.45765 168.468 1.60735 167.844 0.980319C167.22 0.353287 166.374 0.000732836 165.492 0H36.7037C35.8214 0.000728565 34.9755 0.353281 34.3515 0.980314C33.7275 1.60735 33.3763 2.45765 33.375 3.34468V5.04239Z" fill="#CCCCCC"/>
<path d="M162.771 3.39199C162.295 3.39199 161.91 3.00441 161.91 2.52632C161.91 2.04822 162.295 1.66064 162.771 1.66064C163.246 1.66064 163.632 2.04822 163.632 2.52632C163.632 3.00441 163.246 3.39199 162.771 3.39199Z" fill="white"/>
<path d="M159.503 3.39199C159.027 3.39199 158.642 3.00441 158.642 2.52632C158.642 2.04822 159.027 1.66064 159.503 1.66064C159.978 1.66064 160.364 2.04822 160.364 2.52632C160.364 3.00441 159.978 3.39199 159.503 3.39199Z" fill="white"/>
<path d="M156.235 3.39199C155.759 3.39199 155.374 3.00441 155.374 2.52632C155.374 2.04822 155.759 1.66064 156.235 1.66064C156.71 1.66064 157.096 2.04822 157.096 2.52632C157.096 3.00441 156.71 3.39199 156.235 3.39199Z" fill="white"/>
<path d="M54.5584 72.042H147.591C148.524 72.041 149.418 71.668 150.077 71.005C150.737 70.342 151.108 69.443 151.109 68.5053V23.4064C151.108 22.7051 150.831 22.0328 150.338 21.5369C149.844 21.041 149.176 20.762 148.478 20.7612H53.7136C53.005 20.762 52.3256 21.0454 51.8246 21.5492C51.3235 22.0531 51.0416 22.7361 51.0408 23.4486V68.5053C51.0419 69.443 51.4128 70.342 52.0723 71.005C52.7317 71.668 53.6258 72.041 54.5584 72.042ZM148.478 21.1654C149.069 21.1661 149.636 21.4024 150.053 21.8225C150.471 22.2427 150.706 22.8123 150.707 23.4064V68.5053C150.706 69.3358 150.377 70.1321 149.793 70.7193C149.209 71.3066 148.417 71.6369 147.591 71.6378H54.5584C53.7324 71.6369 52.9405 71.3066 52.3564 70.7193C51.7723 70.1321 51.4438 69.3358 51.4429 68.5053V23.4486C51.4435 22.8433 51.683 22.2629 52.1087 21.8349C52.5344 21.4069 53.1116 21.1661 53.7136 21.1654H148.478Z" fill="#CCCCCC"/>
<path d="M144.375 68.5045H57.7745C56.9216 68.5045 56.1036 68.1638 55.5004 67.5574C54.8973 66.951 54.5584 66.1286 54.5584 65.271V27.57C54.5584 26.7124 54.8973 25.8899 55.5004 25.2835C56.1036 24.6771 56.9216 24.3364 57.7745 24.3364H144.375C145.228 24.3364 146.046 24.6771 146.649 25.2835C147.252 25.8899 147.591 26.7124 147.591 27.57V65.271C147.591 66.1286 147.252 66.951 146.649 67.5574C146.046 68.1638 145.228 68.5045 144.375 68.5045Z" fill="#F2F2F2"/>
<path d="M134.542 35.3052C133.543 35.3052 132.733 34.4909 132.733 33.4864C132.733 32.4818 133.543 31.6675 134.542 31.6675C135.541 31.6675 136.351 32.4818 136.351 33.4864C136.351 34.4909 135.541 35.3052 134.542 35.3052Z" fill="#CCCCCC"/>
<path d="M134.542 42.1768C133.543 42.1768 132.733 41.3625 132.733 40.3579C132.733 39.3534 133.543 38.5391 134.542 38.5391C135.541 38.5391 136.351 39.3534 136.351 40.3579C136.351 41.3625 135.541 42.1768 134.542 42.1768Z" fill="#CCCCCC"/>
<path d="M134.542 49.0484C133.543 49.0484 132.733 48.2341 132.733 47.2295C132.733 46.225 133.543 45.4106 134.542 45.4106C135.541 45.4106 136.351 46.225 136.351 47.2295C136.351 48.2341 135.541 49.0484 134.542 49.0484Z" fill="#CCCCCC"/>
<path d="M134.542 55.9195C133.543 55.9195 132.733 55.1052 132.733 54.1006C132.733 53.0961 133.543 52.2817 134.542 52.2817C135.541 52.2817 136.351 53.0961 136.351 54.1006C136.351 55.1052 135.541 55.9195 134.542 55.9195Z" fill="#CCCCCC"/>
<path d="M65.9993 33.6889H125.497C125.55 33.6889 125.601 33.6676 125.639 33.6297C125.677 33.5918 125.698 33.5404 125.698 33.4868C125.698 33.4332 125.677 33.3818 125.639 33.3439C125.601 33.306 125.55 33.2847 125.497 33.2847H65.9993C65.946 33.2847 65.8948 33.306 65.8571 33.3439C65.8194 33.3818 65.7983 33.4332 65.7983 33.4868C65.7983 33.5404 65.8194 33.5918 65.8571 33.6297C65.8948 33.6676 65.946 33.6889 65.9993 33.6889Z" fill="#CCCCCC"/>
<path d="M65.9993 40.5599H125.497C125.55 40.5599 125.601 40.5387 125.639 40.5008C125.677 40.4629 125.698 40.4115 125.698 40.3579C125.698 40.3043 125.677 40.2529 125.639 40.215C125.601 40.1771 125.55 40.1558 125.497 40.1558H65.9993C65.946 40.1558 65.8948 40.1771 65.8571 40.215C65.8194 40.2529 65.7983 40.3043 65.7983 40.3579C65.7983 40.4115 65.8194 40.4629 65.8571 40.5008C65.8948 40.5387 65.946 40.5599 65.9993 40.5599Z" fill="#CCCCCC"/>
<path d="M65.9993 47.4315H125.497C125.55 47.4315 125.601 47.4103 125.639 47.3724C125.677 47.3345 125.698 47.283 125.698 47.2294C125.698 47.1758 125.677 47.1244 125.639 47.0865C125.601 47.0486 125.55 47.0273 125.497 47.0273H65.9993C65.946 47.0273 65.8948 47.0486 65.8571 47.0865C65.8194 47.1244 65.7983 47.1758 65.7983 47.2294C65.7983 47.283 65.8194 47.3345 65.8571 47.3724C65.8948 47.4103 65.946 47.4315 65.9993 47.4315Z" fill="#CCCCCC"/>
<path d="M65.9993 54.3026H125.497C125.55 54.3026 125.601 54.2813 125.639 54.2434C125.677 54.2055 125.698 54.1541 125.698 54.1005C125.698 54.0469 125.677 53.9955 125.639 53.9576C125.601 53.9197 125.55 53.8984 125.497 53.8984H65.9993C65.946 53.8984 65.8948 53.9197 65.8571 53.9576C65.8194 53.9955 65.7983 54.0469 65.7983 54.1005C65.7983 54.1541 65.8194 54.2055 65.8571 54.2434C65.8948 54.2813 65.946 54.3026 65.9993 54.3026Z" fill="#CCCCCC"/>
<path d="M114.241 61.1739H120.07C120.336 61.1736 120.592 61.067 120.78 60.8776C120.968 60.6882 121.074 60.4313 121.075 60.1634V54.7068C121.074 54.4389 120.968 54.182 120.78 53.9926C120.592 53.8032 120.336 53.6966 120.07 53.6963H114.241C113.974 53.6966 113.719 53.8032 113.53 53.9926C113.342 54.182 113.236 54.4389 113.236 54.7068V60.1634C113.236 60.4313 113.342 60.6882 113.53 60.8776C113.719 61.067 113.974 61.1736 114.241 61.1739Z" fill="#006CB5"/>
<path d="M101.175 61.1742H107.004C107.271 61.1739 107.526 61.0673 107.715 60.8779C107.903 60.6884 108.009 60.4316 108.009 60.1637V47.8357C108.009 47.5678 107.903 47.3109 107.715 47.1215C107.526 46.9321 107.271 46.8255 107.004 46.8252H101.175C100.909 46.8255 100.653 46.9321 100.465 47.1215C100.276 47.3109 100.17 47.5678 100.17 47.8357V60.1637C100.17 60.4316 100.276 60.6884 100.465 60.8779C100.653 61.0673 100.909 61.1739 101.175 61.1742Z" fill="#006CB5"/>
<path d="M87.909 61.1739H93.7381C94.0046 61.1736 94.2601 61.0671 94.4485 60.8776C94.6369 60.6882 94.7429 60.4313 94.7432 60.1634V40.9641C94.7429 40.6962 94.6369 40.4394 94.4485 40.2499C94.2601 40.0605 94.0046 39.9539 93.7381 39.9536H87.909C87.6425 39.9539 87.3871 40.0605 87.1987 40.2499C87.0103 40.4394 86.9043 40.6962 86.904 40.9641V60.1634C86.9043 60.4313 87.0103 60.6882 87.1987 60.8776C87.3871 61.0671 87.6425 61.1736 87.909 61.1739Z" fill="#006CB5"/>
<path d="M74.2405 61.1742H80.0697C80.3361 61.1739 80.5916 61.0673 80.78 60.8779C80.9684 60.6885 81.0744 60.4316 81.0747 60.1637V34.2952C81.0744 34.0273 80.9684 33.7704 80.78 33.581C80.5916 33.3915 80.3361 33.285 80.0697 33.2847H74.2405C73.9741 33.285 73.7186 33.3915 73.5302 33.581C73.3418 33.7704 73.2358 34.0273 73.2355 34.2952V60.1637C73.2358 60.4316 73.3418 60.6885 73.5302 60.8779C73.7186 61.0673 73.9741 61.1739 74.2405 61.1742Z" fill="#006CB5"/>
<path d="M65.9993 61.1742H125.497C125.55 61.1742 125.601 61.1529 125.639 61.115C125.677 61.0771 125.698 61.0257 125.698 60.9721C125.698 60.9185 125.677 60.8671 125.639 60.8292C125.601 60.7913 125.55 60.77 125.497 60.77H65.9993C65.946 60.77 65.8948 60.7913 65.8571 60.8292C65.8194 60.8671 65.7983 60.9185 65.7983 60.9721C65.7983 61.0257 65.8194 61.0771 65.8571 61.115C65.8948 61.1529 65.946 61.1742 65.9993 61.1742Z" fill="#3F3D56"/>
<path d="M39.8587 98.8749C39.6959 98.627 39.4809 98.418 39.229 98.2627C38.9771 98.1074 38.6944 98.0095 38.4008 97.9759C38.1072 97.9423 37.8098 97.9738 37.5297 98.0683C37.2495 98.1627 36.9934 98.3178 36.7793 98.5226L30.3963 95.2104L30.7933 98.9421L36.7938 101.515C37.1597 101.854 37.6366 102.046 38.134 102.055C38.6314 102.064 39.1148 101.889 39.4926 101.564C39.8704 101.238 40.1164 100.785 40.1839 100.289C40.2513 99.7937 40.1356 99.2905 39.8587 98.8749Z" fill="#FFB8B8"/>
<path d="M34.3668 100.266C34.5117 100.152 34.6185 99.9963 34.6731 99.8195L35.1808 98.1705C35.2353 97.9918 35.234 97.8006 35.1769 97.6228C35.1199 97.4449 35.0099 97.2889 34.8618 97.1759L29.6884 93.2471L24.0853 82.7961C23.8507 82.4922 23.5587 82.2378 23.2262 82.0473C22.8938 81.8568 22.5272 81.7341 22.1475 81.686C21.7679 81.638 21.3825 81.6656 21.0134 81.7673C20.6444 81.869 20.2989 82.0428 19.9966 82.2788C19.6944 82.5148 19.4413 82.8083 19.2519 83.1426C19.0624 83.4769 18.9404 83.8454 18.8926 84.2272C18.8448 84.6089 18.8723 84.9964 18.9735 85.3674C19.0747 85.7385 19.2476 86.0859 19.4823 86.3898L22.67 93.1541C23.6371 95.2072 25.3131 96.8373 27.3861 97.741L33.449 100.385C33.5656 100.436 33.6916 100.461 33.8186 100.46C33.9457 100.459 34.071 100.43 34.1865 100.377C34.2507 100.347 34.3113 100.31 34.3668 100.266Z" fill="#3F3D56"/>
<path d="M19.3419 78.4343C16.6153 78.4343 14.405 76.212 14.405 73.4706C14.405 70.7292 16.6153 68.5068 19.3419 68.5068C22.0685 68.5068 24.2788 70.7292 24.2788 73.4706C24.2788 76.212 22.0685 78.4343 19.3419 78.4343Z" fill="#FFB8B8"/>
<path d="M21.3443 138.587L23.8084 138.587L24.9805 129.03L21.3433 129.03L21.3443 138.587Z" fill="#FFB8B8"/>
<path d="M25.5687 137.878H20.8162V140.887H28.561C28.561 140.491 28.4836 140.1 28.3333 139.735C28.1829 139.37 27.9625 139.039 27.6846 138.759C27.4067 138.48 27.0769 138.258 26.7138 138.107C26.3508 137.956 25.9617 137.878 25.5687 137.878Z" fill="#2F2E41"/>
<path d="M13.3042 138.587L15.7684 138.586L16.9404 129.029L13.3032 129.03L13.3042 138.587Z" fill="#FFB8B8"/>
<path d="M17.5287 137.878H12.7762V140.887H20.521C20.521 140.492 20.4436 140.101 20.2932 139.736C20.1428 139.371 19.9224 139.039 19.6446 138.76C19.3667 138.48 19.0368 138.259 18.6738 138.107C18.3107 137.956 17.9216 137.878 17.5287 137.878Z" fill="#2F2E41"/>
<path d="M13.1241 136.162L16.0119 136.162C16.2107 136.161 16.4039 136.095 16.5617 135.974C16.7195 135.852 16.8332 135.682 16.8852 135.489L21.0419 119.988C21.0484 119.964 21.0635 119.943 21.0845 119.929C21.1054 119.916 21.1305 119.91 21.1551 119.914C21.1797 119.918 21.2019 119.931 21.2174 119.951C21.233 119.97 21.2407 119.995 21.2393 120.02L20.3996 134.721C20.3922 134.851 20.4126 134.981 20.4595 135.103C20.5063 135.224 20.5786 135.334 20.6713 135.425C20.7641 135.515 20.8751 135.585 20.997 135.629C21.1189 135.673 21.2488 135.69 21.3778 135.679L24.6236 135.407C24.8315 135.389 25.027 135.3 25.177 135.154C25.327 135.008 25.4223 134.815 25.4469 134.606L28.4038 103.737L27.2598 104.427L16.5404 102.597L12.2274 135.132C12.2104 135.261 12.2208 135.391 12.2581 135.515C12.2954 135.639 12.3586 135.754 12.4435 135.851C12.5284 135.949 12.633 136.027 12.7504 136.081C12.8678 136.134 12.9952 136.162 13.124 136.162H13.1241Z" fill="#2F2E41"/>
<path d="M24.8185 106.994C26.0012 106.985 27.1597 106.657 28.1736 106.045C28.3299 105.952 28.4545 105.813 28.5311 105.648C28.6077 105.482 28.6328 105.297 28.6031 105.117C28.2261 102.796 26.2545 90.8881 24.4607 84.3964C23.7302 81.7523 22.1147 80.3283 19.6593 80.1638C16.0678 79.9269 12.8754 82.7521 12.543 86.4692C11.9566 93.027 14.3386 102.344 15.39 106.046C15.4308 106.188 15.5058 106.319 15.6085 106.426C15.7112 106.533 15.8385 106.613 15.9791 106.659C16.1198 106.705 16.2695 106.716 16.4152 106.69C16.5609 106.664 16.698 106.603 16.8147 106.512L18.9577 104.836C19.0896 104.734 19.2526 104.683 19.4184 104.69C19.5842 104.696 19.7424 104.762 19.8654 104.874C21.6717 106.493 23.3876 106.994 24.8185 106.994Z" fill="#3F3D56"/>
<path opacity="0.2" d="M17.731 89.6787L15.9222 97.3586L18.5356 103.826L16.7262 97.5607L17.731 89.6787Z" fill="black"/>
<path d="M16.5248 77.5527C16.0856 77.5609 15.6492 77.4815 15.2407 77.3191C15.061 77.2495 14.8744 77.1923 14.6951 77.1226C13.1108 76.5073 12.0671 74.8109 12.0296 73.1037C11.9922 71.3965 12.8714 69.7394 14.1771 68.6474C15.4828 67.5553 17.174 66.9946 18.8674 66.8649C20.6916 66.7251 22.7457 67.1901 23.7651 68.7175C24.0364 69.1241 24.2262 69.6174 24.0655 70.1083C24.0173 70.2564 23.9313 70.3892 23.8161 70.4935C23.3609 70.9007 22.907 70.5945 22.443 70.5675C21.8051 70.5304 21.2323 71.0495 21.0264 71.6576C20.8205 72.2657 20.9112 72.9352 21.0775 73.5554C21.2041 73.9287 21.284 74.3163 21.3152 74.7094C21.3286 74.9065 21.2918 75.1038 21.2081 75.2826C21.1244 75.4614 20.9968 75.6157 20.8371 75.731C20.4386 75.9732 19.9152 75.8331 19.5163 75.5913C19.1175 75.3494 18.7729 75.0132 18.3421 74.8352C17.9113 74.6573 17.3326 74.6968 17.0819 75.0914C17.0022 75.235 16.9483 75.3916 16.9226 75.554C16.6978 76.5836 16.7495 76.523 16.5248 77.5527Z" fill="#2F2E41"/>
<path d="M24.1767 131.654L55.0905 120.829C55.6209 120.643 56.0562 120.252 56.3007 119.744C56.5453 119.235 56.5792 118.649 56.395 118.116L48.3617 94.9233C48.2258 94.5325 47.9414 94.2119 47.5708 94.0318C47.2001 93.8516 46.7736 93.8267 46.3846 93.9623L14.4258 105.153C14.0305 105.292 13.7061 105.583 13.5238 105.962C13.3416 106.341 13.3163 106.777 13.4536 107.175L21.4781 130.342C21.6635 130.875 22.0517 131.313 22.5577 131.559C23.0636 131.805 23.6458 131.839 24.1767 131.654Z" fill="#E6E6E6"/>
<path d="M52.4522 119.496L25.4203 128.961C24.9056 129.141 24.3407 129.108 23.8499 128.87C23.3591 128.631 22.9827 128.207 22.8035 127.689L16.3166 108.961C16.1374 108.444 16.1699 107.876 16.4072 107.382C16.6444 106.889 17.0668 106.51 17.5816 106.33L44.6135 96.865C45.1283 96.6847 45.6932 96.7175 46.1839 96.956C46.6747 97.1945 47.0511 97.6192 47.2304 98.1368L53.7172 116.865C53.806 117.121 53.8437 117.392 53.8281 117.663C53.8126 117.934 53.7442 118.199 53.6267 118.444C53.5092 118.688 53.3451 118.906 53.1435 119.087C52.942 119.268 52.7071 119.406 52.4522 119.496Z" fill="white"/>
<path d="M45.664 106.338L47.0028 105.869C47.0753 105.844 47.1349 105.79 47.1683 105.721C47.2018 105.651 47.2064 105.571 47.1812 105.498L46.715 104.152C46.6896 104.079 46.6365 104.019 46.5673 103.986C46.4981 103.952 46.4184 103.947 46.3458 103.973L45.007 104.441C44.9345 104.467 44.8749 104.52 44.8414 104.59C44.808 104.66 44.8034 104.74 44.8286 104.813L45.2948 106.159C45.3202 106.232 45.3733 106.292 45.4425 106.325C45.5117 106.359 45.5914 106.363 45.664 106.338Z" fill="#6C63FF"/>
<path d="M46.8725 109.825L48.2112 109.357C48.2838 109.331 48.3434 109.278 48.3768 109.208C48.4103 109.139 48.4149 109.058 48.3897 108.985L47.9235 107.639C47.8981 107.566 47.845 107.507 47.7758 107.473C47.7066 107.439 47.6269 107.435 47.5543 107.46L46.2155 107.929C46.1429 107.954 46.0834 108.008 46.0499 108.077C46.0165 108.147 46.0118 108.227 46.0371 108.3L46.5033 109.646C46.5287 109.719 46.5818 109.779 46.651 109.812C46.7202 109.846 46.7999 109.851 46.8725 109.825Z" fill="#3F3D56"/>
<path d="M48.0805 113.313L49.4193 112.844C49.4918 112.819 49.5514 112.766 49.5848 112.696C49.6183 112.626 49.6229 112.546 49.5977 112.473L49.1315 111.127C49.1061 111.054 49.053 110.994 48.9838 110.961C48.9146 110.927 48.8349 110.922 48.7623 110.948L47.4235 111.417C47.351 111.442 47.2914 111.495 47.2579 111.565C47.2245 111.635 47.2199 111.715 47.2451 111.788L47.7113 113.134C47.7367 113.207 47.7898 113.267 47.859 113.3C47.9282 113.334 48.0079 113.339 48.0805 113.313Z" fill="#CCCCCC"/>
<path d="M36.6683 108.733L43.1186 106.475C43.1547 106.462 43.1879 106.443 43.2165 106.417C43.245 106.392 43.2683 106.361 43.2849 106.326C43.3015 106.292 43.3113 106.255 43.3135 106.216C43.3157 106.178 43.3104 106.14 43.2978 106.103C43.2853 106.067 43.2658 106.034 43.2404 106.005C43.215 105.977 43.1842 105.953 43.1498 105.937C43.1155 105.92 43.0782 105.91 43.0401 105.908C43.002 105.906 42.9639 105.911 42.9279 105.924L36.4776 108.183C36.4415 108.195 36.4083 108.215 36.3797 108.24C36.3512 108.266 36.328 108.297 36.3113 108.331C36.2947 108.366 36.285 108.403 36.2827 108.441C36.2805 108.48 36.2858 108.518 36.2984 108.554C36.3109 108.59 36.3304 108.624 36.3558 108.652C36.3812 108.681 36.412 108.704 36.4464 108.721C36.4807 108.738 36.518 108.747 36.5561 108.749C36.5942 108.752 36.6323 108.746 36.6683 108.733Z" fill="#CCCCCC"/>
<path d="M37.8766 112.22L44.3269 109.962C44.3995 109.936 44.4591 109.883 44.4926 109.813C44.5261 109.744 44.5306 109.664 44.5054 109.591C44.4801 109.518 44.427 109.458 44.3577 109.424C44.2885 109.39 44.2088 109.386 44.1362 109.411L37.6858 111.67C37.6498 111.682 37.6166 111.702 37.5881 111.727C37.5596 111.753 37.5363 111.784 37.5197 111.818C37.5031 111.853 37.4934 111.89 37.4911 111.928C37.4889 111.967 37.4942 112.005 37.5068 112.041C37.5193 112.077 37.5388 112.111 37.5642 112.139C37.5896 112.168 37.6203 112.191 37.6547 112.208C37.689 112.225 37.7263 112.234 37.7644 112.236C37.8025 112.239 37.8406 112.233 37.8766 112.22Z" fill="#CCCCCC"/>
<path d="M39.0846 115.708L45.5349 113.45C45.6075 113.424 45.6671 113.371 45.7006 113.301C45.7341 113.232 45.7387 113.151 45.7134 113.078C45.6881 113.005 45.635 112.946 45.5657 112.912C45.4965 112.878 45.4168 112.874 45.3442 112.899L38.8939 115.158C38.8213 115.183 38.7617 115.236 38.7282 115.306C38.6947 115.376 38.6901 115.456 38.7154 115.529C38.7407 115.602 38.7938 115.662 38.863 115.695C38.9323 115.729 39.012 115.734 39.0846 115.708Z" fill="#CCCCCC"/>
<path d="M21.9187 117.597C21.8717 117.484 21.8274 117.369 21.7868 117.251C21.2566 115.721 21.3529 114.041 22.0545 112.582C22.756 111.123 24.0054 110.003 25.5278 109.47L27.6479 115.591L21.9187 117.597Z" fill="#006CB5"/>
<path d="M28.2645 115.963L26.1444 109.842C27.2648 109.45 28.475 109.396 29.6256 109.687C30.7762 109.978 31.8171 110.601 32.6197 111.479C33.4223 112.358 33.9517 113.453 34.1425 114.631C34.3334 115.808 34.1773 117.016 33.6936 118.105C33.2099 119.194 32.4197 120.118 31.4204 120.761C30.4211 121.404 29.2565 121.739 28.0701 121.724C26.8838 121.71 25.7276 121.347 24.744 120.68C23.7605 120.012 22.9927 119.07 22.5353 117.97L28.2645 115.963Z" fill="#3F3D56"/>
<path d="M20.6745 107.184C20.6985 106.888 20.6576 106.59 20.5547 106.311C20.4518 106.033 20.2895 105.78 20.0791 105.572C19.8687 105.363 19.6153 105.204 19.3369 105.104C19.0585 105.004 18.7617 104.968 18.4676 104.996L15.478 98.4292L13.4999 101.612L16.6422 107.36C16.7221 107.853 16.9795 108.3 17.3654 108.616C17.7513 108.932 18.239 109.094 18.736 109.072C19.233 109.051 19.7049 108.847 20.0622 108.498C20.4195 108.15 20.6373 107.683 20.6745 107.184Z" fill="#FFB8B8"/>
<path d="M15.4984 104.87C15.6826 104.87 15.8623 104.814 16.0137 104.708L17.4254 103.726C17.5779 103.619 17.6942 103.468 17.7585 103.292C17.8228 103.117 17.832 102.926 17.7848 102.745L16.1255 96.4438L18.1313 84.7438C18.1336 84.3588 18.0604 83.9771 17.9159 83.6205C17.7714 83.2639 17.5584 82.9395 17.2891 82.6658C17.0198 82.392 16.6994 82.1744 16.3464 82.0252C15.9933 81.876 15.6145 81.7983 15.2316 81.7964C14.8486 81.7946 14.4691 81.8686 14.1146 82.0143C13.7602 82.1601 13.4377 82.3746 13.1658 82.6457C12.8939 82.9168 12.6778 83.2392 12.5298 83.5943C12.3819 83.9494 12.305 84.3304 12.3036 84.7154L10.66 92.0159C10.1609 94.2316 10.4792 96.5541 11.5557 98.5515L14.7035 104.394C14.7641 104.506 14.8475 104.604 14.9483 104.682C15.0492 104.76 15.1651 104.815 15.2887 104.845C15.3574 104.862 15.4278 104.87 15.4984 104.87Z" fill="#3F3D56"/>
<path d="M0.200809 140.999H38.3918C38.4451 140.999 38.4962 140.978 38.5339 140.94C38.5716 140.902 38.5928 140.851 38.5928 140.797C38.5928 140.744 38.5716 140.692 38.5339 140.654C38.4962 140.617 38.4451 140.595 38.3918 140.595H0.200809C0.147499 140.595 0.0963631 140.617 0.0586662 140.654C0.0209694 140.692 -0.000198364 140.744 -0.000198364 140.797C-0.000198364 140.851 0.0209694 140.902 0.0586662 140.94C0.0963631 140.978 0.147499 140.999 0.200809 140.999Z" fill="#CCCCCC"/>
<path d="M101.399 138.486L98.9347 138.485L97.7624 128.929H101.399L101.399 138.486Z" fill="#A0616A"/>
<path d="M102.027 137.676L97.1743 137.676H97.1741C96.768 137.676 96.3658 137.756 95.9906 137.912C95.6153 138.069 95.2744 138.298 94.9872 138.587C94.7 138.875 94.4722 139.218 94.3168 139.595C94.1614 139.973 94.0814 140.377 94.0814 140.785V140.886L102.027 140.887L102.027 137.676Z" fill="#2F2E41"/>
<path d="M111.248 138.486L108.784 138.485L107.612 128.929H111.249L111.248 138.486Z" fill="#A0616A"/>
<path d="M111.876 137.676L107.023 137.676H107.023C106.617 137.676 106.215 137.756 105.84 137.912C105.464 138.069 105.124 138.298 104.836 138.587C104.549 138.875 104.321 139.218 104.166 139.595C104.01 139.973 103.93 140.377 103.93 140.785V140.886L111.876 140.887L111.876 137.676Z" fill="#2F2E41"/>
<path d="M100.907 72.322C98.1803 72.322 95.9699 70.0997 95.9699 67.3583C95.9699 64.6169 98.1803 62.3945 100.907 62.3945C103.633 62.3945 105.844 64.6169 105.844 67.3583C105.844 70.0997 103.633 72.322 100.907 72.322Z" fill="#A0616A"/>
<path d="M97.5872 136.423H102.16C102.28 136.423 102.398 136.399 102.509 136.352C102.619 136.306 102.719 136.238 102.804 136.152C102.888 136.067 102.954 135.965 102.999 135.854C103.044 135.742 103.066 135.623 103.065 135.502L102.799 113.669C102.798 113.592 102.827 113.517 102.879 113.46C102.931 113.403 103.003 113.368 103.08 113.363C103.157 113.358 103.233 113.383 103.293 113.432C103.352 113.481 103.39 113.552 103.4 113.629L106.061 135.623C106.088 135.844 106.194 136.047 106.359 136.194C106.525 136.341 106.738 136.423 106.959 136.423H111.576C111.701 136.423 111.824 136.397 111.938 136.347C112.053 136.296 112.155 136.223 112.24 136.131C112.325 136.039 112.39 135.93 112.43 135.812C112.471 135.693 112.487 135.568 112.478 135.442L109.429 96.2203L109.346 96.2112L94.7473 94.626L96.6836 135.557C96.6944 135.79 96.7944 136.01 96.9626 136.172C97.1309 136.333 97.3546 136.423 97.5872 136.423Z" fill="#2F2E41"/>
<path d="M109.251 98.6281C109.485 98.6276 109.711 98.5354 109.879 98.371C110.047 98.2067 110.145 97.983 110.152 97.7473C110.232 95.2672 110.368 86.686 108.781 80.386C108.348 78.665 107.375 77.1298 106.007 76.0074C104.639 74.8851 102.948 74.235 101.184 74.1535C99.4483 74.0582 97.7265 74.5149 96.2631 75.459C94.7998 76.403 93.6693 77.7863 93.0319 79.4128C90.3635 86.2241 87.8424 94.6199 90.9855 95.9367C95.1051 97.6624 105.965 98.4317 109.195 98.6263C109.214 98.6275 109.233 98.6281 109.251 98.6281Z" fill="#3F3D56"/>
<path d="M90.3827 62.3418C90.3051 62.422 90.2214 62.4958 90.1323 62.5627L90.6505 72.5719L92.8062 73.6815L91.5658 77.1713L87.5598 75.5798C87.2362 75.4512 86.9628 75.2206 86.7806 74.9225C86.5985 74.6244 86.5174 74.2749 86.5496 73.9265L87.5991 62.5728C87.2557 62.3151 86.9984 61.9585 86.8615 61.5503C86.7246 61.1421 86.7145 60.7016 86.8326 60.2875C86.9508 59.8734 87.1915 59.5053 87.5228 59.2321C87.8541 58.9589 88.2603 58.7936 88.6873 58.7582C89.1144 58.7227 89.542 58.8189 89.9133 59.0338C90.2847 59.2487 90.5822 59.5721 90.7662 59.9612C90.9503 60.3502 91.0122 60.7864 90.9437 61.2116C90.8752 61.6369 90.6795 62.0311 90.3827 62.3418Z" fill="#A0616A"/>
<path d="M90.6092 72.9445L89.0928 77.2772C89.0497 77.4005 89.0335 77.5317 89.0453 77.6618C89.0571 77.792 89.0967 77.918 89.1614 78.0314C89.226 78.1448 89.3142 78.2428 89.4199 78.3188C89.5256 78.3949 89.6464 78.4471 89.774 78.4719L94.2455 79.3425C94.8741 79.561 95.5632 79.5199 96.1617 79.2282C96.7602 78.9366 97.2192 78.4182 97.4381 77.7868C97.6571 77.1554 97.618 76.4624 97.3295 75.8599C97.041 75.2574 96.5267 74.7945 95.8993 74.5727L91.8845 72.442C91.7695 72.381 91.6428 72.3456 91.513 72.3383C91.3832 72.331 91.2534 72.3519 91.1324 72.3996C91.0114 72.4473 90.902 72.5207 90.8117 72.6147C90.7215 72.7087 90.6524 72.8212 90.6092 72.9445V72.9445Z" fill="#3F3D56"/>
<path d="M111.767 62.3418C111.844 62.422 111.928 62.4958 112.017 62.5627L111.499 72.5719L109.343 73.6815L110.584 77.1713L114.59 75.5798C114.913 75.4512 115.187 75.2206 115.369 74.9225C115.551 74.6244 115.632 74.2749 115.6 73.9265L114.551 62.5728C114.894 62.3151 115.151 61.9585 115.288 61.5503C115.425 61.1421 115.435 60.7016 115.317 60.2875C115.199 59.8734 114.958 59.5053 114.627 59.2321C114.296 58.9589 113.889 58.7936 113.462 58.7582C113.035 58.7227 112.608 58.8189 112.236 59.0338C111.865 59.2487 111.567 59.5721 111.383 59.9612C111.199 60.3502 111.137 60.7864 111.206 61.2116C111.274 61.6369 111.47 62.0311 111.767 62.3418H111.767Z" fill="#A0616A"/>
<path d="M111.016 72.3992C110.895 72.3515 110.766 72.3305 110.636 72.3378C110.506 72.3452 110.379 72.3805 110.264 72.4416L106.25 74.5723C105.622 74.7941 105.108 75.257 104.819 75.8595C104.531 76.462 104.492 77.155 104.711 77.7864C104.93 78.4178 105.389 78.9362 105.987 79.2278C106.586 79.5195 107.275 79.5606 107.903 79.3421L112.375 78.4715C112.503 78.4467 112.623 78.3945 112.729 78.3184C112.835 78.2424 112.923 78.1444 112.988 78.031C113.052 77.9176 113.092 77.7916 113.104 77.6614C113.115 77.5313 113.099 77.4001 113.056 77.2768L111.54 72.9441C111.497 72.8207 111.428 72.7082 111.337 72.6142C111.247 72.5202 111.138 72.4468 111.016 72.3992Z" fill="#3F3D56"/>
<path d="M98.9892 68.2047C99.0152 67.5715 98.8571 66.9444 98.5344 66.4001C98.2117 65.8557 97.7383 65.4176 97.172 65.1393C95.6713 64.3604 94.7286 62.699 95.1417 61.1818C95.6705 59.2399 98.2992 57.9804 100.429 58.6486C101.006 58.8543 101.562 59.1141 102.09 59.4245L103.481 60.1745C104.076 60.4737 104.649 60.8139 105.197 61.1926C106.017 61.8005 106.66 62.6188 107.059 63.5619C107.457 64.5051 107.596 65.5385 107.462 66.5543C107.188 68.5285 105.902 70.339 104.142 71.5786C103.469 72.0845 102.691 72.4319 101.867 72.5954C101.023 72.7353 100.084 72.5763 99.4668 72.0488C98.5028 71.2243 98.6024 69.8437 98.9142 68.6906C98.9554 68.5316 98.9805 68.3688 98.9892 68.2047Z" fill="#2F2E41"/>
<path d="M82.2111 140.999H120.402C120.455 140.999 120.506 140.978 120.544 140.94C120.582 140.902 120.603 140.851 120.603 140.797C120.603 140.744 120.582 140.692 120.544 140.654C120.506 140.617 120.455 140.595 120.402 140.595H82.2111C82.1578 140.595 82.1066 140.617 82.0689 140.654C82.0312 140.692 82.0101 140.744 82.0101 140.797C82.0101 140.851 82.0312 140.902 82.0689 140.94C82.1066 140.978 82.1578 140.999 82.2111 140.999Z" fill="#CCCCCC"/>
<path d="M144.541 104.132L176.054 117.13C176.595 117.352 177.202 117.35 177.741 117.123C178.281 116.896 178.709 116.464 178.931 115.92L188.578 92.2781C188.74 91.8794 188.738 91.4324 188.573 91.0351C188.408 90.6377 188.092 90.3225 187.696 90.1586L155.118 76.7207C154.715 76.5549 154.262 76.5567 153.86 76.7258C153.458 76.8948 153.139 77.2173 152.974 77.6225L143.338 101.239C143.116 101.783 143.119 102.393 143.344 102.935C143.57 103.478 144 103.908 144.541 104.132Z" fill="#E6E6E6"/>
<path d="M174.913 114.262L147.357 102.896C146.832 102.68 146.414 102.263 146.195 101.737C145.976 101.21 145.974 100.618 146.19 100.091L153.979 81.0001C154.086 80.7389 154.243 80.5013 154.441 80.301C154.638 80.1006 154.874 79.9414 155.133 79.8325C155.392 79.7235 155.67 79.667 155.951 79.666C156.231 79.6651 156.51 79.7197 156.77 79.8269L184.325 91.1931C184.585 91.3003 184.822 91.4579 185.021 91.6568C185.22 91.8558 185.378 92.0923 185.487 92.3528C185.595 92.6133 185.651 92.8928 185.652 93.1751C185.653 93.4575 185.599 93.7373 185.492 93.9985L177.703 113.089C177.596 113.351 177.439 113.588 177.242 113.788C177.044 113.989 176.808 114.148 176.549 114.257C176.29 114.366 176.012 114.422 175.731 114.423C175.451 114.424 175.172 114.37 174.913 114.262Z" fill="white"/>
<path d="M154.131 86.2064L154.537 86.3735L154.509 86.4414L154.104 86.2743L154.131 86.2064Z" fill="#E6E6E6"/>
<path d="M155.327 86.7793L156.146 87.1169L156.173 87.049L155.355 86.7114L155.327 86.7793ZM156.964 87.4545L157.782 87.7921L157.81 87.7242L156.992 87.3866L156.964 87.4545ZM158.601 88.1297L159.419 88.4673L159.447 88.3994L158.629 88.0618L158.601 88.1297ZM160.238 88.8048L161.056 89.1424L161.084 89.0746L160.265 88.737L160.238 88.8048ZM161.875 89.48L162.693 89.8176L162.721 89.7497L161.902 89.4121L161.875 89.48ZM163.512 90.1552L164.33 90.4928L164.358 90.4249L163.539 90.0873L163.512 90.1552ZM165.148 90.8304L165.967 91.168L165.995 91.1001L165.176 90.7625L165.148 90.8304ZM166.785 91.5056L167.604 91.8432L167.631 91.7753L166.813 91.4377L166.785 91.5056ZM168.422 92.1807L169.241 92.5183L169.268 92.4505L168.45 92.1129L168.422 92.1807ZM170.059 92.8559L170.878 93.1935L170.905 93.1256L170.087 92.788L170.059 92.8559ZM171.696 93.5311L172.514 93.8687L172.542 93.8008L171.724 93.4632L171.696 93.5311ZM173.333 94.2063L174.151 94.5439L174.179 94.476L173.361 94.1384L173.333 94.2063ZM174.97 94.8815L175.788 95.2191L175.816 95.1512L174.997 94.8136L174.97 94.8815ZM176.607 95.5566L177.425 95.8942L177.453 95.8264L176.634 95.4888L176.607 95.5566ZM178.244 96.2318L179.062 96.5694L179.09 96.5015L178.271 96.1639L178.244 96.2318ZM179.88 96.907L180.699 97.2446L180.727 97.1767L179.908 96.8391L179.88 96.907Z" fill="#E6E6E6"/>
<path d="M181.545 97.5141L181.95 97.6812L181.922 97.749L181.517 97.5819L181.545 97.5141Z" fill="#E6E6E6"/>
<path d="M164.857 98.0072L165.262 98.1743L165.235 98.2422L164.829 98.0751L164.857 98.0072Z" fill="#E6E6E6"/>
<path d="M166.041 98.5742L166.847 98.9068L166.875 98.8389L166.068 98.5063L166.041 98.5742ZM167.653 99.2394L168.459 99.572L168.487 99.5041L167.681 99.1715L167.653 99.2394ZM169.266 99.9045L170.072 100.237L170.1 100.169L169.293 99.8366L169.266 99.9045ZM170.878 100.57L171.685 100.902L171.712 100.834L170.906 100.502L170.878 100.57ZM172.491 101.235L173.297 101.567L173.325 101.5L172.519 101.167L172.491 101.235ZM174.103 101.9L174.91 102.233L174.937 102.165L174.131 101.832L174.103 101.9ZM175.716 102.565L176.522 102.898L176.55 102.83L175.744 102.497L175.716 102.565ZM177.329 103.23L178.135 103.563L178.163 103.495L177.356 103.162L177.329 103.23Z" fill="#E6E6E6"/>
<path d="M178.969 103.828L179.374 103.995L179.346 104.063L178.941 103.896L178.969 103.828Z" fill="#E6E6E6"/>
<path d="M171.538 104.253L171.943 104.42L171.916 104.488L171.511 104.321L171.538 104.253Z" fill="#E6E6E6"/>
<path d="M172.745 104.83L173.575 105.172L173.602 105.104L172.773 104.762L172.745 104.83ZM174.404 105.514L175.234 105.857L175.261 105.789L174.432 105.447L174.404 105.514ZM176.063 106.199L176.893 106.541L176.92 106.473L176.091 106.131L176.063 106.199Z" fill="#E6E6E6"/>
<path d="M177.75 106.814L178.155 106.981L178.128 107.049L177.722 106.882L177.75 106.814Z" fill="#E6E6E6"/>
<path d="M169.458 109.35L169.863 109.517L169.836 109.584L169.43 109.417L169.458 109.35Z" fill="#E6E6E6"/>
<path d="M170.665 109.928L171.495 110.27L171.523 110.202L170.693 109.86L170.665 109.928ZM172.324 110.612L173.154 110.954L173.182 110.886L172.352 110.544L172.324 110.612ZM173.984 111.296L174.813 111.639L174.841 111.571L174.011 111.229L173.984 111.296Z" fill="#E6E6E6"/>
<path d="M175.67 111.913L176.075 112.08L176.047 112.147L175.642 111.98L175.67 111.913Z" fill="#E6E6E6"/>
<path d="M173.742 111.257L150.39 101.625C149.825 101.391 149.375 100.941 149.14 100.374C148.904 99.8073 148.901 99.1696 149.133 98.6008L153.851 87.0376L153.896 87.058L159.627 100.834L163.877 99.0479C163.956 99.0146 164.041 99.0001 164.125 99.0054C164.21 99.0108 164.293 99.0358 164.367 99.0786C164.477 99.1455 164.563 99.2473 164.61 99.3682L167.614 106.587L170.721 105.281C170.788 105.253 170.86 105.239 170.933 105.238C171.005 105.238 171.077 105.252 171.145 105.28C171.212 105.308 171.273 105.348 171.325 105.4C171.376 105.451 171.417 105.513 171.445 105.58C171.465 105.629 173.381 110.356 173.742 111.257Z" fill="#006CB5"/>
<path d="M173.814 111.366L173.881 111.338L171.478 105.56C171.415 105.408 171.294 105.287 171.141 105.224C170.989 105.161 170.819 105.162 170.667 105.226L167.621 106.506L164.634 99.3268C164.571 99.1743 164.45 99.0534 164.298 98.9906C164.145 98.9279 163.975 98.9284 163.823 98.992L159.634 100.753L153.874 86.9048L153.807 86.9331L159.595 100.849L163.851 99.0597C163.917 99.0318 163.988 99.0173 164.06 99.0171C164.132 99.0168 164.203 99.0308 164.27 99.0583C164.336 99.0857 164.397 99.126 164.448 99.177C164.499 99.2279 164.539 99.2884 164.567 99.3551L167.581 106.602L170.695 105.293C170.829 105.237 170.979 105.237 171.114 105.292C171.248 105.347 171.355 105.454 171.411 105.589L173.814 111.366Z" fill="#3F3D56"/>
<path d="M171.524 104.8C171.242 104.8 171.013 104.57 171.013 104.286C171.013 104.002 171.242 103.772 171.524 103.772C171.806 103.772 172.035 104.002 172.035 104.286C172.035 104.57 171.806 104.8 171.524 104.8Z" fill="#3F3D56"/>
<path d="M164.843 98.5541C164.561 98.5541 164.332 98.3242 164.332 98.0405C164.332 97.7568 164.561 97.5269 164.843 97.5269C165.125 97.5269 165.354 97.7568 165.354 98.0405C165.354 98.3242 165.125 98.5541 164.843 98.5541Z" fill="#3F3D56"/>
<path d="M154.44 86.7363C154.158 86.7363 153.929 86.5063 153.929 86.2226C153.929 85.939 154.158 85.709 154.44 85.709C154.722 85.709 154.951 85.939 154.951 86.2226C154.951 86.5063 154.722 86.7363 154.44 86.7363Z" fill="#3F3D56"/>
<path d="M183.035 103.703C182.769 103.57 182.536 103.38 182.351 103.147C182.166 102.913 182.035 102.642 181.966 102.352C181.896 102.062 181.891 101.76 181.951 101.468C182.01 101.176 182.132 100.9 182.309 100.661L180.792 85.7451H184.071L185.277 100.31C185.657 100.635 185.906 101.089 185.976 101.586C186.045 102.084 185.931 102.589 185.655 103.007C185.378 103.426 184.959 103.728 184.476 103.856C183.993 103.984 183.48 103.93 183.035 103.703Z" fill="#FFB8B8"/>
<path d="M180.024 77.5149C177.462 77.5149 175.385 75.4266 175.385 72.8505C175.385 70.2744 177.462 68.186 180.024 68.186C182.587 68.186 184.664 70.2744 184.664 72.8505C184.664 75.4266 182.587 77.5149 180.024 77.5149Z" fill="#FFB8B8"/>
<path d="M179.151 94.4323C179.336 94.4322 179.517 94.3709 179.665 94.2578C179.812 94.1446 179.919 93.9858 179.968 93.8058C180.34 92.448 181.307 90.1524 182.843 86.9823C183.189 86.2657 183.381 85.4836 183.405 84.6872C183.43 83.8908 183.287 83.0982 182.986 82.3613C182.684 81.6244 182.231 80.9599 181.656 80.4115C181.082 79.863 180.398 79.4429 179.65 79.1788C178.942 78.9272 178.19 78.8211 177.44 78.8667C176.69 78.9124 175.957 79.1087 175.284 79.4443C174.61 79.7798 174.011 80.2477 173.521 80.8203C173.031 81.3929 172.66 82.0585 172.43 82.7777C171.24 86.5292 171.297 90.5478 171.377 92.1012C171.387 92.2883 171.458 92.467 171.578 92.6099C171.699 92.7527 171.863 92.8519 172.045 92.8922L178.968 94.4125C179.028 94.4257 179.089 94.4323 179.151 94.4323Z" fill="#FF6584"/>
<path d="M172.446 138.725H170.13L169.029 129.745L172.446 129.745L172.446 138.725Z" fill="#FFB8B8"/>
<path d="M165.664 140.887L172.942 140.888L172.942 138.06L168.476 138.06C168.107 138.06 167.741 138.133 167.4 138.275C167.059 138.417 166.749 138.626 166.488 138.888C166.227 139.151 166.019 139.462 165.878 139.805C165.737 140.148 165.664 140.516 165.664 140.887Z" fill="#2F2E41"/>
<path d="M195.602 135.708L193.572 136.83L188.303 129.494L191.298 127.838L195.602 135.708Z" fill="#FFB8B8"/>
<path d="M190.695 140.887L197.072 137.362L195.718 134.884L191.804 137.048C191.151 137.409 190.667 138.016 190.459 138.736C190.251 139.457 190.336 140.23 190.695 140.887Z" fill="#2F2E41"/>
<path d="M172.554 133.741C172.761 133.74 172.96 133.665 173.115 133.528C173.27 133.391 173.37 133.202 173.396 132.996L176.292 110.558C176.305 110.459 176.349 110.366 176.417 110.293C176.485 110.221 176.575 110.171 176.673 110.153C176.77 110.134 176.872 110.147 176.962 110.19C177.052 110.232 177.126 110.302 177.174 110.39L189.244 132.407C189.343 132.586 189.504 132.724 189.696 132.795C189.888 132.866 190.099 132.865 190.291 132.793L192.921 131.785C193.027 131.745 193.124 131.683 193.206 131.605C193.288 131.526 193.353 131.432 193.398 131.327C193.443 131.223 193.467 131.11 193.469 130.997C193.47 130.883 193.449 130.77 193.406 130.664L185.045 110.014C185.024 109.961 185.01 109.906 185.002 109.85C183.87 101.038 180.989 96.5562 180.133 95.3926C180.07 95.3071 180.029 95.2077 180.013 95.1028C179.996 94.9979 180.005 94.8907 180.039 94.79L180.157 94.4351C180.204 94.2942 180.213 94.1434 180.185 93.9976C180.156 93.8518 180.09 93.7161 179.993 93.6038C176.908 90.0712 171.532 91.9989 171.478 92.0187L171.451 92.0287L171.434 92.0519C165.405 100.365 167.634 127.365 168.142 132.693C168.161 132.893 168.25 133.08 168.393 133.221C168.536 133.362 168.724 133.447 168.923 133.462L172.488 133.738C172.51 133.74 172.532 133.741 172.554 133.741Z" fill="#2F2E41"/>
<path d="M161.989 78.2678C162.012 78.3703 162.027 78.4744 162.034 78.5793L170.148 83.2857L172.12 82.1441L174.223 84.9116L170.927 87.2736C170.66 87.4644 170.34 87.5633 170.013 87.5553C169.686 87.5473 169.37 87.4328 169.114 87.2292L160.747 80.5926C160.369 80.7331 159.958 80.7547 159.568 80.6546C159.178 80.5544 158.827 80.3372 158.563 80.0318C158.298 79.7264 158.133 79.3474 158.088 78.9451C158.043 78.5428 158.121 78.1363 158.312 77.7796C158.502 77.423 158.796 77.1332 159.155 76.9486C159.513 76.7641 159.919 76.6937 160.318 76.7466C160.717 76.7996 161.091 76.9736 161.389 77.2453C161.688 77.517 161.897 77.8737 161.989 78.2678Z" fill="#FFB8B8"/>
<path d="M170.419 83.5086L173.042 86.9259C173.116 87.0231 173.211 87.103 173.319 87.1602C173.427 87.2174 173.546 87.2505 173.668 87.2572C173.79 87.2639 173.912 87.2441 174.026 87.1991C174.139 87.1542 174.242 87.0851 174.327 86.9967L177.296 83.8971C177.788 83.5104 178.108 82.9431 178.186 82.3196C178.263 81.6961 178.091 81.0672 177.708 80.5709C177.325 80.0745 176.761 79.7512 176.141 79.6719C175.521 79.5925 174.895 79.7635 174.401 80.1474L170.677 82.2408C170.571 82.3008 170.478 82.3831 170.406 82.4823C170.334 82.5814 170.284 82.695 170.26 82.8153C170.235 82.9357 170.237 83.0599 170.264 83.1795C170.292 83.2991 170.345 83.4114 170.419 83.5086Z" fill="#FF6584"/>
<path d="M180.583 89.4462L184.808 88.6792C184.928 88.6574 185.042 88.6098 185.142 88.5396C185.243 88.4695 185.327 88.3784 185.389 88.2727C185.451 88.1669 185.49 88.0489 185.502 87.9268C185.515 87.8046 185.501 87.6812 185.462 87.5648L184.093 83.4879C183.978 82.8702 183.625 82.3233 183.11 81.9672C182.595 81.6111 181.96 81.4749 181.346 81.5883C180.731 81.7018 180.186 82.0557 179.831 82.5725C179.475 83.0893 179.338 83.7267 179.449 84.3451L179.583 88.6322C179.587 88.755 179.617 88.8754 179.671 88.9854C179.725 89.0954 179.803 89.1923 179.898 89.2696C179.993 89.3468 180.103 89.4026 180.221 89.4331C180.34 89.4635 180.463 89.468 180.583 89.4462H180.583Z" fill="#FF6584"/>
<path d="M179.29 71.7763C178.097 72.5968 176.532 73.4403 175.314 72.5665C174.933 72.2748 174.656 71.8669 174.525 71.4039C174.394 70.9409 174.416 70.4476 174.587 69.998C175.17 68.3213 176.772 67.5832 178.304 67.0174C180.296 66.2818 182.464 65.6967 184.52 66.2234C186.576 66.7502 188.394 68.7517 188.022 70.8521C187.724 72.5413 186.139 73.9467 186.364 75.6473C186.591 77.3589 188.505 78.2597 190.195 78.5656C191.885 78.8715 193.776 78.9698 194.991 80.1904C196.54 81.7474 196.153 84.5305 194.695 86.1744C193.238 87.8183 191.037 88.5635 188.905 89.0701C186.081 89.7413 183.026 90.094 180.343 88.9801C177.66 87.8662 175.572 84.8677 176.35 82.056C176.678 80.8683 177.451 79.8646 178.199 78.8874C178.946 77.9102 179.703 76.8884 179.988 75.6895C180.225 74.6904 180.049 73.5304 179.391 72.781C179.271 72.6498 179.195 72.4839 179.175 72.3069C179.155 72.1299 179.191 71.9511 179.278 71.7961L179.29 71.7763Z" fill="#2F2E41"/>
<path d="M161.608 140.999H199.799C199.852 140.999 199.903 140.978 199.941 140.94C199.979 140.902 200 140.851 200 140.797C200 140.744 199.979 140.692 199.941 140.654C199.903 140.617 199.852 140.595 199.799 140.595H161.608C161.555 140.595 161.504 140.617 161.466 140.654C161.428 140.692 161.407 140.744 161.407 140.797C161.407 140.851 161.428 140.902 161.466 140.94C161.504 140.978 161.555 140.999 161.608 140.999Z" fill="#CCCCCC"/>
</svg>
