<?xml version="1.0" encoding="utf-8"?>
<!-- Generator: Adobe Illustrator 24.0.1, SVG Export Plug-In . SVG Version: 6.00 Build 0)  -->
<svg version="1.1" id="Layer_1" xmlns="http://www.w3.org/2000/svg" xmlns:xlink="http://www.w3.org/1999/xlink" x="0px" y="0px"
	 viewBox="0 0 306.1 69.2" style="enable-background:new 0 0 306.1 69.2;" xml:space="preserve">
<style type="text/css">
	.st0{fill:#0081AF;}
	.st1{clip-path:url(#SVGID_2_);fill:#0081AF;}
	.st2{clip-path:url(#SVGID_4_);fill:#0081AF;}
	.st3{clip-path:url(#SVGID_6_);fill:#0081AF;}
	.st4{clip-path:url(#SVGID_8_);fill:#0081AF;}
	.st5{clip-path:url(#SVGID_10_);fill:#0081AF;}
</style>
<g>
	<path class="st0" d="M251.9,25.8L251.9,25.8l-1.5,4.2h3L251.9,25.8L251.9,25.8z M250.8,23.7h2.3l4,10.3h-2.3l-0.9-2.4h-4.2
		l-0.9,2.4h-2.1L250.8,23.7L250.8,23.7z"/>
	<polygon class="st0" points="257.7,22.9 259.7,22.9 259.7,34 257.7,34 257.7,22.9 	"/>
	<path class="st0" d="M266.1,28c-0.4-0.2-0.7-0.3-1.3-0.3c-1.2,0-2,1-2,2.4c0,1.4,0.7,2.5,2,2.5c0.6,0,1.2-0.2,1.5-0.4l0.1,1.6
		c-0.6,0.2-1.2,0.2-2,0.2c-2.5,0-3.7-1.7-3.7-4c0-2.2,1.3-3.9,3.7-3.9c0.8,0,1.4,0.1,1.9,0.3L266.1,28L266.1,28z"/>
	<path class="st0" d="M274.1,34h-1.9v-1h0c-0.6,0.7-1.5,1.2-2.5,1.2c-1.8,0-2.6-1.3-2.6-3v-4.8h2v4c0,0.9,0,2.2,1.3,2.2
		c1.4,0,1.7-1.5,1.7-2.5v-3.7h2V34L274.1,34z"/>
	<path class="st0" d="M275.5,26.4h1.8v1.1h0c0.6-0.9,1.5-1.2,2.3-1.2c1.1,0,1.8,0.4,2.2,1.3c0.5-0.9,1.4-1.3,2.4-1.3
		c1.9,0,2.4,1.3,2.4,3V34h-2v-4.5c0-0.7,0-1.7-1.1-1.7c-1.3,0-1.5,1.6-1.5,2.5V34h-2v-4.5c0-0.7,0-1.7-1.1-1.7
		c-1.3,0-1.5,1.6-1.5,2.5V34h-2V26.4L275.5,26.4z"/>
	<path class="st0" d="M295,34h-1.9v-1h0c-0.6,0.7-1.5,1.2-2.5,1.2c-1.8,0-2.6-1.3-2.6-3v-4.8h2v4c0,0.9,0,2.2,1.3,2.2
		c1.4,0,1.7-1.5,1.7-2.5v-3.7h2V34L295,34z"/>
	<path class="st0" d="M300.9,28c-0.6-0.2-1-0.3-1.8-0.3c-0.5,0-1.2,0.2-1.2,0.8c0,1.2,3.4,0.4,3.4,3.2c0,1.8-1.6,2.5-3.2,2.5
		c-0.8,0-1.5-0.1-2.2-0.3l0.1-1.6c0.6,0.3,1.3,0.5,1.9,0.5c0.5,0,1.3-0.2,1.3-0.9c0-1.5-3.4-0.5-3.4-3.2c0-1.6,1.4-2.4,3-2.4
		c0.9,0,1.5,0.1,2.1,0.3L300.9,28L300.9,28z"/>
	<path class="st0" d="M302.2,25h0.2c0.2,0,0.3,0,0.3-0.2c0-0.1-0.1-0.2-0.3-0.2h-0.2V25L302.2,25z M302,24.5h0.5
		c0.3,0,0.4,0.1,0.4,0.3c0,0.2-0.1,0.3-0.3,0.3l0.3,0.5h-0.2l-0.3-0.5h-0.2v0.5H302V24.5L302,24.5z M302.4,26c0.5,0,0.8-0.4,0.8-0.9
		c0-0.5-0.4-0.9-0.8-0.9c-0.5,0-0.8,0.4-0.8,0.9C301.5,25.6,301.9,26,302.4,26 M302.4,24.1c0.6,0,1,0.5,1,1c0,0.6-0.5,1-1,1
		c-0.6,0-1-0.5-1-1C301.3,24.5,301.8,24.1,302.4,24.1"/>
	<path class="st0" d="M251.9,25.8L251.9,25.8l-1.5,4.2h3L251.9,25.8L251.9,25.8z M250.8,23.7h2.3l4,10.3h-2.3l-0.9-2.4h-4.2
		l-0.9,2.4h-2.1L250.8,23.7L250.8,23.7z"/>
	<polygon class="st0" points="257.7,22.9 259.7,22.9 259.7,34 257.7,34 257.7,22.9 	"/>
	<path class="st0" d="M266.1,28c-0.4-0.2-0.7-0.3-1.3-0.3c-1.2,0-2,1-2,2.4c0,1.4,0.7,2.5,2,2.5c0.6,0,1.2-0.2,1.5-0.4l0.1,1.6
		c-0.6,0.2-1.2,0.2-2,0.2c-2.5,0-3.7-1.7-3.7-4c0-2.2,1.3-3.9,3.7-3.9c0.8,0,1.4,0.1,1.9,0.3L266.1,28L266.1,28z"/>
	<path class="st0" d="M274.1,34h-1.9v-1h0c-0.6,0.7-1.5,1.2-2.5,1.2c-1.8,0-2.6-1.3-2.6-3v-4.8h2v4c0,0.9,0,2.2,1.3,2.2
		c1.4,0,1.7-1.5,1.7-2.5v-3.7h2V34L274.1,34z"/>
	<path class="st0" d="M275.5,26.4h1.8v1.1h0c0.6-0.9,1.5-1.2,2.3-1.2c1.1,0,1.8,0.4,2.2,1.3c0.5-0.9,1.4-1.3,2.4-1.3
		c1.9,0,2.4,1.3,2.4,3V34h-2v-4.5c0-0.7,0-1.7-1.1-1.7c-1.3,0-1.5,1.6-1.5,2.5V34h-2v-4.5c0-0.7,0-1.7-1.1-1.7
		c-1.3,0-1.5,1.6-1.5,2.5V34h-2V26.4L275.5,26.4z"/>
	<path class="st0" d="M295,34h-1.9v-1h0c-0.6,0.7-1.5,1.2-2.5,1.2c-1.8,0-2.6-1.3-2.6-3v-4.8h2v4c0,0.9,0,2.2,1.3,2.2
		c1.4,0,1.7-1.5,1.7-2.5v-3.7h2V34L295,34z"/>
	<path class="st0" d="M300.9,28c-0.6-0.2-1-0.3-1.8-0.3c-0.5,0-1.2,0.2-1.2,0.8c0,1.2,3.4,0.4,3.4,3.2c0,1.8-1.6,2.5-3.2,2.5
		c-0.8,0-1.5-0.1-2.2-0.3l0.1-1.6c0.6,0.3,1.3,0.5,1.9,0.5c0.5,0,1.3-0.2,1.3-0.9c0-1.5-3.4-0.5-3.4-3.2c0-1.6,1.4-2.4,3-2.4
		c0.9,0,1.5,0.1,2.1,0.3L300.9,28L300.9,28z"/>
	<path class="st0" d="M302.2,25h0.2c0.2,0,0.3,0,0.3-0.2c0-0.1-0.1-0.2-0.3-0.2h-0.2V25L302.2,25z M302,24.5h0.5
		c0.3,0,0.4,0.1,0.4,0.3c0,0.2-0.1,0.3-0.3,0.3l0.3,0.5h-0.2l-0.3-0.5h-0.2v0.5H302V24.5L302,24.5z M302.4,26c0.5,0,0.8-0.4,0.8-0.9
		c0-0.5-0.4-0.9-0.8-0.9c-0.5,0-0.8,0.4-0.8,0.9C301.5,25.6,301.9,26,302.4,26 M302.4,24.1c0.6,0,1,0.5,1,1c0,0.6-0.5,1-1,1
		c-0.6,0-1-0.5-1-1C301.3,24.5,301.8,24.1,302.4,24.1"/>
	<path class="st0" d="M17.1,11.9c0,0-3.3,9.9,0.3,12.9c3.5,3,5,4.4,5,4.4s1.7-1.2,5.6-3.6c3.9-2.4,2.2-12.7,2.2-12.7
		c-5.1,0.6-6.4-2.5-6.4-2.5S22.1,13.2,17.1,11.9 M21.6,13.3c-1,3-2,8.3,0.1,13.5c-0.8-0.7-1.9-1.7-3.4-3c-0.2-0.2-0.4-0.4-0.6-0.8
		c-0.3-0.5-0.4-1.2-0.5-1.9c-0.1-0.8-0.1-1.6,0-2.5c0.1-1.6,0.4-3.2,0.7-4.4c0.1-0.3,0.2-0.6,0.2-0.9c0.3,0,0.6,0.1,0.8,0.1
		c0.2,0,0.5,0,0.7,0C20.3,13.5,21,13.4,21.6,13.3"/>
	<g>
		<defs>
			<path id="SVGID_1_" d="M17.1,11.9c0,0-3.3,9.9,0.3,12.9c3.5,3,5,4.4,5,4.4s1.7-1.2,5.6-3.6c3.9-2.4,2.2-12.7,2.2-12.7
				c-5.1,0.6-6.4-2.5-6.4-2.5S22.1,13.2,17.1,11.9 M21.6,13.3c-1,3-2,8.3,0.1,13.5c-0.8-0.7-1.9-1.7-3.4-3c-0.2-0.2-0.4-0.4-0.6-0.8
				c-0.3-0.5-0.4-1.2-0.5-1.9c-0.1-0.8-0.1-1.6,0-2.5c0.1-1.6,0.4-3.2,0.7-4.4c0.1-0.3,0.2-0.6,0.2-0.9c0.3,0,0.6,0.1,0.8,0.1
				c0.2,0,0.5,0,0.7,0C20.3,13.5,21,13.4,21.6,13.3"/>
		</defs>
		<clipPath id="SVGID_2_">
			<use xlink:href="#SVGID_1_"  style="overflow:visible;"/>
		</clipPath>
		<polygon class="st1" points="4.6,17.6 24.9,1.5 41,21.9 20.7,38 4.6,17.6 		"/>
	</g>
	<path class="st0" d="M1.2,24.2c0,0,2.2,2.5-0.6,6.8c0,0,8.4,6.2,12.4,3.8c3.9-2.4,5.7-3.4,5.7-3.4s-0.6-2-1.7-6.5
		c-1.1-4.5-11.4-6-11.4-6C4.5,24,1.2,24.2,1.2,24.2 M9.5,33.8c-0.8-0.2-1.6-0.4-2.4-0.8c-1.5-0.6-2.9-1.4-3.9-2
		c-0.3-0.2-0.5-0.3-0.7-0.5c0.1-0.3,0.2-0.5,0.4-0.8c0.4-0.9,0.6-1.8,0.6-2.6c2.6,1.8,7.3,4.5,12.9,4c-0.9,0.5-2.2,1.3-3.9,2.3
		c-0.3,0.2-0.5,0.3-0.9,0.3c-0.2,0-0.4,0-0.6,0C10.4,33.9,10,33.9,9.5,33.8"/>
	<g>
		<defs>
			<path id="SVGID_3_" d="M1.2,24.2c0,0,2.2,2.5-0.6,6.8c0,0,8.4,6.2,12.4,3.8c3.9-2.4,5.7-3.4,5.7-3.4s-0.6-2-1.7-6.5
				c-1.1-4.5-11.4-6-11.4-6C4.5,24,1.2,24.2,1.2,24.2 M9.5,33.8c-0.8-0.2-1.6-0.4-2.4-0.8c-1.5-0.6-2.9-1.4-3.9-2
				c-0.3-0.2-0.5-0.3-0.7-0.5c0.1-0.3,0.2-0.5,0.4-0.8c0.4-0.9,0.6-1.8,0.6-2.6c2.6,1.8,7.3,4.5,12.9,4c-0.9,0.5-2.2,1.3-3.9,2.3
				c-0.3,0.2-0.5,0.3-0.9,0.3c-0.2,0-0.4,0-0.6,0C10.4,33.9,10,33.9,9.5,33.8"/>
		</defs>
		<clipPath id="SVGID_4_">
			<use xlink:href="#SVGID_3_"  style="overflow:visible;"/>
		</clipPath>
		<polygon class="st2" points="-8.2,25.9 11.8,10.1 27.6,30.2 7.6,46 -8.2,25.9 		"/>
	</g>
	<path class="st0" d="M3.8,44.1c4.5,2.6,3.7,5.8,3.7,5.8s3-1.4,6.3,2.6c0,0,8.5-6.1,7.4-10.6c-1.1-4.5-1.5-6.5-1.5-6.5
		s-2.1,0-6.7-0.4c-0.1,0-0.2,0-0.2,0C8.3,35,3.8,44.1,3.8,44.1 M13.2,50.1c-0.8-0.6-1.5-1.1-2.2-1.4c2.5-1.9,6.5-5.6,7.8-11
		c0.2,1.1,0.6,2.5,1,4.4c0.1,0.3,0.1,0.6,0,1c-0.1,0.5-0.3,1.2-0.7,1.9c-0.4,0.7-0.9,1.4-1.5,2c-1,1.2-2.2,2.3-3.2,3.1
		c-0.2,0.2-0.5,0.4-0.7,0.6C13.6,50.5,13.4,50.3,13.2,50.1"/>
	<g>
		<defs>
			<path id="SVGID_5_" d="M3.8,44.1c4.5,2.6,3.7,5.8,3.7,5.8s3-1.4,6.3,2.6c0,0,8.5-6.1,7.4-10.6c-1.1-4.5-1.5-6.5-1.5-6.5
				s-2.1,0-6.7-0.4c-0.1,0-0.2,0-0.2,0C8.3,35,3.8,44.1,3.8,44.1 M13.2,50.1c-0.8-0.6-1.5-1.1-2.2-1.4c2.5-1.9,6.5-5.6,7.8-11
				c0.2,1.1,0.6,2.5,1,4.4c0.1,0.3,0.1,0.6,0,1c-0.1,0.5-0.3,1.2-0.7,1.9c-0.4,0.7-0.9,1.4-1.5,2c-1,1.2-2.2,2.3-3.2,3.1
				c-0.2,0.2-0.5,0.4-0.7,0.6C13.6,50.5,13.4,50.3,13.2,50.1"/>
		</defs>
		<clipPath id="SVGID_6_">
			<use xlink:href="#SVGID_5_"  style="overflow:visible;"/>
		</clipPath>
		<polygon class="st3" points="-4.7,41.7 15.2,26.1 30.8,45.8 10.9,61.5 -4.7,41.7 		"/>
	</g>
	<path class="st0" d="M21.4,42c-1.7,4.3,5.7,11.6,5.7,11.6c3.8-3.5,6.6-1.7,6.6-1.7s-0.4-3.3,4.5-5.2c0,0-3.2-10-7.8-10.3
		c-4.6-0.3-6.6-0.6-6.6-0.6S23.2,37.7,21.4,42 M25.8,37.3c1.1,0.1,2.6,0.2,4.5,0.4c0.3,0,0.6,0.1,0.9,0.3c0.5,0.2,1,0.7,1.5,1.3
		c0.5,0.6,1,1.3,1.5,2c0.8,1.3,1.5,2.8,2,4c0.1,0.3,0.2,0.6,0.3,0.8c-0.3,0.1-0.5,0.3-0.7,0.4c-0.9,0.5-1.5,1.1-2,1.7
		C32.8,45.2,30.5,40.2,25.8,37.3"/>
	<g>
		<defs>
			<path id="SVGID_7_" d="M21.4,42c-1.7,4.3,5.7,11.6,5.7,11.6c3.8-3.5,6.6-1.7,6.6-1.7s-0.4-3.3,4.5-5.2c0,0-3.2-10-7.8-10.3
				c-4.6-0.3-6.6-0.6-6.6-0.6S23.2,37.7,21.4,42 M25.8,37.3c1.1,0.1,2.6,0.2,4.5,0.4c0.3,0,0.6,0.1,0.9,0.3c0.5,0.2,1,0.7,1.5,1.3
				c0.5,0.6,1,1.3,1.5,2c0.8,1.3,1.5,2.8,2,4c0.1,0.3,0.2,0.6,0.3,0.8c-0.3,0.1-0.5,0.3-0.7,0.4c-0.9,0.5-1.5,1.1-2,1.7
				C32.8,45.2,30.5,40.2,25.8,37.3"/>
		</defs>
		<clipPath id="SVGID_8_">
			<use xlink:href="#SVGID_7_"  style="overflow:visible;"/>
		</clipPath>
		<polygon class="st4" points="11,42.6 31.2,26.7 47,46.7 26.8,62.6 11,42.6 		"/>
	</g>
	<path class="st0" d="M40.3,21.6c-0.4,0-10.5,0-12.2,4.2c-1.8,4.3-2.7,6.1-2.7,6.1s1.7,1.2,5.2,4.2c3.5,3,12.8-1.9,12.8-1.9
		c-2.1-4.7,0.4-6.8,0.4-6.8S40.6,26.7,40.3,21.6L40.3,21.6L40.3,21.6z M29.3,26.4c0.1-0.3,0.3-0.5,0.5-0.8c0.4-0.4,1-0.8,1.7-1.1
		c0.7-0.3,1.5-0.6,2.4-0.8c1.5-0.4,3.2-0.6,4.4-0.7c0.3,0,0.6,0,0.9-0.1c0,0.3,0.1,0.6,0.2,0.8c0.2,1,0.6,1.8,1,2.4
		c-3.2,0-8.6,0.7-12.8,4.3C28,29.6,28.6,28.2,29.3,26.4"/>
	<g>
		<defs>
			<path id="SVGID_9_" d="M40.3,21.6c-0.4,0-10.5,0-12.2,4.2c-1.8,4.3-2.7,6.1-2.7,6.1s1.7,1.2,5.2,4.2c3.5,3,12.8-1.9,12.8-1.9
				c-2.1-4.7,0.4-6.8,0.4-6.8S40.6,26.7,40.3,21.6L40.3,21.6L40.3,21.6z M29.3,26.4c0.1-0.3,0.3-0.5,0.5-0.8c0.4-0.4,1-0.8,1.7-1.1
				c0.7-0.3,1.5-0.6,2.4-0.8c1.5-0.4,3.2-0.6,4.4-0.7c0.3,0,0.6,0,0.9-0.1c0,0.3,0.1,0.6,0.2,0.8c0.2,1,0.6,1.8,1,2.4
				c-3.2,0-8.6,0.7-12.8,4.3C28,29.6,28.6,28.2,29.3,26.4"/>
		</defs>
		<clipPath id="SVGID_10_">
			<use xlink:href="#SVGID_9_"  style="overflow:visible;"/>
		</clipPath>
		<polygon class="st5" points="16.9,28.3 36.8,12.6 52.4,32.4 32.5,48.1 16.9,28.3 		"/>
	</g>
	<path d="M45.7,63.1c-1.9-0.5-3.3-1.2-4.5-2.1l2-4.4c1.1,0.8,2.4,1.4,3.8,1.9c1.5,0.5,3,0.7,4.5,0.7c1.7,0,2.9-0.2,3.7-0.7
		c0.8-0.5,1.2-1.1,1.2-2c0-0.6-0.2-1.1-0.7-1.5c-0.5-0.4-1.1-0.7-1.8-1c-0.7-0.2-1.7-0.5-3-0.8c-1.9-0.5-3.5-0.9-4.7-1.4
		c-1.2-0.5-2.3-1.2-3.1-2.2c-0.9-1-1.3-2.3-1.3-4c0-1.5,0.4-2.8,1.2-4c0.8-1.2,2-2.1,3.6-2.8c1.6-0.7,3.5-1,5.8-1
		c1.6,0,3.2,0.2,4.7,0.6c1.5,0.4,2.9,0.9,4,1.7l-1.8,4.4c-2.3-1.3-4.6-2-7-2c-1.6,0-2.8,0.3-3.6,0.8c-0.8,0.5-1.2,1.2-1.2,2.1
		c0,0.9,0.4,1.5,1.3,1.9c0.9,0.4,2.3,0.8,4.1,1.2c1.9,0.5,3.5,0.9,4.7,1.4c1.2,0.5,2.3,1.2,3.1,2.2c0.9,1,1.3,2.3,1.3,4
		c0,1.4-0.4,2.7-1.2,3.9c-0.8,1.2-2,2.1-3.6,2.8c-1.6,0.7-3.6,1-5.9,1C49.5,63.9,47.6,63.6,45.7,63.1L45.7,63.1z"/>
	<path d="M74.1,59.3c0.7-0.4,1.3-1.1,1.6-2v-2h-3.8c-2.3,0-3.4,0.8-3.4,2.3c0,0.7,0.3,1.3,0.8,1.7c0.6,0.4,1.3,0.6,2.3,0.6
		C72.5,60,73.3,59.8,74.1,59.3L74.1,59.3z M78.8,46c1.6,1.4,2.4,3.6,2.4,6.4v11H76v-2.4c-1.1,1.8-3,2.7-5.9,2.7
		c-1.5,0-2.8-0.3-3.9-0.8c-1.1-0.5-1.9-1.2-2.5-2.1c-0.6-0.9-0.9-1.9-0.9-3c0-1.8,0.7-3.2,2-4.2c1.4-1,3.4-1.5,6.3-1.5h4.5
		c0-1.2-0.4-2.2-1.1-2.8c-0.7-0.7-1.9-1-3.3-1c-1,0-2,0.2-3,0.5c-1,0.3-1.8,0.8-2.5,1.3l-2-3.9c1.1-0.7,2.3-1.3,3.8-1.7
		c1.5-0.4,3-0.6,4.5-0.6C74.9,43.9,77.2,44.6,78.8,46L78.8,46z"/>
	<path d="M90.5,44.6h5v4.3h-4.8v14.6h-5.6V48.9h-3v-4.3h3v-0.9c0-2.2,0.7-3.9,2-5.2c1.3-1.3,3.1-1.9,5.5-1.9c0.8,0,1.6,0.1,2.4,0.3
		c0.8,0.2,1.4,0.4,1.9,0.8l-1.5,4.1c-0.6-0.5-1.4-0.7-2.3-0.7c-1.7,0-2.5,0.9-2.5,2.8V44.6L90.5,44.6z"/>
	<path d="M102.3,49.2c-0.9,0.7-1.4,1.7-1.6,2.9h9.5c-0.2-1.2-0.7-2.2-1.6-2.9c-0.9-0.7-1.9-1.1-3.2-1.1
		C104.3,48.1,103.2,48.5,102.3,49.2L102.3,49.2z M115.4,55.4h-14.6c0.3,1.2,0.9,2.1,1.9,2.8c1,0.7,2.2,1,3.7,1c1,0,1.9-0.1,2.7-0.4
		c0.8-0.3,1.5-0.8,2.2-1.4l3,3.2c-1.8,2.1-4.5,3.1-8,3.1c-2.2,0-4.1-0.4-5.8-1.3c-1.7-0.8-3-2-3.9-3.5c-0.9-1.5-1.4-3.2-1.4-5.1
		c0-1.9,0.4-3.6,1.3-5.1c0.9-1.5,2.1-2.7,3.7-3.6c1.6-0.8,3.3-1.3,5.3-1.3c1.9,0,3.6,0.4,5.1,1.2c1.5,0.8,2.7,2,3.6,3.5
		c0.9,1.5,1.3,3.3,1.3,5.3C115.5,54,115.5,54.5,115.4,55.4L115.4,55.4z"/>
	<path d="M123.2,62.2c-2.1-1.1-3.7-2.7-4.9-4.6c-1.2-2-1.8-4.2-1.8-6.7c0-2.5,0.6-4.7,1.8-6.7c1.2-2,2.8-3.5,4.9-4.6
		c2.1-1.1,4.4-1.7,7-1.7c2.2,0,4.1,0.4,5.9,1.1c1.8,0.8,3.2,1.9,4.4,3.3l-3.7,3.4c-1.7-2-3.8-2.9-6.3-2.9c-1.6,0-2.9,0.3-4.2,1
		c-1.2,0.7-2.2,1.6-2.9,2.9c-0.7,1.2-1,2.6-1,4.2c0,1.6,0.3,2.9,1,4.2c0.7,1.2,1.6,2.2,2.9,2.9c1.2,0.7,2.6,1,4.2,1
		c2.5,0,4.6-1,6.3-3l3.7,3.4c-1.2,1.5-2.7,2.6-4.5,3.3c-1.8,0.8-3.7,1.1-5.9,1.1C127.6,63.9,125.3,63.3,123.2,62.2L123.2,62.2z"/>
	<path d="M154.7,57.7c0.9-1,1.4-2.3,1.4-3.9c0-1.6-0.5-2.9-1.4-3.9c-0.9-1-2.1-1.5-3.5-1.5c-1.4,0-2.6,0.5-3.6,1.5
		c-0.9,1-1.4,2.3-1.4,3.9c0,1.6,0.5,2.9,1.4,3.9c0.9,1,2.1,1.5,3.6,1.5C152.6,59.2,153.8,58.7,154.7,57.7L154.7,57.7z M145.7,62.5
		c-1.6-0.8-2.9-2-3.8-3.5c-0.9-1.5-1.4-3.2-1.4-5.1c0-1.9,0.5-3.6,1.4-5.1c0.9-1.5,2.2-2.7,3.8-3.5c1.6-0.8,3.4-1.3,5.5-1.3
		c2,0,3.9,0.4,5.5,1.3c1.6,0.9,2.9,2,3.8,3.5c0.9,1.5,1.4,3.2,1.4,5.1c0,1.9-0.5,3.6-1.4,5.1c-0.9,1.5-2.2,2.7-3.8,3.5
		c-1.6,0.9-3.4,1.3-5.5,1.3C149.1,63.8,147.3,63.3,145.7,62.5L145.7,62.5z"/>
	<path d="M181.1,46c1.5,1.4,2.2,3.6,2.2,6.4v11.1h-5.6V53.3c0-1.5-0.3-2.7-1-3.4c-0.7-0.8-1.6-1.1-2.9-1.1c-1.4,0-2.5,0.4-3.4,1.3
		c-0.8,0.9-1.3,2.2-1.3,3.9v9.6h-5.6V44.2h5.3v2.3c0.7-0.8,1.7-1.4,2.8-1.9c1.1-0.4,2.3-0.7,3.6-0.7C177.7,43.9,179.7,44.6,181.1,46
		L181.1,46z"/>
	<path d="M198.8,62.5c-0.6,0.4-1.2,0.7-2,0.9c-0.8,0.2-1.6,0.3-2.5,0.3c-2.3,0-4.1-0.6-5.3-1.8c-1.3-1.2-1.9-2.9-1.9-5.2v-7.9h-3
		v-4.3h3v-4.7h5.6v4.7h4.8v4.3h-4.8v7.9c0,0.8,0.2,1.4,0.6,1.9c0.4,0.4,1,0.7,1.8,0.7c0.9,0,1.6-0.2,2.3-0.7L198.8,62.5L198.8,62.5z
		"/>
	<path d="M208.1,44.6c1.1-0.5,2.4-0.7,3.9-0.7V49c-0.6,0-1-0.1-1.3-0.1c-1.6,0-2.9,0.4-3.8,1.3c-0.9,0.9-1.4,2.2-1.4,4v9.1H200V44.2
		h5.3v2.5C206,45.8,206.9,45.1,208.1,44.6L208.1,44.6z"/>
	<path d="M223.4,59.3c0.7-0.4,1.3-1.1,1.6-2v-2h-3.8c-2.3,0-3.4,0.8-3.4,2.3c0,0.7,0.3,1.3,0.8,1.7c0.6,0.4,1.3,0.6,2.3,0.6
		C221.8,60,222.6,59.8,223.4,59.3L223.4,59.3z M228.2,46c1.6,1.4,2.4,3.6,2.4,6.4v11h-5.2v-2.4c-1.1,1.8-3,2.7-5.9,2.7
		c-1.5,0-2.8-0.3-3.9-0.8c-1.1-0.5-1.9-1.2-2.5-2.1c-0.6-0.9-0.9-1.9-0.9-3c0-1.8,0.7-3.2,2-4.2c1.4-1,3.4-1.5,6.3-1.5h4.5
		c0-1.2-0.4-2.2-1.1-2.8c-0.7-0.7-1.9-1-3.3-1c-1,0-2,0.2-3,0.5c-1,0.3-1.8,0.8-2.5,1.3l-2-3.9c1.1-0.7,2.3-1.3,3.8-1.7
		c1.5-0.4,3-0.6,4.5-0.6C224.3,43.9,226.6,44.6,228.2,46L228.2,46z"/>
	<path d="M237.5,62.5c-1.6-0.8-2.9-2-3.8-3.5c-0.9-1.5-1.4-3.2-1.4-5.1c0-1.9,0.5-3.6,1.4-5.1c0.9-1.5,2.2-2.7,3.8-3.5
		c1.6-0.8,3.5-1.3,5.5-1.3c2,0,3.8,0.4,5.3,1.3c1.5,0.9,2.6,2.1,3.3,3.6l-4.3,2.3c-1-1.8-2.5-2.7-4.3-2.7c-1.5,0-2.7,0.5-3.6,1.4
		c-1,1-1.4,2.3-1.4,3.9c0,1.7,0.5,3,1.4,3.9c1,1,2.2,1.4,3.6,1.4c1.9,0,3.4-0.9,4.3-2.7l4.3,2.4c-0.7,1.5-1.8,2.7-3.3,3.6
		c-1.5,0.9-3.3,1.3-5.3,1.3C241,63.8,239.1,63.3,237.5,62.5L237.5,62.5z"/>
	<path d="M266.5,62.5c-0.6,0.4-1.2,0.7-2,0.9c-0.8,0.2-1.6,0.3-2.5,0.3c-2.3,0-4.1-0.6-5.3-1.8c-1.3-1.2-1.9-2.9-1.9-5.2v-7.9h-3
		v-4.3h3v-4.7h5.6v4.7h4.8v4.3h-4.8v7.9c0,0.8,0.2,1.4,0.6,1.9c0.4,0.4,1,0.7,1.8,0.7c0.9,0,1.6-0.2,2.3-0.7L266.5,62.5L266.5,62.5z
		"/>
	<path d="M280.2,57.7c0.9-1,1.4-2.3,1.4-3.9c0-1.6-0.5-2.9-1.4-3.9c-0.9-1-2.1-1.5-3.5-1.5s-2.6,0.5-3.6,1.5c-0.9,1-1.4,2.3-1.4,3.9
		c0,1.6,0.5,2.9,1.4,3.9c0.9,1,2.1,1.5,3.6,1.5S279.3,58.7,280.2,57.7L280.2,57.7z M271.2,62.5c-1.6-0.8-2.9-2-3.8-3.5
		c-0.9-1.5-1.4-3.2-1.4-5.1c0-1.9,0.5-3.6,1.4-5.1c0.9-1.5,2.2-2.7,3.8-3.5c1.6-0.8,3.4-1.3,5.5-1.3c2,0,3.9,0.4,5.5,1.3
		c1.6,0.9,2.9,2,3.8,3.5c0.9,1.5,1.4,3.2,1.4,5.1c0,1.9-0.5,3.6-1.4,5.1c-0.9,1.5-2.2,2.7-3.8,3.5c-1.6,0.9-3.4,1.3-5.5,1.3
		C274.7,63.8,272.8,63.3,271.2,62.5L271.2,62.5z"/>
	<path d="M297.2,44.6c1.1-0.5,2.4-0.7,3.9-0.7V49c-0.6,0-1-0.1-1.3-0.1c-1.6,0-2.9,0.4-3.8,1.3c-0.9,0.9-1.4,2.2-1.4,4v9.1h-5.6
		V44.2h5.3v2.5C295.2,45.8,296.1,45.1,297.2,44.6L297.2,44.6z"/>
</g>
</svg>
