<svg xmlns="http://www.w3.org/2000/svg" viewBox="0 0 997.90668 356.18668" height="356.18668" width="100%" xml:space="preserve" id="svg2" class="logo-0-2-98">
  <defs id="defs6">
    <clipPath id="clipPath86" clipPathUnits="userSpaceOnUse">
      <path id="path84" d="M 0,0 H 7484 V 2671 H 0 Z"></path>
    </clipPath>
    <clipPath id="clipPath92" clipPathUnits="userSpaceOnUse">
      <path id="path90" d="m 621.258,2611.89 c 0,0 -123.77,-376.07 9.512,-489.18 133.281,-113.26 189.941,-167.24 189.941,-167.24 0,0 63.762,45.07 212.239,137.36 148.55,92.3 81.58,482.56 81.58,482.56 -194.967,-21.03 -240.846,96.04 -240.846,96.04 0,0 -62.684,-109.04 -252.426,-59.54 m 170.449,-53.58 c -36.23,-114.39 -75.945,-315.99 5.16,-510.95 -30.672,27.32 -73.406,64.69 -129.801,112.59 -8.503,7.29 -15.871,16.67 -22.234,29.13 -9.574,18.48 -16.344,43.6 -19.555,72.6 -3.351,29 -3.281,61.62 -0.8,94.57 4.418,59.54 16.472,120.35 27.457,165.55 2.949,11.93 5.757,22.71 8.304,32.22 10.918,-1.67 21.496,-2.88 31.746,-3.68 9.039,-0.67 17.813,-0.93 26.387,-0.93 27.192,0 51.637,3.27 73.336,8.9"></path>
    </clipPath>
    <clipPath id="clipPath104" clipPathUnits="userSpaceOnUse">
      <path id="path102" d="M 0,0 H 7484 V 2671 H 0 Z"></path>
    </clipPath>
    <clipPath id="clipPath110" clipPathUnits="userSpaceOnUse">
      <path id="path108" d="m 21.4336,2145.81 c 0,0 84.3204,-93.36 -21.43750625,-258.45 0,0 319.40590625,-233.95 468.22690625,-142.13 148.816,91.76 217.668,128.8 217.668,128.8 0,0 -23.11,74.68 -65.036,244.52 C 578.93,2288.27 187.266,2345.2 187.266,2345.2 147.012,2153.32 21.4336,2145.81 21.4336,2145.81 M 334.34,1782.88 c -28.602,5.82 -59.61,16 -90.149,28.53 -55.32,22.63 -109.437,52.84 -149.0855,77.36 -10.3828,6.42 -19.8242,12.38 -27.9297,17.74 4.8242,9.91 9.3125,19.62 13.2617,29.13 14.4688,35.24 21.5005,67.85 23.3045,97.25 97.582,-69.85 277.008,-169.91 487.442,-152.97 -35.493,-20.76 -84.184,-49.83 -147.145,-88.67 -9.574,-5.9 -20.762,-9.92 -34.555,-12.19 -7.433,-1.21 -15.535,-1.75 -24.109,-1.75 -15.477,0 -32.754,1.89 -51.035,5.57"></path>
    </clipPath>
    <clipPath id="clipPath122" clipPathUnits="userSpaceOnUse">
      <path id="path120" d="m 119.617,1392.07 c 169.981,-97.58 138.301,-219.27 138.301,-219.27 0,0 114.863,51.3 239.172,-100.12 0,0 321.211,231.39 279.953,401.31 -41.32,169.91 -55.254,246.87 -55.254,246.87 0,0 -78.297,1.07 -252.562,13.66 -3.082,0.2 -6.094,0.33 -9.176,0.33 -171.391,0 -340.434,-342.78 -340.434,-342.78 M 476.059,1163.9 c -29.071,24.58 -58.004,41.45 -85.192,52.3 96.508,71.12 247.203,210.97 296.028,416.32 8.773,-40.19 21.296,-95.51 38.777,-167.37 2.68,-10.85 3.148,-22.85 0.937,-36.64 -3.082,-20.56 -12.523,-44.87 -26.855,-70.25 -14.332,-25.39 -33.555,-51.71 -54.984,-76.96 -38.582,-45.61 -83.993,-87.67 -119.489,-117.75 -9.375,-8.03 -18.011,-15.13 -25.648,-21.23 -7.903,7.71 -15.738,14.95 -23.574,21.58"></path>
    </clipPath>
    <clipPath id="clipPath134" clipPathUnits="userSpaceOnUse">
      <path id="path132" d="m 787.488,1471.51 c -65.968,-161.88 217.602,-438.29 217.602,-438.29 145.27,131.61 251.29,63.83 251.29,63.83 0,0 -13.33,125.11 169.25,196.5 0,0 -120.96,377.07 -295.3,390.27 -174.33,13.19 -251.752,23.71 -251.752,23.71 0,0 -25.25,-74.08 -91.09,-236.02 m 164.157,175.54 c 40.921,-4.02 97.515,-9.17 171.185,-14.74 11.25,-0.8 22.71,-4.21 35.1,-10.38 18.62,-9.44 38.91,-25.78 58.6,-47.35 19.69,-21.49 38.78,-47.95 56.19,-76.01 31.48,-50.84 57.4,-106.96 75.08,-150.16 4.62,-11.25 8.78,-21.7 12.26,-30.94 -9.85,-5.03 -19.09,-10.25 -27.86,-15.67 -32.35,-20.03 -57.27,-42.34 -75.95,-64.97 -37.98,113.86 -124.38,300.31 -304.605,410.22"></path>
    </clipPath>
    <clipPath id="clipPath146" clipPathUnits="userSpaceOnUse">
      <path id="path144" d="m 1501.98,2245 c -14.07,0 -396.76,-1.48 -462,-160.27 -66.5,-161.81 -100.39,-232.2 -100.39,-232.2 0,0 62.56,-46.82 196.37,-159.54 133.61,-112.71 483.96,71.6 483.96,71.6 -80.1,178.89 17.01,258.73 17.01,258.73 0,0 -123.1,25.91 -134.49,221.68 z m -415.31,-183.31 c 4.29,10.38 10.98,20.23 20.83,30.2 14.6,14.67 36.43,29.01 62.95,41.06 26.59,12.12 57.67,22.1 89.68,30.01 58.13,14.2 119.55,21.43 166.03,24.91 12.19,0.94 23.31,1.68 33.22,2.15 1.68,-10.92 3.88,-21.43 6.3,-31.35 9.04,-36.97 22.5,-67.65 38.31,-92.29 -120.02,-0.94 -324.03,-25.52 -484.3,-162.95 16.54,37.71 38.92,89.81 66.98,158.26"></path>
    </clipPath>
  </defs>
  <g transform="matrix(1.3333333,0,0,-1.3333333,0,356.18667)" id="g10">
  <g transform="scale(0.1)" id="g12">
    <path id="path14" d="m 2638.37,80.8086 c -19.01,5.7812 -34.05,13.4609 -45.12,23.0314 l 16.99,38.14 c 10.82,-8.558 24.1,-15.539 39.84,-20.949 15.72,-5.422 31.52,-8.133 47.38,-8.133 19.64,0 34.3,3.141 43.99,9.442 9.69,6.289 14.54,14.601 14.54,24.93 0,7.539 -2.71,13.769 -8.12,18.691 -5.41,4.91 -12.27,8.738 -20.58,11.508 -8.3,2.773 -19.63,5.922 -33.98,9.441 -20.14,4.781 -36.44,9.559 -48.9,14.352 -12.46,4.777 -23.16,12.269 -32.09,22.468 -8.94,10.2 -13.41,23.969 -13.41,41.352 0,14.598 3.97,27.879 11.9,39.828 7.93,11.949 19.88,21.461 35.87,28.512 15.98,7.047 35.55,10.57 58.71,10.57 16.11,0 31.97,-2.023 47.58,-6.043 15.61,-4.019 29.08,-9.82 40.41,-17.359 l -15.49,-38.149 c -11.58,6.801 -23.66,11.957 -36.25,15.489 -12.58,3.519 -24.79,5.281 -36.62,5.281 -19.39,0 -33.8,-3.27 -43.24,-9.813 -9.44,-6.546 -14.16,-15.238 -14.16,-26.058 0,-7.551 2.71,-13.719 8.12,-18.5 5.41,-4.789 12.27,-8.559 20.58,-11.328 8.31,-2.77 19.64,-5.922 33.99,-9.43 19.63,-4.543 35.73,-9.262 48.33,-14.16 12.58,-4.922 23.34,-12.41 32.28,-22.481 8.93,-10.062 13.4,-23.66 13.4,-40.781 0,-14.601 -3.96,-27.82 -11.89,-39.64 -7.93,-11.8403 -19.95,-21.2778 -36.06,-28.3286 -16.11,-7.043 -35.75,-10.5703 -58.91,-10.5703 -20.39,0 -40.08,2.8984 -59.09,8.6875" style="fill: rgb(54, 131, 179); fill-opacity: 1; fill-rule: nonzero; stroke: none;"></path>
    <path id="path16" d="m 2944.23,115.73 c 9.18,5.411 15.67,13.161 19.44,23.219 v 23.422 h -48.71 c -27.19,0 -40.78,-8.941 -40.78,-26.812 0,-8.559 3.4,-15.36 10.19,-20.387 6.8,-5.043 16.24,-7.551 28.32,-7.551 11.83,0 22.34,2.699 31.54,8.109 z m 43.04,142.739 c 15.73,-14.219 23.6,-35.688 23.6,-64.379 V 75.8984 h -44.56 v 24.5426 c -5.79,-8.8121 -14.03,-15.5504 -24.73,-20.1988 -10.7,-4.6524 -23.6,-6.9922 -38.7,-6.9922 -15.11,0 -28.32,2.5898 -39.65,7.75 -11.33,5.1484 -20.08,12.332 -26.24,21.52 -6.18,9.191 -9.25,19.57 -9.25,31.152 0,18.129 6.73,32.668 20.2,43.609 13.46,10.949 34.67,16.43 63.62,16.43 h 52.11 v 3.019 c 0,14.102 -4.22,24.918 -12.65,32.481 -8.43,7.551 -20.95,11.328 -37.57,11.328 -11.33,0 -22.47,-1.769 -33.42,-5.297 -10.95,-3.523 -20.2,-8.433 -27.75,-14.722 l -18.5,34.359 c 10.57,8.062 23.28,14.223 38.13,18.512 14.86,4.281 30.59,6.41 47.2,6.41 29.71,0 52.43,-7.11 68.16,-21.332" style="fill: rgb(54, 131, 179); fill-opacity: 1; fill-rule: nonzero; stroke: none;"></path>
    <path id="path18" d="m 3111.99,288.109 v -12.078 h 55.51 V 238.27 h -54 V 75.8984 h -47.2 V 238.27 h -33.23 v 37.761 h 33.23 v 12.84 c 0,21.641 6.29,38.699 18.88,51.16 12.59,12.461 30.33,18.688 53.24,18.688 18.13,0 32.34,-3.649 42.67,-10.949 l -13.22,-35.489 c -8.05,5.528 -16.74,8.309 -26.05,8.309 -19.89,0 -29.83,-10.828 -29.83,-32.481" style="fill: rgb(54, 131, 179); fill-opacity: 1; fill-rule: nonzero; stroke: none;"></path>
    <path id="path20" d="m 3240.22,228.641 c -10.45,-8.942 -16.8,-20.84 -19.07,-35.68 h 114.41 c -2.02,14.59 -8.18,26.418 -18.5,35.488 -10.32,9.063 -23.17,13.59 -38.52,13.59 -15.1,0 -27.88,-4.469 -38.32,-13.398 z m 139.52,-67.032 h -158.21 c 2.77,-14.847 10,-26.617 21.71,-35.3 11.7,-8.68 26.24,-13.028 43.61,-13.028 22.15,0 40.4,7.301 54.75,21.91 l 25.3,-29.089 c -9.06,-10.8207 -20.52,-19.0004 -34.36,-24.5434 -13.85,-5.5273 -29.45,-8.3086 -46.82,-8.3086 -22.16,0 -41.67,4.4102 -58.53,13.2188 -16.86,8.8125 -29.89,21.0822 -39.08,36.8202 -9.19,15.723 -13.78,33.543 -13.78,53.43 0,19.64 4.46,37.312 13.4,53.062 8.93,15.719 21.34,27.989 37.19,36.809 15.86,8.808 33.74,13.211 53.62,13.211 19.64,0 37.2,-4.34 52.68,-13.02 15.48,-8.679 27.56,-20.902 36.25,-36.633 8.69,-15.738 13.03,-33.929 13.03,-54.558 0,-3.281 -0.26,-7.93 -0.76,-13.981" style="fill: rgb(54, 131, 179); fill-opacity: 1; fill-rule: nonzero; stroke: none;"></path>
    <path id="path22" d="m 3533.31,279.801 v -44.93 c -4.03,0.75 -7.68,1.141 -10.95,1.141 -18.38,0 -32.73,-5.364 -43.05,-16.063 -10.32,-10.699 -15.48,-26.109 -15.48,-46.25 V 75.8984 h -47.2 V 277.539 h 44.94 V 248.09 c 13.59,21.14 37.5,31.711 71.74,31.711" style="fill: rgb(54, 131, 179); fill-opacity: 1; fill-rule: nonzero; stroke: none;"></path>
    <path id="path24" d="m 3583.11,127.262 c 5.79,-5.813 8.69,-13.352 8.69,-22.66 0,-4.032 -0.57,-8.2504 -1.7,-12.6606 -1.13,-4.4023 -3.47,-11.0117 -6.99,-19.8203 l -19.25,-53.2422 h -30.59 l 15.11,57.7695 c -5.54,2.2735 -9.89,5.8633 -13.03,10.7618 -3.15,4.9101 -4.72,10.6406 -4.72,17.1918 0,9.308 2.89,16.847 8.68,22.66 5.79,5.777 13.09,8.679 21.9,8.679 8.81,0 16.11,-2.902 21.9,-8.679" style="fill: rgb(54, 131, 179); fill-opacity: 1; fill-rule: nonzero; stroke: none;"></path>
    <path id="path26" d="M 3966.36,340.211 V 75.8984 h -49.09 V 189.18 H 3780.58 V 75.8984 h -49.09 V 340.211 h 49.09 V 231.09 h 136.69 v 109.121 h 49.09" style="fill: rgb(54, 131, 179); fill-opacity: 1; fill-rule: nonzero; stroke: none;"></path>
    <path id="path28" d="m 4073.75,228.641 c -10.45,-8.942 -16.8,-20.84 -19.07,-35.68 h 114.41 c -2.02,14.59 -8.18,26.418 -18.5,35.488 -10.32,9.063 -23.17,13.59 -38.52,13.59 -15.1,0 -27.88,-4.469 -38.32,-13.398 z m 139.52,-67.032 h -158.21 c 2.77,-14.847 10,-26.617 21.71,-35.3 11.7,-8.68 26.24,-13.028 43.61,-13.028 22.15,0 40.4,7.301 54.75,21.91 l 25.3,-29.089 c -9.06,-10.8207 -20.51,-19.0004 -34.36,-24.5434 -13.85,-5.5273 -29.46,-8.3086 -46.82,-8.3086 -22.16,0 -41.67,4.4102 -58.52,13.2188 -16.88,8.8125 -29.91,21.0822 -39.09,36.8202 -9.2,15.723 -13.79,33.543 -13.79,53.43 0,19.64 4.48,37.312 13.41,53.062 8.94,15.719 21.34,27.989 37.2,36.809 15.86,8.808 33.73,13.211 53.61,13.211 19.64,0 37.2,-4.34 52.68,-13.02 15.48,-8.679 27.57,-20.902 36.25,-36.633 8.68,-15.738 13.03,-33.929 13.03,-54.558 0,-3.281 -0.26,-7.93 -0.76,-13.981" style="fill: rgb(54, 131, 179); fill-opacity: 1; fill-rule: nonzero; stroke: none;"></path>
    <path id="path30" d="m 4351.43,115.73 c 9.18,5.411 15.66,13.161 19.44,23.219 v 23.422 h -48.71 c -27.19,0 -40.78,-8.941 -40.78,-26.812 0,-8.559 3.4,-15.36 10.2,-20.387 6.79,-5.043 16.24,-7.551 28.32,-7.551 11.82,0 22.33,2.699 31.53,8.109 z m 43.05,142.739 c 15.72,-14.219 23.59,-35.688 23.59,-64.379 V 75.8984 h -44.55 v 24.5426 c -5.8,-8.8121 -14.04,-15.5504 -24.74,-20.1988 -10.7,-4.6524 -23.6,-6.9922 -38.7,-6.9922 -15.11,0 -28.32,2.5898 -39.65,7.75 -11.33,5.1484 -20.08,12.332 -26.24,21.52 -6.17,9.191 -9.26,19.57 -9.26,31.152 0,18.129 6.74,32.668 20.21,43.609 13.47,10.949 34.68,16.43 63.62,16.43 h 52.11 v 3.019 c 0,14.102 -4.22,24.918 -12.64,32.481 -8.44,7.551 -20.96,11.328 -37.58,11.328 -11.33,0 -22.46,-1.769 -33.41,-5.297 -10.96,-3.523 -20.21,-8.433 -27.75,-14.722 l -18.51,34.359 c 10.58,8.062 23.28,14.223 38.13,18.512 14.86,4.281 30.59,6.41 47.2,6.41 29.71,0 52.42,-7.11 68.17,-21.332" style="fill: rgb(54, 131, 179); fill-opacity: 1; fill-rule: nonzero; stroke: none;"></path>
    <path id="path32" d="m 4468.03,356.07 h 47.2 V 75.8984 h -47.2 V 356.07" style="fill: rgb(54, 131, 179); fill-opacity: 1; fill-rule: nonzero; stroke: none;"></path>
    <path id="path34" d="m 4690.08,86.8516 c -5.54,-4.543 -12.26,-7.9297 -20.19,-10.2032 -7.93,-2.2695 -16.31,-3.3984 -25.12,-3.3984 -22.15,0 -39.27,5.7891 -51.35,17.3711 -12.08,11.5779 -18.12,28.4489 -18.12,50.5979 v 97.051 h -33.24 v 37.761 h 33.24 v 46.059 h 47.19 v -46.059 h 54 V 238.27 h -54 v -95.918 c 0,-9.813 2.4,-17.301 7.18,-22.461 4.78,-5.161 11.7,-7.743 20.76,-7.743 10.58,0 19.39,2.762 26.44,8.313 l 13.21,-33.6094" style="fill: rgb(54, 131, 179); fill-opacity: 1; fill-rule: nonzero; stroke: none;"></path>
    <path id="path36" d="m 4892.55,257.531 c 15.35,-14.859 23.04,-36.89 23.04,-66.09 V 75.8984 h -47.2 V 185.398 c 0,17.622 -4.16,30.903 -12.46,39.844 -8.31,8.93 -20.15,13.399 -35.5,13.399 -17.37,0 -31.09,-5.219 -41.16,-15.661 -10.07,-10.449 -15.1,-25.488 -15.1,-45.128 V 75.8984 h -47.19 V 356.07 h 47.19 V 254.129 c 7.81,8.301 17.43,14.66 28.89,19.062 11.45,4.411 24.22,6.61 38.32,6.61 25.43,0 45.82,-7.43 61.17,-22.27" style="fill: rgb(54, 131, 179); fill-opacity: 1; fill-rule: nonzero; stroke: none;"></path>
    <path id="path38" d="m 4964.18,277.539 h 47.2 V 75.8984 h -47.2 z m 2.27,41.352 c -5.8,5.41 -8.69,12.14 -8.69,20.191 0,8.059 2.89,14.789 8.69,20.207 5.78,5.41 12.96,8.109 21.52,8.109 8.56,0 15.72,-2.578 21.53,-7.726 5.78,-5.172 8.68,-11.652 8.68,-19.461 0,-8.301 -2.84,-15.289 -8.5,-20.949 -5.66,-5.672 -12.9,-8.5 -21.71,-8.5 -8.56,0 -15.74,2.707 -21.52,8.129" style="fill: rgb(54, 131, 179); fill-opacity: 1; fill-rule: nonzero; stroke: none;"></path>
    <path id="path40" d="m 5113.67,228.641 c -10.44,-8.942 -16.8,-20.84 -19.07,-35.68 h 114.42 c -2.02,14.59 -8.19,26.418 -18.51,35.488 -10.32,9.063 -23.16,13.59 -38.51,13.59 -15.11,0 -27.89,-4.469 -38.33,-13.398 z m 139.53,-67.032 h -158.22 c 2.77,-14.847 10,-26.617 21.71,-35.3 11.7,-8.68 26.24,-13.028 43.62,-13.028 22.14,0 40.4,7.301 54.74,21.91 l 25.3,-29.089 c -9.06,-10.8207 -20.51,-19.0004 -34.36,-24.5434 -13.85,-5.5273 -29.45,-8.3086 -46.82,-8.3086 -22.16,0 -41.67,4.4102 -58.52,13.2188 -16.88,8.8125 -29.9,21.0822 -39.08,36.8202 -9.2,15.723 -13.79,33.543 -13.79,53.43 0,19.64 4.47,37.312 13.4,53.062 8.94,15.719 21.34,27.989 37.2,36.809 15.86,8.808 33.73,13.211 53.62,13.211 19.63,0 37.19,-4.34 52.67,-13.02 15.48,-8.679 27.57,-20.902 36.25,-36.633 8.68,-15.738 13.03,-33.929 13.03,-54.558 0,-3.281 -0.26,-7.93 -0.75,-13.981" style="fill: rgb(54, 131, 179); fill-opacity: 1; fill-rule: nonzero; stroke: none;"></path>
    <path id="path42" d="m 5406.75,279.801 v -44.93 c -4.02,0.75 -7.67,1.141 -10.95,1.141 -18.38,0 -32.72,-5.364 -43.04,-16.063 -10.33,-10.699 -15.48,-26.109 -15.48,-46.25 V 75.8984 h -47.2 V 277.539 h 44.93 V 248.09 c 13.6,21.14 37.5,31.711 71.74,31.711" style="fill: rgb(54, 131, 179); fill-opacity: 1; fill-rule: nonzero; stroke: none;"></path>
    <path id="path44" d="m 5454.83,127.262 c 5.78,-5.813 8.68,-13.352 8.68,-22.66 0,-4.032 -0.57,-8.2504 -1.7,-12.6606 -1.13,-4.4023 -3.47,-11.0117 -6.98,-19.8203 l -19.26,-53.2422 h -30.59 l 15.1,57.7695 c -5.54,2.2735 -9.88,5.8633 -13.03,10.7618 -3.14,4.9101 -4.71,10.6406 -4.71,17.1918 0,9.308 2.89,16.847 8.68,22.66 5.79,5.777 13.08,8.679 21.9,8.679 8.81,0 16.11,-2.902 21.91,-8.679" style="fill: rgb(54, 131, 179); fill-opacity: 1; fill-rule: nonzero; stroke: none;"></path>
    <path id="path46" d="m 5626.06,80.8086 c -19.02,5.7812 -34.05,13.4609 -45.13,23.0314 l 16.99,38.14 c 10.82,-8.558 24.1,-15.539 39.85,-20.949 15.72,-5.422 31.52,-8.133 47.38,-8.133 19.64,0 34.3,3.141 43.99,9.442 9.69,6.289 14.53,14.601 14.53,24.93 0,7.539 -2.7,13.769 -8.11,18.691 -5.42,4.91 -12.28,8.738 -20.58,11.508 -8.31,2.773 -19.64,5.922 -33.98,9.441 -20.15,4.781 -36.44,9.559 -48.9,14.352 -12.46,4.777 -23.16,12.269 -32.1,22.468 -8.93,10.2 -13.41,23.969 -13.41,41.352 0,14.598 3.97,27.879 11.9,39.828 7.93,11.949 19.88,21.461 35.88,28.512 15.97,7.047 35.55,10.57 58.71,10.57 16.1,0 31.96,-2.023 47.58,-6.043 15.6,-4.019 29.07,-9.82 40.4,-17.359 l -15.48,-38.149 c -11.58,6.801 -23.66,11.957 -36.25,15.489 -12.59,3.519 -24.8,5.281 -36.63,5.281 -19.39,0 -33.79,-3.27 -43.23,-9.813 -9.44,-6.546 -14.16,-15.238 -14.16,-26.058 0,-7.551 2.7,-13.719 8.12,-18.5 5.41,-4.789 12.27,-8.559 20.58,-11.328 8.3,-2.77 19.63,-5.922 33.98,-9.43 19.63,-4.543 35.74,-9.262 48.33,-14.16 12.59,-4.922 23.35,-12.41 32.29,-22.481 8.93,-10.062 13.4,-23.66 13.4,-40.781 0,-14.601 -3.96,-27.82 -11.89,-39.64 -7.93,-11.8403 -19.96,-21.2778 -36.06,-28.3286 -16.12,-7.043 -35.76,-10.5703 -58.91,-10.5703 -20.39,0 -40.09,2.8984 -59.09,8.6875" style="fill: rgb(54, 131, 179); fill-opacity: 1; fill-rule: nonzero; stroke: none;"></path>
    <path id="path48" d="m 5947.04,86.8516 c -5.53,-4.543 -12.26,-7.9297 -20.19,-10.2032 -7.93,-2.2695 -16.31,-3.3984 -25.12,-3.3984 -22.15,0 -39.27,5.7891 -51.35,17.3711 -12.08,11.5779 -18.12,28.4489 -18.12,50.5979 v 97.051 h -33.23 v 37.761 h 33.23 v 46.059 h 47.2 v -46.059 h 53.99 V 238.27 h -53.99 v -95.918 c 0,-9.813 2.39,-17.301 7.17,-22.461 4.78,-5.161 11.7,-7.743 20.77,-7.743 10.57,0 19.38,2.762 26.43,8.313 l 13.21,-33.6094" style="fill: rgb(54, 131, 179); fill-opacity: 1; fill-rule: nonzero; stroke: none;"></path>
    <path id="path50" d="m 6090.61,279.801 v -44.93 c -4.02,0.75 -7.68,1.141 -10.95,1.141 -18.38,0 -32.72,-5.364 -43.05,-16.063 -10.32,-10.699 -15.47,-26.109 -15.47,-46.25 V 75.8984 h -47.2 V 277.539 h 44.93 V 248.09 c 13.59,21.14 37.5,31.711 71.74,31.711" style="fill: rgb(54, 131, 179); fill-opacity: 1; fill-rule: nonzero; stroke: none;"></path>
    <path id="path52" d="m 6254,131.031 c 11.33,11.578 16.99,26.809 16.99,45.688 0,18.883 -5.66,34.113 -16.99,45.691 -11.33,11.57 -25.68,17.371 -43.05,17.371 -17.36,0 -31.65,-5.801 -42.85,-17.371 -11.2,-11.578 -16.81,-26.808 -16.81,-45.691 0,-18.879 5.61,-34.11 16.81,-45.688 11.2,-11.59 25.49,-17.371 42.85,-17.371 17.37,0 31.72,5.781 43.05,17.371 z m -98.18,-44.5622 c -16.36,8.8125 -29.14,21.0822 -38.32,36.8202 -9.2,15.723 -13.79,33.543 -13.79,53.43 0,19.883 4.59,37.633 13.79,53.242 9.18,15.609 21.96,27.809 38.32,36.629 16.37,8.808 34.74,13.211 55.13,13.211 20.64,0 39.14,-4.403 55.51,-13.211 16.37,-8.82 29.14,-21.02 38.33,-36.629 9.19,-15.609 13.78,-33.359 13.78,-53.242 0,-19.887 -4.59,-37.707 -13.78,-53.43 -9.19,-15.738 -21.96,-28.0077 -38.33,-36.8202 -16.37,-8.8086 -34.87,-13.2188 -55.51,-13.2188 -20.39,0 -38.76,4.4102 -55.13,13.2188" style="fill: rgb(54, 131, 179); fill-opacity: 1; fill-rule: nonzero; stroke: none;"></path>
    <path id="path54" d="m 6531.04,257.531 c 15.35,-14.859 23.04,-36.89 23.04,-66.09 V 75.8984 h -47.2 V 185.398 c 0,17.622 -4.16,30.903 -12.46,39.844 -8.31,8.93 -20.15,13.399 -35.5,13.399 -17.37,0 -31.09,-5.219 -41.16,-15.661 -10.07,-10.449 -15.1,-25.488 -15.1,-45.128 V 75.8984 h -47.2 V 277.539 h 44.93 V 251.48 c 7.81,9.309 17.62,16.36 29.46,21.149 11.82,4.781 25.16,7.172 40.02,7.172 25.43,0 45.82,-7.43 61.17,-22.27" style="fill: rgb(54, 131, 179); fill-opacity: 1; fill-rule: nonzero; stroke: none;"></path>
    <path id="path56" d="m 6740.86,141.031 c 11.46,10.699 17.19,24.598 17.19,41.731 0,16.859 -5.73,30.59 -17.19,41.16 -11.45,10.57 -26.11,15.859 -43.98,15.859 -18.13,0 -32.92,-5.289 -44.37,-15.859 -11.46,-10.57 -17.18,-24.301 -17.18,-41.16 0,-17.133 5.72,-31.032 17.18,-41.731 11.45,-10.699 26.24,-16.039 44.37,-16.039 17.87,0 32.53,5.34 43.98,16.039 z m 63.64,136.508 V 106.48 C 6804.5,35.5 6768.25,0 6695.75,0 c -19.39,0 -37.77,2.44922 -55.13,7.35938 -17.37,4.92192 -31.72,12.01952 -43.05,21.33982 l 21.14,35.4922 c 8.81,-7.3008 19.96,-13.1523 33.42,-17.5625 13.47,-4.3867 27.12,-6.5976 40.97,-6.5976 22.15,0 38.39,5.039 48.71,15.0976 10.32,10.0703 15.48,25.4297 15.48,46.0701 v 10.571 c -8.06,-8.809 -17.87,-15.4809 -29.45,-20.0083 -11.59,-4.5312 -24.3,-6.8008 -38.14,-6.8008 -19.13,0 -36.44,4.0899 -51.91,12.2813 -15.49,8.1678 -27.7,19.6798 -36.63,34.5468 -8.94,14.84 -13.41,31.832 -13.41,50.973 0,19.117 4.47,36.058 13.41,50.777 8.93,14.731 21.14,26.121 36.63,34.18 15.47,8.051 32.78,12.082 51.91,12.082 14.6,0 27.88,-2.391 39.83,-7.172 11.96,-4.789 21.97,-12.078 30.02,-21.899 v 26.809 h 44.95" style="fill: rgb(54, 131, 179); fill-opacity: 1; fill-rule: nonzero; stroke: none;"></path>
    <path id="path58" d="m 6907.28,228.641 c -10.45,-8.942 -16.81,-20.84 -19.07,-35.68 h 114.41 c -2.02,14.59 -8.18,26.418 -18.51,35.488 -10.32,9.063 -23.16,13.59 -38.51,13.59 -15.11,0 -27.88,-4.469 -38.32,-13.398 z m 139.52,-67.032 h -158.21 c 2.76,-14.847 10,-26.617 21.71,-35.3 11.7,-8.68 26.24,-13.028 43.61,-13.028 22.15,0 40.4,7.301 54.75,21.91 l 25.3,-29.089 c -9.06,-10.8207 -20.52,-19.0004 -34.37,-24.5434 -13.84,-5.5273 -29.45,-8.3086 -46.81,-8.3086 -22.16,0 -41.67,4.4102 -58.53,13.2188 -16.87,8.8125 -29.9,21.0822 -39.08,36.8202 -9.2,15.723 -13.79,33.543 -13.79,53.43 0,19.64 4.47,37.312 13.41,53.062 8.93,15.719 21.34,27.989 37.2,36.809 15.85,8.808 33.73,13.211 53.61,13.211 19.64,0 37.2,-4.34 52.67,-13.02 15.48,-8.679 27.57,-20.902 36.25,-36.633 8.69,-15.738 13.03,-33.929 13.03,-54.558 0,-3.281 -0.25,-7.93 -0.75,-13.981" style="fill: rgb(54, 131, 179); fill-opacity: 1; fill-rule: nonzero; stroke: none;"></path>
    <path id="path60" d="m 7200.35,279.801 v -44.93 c -4.02,0.75 -7.67,1.141 -10.94,1.141 -18.38,0 -32.73,-5.364 -43.05,-16.063 -10.32,-10.699 -15.48,-26.109 -15.48,-46.25 V 75.8984 h -47.2 V 277.539 h 44.94 V 248.09 c 13.59,21.14 37.5,31.711 71.73,31.711" style="fill: rgb(54, 131, 179); fill-opacity: 1; fill-rule: nonzero; stroke: none;"></path>
    <path id="path62" d="m 1997.21,1538.3 h -3.15 l -158.4,-451.68 h 319.94 z m -120.76,219.54 h 247.74 L 2553.9,663.27 h -243.05 l -94.1,250.89 h -443.78 l -95.64,-250.89 h -227.38 l 426.5,1094.57" style="fill: rgb(4, 6, 6); fill-opacity: 1; fill-rule: nonzero; stroke: none;"></path>
    <path id="path64" d="m 2618.11,1839.4 h 210.1 V 663.25 h -210.1 V 1839.4" style="fill: rgb(4, 6, 6); fill-opacity: 1; fill-rule: nonzero; stroke: none;"></path>
    <path id="path66" d="m 3510.34,1296.8 c -37.57,17.28 -78.43,29.73 -142.66,29.73 -130.2,0 -213.31,-103.41 -213.31,-255.5 0,-149.018 70.59,-263.479 218,-263.479 59.54,0 125.45,21.961 161.48,37.57 l 9.44,-174.07 c -61.22,-18.762 -123.9,-26.59 -210.17,-26.59 -264.95,0 -398.3,180.359 -398.3,426.569 0,233.6 137.97,418.65 390.47,418.65 84.65,0 145.87,-9.37 203.87,-26.65 l -18.82,-166.23" style="fill: rgb(4, 6, 6); fill-opacity: 1; fill-rule: nonzero; stroke: none;"></path>
    <path id="path68" d="m 4361.78,663.262 h -199.11 v 109.777 h -3.16 C 4095.16,694.68 4004.2,644.441 3894.49,644.441 c -191.34,0 -274.45,134.891 -274.45,316.719 v 509.68 h 210.16 v -431.18 c 0,-98.859 1.61,-232.129 136.43,-232.129 152.1,0 185.05,164.688 185.05,268.159 v 395.15 h 210.1 V 663.262" style="fill: rgb(4, 6, 6); fill-opacity: 1; fill-rule: nonzero; stroke: none;"></path>
    <path id="path70" d="m 4512.27,1470.86 h 195.97 v -112.92 h 3.14 c 65.91,98.79 161.54,131.74 239.91,131.74 112.98,0 192.95,-42.32 238.36,-142.65 48.69,97.18 153.77,142.65 252.49,142.65 199.19,0 255.65,-136.42 255.65,-316.72 V 663.281 h -210.1 V 1144.7 c 0,75.28 0,181.9 -120.82,181.9 -139.51,0 -156.79,-166.23 -156.79,-271.32 V 663.281 H 4999.97 V 1144.7 c 0,75.28 0,181.9 -120.75,181.9 -139.57,0 -156.85,-166.23 -156.85,-271.32 V 663.281 h -210.1 v 807.579" style="fill: rgb(4, 6, 6); fill-opacity: 1; fill-rule: nonzero; stroke: none;"></path>
    <path id="path72" d="m 6588.39,663.262 h -199.12 v 109.777 h -3.14 C 6321.76,694.68 6230.8,644.441 6121.11,644.441 c -191.35,0 -274.47,134.891 -274.47,316.719 v 509.68 h 210.17 v -431.18 c 0,-98.859 1.6,-232.129 136.42,-232.129 152.1,0 185.05,164.688 185.05,268.159 v 395.15 h 210.11 V 663.262" style="fill: rgb(4, 6, 6); fill-opacity: 1; fill-rule: nonzero; stroke: none;"></path>
    <path id="path74" d="m 7221.86,1301.5 c -64.3,21.97 -111.38,34.49 -188.2,34.49 -56.46,0 -123.83,-20.36 -123.83,-89.34 0,-128.66 365.34,-47.09 365.34,-338.759 0,-188.2 -167.83,-263.481 -338.69,-263.481 -80.03,0 -161.55,14.129 -238.36,34.551 l 12.52,172.527 c 65.91,-32.949 134.89,-53.379 207.02,-53.379 53.31,0 137.97,20.43 137.97,98.789 0,158.402 -365.35,50.172 -365.35,341.912 0,174.07 152.11,250.89 316.79,250.89 98.72,0 163.09,-15.67 228.92,-29.81 l -14.13,-158.39" style="fill: rgb(4, 6, 6); fill-opacity: 1; fill-rule: nonzero; stroke: none;"></path>
    <path id="path76" d="m 7352.17,1616.78 h 25.25 c 16.22,0 26.65,3.35 26.65,20.29 0,14.74 -13.19,19.09 -26.65,19.09 h -25.25 z m -21.16,55.93 h 49.7 c 29.87,0 44.6,-11.99 44.6,-36.57 0,-20.9 -13.2,-35.97 -33.49,-35.97 l 36.9,-57.46 h -22.5 l -36.23,57.46 h -17.82 v -57.46 h -21.16 z m 42.66,-159.47 c 51.04,0 89.42,41.12 89.42,94.3 0,53.18 -38.38,94.43 -89.42,94.43 -51.64,0 -90.07,-41.25 -90.07,-94.43 0,-53.18 38.43,-94.3 90.07,-94.3 m -0.33,205.28 c 61.21,0 110.98,-49.77 110.98,-110.98 0,-61.15 -49.77,-110.91 -110.98,-110.91 -61.15,0 -110.92,49.76 -110.92,110.91 0,61.21 49.77,110.98 110.92,110.98" style="fill: rgb(4, 6, 6); fill-opacity: 1; fill-rule: nonzero; stroke: none;"></path>
    <path id="path78" d="m 621.258,2611.89 c 0,0 -123.77,-376.07 9.512,-489.18 133.281,-113.26 189.941,-167.24 189.941,-167.24 0,0 63.762,45.07 212.239,137.36 148.55,92.3 81.58,482.56 81.58,482.56 -194.967,-21.03 -240.846,96.04 -240.846,96.04 0,0 -62.684,-109.04 -252.426,-59.54 m 170.449,-53.58 c -36.23,-114.39 -75.945,-315.99 5.16,-510.95 -30.672,27.32 -73.406,64.69 -129.801,112.59 -8.503,7.29 -15.871,16.67 -22.234,29.13 -9.574,18.48 -16.344,43.6 -19.555,72.6 -3.351,29 -3.281,61.62 -0.8,94.57 4.418,59.54 16.472,120.35 27.457,165.55 2.949,11.93 5.757,22.71 8.304,32.22 10.918,-1.67 21.496,-2.88 31.746,-3.68 9.039,-0.67 17.813,-0.93 26.387,-0.93 27.192,0 51.637,3.27 73.336,8.9" style="fill: rgb(54, 131, 179); fill-opacity: 1; fill-rule: nonzero; stroke: none;"></path>
    <g id="g80">
      <g clip-path="url(#clipPath86)" id="g82">
        <g clip-path="url(#clipPath92)" id="g88">
          <path id="path94" d="M 149.281,2396.53 918.871,3004.1 1529.71,2230.37 760.121,1622.8 149.281,2396.53" style="fill: rgb(54, 131, 179); fill-opacity: 1; fill-rule: nonzero; stroke: none;"></path>
        </g>
      </g>
    </g>
    <path id="path96" d="m 21.4336,2145.81 c 0,0 84.3204,-93.36 -21.43750625,-258.45 0,0 319.40590625,-233.95 468.22690625,-142.13 148.816,91.76 217.668,128.8 217.668,128.8 0,0 -23.11,74.68 -65.036,244.52 C 578.93,2288.27 187.266,2345.2 187.266,2345.2 147.012,2153.32 21.4336,2145.81 21.4336,2145.81 M 334.34,1782.88 c -28.602,5.82 -59.61,16 -90.149,28.53 -55.32,22.63 -109.437,52.84 -149.0855,77.36 -10.3828,6.42 -19.8242,12.38 -27.9297,17.74 4.8242,9.91 9.3125,19.62 13.2617,29.13 14.4688,35.24 21.5005,67.85 23.3045,97.25 97.582,-69.85 277.008,-169.91 487.442,-152.97 -35.493,-20.76 -84.184,-49.83 -147.145,-88.67 -9.574,-5.9 -20.762,-9.92 -34.555,-12.19 -7.433,-1.21 -15.535,-1.75 -24.109,-1.75 -15.477,0 -32.754,1.89 -51.035,5.57" style="fill: rgb(54, 131, 179); fill-opacity: 1; fill-rule: nonzero; stroke: none;"></path>
    <g id="g98">
      <g clip-path="url(#clipPath104)" id="g100">
        <g clip-path="url(#clipPath110)" id="g106">
          <path id="path112" d="m -336.445,2079.58 758.98,599.19 599.805,-759.74 -758.988,-599.2 -599.797,759.75" style="fill: rgb(54, 131, 179); fill-opacity: 1; fill-rule: nonzero; stroke: none;"></path>
        </g>
      </g>
    </g>
    <path id="path114" d="m 119.617,1392.07 c 169.981,-97.58 138.301,-219.27 138.301,-219.27 0,0 114.863,51.3 239.172,-100.12 0,0 321.211,231.39 279.953,401.31 -41.32,169.91 -55.254,246.87 -55.254,246.87 0,0 -78.297,1.07 -252.562,13.66 -3.082,0.2 -6.094,0.33 -9.176,0.33 -171.391,0 -340.434,-342.78 -340.434,-342.78 M 476.059,1163.9 c -29.071,24.58 -58.004,41.45 -85.192,52.3 96.508,71.12 247.203,210.97 296.028,416.32 8.773,-40.19 21.296,-95.51 38.777,-167.37 2.68,-10.85 3.148,-22.85 0.937,-36.64 -3.082,-20.56 -12.523,-44.87 -26.855,-70.25 -14.332,-25.39 -33.555,-51.71 -54.984,-76.96 -38.582,-45.61 -83.993,-87.67 -119.489,-117.75 -9.375,-8.03 -18.011,-15.13 -25.648,-21.23 -7.903,7.71 -15.738,14.95 -23.574,21.58" style="fill: rgb(54, 131, 179); fill-opacity: 1; fill-rule: nonzero; stroke: none;"></path>
    <g id="g116">
      <g clip-path="url(#clipPath122)" id="g118">
        <path id="path124" d="M -202.434,1480.61 550.031,2074.66 1140.35,1326.92 387.883,732.871 -202.434,1480.61" style="fill: rgb(54, 131, 179); fill-opacity: 1; fill-rule: nonzero; stroke: none;"></path>
      </g>
    </g>
    <path id="path126" d="m 787.488,1471.51 c -65.968,-161.88 217.602,-438.29 217.602,-438.29 145.27,131.61 251.29,63.83 251.29,63.83 0,0 -13.33,125.11 169.25,196.5 0,0 -120.96,377.07 -295.3,390.27 -174.33,13.19 -251.752,23.71 -251.752,23.71 0,0 -25.25,-74.08 -91.09,-236.02 m 164.157,175.54 c 40.921,-4.02 97.515,-9.17 171.185,-14.74 11.25,-0.8 22.71,-4.21 35.1,-10.38 18.62,-9.44 38.91,-25.78 58.6,-47.35 19.69,-21.49 38.78,-47.95 56.19,-76.01 31.48,-50.84 57.4,-106.96 75.08,-150.16 4.62,-11.25 8.78,-21.7 12.26,-30.94 -9.85,-5.03 -19.09,-10.25 -27.86,-15.67 -32.35,-20.03 -57.27,-42.34 -75.95,-64.97 -37.98,113.86 -124.38,300.31 -304.605,410.22" style="fill: rgb(54, 131, 179); fill-opacity: 1; fill-rule: nonzero; stroke: none;"></path>
    <g id="g128">
      <g clip-path="url(#clipPath134)" id="g130">
        <path id="path136" d="m 393.57,1448.62 761.71,601.34 598.29,-757.83 L 991.867,690.781 393.57,1448.62" style="fill: rgb(54, 131, 179); fill-opacity: 1; fill-rule: nonzero; stroke: none;"></path>
      </g>
    </g>
    <path id="path138" d="m 1501.98,2245 c -14.07,0 -396.76,-1.48 -462,-160.27 -66.5,-161.81 -100.39,-232.2 -100.39,-232.2 0,0 62.56,-46.82 196.37,-159.54 133.61,-112.71 483.96,71.6 483.96,71.6 -80.1,178.89 17.01,258.73 17.01,258.73 0,0 -123.1,25.91 -134.49,221.68 z m -415.31,-183.31 c 4.29,10.38 10.98,20.23 20.83,30.2 14.6,14.67 36.43,29.01 62.95,41.06 26.59,12.12 57.67,22.1 89.68,30.01 58.13,14.2 119.55,21.43 166.03,24.91 12.19,0.94 23.31,1.68 33.22,2.15 1.68,-10.92 3.88,-21.43 6.3,-31.35 9.04,-36.97 22.5,-67.65 38.31,-92.29 -120.02,-0.94 -324.03,-25.52 -484.3,-162.95 16.54,37.71 38.92,89.81 66.98,158.26" style="fill: rgb(54, 131, 179); fill-opacity: 1; fill-rule: nonzero; stroke: none;"></path>
      <g id="g140">
        <g clip-path="url(#clipPath146)" id="g142">
          <path id="path148" d="m 616.301,1989.77 752.879,594.38 591.04,-748.65 -752.88,-594.38 -591.039,748.65" style="fill: rgb(54, 131, 179); fill-opacity: 1; fill-rule: nonzero; stroke: none;"></path>
        </g>
      </g>
    </g>
  </g>
</svg>
