<svg width="1405" height="888" viewBox="0 0 1405 888" fill="none" xmlns="http://www.w3.org/2000/svg">
<g clip-path="url(#clip0_11636_17134)">
<path d="M230.939 886.141L136.187 337.089C135.082 323.103 138.949 309.208 147.144 297.799L370.813 48.3468C376.798 40.0654 384.809 33.5324 394.11 29.2997C403.41 25.067 413.631 23.3187 423.76 24.2389L1109.59 91.6857C1121.74 92.7898 1133.16 97.5746 1142.46 105.396C1151.76 113.217 1158.39 123.799 1161.43 135.577L1266.68 480.356C1269.26 490.293 1269.17 500.783 1266.5 510.629L1163.55 887.613L230.939 886.141Z" fill="#F2F8FB"/>
<path d="M556.514 192.094H546.245V544.188H556.514V192.094Z" fill="#A3CAE5"/>
<path d="M547.712 192.094H241.707L144.899 299.706C136.884 310.835 133.102 324.388 134.182 338.03L169.844 544.188H547.712V192.094Z" fill="#BFDAED"/>
<path d="M534.508 205.298H229.129L144.902 299.414C136.885 310.593 133.102 324.205 134.183 337.908L167.693 532.452H534.508V205.298Z" fill="#E6F0F8"/>
<path opacity="0.3" d="M534.508 205.298H229.129L144.902 299.414C136.885 310.593 133.102 324.205 134.183 337.908L167.693 532.452H534.508V205.298Z" fill="white"/>
<g opacity="0.3">
<path opacity="0.3" d="M453.924 381.054H374.057V460.922H453.924V381.054Z" fill="#66A7D3"/>
</g>
<path d="M534.507 532.452H168.642L167.743 526.584H534.507V532.452Z" fill="#BFDAED"/>
<path d="M445.018 374.009H365.797V453.231H445.018V374.009Z" fill="white"/>
<g opacity="0.15">
<g opacity="0.15">
<path opacity="0.15" d="M408.769 384.472C408.769 385.192 408.589 385.911 408.23 386.451C407.87 387.08 407.33 387.53 406.611 387.8C405.981 388.07 405.262 388.16 404.542 387.98C403.823 387.8 403.193 387.44 402.743 386.99C402.114 386.361 401.754 385.461 401.754 384.472C401.754 383.573 402.114 382.673 402.743 382.044C403.373 381.414 404.272 381.054 405.172 381.054C406.071 381.054 406.971 381.414 407.69 382.044C408.32 382.673 408.769 383.573 408.769 384.472Z" fill="black"/>
</g>
</g>
<g opacity="0.15">
<g opacity="0.15">
<path opacity="0.15" d="M227.543 407.224C227.543 408.033 227.273 408.753 226.733 409.383C226.194 410.012 225.564 410.372 224.754 410.552C223.945 410.732 223.136 410.552 222.506 410.192C221.786 409.832 221.247 409.203 220.977 408.483C220.707 407.764 220.617 406.954 220.887 406.235C221.157 405.515 221.607 404.796 222.236 404.436C222.866 403.986 223.675 403.806 224.485 403.896C225.294 403.986 226.014 404.346 226.553 404.885C227.183 405.515 227.543 406.325 227.543 407.224Z" fill="black"/>
</g>
</g>
<path d="M230.827 303.591H161.875V366.674H230.827V303.591Z" fill="#E6F0F8"/>
<g opacity="0.5">
<path d="M664.374 239.132C679.464 254.221 703.93 254.221 719.02 239.131C734.11 224.041 734.11 199.575 719.021 184.486C703.931 169.396 679.466 169.397 664.376 184.487C649.285 199.577 649.285 224.042 664.374 239.132Z" fill="#A3CAE5"/>
<path d="M989.446 569.428C1004.54 584.518 1029 584.518 1044.09 569.428C1059.18 554.339 1059.18 529.874 1044.09 514.784C1029 499.695 1004.54 499.695 989.446 514.784C974.356 529.874 974.356 554.339 989.446 569.428Z" fill="#A3CAE5"/>
<path d="M773.34 322.147C812.281 283.207 875.416 283.206 914.356 322.147C953.297 361.087 953.296 424.222 914.355 463.163C875.415 502.103 812.28 502.104 773.339 463.164C734.399 424.223 734.399 361.088 773.34 322.147Z" fill="#A3CAE5"/>
<path d="M1139.18 345.301C1139.18 366.641 1121.88 383.941 1100.54 383.941C1079.2 383.941 1061.9 366.641 1061.9 345.301C1061.9 323.961 1079.2 306.662 1100.54 306.662C1121.88 306.662 1139.18 323.961 1139.18 345.301Z" fill="#A3CAE5"/>
</g>
<path d="M989.32 291.029H723.548C718.512 291.029 714.43 295.112 714.43 300.148V484.864C714.43 489.9 718.512 493.983 723.548 493.983H989.32C994.356 493.983 998.439 489.9 998.439 484.864V300.148C998.439 295.112 994.356 291.029 989.32 291.029Z" fill="#FAAD14"/>
<path d="M721.971 298.311C717.808 298.311 714.43 301.992 714.43 306.531L714.477 330.733L849.955 416.169C855.283 419.869 862.351 419.869 867.679 416.169L998.708 330.733L998.755 306.531C998.755 301.992 995.38 298.311 991.214 298.311H721.971Z" fill="#D46B08"/>
<path d="M721.971 291.029C717.808 291.029 714.43 294.71 714.43 299.249L714.477 323.45L849.955 408.887C855.283 412.586 862.351 412.586 867.679 408.887L998.708 323.45L998.755 299.249C998.755 294.71 995.38 291.029 991.214 291.029H721.971Z" fill="#FAAD14"/>
<path d="M718.699 680.298L726.334 764.453L830.893 818.023L801.486 849.961L664.703 806.584L657.18 689.087L718.699 680.298Z" fill="#EFADAB"/>
<path d="M513.337 515.442L427.784 542.441C408.041 548.706 389.659 574.679 390.454 595.526L406.225 861.065H660.501L669.351 688.824L725.403 679.939L705.774 577.527C704.299 569.553 700.668 562.262 695.448 556.111C690.229 549.959 683.535 545.288 675.932 542.668L598.436 514.986L513.337 515.442Z" fill="#006CB6"/>
<path d="M569.573 555.701L514.425 516.298L519.672 439.082C515.653 366.294 584.309 407.514 595.585 414.214C594.803 412.737 594.022 454.071 591.677 469.174C592.905 480.756 596.366 503.694 597.706 515.504L569.573 555.701Z" fill="#EFADAB"/>
<path opacity="0.1" d="M569.573 555.701L514.425 516.298L519.672 439.082C515.653 366.294 584.309 407.514 595.585 414.214C594.803 412.737 594.022 454.071 591.677 469.174C592.905 480.756 596.366 503.694 597.706 515.503L569.573 555.701Z" fill="black"/>
<path d="M725.196 667.115L670.362 677.055V689.965L728.366 681.054L725.196 667.115Z" fill="white"/>
<path opacity="0.15" d="M394.13 637.132L406.741 861.065H482.963L471.58 746.208L394.13 637.132Z" fill="black"/>
<path opacity="0.15" d="M678.966 612.627L686.053 771.572C686.278 775.99 687.74 780.295 690.215 784.034C692.802 787.659 696.289 790.605 700.338 792.304L802.133 835.467L801.796 849.515L663.332 806.125L673.117 618.518L678.966 612.627Z" fill="black"/>
<path opacity="0.15" d="M519.492 690.83L470.88 596.635C470.429 595.728 469.752 595.161 468.85 594.821C467.948 594.481 467.045 594.481 466.143 594.821L455.203 599.809L498.739 714.294L507.762 711.12L509.002 714.861L623.369 665.666L627.317 654.898L519.492 690.83Z" fill="black"/>
<path d="M462.974 590.864L499.619 670.326L423.624 701.906L392.279 631.222L462.974 590.864Z" fill="#006CB6"/>
<path d="M500.745 519.469L550.33 581.611L569.357 554.506L599.416 574.778L606.959 517.492L597.418 514.196L569.357 553.481L514.755 514.986L500.745 519.469Z" fill="white"/>
<path d="M704.973 605.083C705.313 601.45 700.445 598.613 697.614 600.996L658.328 628.467L661.272 627.218C664.555 616.548 658.328 613.483 658.328 613.483L639.648 631.191L622.892 659.91L620.741 661.953L512.054 708.153L494.052 666.721L429.293 697.483L464.503 771.153C466.201 774.672 468.579 777.851 471.636 780.348C474.579 782.845 478.089 784.775 481.938 785.91C485.674 787.045 489.637 787.272 493.599 786.818C497.449 786.251 501.185 784.889 504.581 782.845L647.573 693.964C662.857 691.013 669.424 689.991 679.16 677.732L690.595 667.742C692.746 666.38 692.746 661.499 688.783 659.456C686.293 658.207 686.519 655.937 686.519 653.099C686.519 652.077 686.293 651.169 685.953 650.261C685.5 649.353 684.934 648.559 684.142 647.991C682.217 646.629 680.972 644.699 680.519 642.429C679.613 638.115 677.122 635.845 672.254 635.845C673.952 635.959 706.785 606.672 704.973 605.083Z" fill="#EFADAB"/>
<path opacity="0.15" d="M653.906 685.804L643.761 687.516L511.31 759.766C471.415 781.11 458.535 758.511 457.053 755.657L464.462 771.066C466.172 774.604 468.566 777.8 471.643 780.311C474.607 782.822 478.14 784.763 482.016 785.904C485.777 787.045 489.767 787.274 493.756 786.817C497.632 786.246 501.393 784.877 504.813 782.822L648.776 693.451C662.796 689.913 667.014 691.739 676.817 681.124L680.464 677.129L689.697 669.026L692.091 666.743L678.754 675.874C671.459 681.01 662.91 684.32 653.906 685.804Z" fill="black"/>
<path d="M418.188 688.334L494.757 657.489L501.469 670.837L424.787 701.906L418.188 688.334Z" fill="white"/>
<path d="M1024.54 837.612H815.372L895.389 677.066C896.281 675.277 898.109 674.146 900.109 674.146H1096.06C1099.96 674.146 1102.51 678.233 1100.8 681.736L1024.54 837.612Z" fill="#034877"/>
<path d="M818.008 832.338H810.978L889.519 677.039C890.416 675.264 892.236 674.146 894.224 674.146H898.354L818.008 832.338Z" fill="#66A7D3"/>
<path d="M986.322 765.304C993.2 756.123 993.783 745.129 987.72 740.708C981.658 736.288 971.049 740.368 964.171 749.549C957.292 758.73 956.709 769.724 962.772 774.144C968.834 778.565 979.443 774.484 986.322 765.304Z" fill="#E6F0F8"/>
<path d="M602.791 416.888C607.696 416.773 612.487 415.286 616.593 412.426C620.586 409.566 623.779 405.677 625.604 401.101C627.43 396.525 627.772 391.492 626.745 386.687C625.719 381.882 623.209 377.421 619.673 373.989C616.137 370.557 611.688 368.269 606.783 367.354C601.879 366.439 596.974 367.011 592.411 369.07C587.848 371.014 584.084 374.332 581.347 378.45C578.723 382.569 577.24 387.488 577.354 392.407C577.354 395.724 578.153 398.927 579.407 401.902C580.662 404.876 582.601 407.621 584.997 409.909C587.392 412.197 590.13 414.028 593.21 415.172C596.175 416.316 599.483 417.002 602.791 416.888Z" fill="#034877"/>
<path d="M603.614 374.558C603.614 374.558 631.798 482.139 575.431 490.44C526.709 497.62 519.977 423.02 519.977 423.02L521.46 374.334L603.614 374.558Z" fill="#EFADAB"/>
<path d="M599.722 380.651L550.316 385.154C548.843 385.266 547.37 385.716 546.123 386.392C543.517 387.742 541.477 390.106 540.684 392.92C540.231 394.271 540.117 395.846 540.231 397.197C540.457 400.124 539.551 403.05 537.624 405.414C535.698 407.665 532.978 409.128 530.032 409.353C529.579 409.353 529.239 409.466 528.899 409.691C528.559 409.916 528.219 410.141 527.992 410.479C527.766 410.816 527.539 411.154 527.426 411.492C527.313 411.829 527.313 412.28 527.313 412.617L528.332 423.423C528.446 424.098 528.219 424.773 527.766 425.224C527.313 425.786 526.746 426.011 526.066 426.124C525.499 426.237 524.82 426.011 524.366 425.674C523.913 425.336 523.573 424.773 523.347 424.211L520.967 413.855L518.701 410.479L507.142 417.907C507.142 417.907 487.652 389.318 496.264 362.867C501.137 347.785 516.094 342.157 523.12 341.257C524.253 341.144 525.386 340.694 526.293 340.018C527.199 339.343 527.992 338.555 528.559 337.542C531.279 332.59 538.304 324.148 553.829 324.373C558.248 324.261 562.554 325.386 566.52 327.412C570.486 329.438 573.772 332.477 576.152 336.079C577.172 337.542 578.645 338.668 580.458 339.118C582.158 339.568 584.084 339.456 585.67 338.668C588.957 337.092 592.696 336.304 596.322 336.529C599.948 336.754 603.574 337.88 606.634 339.906C622.951 349.698 616.946 377.612 599.722 380.651Z" fill="#034877"/>
<path d="M523.921 415.8C523.921 415.8 521.636 405.136 509.73 408.199C496.14 411.716 494.456 439.623 515.863 444.161C527.168 446.543 525.725 440.077 525.124 431.569L523.921 415.8Z" fill="#EFADAB"/>
<path opacity="0.05" d="M523.921 415.8C523.921 415.8 521.636 405.136 509.73 408.199C496.14 411.716 494.456 439.623 515.863 444.161C527.168 446.543 525.725 440.077 525.124 431.569L523.921 415.8Z" fill="black"/>
<path opacity="0.2" d="M507.757 416.042C508.737 415.513 509.84 415.195 510.943 415.089C512.045 414.983 513.27 415.089 514.251 415.407C515.353 415.724 516.333 416.254 517.068 416.995C517.804 417.737 518.416 418.584 518.784 419.537C519.886 421.867 520.254 424.303 519.764 426.845L519.641 429.069C519.519 429.281 519.274 429.493 519.029 429.705C518.784 429.811 518.416 429.917 518.171 429.811C517.926 429.811 517.558 429.705 517.313 429.493C517.068 429.281 516.946 429.069 516.946 428.858L517.068 426.633C517.313 424.621 517.068 422.503 516.211 420.49C516.088 419.855 515.721 419.22 515.108 418.69C514.618 418.16 514.006 417.843 513.27 417.525C512.535 417.313 511.8 417.207 510.943 417.313C510.207 417.419 509.472 417.631 508.86 418.054C508.492 418.16 508.247 418.16 507.88 418.054C507.512 417.949 507.267 417.737 507.145 417.419C507.022 417.101 507.022 416.889 507.022 416.572C507.267 416.466 507.512 416.148 507.757 416.042Z" fill="black"/>
<path opacity="0.15" d="M553.476 486.952C557.695 489.061 570.174 491.053 572.811 491.346L566.254 493.532C549.903 498.982 532.301 499.445 515.686 494.862L520.08 444.767L524.474 443.889C526.232 448.869 530.626 460.587 534.142 467.617C538.536 476.406 548.203 484.315 553.476 486.952Z" fill="black"/>
<path d="M694.97 830.581H1028.05L1024.69 837.611H694.97V830.581Z" fill="#66A7D3"/>
<path d="M1089.99 836.909H301.576C296.52 836.909 292.459 842.545 292.459 849.561V851.632C292.459 858.648 296.52 864.283 301.576 864.283H1090.07C1095.13 864.283 1099.19 858.648 1099.19 851.632V849.561C1099.11 842.545 1095.05 836.909 1089.99 836.909Z" fill="#BFDAED"/>
<path d="M1062.15 864.283H329.495V886.827H1062.15V864.283Z" fill="#A3CAE5"/>
</g>
<defs>
<clipPath id="clip0_11636_17134">
<rect width="1405" height="888" fill="white"/>
</clipPath>
</defs>
</svg>
