<svg xmlns="http://www.w3.org/2000/svg" xmlns:xlink="http://www.w3.org/1999/xlink" width="128" height="128" viewBox="0 0 128 128"><defs><style>.a,.d,.g{fill:#fff;}.a,.h{stroke:#707070;}.b{fill:#0082af;}.c{clip-path:url(#a);}.e{mix-blend-mode:multiply;isolation:isolate;}.f{fill:#4ca22f;}.g{font-size:8px;font-family:Montserrat-Medium, Montserrat;font-weight:500;letter-spacing:0.089em;}.h,.j{fill:none;}.i{stroke:none;}.k{filter:url(#h);}.l{filter:url(#f);}.m{filter:url(#d);}.n{filter:url(#b);}</style><clipPath id="a"><circle class="a" cx="64" cy="64" r="64" transform="translate(-0.443 0.473)"/></clipPath><filter id="b" x="-84" y="-92" width="195" height="189" filterUnits="userSpaceOnUse"><feOffset dy="3" input="SourceAlpha"/><feGaussianBlur stdDeviation="3" result="c"/><feFlood flood-opacity="0.161"/><feComposite operator="in" in2="c"/><feComposite in="SourceGraphic"/></filter><filter id="d" x="28.5" y="38.5" width="67" height="41" filterUnits="userSpaceOnUse"><feOffset dy="1" input="SourceAlpha"/><feGaussianBlur stdDeviation="2.5" result="e"/><feFlood flood-opacity="0.2"/><feComposite operator="in" in2="e"/><feComposite in="SourceGraphic"/></filter><filter id="f" x="34.5" y="45" width="55" height="30.5" filterUnits="userSpaceOnUse"><feOffset dy="3" input="SourceAlpha"/><feGaussianBlur stdDeviation="0.5" result="g"/><feFlood flood-opacity="0.122"/><feComposite operator="in" in2="g"/><feComposite in="SourceGraphic"/></filter><filter id="h" x="33" y="44" width="58" height="32" filterUnits="userSpaceOnUse"><feOffset dy="2" input="SourceAlpha"/><feGaussianBlur stdDeviation="1" result="i"/><feFlood flood-opacity="0.141"/><feComposite operator="in" in2="i"/><feComposite in="SourceGraphic"/></filter></defs><circle class="b" cx="64" cy="64" r="64"/><g class="c" transform="translate(0.443 -0.473)"><g transform="translate(-75.633 -85.538)"><g class="n" transform="matrix(1, 0, 0, 1, 75.19, 86.01)"><rect class="d" width="177" height="171" rx="6" transform="translate(-75 -86)"/></g><g transform="translate(111.649 131.458)"><g transform="translate(-0.459 -0.448)"><g class="e"><g class="m" transform="matrix(1, 0, 0, 1, -36, -45)"><rect class="f" width="52" height="26" rx="4" transform="translate(36 45)"/></g><g class="l" transform="matrix(1, 0, 0, 1, -36, -45)"><rect class="f" width="52" height="26" rx="4" transform="translate(36 45)"/></g><g class="k" transform="matrix(1, 0, 0, 1, -36, -45)"><rect class="f" width="52" height="26" rx="4" transform="translate(36 45)"/></g></g><rect class="f" width="52" height="26" rx="4"/><rect class="f" width="52" height="26" rx="4"/></g><text class="g" transform="translate(15.541 15.552)"><tspan x="0" y="0">ADD</tspan></text></g></g></g><g class="h"><circle class="i" cx="64" cy="64" r="64"/><circle class="j" cx="64" cy="64" r="63.5"/></g></svg>