<svg width="232" height="180" viewBox="0 0 232 180" fill="none" xmlns="http://www.w3.org/2000/svg">
<rect width="232" height="180" fill="white"/>
<path d="M141.446 40.4814H91.5962C90.4602 40.4828 89.3712 40.9332 88.5679 41.7339C87.7647 42.5345 87.3128 43.6201 87.3114 44.7524V155.186L86.7401 155.359L74.5112 159.092C73.9317 159.268 73.3057 159.208 72.7707 158.925C72.2357 158.641 71.8354 158.158 71.6576 157.58L35.2823 39.146C35.1053 38.5683 35.1656 37.9442 35.4501 37.4108C35.7345 36.8775 36.2197 36.4785 36.7992 36.3016L55.6438 30.55L110.275 13.8818L129.12 8.13018C129.407 8.0422 129.708 8.01146 130.007 8.03971C130.305 8.06796 130.595 8.15465 130.861 8.29482C131.126 8.43499 131.36 8.62588 131.551 8.85658C131.742 9.08727 131.886 9.35324 131.973 9.63926L141.271 39.912L141.446 40.4814Z" fill="#F2F2F2"/>
<path d="M152.324 39.9124L141.117 3.4269C140.931 2.81899 140.626 2.25365 140.22 1.76319C139.815 1.27273 139.316 0.866771 138.753 0.568503C138.19 0.270234 137.573 0.0855014 136.938 0.0248681C136.303 -0.0357652 135.663 0.028889 135.053 0.215129L108.559 8.29866L53.9301 24.9697L27.4357 33.0561C26.2049 33.4328 25.1743 34.2809 24.5702 35.4142C23.9661 36.5475 23.8378 37.8734 24.2134 39.101L62.514 163.794C62.8191 164.784 63.4349 165.652 64.2708 166.268C65.1068 166.885 66.1189 167.218 67.1588 167.219C67.6401 167.219 68.1186 167.147 68.5784 167.005L86.7403 161.464L87.3116 161.288V160.693L86.7403 160.866L68.4099 166.461C67.3235 166.792 66.1501 166.679 65.1471 166.148C64.1441 165.616 63.3934 164.71 63.0596 163.628L24.762 38.933C24.5966 38.3968 24.539 37.8334 24.5924 37.275C24.6458 36.7165 24.8092 36.1741 25.0732 35.6787C25.3372 35.1834 25.6966 34.7448 26.1309 34.388C26.5653 34.0313 27.0659 33.7635 27.6042 33.5999L54.0986 25.5135L108.727 8.84535L135.222 0.758973C135.63 0.634772 136.054 0.571445 136.481 0.571048C137.397 0.573099 138.289 0.867499 139.025 1.41113C139.761 1.95476 140.303 2.71905 140.572 3.59205L151.727 39.9124L151.904 40.4819H152.498L152.324 39.9124Z" fill="#3F3D56"/>
<path d="M59.0439 36.3946C58.4933 36.3943 57.9574 36.218 57.5147 35.8918C57.0719 35.5655 56.7458 35.1064 56.584 34.5818L52.9047 22.6027C52.8058 22.2809 52.7715 21.9428 52.8037 21.6079C52.8359 21.2729 52.934 20.9475 53.0924 20.6503C53.2508 20.3531 53.4664 20.0899 53.7269 19.8757C53.9873 19.6616 54.2875 19.5007 54.6104 19.4022L104.868 4.06548C105.52 3.86718 106.224 3.93481 106.826 4.25354C107.428 4.57227 107.879 5.11605 108.079 5.76553L111.758 17.7448C111.957 18.3947 111.889 19.0967 111.57 19.6967C111.25 20.2967 110.704 20.7458 110.053 20.9454L59.795 36.2822C59.5516 36.3566 59.2985 36.3945 59.0439 36.3946Z" fill="#006CB5"/>
<path d="M78.3186 12.8C81.4738 12.8 84.0317 10.2505 84.0317 7.1054C84.0317 3.96034 81.4738 1.41077 78.3186 1.41077C75.1633 1.41077 72.6055 3.96034 72.6055 7.1054C72.6055 10.2505 75.1633 12.8 78.3186 12.8Z" fill="#006CB5"/>
<path d="M78.3179 10.7114C80.3159 10.7114 81.9356 9.0969 81.9356 7.10535C81.9356 5.1138 80.3159 3.49933 78.3179 3.49933C76.3199 3.49933 74.7002 5.1138 74.7002 7.10535C74.7002 9.0969 76.3199 10.7114 78.3179 10.7114Z" fill="white"/>
<path d="M196.145 165.763H99.5941C98.9503 165.763 98.3332 165.507 97.878 165.054C97.4228 164.6 97.1668 163.985 97.166 163.343V48.0268C97.1667 47.3851 97.4228 46.7699 97.878 46.3162C98.3332 45.8625 98.9503 45.6073 99.5941 45.6066H196.145C196.789 45.6073 197.406 45.8625 197.861 46.3163C198.316 46.77 198.572 47.3851 198.573 48.0268V163.343C198.572 163.985 198.316 164.6 197.861 165.054C197.406 165.507 196.789 165.763 196.145 165.763Z" fill="#E6E6E6"/>
<path d="M151.726 39.9119H91.5954C90.308 39.9137 89.0739 40.4243 88.1636 41.3317C87.2533 42.239 86.7411 43.4692 86.7393 44.7524V160.866L87.3106 160.692V44.7524C87.3119 43.6201 87.7638 42.5345 88.5671 41.7339C89.3703 40.9332 90.4594 40.4828 91.5954 40.4814H151.903L151.726 39.9119ZM204.143 39.9119H91.5954C90.308 39.9137 89.0739 40.4243 88.1636 41.3317C87.2533 42.239 86.7411 43.4692 86.7393 44.7524V175.16C86.7411 176.443 87.2533 177.673 88.1636 178.58C89.0739 179.488 90.308 179.998 91.5954 180H204.143C205.43 179.998 206.665 179.488 207.575 178.58C208.485 177.673 208.997 176.443 208.999 175.16V44.7524C208.997 43.4692 208.485 42.239 207.575 41.3317C206.665 40.4243 205.43 39.9137 204.143 39.9119ZM208.428 175.16C208.427 176.292 207.975 177.377 207.171 178.178C206.368 178.979 205.279 179.429 204.143 179.431H91.5954C90.4594 179.429 89.3703 178.979 88.5671 178.178C87.7638 177.377 87.3119 176.292 87.3106 175.16V44.7524C87.3119 43.6201 87.7638 42.5345 88.5671 41.7339C89.3703 40.9332 90.4594 40.4828 91.5954 40.4814H204.143C205.279 40.4828 206.368 40.9332 207.171 41.7339C207.975 42.5345 208.427 43.6201 208.428 44.7524V175.16Z" fill="#3F3D56"/>
<path d="M174.15 52.4401H121.589C120.908 52.4394 120.254 52.1691 119.772 51.6887C119.29 51.2083 119.019 50.5569 119.019 49.8775V37.3493C119.019 36.6699 119.29 36.0186 119.772 35.5382C120.254 35.0577 120.908 34.7875 121.589 34.7867H174.15C174.831 34.7875 175.485 35.0577 175.967 35.5382C176.449 36.0186 176.72 36.6699 176.721 37.3493V49.8775C176.72 50.5569 176.449 51.2083 175.967 51.6887C175.485 52.1691 174.831 52.4394 174.15 52.4401Z" fill="#006CB5"/>
<path d="M147.869 35.641C151.025 35.641 153.582 33.0914 153.582 29.9463C153.582 26.8013 151.025 24.2517 147.869 24.2517C144.714 24.2517 142.156 26.8013 142.156 29.9463C142.156 33.0914 144.714 35.641 147.869 35.641Z" fill="#006CB5"/>
<path d="M147.87 33.4149C149.792 33.4149 151.35 31.862 151.35 29.9464C151.35 28.0307 149.792 26.4778 147.87 26.4778C145.949 26.4778 144.391 28.0307 144.391 29.9464C144.391 31.862 145.949 33.4149 147.87 33.4149Z" fill="white"/>
</svg>
