<svg width="232" height="180" viewBox="0 0 232 180" fill="none" xmlns="http://www.w3.org/2000/svg">
<rect width="232" height="180" fill="white"/>
<g clip-path="url(#clip0_2821_19554)">
<path d="M217.801 159.413C217.665 164.477 216.816 169.497 215.279 174.325C215.245 174.437 215.207 174.547 215.17 174.659H205.76C205.769 174.559 205.78 174.447 205.79 174.325C206.417 167.116 202.832 123.766 198.507 116.264C198.886 116.872 218.531 136.508 217.801 159.413Z" fill="#57B894"/>
<path d="M217.095 174.325C217.016 174.437 216.935 174.549 216.851 174.66H209.791C209.844 174.564 209.906 174.452 209.978 174.325C211.144 172.222 214.596 165.933 217.801 159.413C221.243 152.407 224.403 145.135 224.137 142.503C224.22 143.097 226.603 161.193 217.095 174.325Z" fill="#57B894"/>
<path d="M184.66 143.668H7V7H184.66V143.668Z" fill="white"/>
<path d="M184.66 143.668H7V7H184.66V143.668ZM9.62491 141.044H182.035V9.62308H9.62491V141.044Z" fill="#E5E5E5"/>
<path d="M53.4963 110.021H40.0453C39.681 110.021 39.3318 109.876 39.0743 109.619C38.8167 109.361 38.6718 109.012 38.6714 108.648V90.1189C38.6718 89.7549 38.8167 89.406 39.0743 89.1486C39.3318 88.8913 39.681 88.7465 40.0453 88.7461H53.4963C53.8605 88.7465 54.2097 88.8913 54.4673 89.1486C54.7248 89.406 54.8697 89.7549 54.8701 90.1189V108.648C54.8697 109.012 54.7248 109.361 54.4673 109.619C54.2097 109.876 53.8605 110.021 53.4963 110.021Z" fill="#E6E6E6"/>
<path d="M78.026 110.021H64.5751C64.2108 110.021 63.8616 109.876 63.6041 109.619C63.3465 109.361 63.2016 109.012 63.2012 108.649V72.5442C63.2016 72.1802 63.3465 71.8313 63.6041 71.5739C63.8616 71.3166 64.2108 71.1718 64.5751 71.1714H78.026C78.3903 71.1718 78.7395 71.3166 78.997 71.5739C79.2546 71.8313 79.3995 72.1802 79.3999 72.5442V108.649C79.3995 109.012 79.2546 109.361 78.997 109.619C78.7395 109.876 78.3903 110.021 78.026 110.021Z" fill="#E6E6E6"/>
<path d="M102.555 110.021H89.1044C88.7401 110.021 88.3909 109.876 88.1334 109.619C87.8758 109.361 87.7309 109.012 87.7305 108.648V90.1189C87.7309 89.7549 87.8758 89.406 88.1334 89.1486C88.3909 88.8913 88.7401 88.7465 89.1044 88.7461H102.555C102.92 88.7465 103.269 88.8913 103.526 89.1486C103.784 89.406 103.929 89.7549 103.929 90.1189V108.648C103.929 109.012 103.784 109.361 103.526 109.619C103.269 109.876 102.92 110.021 102.555 110.021Z" fill="#E6E6E6"/>
<path d="M127.085 110.021H113.634C113.278 110.029 112.933 109.895 112.676 109.65C112.418 109.404 112.269 109.066 112.26 108.711V65.5443C112.269 65.1887 112.418 64.851 112.676 64.6054C112.933 64.3597 113.278 64.2261 113.634 64.2337H127.085C127.441 64.2261 127.785 64.3597 128.043 64.6054C128.3 64.851 128.45 65.1887 128.459 65.5443V108.711C128.45 109.066 128.3 109.404 128.043 109.65C127.785 109.895 127.441 110.029 127.085 110.021Z" fill="#E6E6E6"/>
<path d="M151.614 110.021H138.163C137.799 110.021 137.45 109.876 137.192 109.618C136.934 109.361 136.789 109.012 136.789 108.648V53.1189C136.789 52.7549 136.934 52.406 137.192 52.1486C137.45 51.8913 137.799 51.7465 138.163 51.7461H151.614C151.978 51.7465 152.327 51.8913 152.585 52.1486C152.842 52.406 152.987 52.7549 152.988 53.1189V108.648C152.987 109.012 152.842 109.361 152.585 109.618C152.327 109.876 151.978 110.021 151.614 110.021Z" fill="#F2F2F2"/>
<path d="M46.7706 83.1965C48.3042 83.1965 49.5475 81.9541 49.5475 80.4215C49.5475 78.8889 48.3042 77.6465 46.7706 77.6465C45.2369 77.6465 43.9937 78.8889 43.9937 80.4215C43.9937 81.9541 45.2369 83.1965 46.7706 83.1965Z" fill="#3F3D56"/>
<path d="M71.3004 65.1589C72.834 65.1589 74.0773 63.9165 74.0773 62.3839C74.0773 60.8513 72.834 59.6089 71.3004 59.6089C69.7667 59.6089 68.5234 60.8513 68.5234 62.3839C68.5234 63.9165 69.7667 65.1589 71.3004 65.1589Z" fill="#3F3D56"/>
<path d="M95.8297 83.1965C97.3633 83.1965 98.6066 81.9541 98.6066 80.4215C98.6066 78.8889 97.3633 77.6465 95.8297 77.6465C94.296 77.6465 93.0527 78.8889 93.0527 80.4215C93.0527 81.9541 94.296 83.1965 95.8297 83.1965Z" fill="#3F3D56"/>
<path d="M120.359 56.3713C121.893 56.3713 123.136 55.1289 123.136 53.5963C123.136 52.0637 121.893 50.8213 120.359 50.8213C118.826 50.8213 117.583 52.0637 117.583 53.5963C117.583 55.1289 118.826 56.3713 120.359 56.3713Z" fill="#3F3D56"/>
<path d="M144.889 46.1965C146.422 46.1965 147.666 44.9541 147.666 43.4215C147.666 41.8889 146.422 40.6465 144.889 40.6465C143.355 40.6465 142.112 41.8889 142.112 43.4215C142.112 44.9541 143.355 46.1965 144.889 46.1965Z" fill="#3F3D56"/>
<path d="M95.8888 81.0427L71.3005 62.6389L47.0487 80.7912L46.4937 80.0509L71.3005 61.483L95.7715 79.7994L120.089 53.2065L120.187 53.167L144.716 43.2905L145.062 44.1487L120.63 53.9856L95.8888 81.0427Z" fill="#3F3D56"/>
<path d="M179.201 170.469L175.023 170.468L173.035 154.364L179.202 154.364L179.201 170.469Z" fill="#FFB6B6"/>
<path d="M180.267 174.516L166.795 174.515V174.345C166.795 172.955 167.348 171.623 168.331 170.64C169.314 169.657 170.648 169.105 172.039 169.105H172.039L180.268 169.105L180.267 174.516Z" fill="#2F2E41"/>
<path d="M164.27 102.304L166.642 140.072L174.606 166.656L180.776 167.103L177.678 134.703L179.036 113.187C179.036 113.187 185.477 108.389 181.916 102.614L164.27 102.304Z" fill="#2F2E41"/>
<path d="M181.928 170.469L177.75 170.468L175.762 154.364L181.929 154.364L181.928 170.469Z" fill="#FFB6B6"/>
<path d="M182.993 174.516L169.521 174.515V174.345C169.521 172.955 170.074 171.623 171.057 170.64C172.04 169.657 173.374 169.105 174.765 169.105H174.765L182.994 169.105L182.993 174.516Z" fill="#2F2E41"/>
<path d="M166.996 102.304L169.368 140.072L177.332 166.656L183.502 167.103L180.404 134.703L181.762 113.187C181.762 113.187 188.203 108.389 184.642 102.614L166.996 102.304Z" fill="#2F2E41"/>
<path d="M179.855 108.152C172.74 108.152 164.365 103.807 163.88 103.552L163.745 103.481L180.075 61.8493L188.163 58.0312C188.786 57.7372 189.476 57.6146 190.161 57.6761C190.847 57.7376 191.505 57.9809 192.065 58.3809C192.625 58.781 193.069 59.3232 193.35 59.9517C193.63 60.5802 193.738 61.2722 193.662 61.9562L190.452 90.7279L187.102 105.63L187.067 105.665C185.218 107.49 182.632 108.152 179.855 108.152Z" fill="#3F3D56"/>
<path d="M153.759 80.593C154.183 80.3249 154.659 80.1527 155.156 80.0887C155.653 80.0246 156.158 80.0702 156.635 80.2223C157.113 80.3743 157.551 80.6291 157.919 80.9687C158.287 81.3083 158.577 81.7244 158.766 82.1878L170.927 81.5239L167.736 86.9856L156.677 86.7787C155.877 87.0457 155.007 87.0102 154.231 86.6789C153.456 86.3476 152.829 85.7435 152.469 84.981C152.109 84.2185 152.042 83.3507 152.28 82.542C152.518 81.7332 153.044 81.0398 153.759 80.593Z" fill="#FFB6B6"/>
<path d="M177.758 89.1423L165.571 88.8315L165.729 80.7759L171.491 78.943L180.943 65.6947C181.417 65.0313 182.018 64.4695 182.713 64.0424C183.407 63.6154 184.18 63.3318 184.986 63.2084C185.792 63.0851 186.614 63.1245 187.404 63.3242C188.195 63.524 188.937 63.8801 189.587 64.3715C190.238 64.8629 190.783 65.4796 191.19 66.1852C191.598 66.8907 191.86 67.6708 191.961 68.4793C192.061 69.2877 191.999 70.1082 191.777 70.8921C191.555 71.676 191.178 72.4074 190.668 73.0432L177.758 89.1423Z" fill="#3F3D56"/>
<path d="M184.813 56.4969C189.286 56.4969 192.911 52.874 192.911 48.4049C192.911 43.9359 189.286 40.313 184.813 40.313C180.341 40.313 176.716 43.9359 176.716 48.4049C176.716 52.874 180.341 56.4969 184.813 56.4969Z" fill="#FFB6B6"/>
<path d="M174.569 41.662C175.386 40.8246 176.448 40.2678 177.602 40.0715C178.727 39.8297 179.961 39.7548 180.86 39.0498C181.883 38.2358 182.333 36.6896 183.587 36.3457C184.132 36.2361 184.698 36.2809 185.219 36.4751C187.223 37.0792 189.003 38.2645 190.331 39.8808C190.644 40.3439 191.044 40.7428 191.507 41.0557C191.784 41.173 192.055 41.3049 192.318 41.4508C192.607 41.6785 192.834 41.9747 192.979 42.3124C193.884 44.1366 194.092 46.2275 193.566 48.1941C193.252 49.3554 192.686 50.4316 192.352 51.5998C192.018 52.7679 190.474 54.9901 190.112 54.4384C189.751 53.8867 189.288 53.3724 189.09 52.7355C188.704 51.4828 189.053 50.2221 188.072 49.352C187.465 48.8139 186.368 48.4529 185.955 49.1477C185.792 49.4167 185.802 49.7573 185.662 50.0365C185.386 50.5815 184.589 50.6904 184.06 50.3771C183.551 50.0259 183.193 49.4956 183.058 48.8922C182.264 46.2085 180.911 44.5193 178.038 45.667C176.968 46.0962 175.707 46.3856 174.678 45.65C173.322 44.6828 173.598 42.7654 174.569 41.662Z" fill="#2F2E41"/>
<path d="M156.385 114.449H142.934C142.57 114.448 142.221 114.304 141.963 114.046C141.706 113.789 141.561 113.44 141.561 113.076V57.5467C141.561 57.1827 141.706 56.8337 141.963 56.5764C142.221 56.319 142.57 56.1742 142.934 56.1738H156.385C156.75 56.1742 157.099 56.319 157.356 56.5764C157.614 56.8337 157.759 57.1827 157.759 57.5467V113.076C157.759 113.44 157.614 113.789 157.356 114.046C157.099 114.304 156.75 114.448 156.385 114.449Z" fill="#006CB5"/>
<path d="M153.419 85.361C153.842 85.0929 154.319 84.9208 154.816 84.8568C155.313 84.7927 155.818 84.8383 156.295 84.9904C156.772 85.1424 157.211 85.3972 157.579 85.7368C157.947 86.0764 158.236 86.4925 158.426 86.9558L170.587 86.292L167.396 91.7537L156.337 91.5467C155.537 91.8138 154.667 91.7783 153.891 91.447C153.115 91.1156 152.488 90.5115 152.129 89.749C151.769 88.9866 151.702 88.1188 151.94 87.31C152.177 86.5013 152.704 85.8078 153.419 85.361H153.419Z" fill="#FFB6B6"/>
<path d="M177.417 93.9103L165.23 93.5995L165.388 85.5439L171.15 83.711L180.603 70.4627C181.076 69.7993 181.677 69.2375 182.372 68.8105C183.066 68.3835 183.839 68.0999 184.645 67.9765C185.451 67.8532 186.273 67.8925 187.064 68.0923C187.854 68.2921 188.596 68.6482 189.247 69.1396C189.897 69.631 190.442 70.2477 190.85 70.9532C191.257 71.6588 191.519 72.4389 191.62 73.2473C191.721 74.0558 191.658 74.8762 191.436 75.6601C191.214 76.444 190.837 77.1755 190.327 77.8112L177.417 93.9103Z" fill="#3F3D56"/>
<path d="M230.659 175H100.812C100.767 175 100.723 174.991 100.681 174.974C100.64 174.957 100.602 174.932 100.57 174.901C100.539 174.869 100.513 174.831 100.496 174.79C100.479 174.749 100.47 174.704 100.47 174.659C100.47 174.615 100.479 174.57 100.496 174.529C100.513 174.487 100.539 174.45 100.57 174.418C100.602 174.387 100.64 174.362 100.681 174.344C100.723 174.327 100.767 174.319 100.812 174.319H230.659C230.704 174.319 230.749 174.327 230.79 174.344C230.832 174.362 230.869 174.387 230.901 174.418C230.933 174.45 230.958 174.487 230.975 174.529C230.992 174.57 231.001 174.615 231.001 174.659C231.001 174.704 230.992 174.749 230.975 174.79C230.958 174.831 230.933 174.869 230.901 174.901C230.869 174.932 230.832 174.957 230.79 174.974C230.749 174.991 230.704 175 230.659 175Z" fill="#CACACA"/>
</g>
<defs>
<clipPath id="clip0_2821_19554">
<rect width="224" height="168" fill="white" transform="translate(7 7)"/>
</clipPath>
</defs>
</svg>
