<svg width="385" height="296" viewBox="0 0 385 296" fill="none" xmlns="http://www.w3.org/2000/svg">
<rect width="385" height="296" fill="white"/>
<path opacity="0.3" d="M132.489 35.3602C81.6578 47.313 41.4958 85.0822 29.7462 133.631C20.9867 169.766 28.6793 207.035 87.638 220.609C215.079 249.944 352.768 240.205 369.312 181.614C385.856 123.023 355.152 22.5244 282.257 16.3043C240.751 12.7329 178.447 24.5934 132.489 35.3602Z" fill="#006CB5"/>
<path opacity="0.45" d="M197.766 289.802C296.754 289.802 377 280.326 377 268.638C377 256.949 296.754 247.473 197.766 247.473C98.778 247.473 18.5322 256.949 18.5322 268.638C18.5322 280.326 98.778 289.802 197.766 289.802Z" fill="#ECECEC"/>
<path d="M339.399 165.208L332.157 163.176L304.368 262.286L311.609 264.319L339.399 165.208Z" fill="#E6E6E6"/>
<path d="M343.56 169.08C342.99 169.078 342.423 168.998 341.874 168.842L329.703 165.482C328.912 165.26 328.172 164.884 327.525 164.375C326.879 163.867 326.339 163.236 325.937 162.519C325.534 161.802 325.277 161.012 325.18 160.196C325.082 159.379 325.147 158.551 325.37 157.759L327.82 149.022C328.268 147.422 329.333 146.066 330.78 145.25C332.227 144.435 333.939 144.228 335.538 144.673L347.683 148.086C349.283 148.538 350.638 149.606 351.451 151.057C352.263 152.507 352.467 154.221 352.017 155.822L349.567 164.559C349.186 165.86 348.396 167.003 347.314 167.817C346.231 168.632 344.915 169.074 343.56 169.08ZM342.928 165.126C343.226 165.21 343.539 165.235 343.846 165.198C344.154 165.162 344.452 165.065 344.722 164.913C344.993 164.761 345.231 164.558 345.422 164.314C345.614 164.07 345.756 163.791 345.839 163.492L348.289 154.755C348.375 154.455 348.401 154.142 348.366 153.832C348.33 153.523 348.234 153.223 348.082 152.951C347.93 152.679 347.726 152.44 347.481 152.247C347.236 152.055 346.956 151.913 346.656 151.829L334.511 148.429C334.213 148.345 333.901 148.32 333.593 148.357C333.285 148.393 332.987 148.49 332.717 148.642C332.446 148.794 332.209 148.997 332.017 149.241C331.825 149.485 331.684 149.764 331.6 150.063L329.15 158.8C329.066 159.099 329.041 159.411 329.078 159.719C329.114 160.027 329.211 160.325 329.363 160.596C329.515 160.866 329.718 161.104 329.962 161.296C330.206 161.487 330.485 161.629 330.783 161.713L342.928 165.126Z" fill="#C9C9C9"/>
<path d="M325.864 269.735L331.91 248.175L295.884 238.107L289.562 260.642C288.718 263.622 288.632 266.766 289.311 269.788L325.864 269.735Z" fill="#C9C9C9"/>
<path d="M157.482 96.4408H139.067V271.608H157.482V96.4408Z" fill="#009FDA"/>
<path d="M256.953 96.4408H238.538V271.608H256.953V96.4408Z" fill="#009FDA"/>
<path opacity="0.08" d="M157.482 96.4408H139.067V271.608H157.482V96.4408Z" fill="#006CB5"/>
<path opacity="0.08" d="M256.953 96.4408H238.538V271.608H256.953V96.4408Z" fill="#006CB5"/>
<path d="M278.443 118.686H116.833V175.722H278.443V118.686Z" fill="#158BD1"/>
<path d="M125.024 118.686L144.335 175.722H171.048L149.103 118.686H125.024Z" fill="#006CB5"/>
<path d="M174.175 118.686L193.485 175.722H220.198L198.24 118.686H174.175Z" fill="#006CB5"/>
<path d="M224.495 118.686L243.806 175.722H270.519L248.561 118.686H224.495Z" fill="#006CB5"/>
<path d="M278.443 197.129H116.833V223.868H278.443V197.129Z" fill="#006CB5"/>
<path d="M73.5332 261.174L89.6823 186.822C89.8516 186.091 90.2634 185.438 90.8506 184.971C91.4379 184.505 92.1659 184.25 92.9161 184.25C93.6662 184.25 94.3943 184.505 94.9815 184.971C95.5687 185.438 95.9806 186.091 96.1498 186.822L113.774 262.413L73.5332 261.174Z" fill="#158BD1"/>
<path d="M113.691 253.327H74.6746C71.4592 253.327 68.8525 255.935 68.8525 259.152V259.956C68.8525 263.173 71.4592 265.781 74.6746 265.781H113.691C116.906 265.781 119.513 263.173 119.513 259.956V259.152C119.513 255.935 116.906 253.327 113.691 253.327Z" fill="#009FDA"/>
<path opacity="0.46" d="M113.691 253.327H74.6746C71.4592 253.327 68.8525 255.935 68.8525 259.152V259.956C68.8525 263.173 71.4592 265.781 74.6746 265.781H113.691C116.906 265.781 119.513 263.173 119.513 259.956V259.152C119.513 255.935 116.906 253.327 113.691 253.327Z" fill="white"/>
<path opacity="0.08" d="M84.2321 213.427L101.527 206.495L106.572 228.134L79.3848 235.659L84.2321 213.427Z" fill="black"/>
<path d="M77.3709 267.361C77.3709 267.361 84.7342 256.818 73.7486 253.84C62.763 250.862 76.383 236.642 66.1614 234.758C55.9398 232.873 57.639 247.936 57.639 247.936C57.639 247.936 50.6314 241.874 45.705 247.013C40.7786 252.153 47.6545 257.688 47.6545 257.688C47.6545 257.688 37.8149 261.088 43.9531 267.308L77.3709 267.361Z" fill="#E6E6E6"/>
<path d="M61.8311 268.631C61.8311 268.631 66.5072 260.619 73.4094 261.607C80.3116 262.595 79.5608 268.631 79.5608 268.631H61.8311Z" fill="#C9C9C9"/>
<path d="M233.698 117.117L289.022 145.121C289.458 145.338 289.95 145.419 290.432 145.352C290.915 145.285 291.367 145.075 291.728 144.747C292.089 144.42 292.344 143.991 292.458 143.517C292.572 143.043 292.54 142.546 292.367 142.09L291.195 139.098C289.872 135.709 289.872 131.945 291.195 128.556C294.738 119.331 299.981 99.5632 285.268 88.5066C266.431 74.3134 237.321 75.684 230.471 110.528C230.202 111.829 230.372 113.182 230.957 114.375C231.541 115.568 232.506 116.533 233.698 117.117Z" fill="#FFD200"/>
<path opacity="0.08" d="M235.027 118.686L278.482 160.646V140.667L235.027 118.686Z" fill="black"/>
<path opacity="0.31" d="M241.705 96.7259C245.064 92.0212 251.847 85.0235 262.543 84.7335C262.963 84.7222 263.376 84.8509 263.715 85.0994C264.054 85.348 264.301 85.7022 264.417 86.1065C264.533 86.5108 264.512 86.9422 264.356 87.333C264.201 87.7238 263.92 88.0517 263.557 88.2653C257.65 91.62 252.516 96.1822 248.488 101.655C247.913 102.469 247.065 103.05 246.098 103.292C245.131 103.533 244.11 103.42 243.219 102.972C242.669 102.703 242.184 102.315 241.8 101.837C241.415 101.358 241.141 100.801 240.997 100.205C240.852 99.6085 240.84 98.9876 240.963 98.3863C241.085 97.7851 241.339 97.2181 241.705 96.7259Z" fill="white"/>
<path d="M71.2299 125.797C71.2284 124.461 70.9366 123.141 70.3747 121.928C69.8128 120.716 68.9943 119.64 67.9758 118.775C66.9573 117.91 65.7631 117.277 64.476 116.919C63.1888 116.562 61.8393 116.489 60.521 116.704C59.4629 114.718 57.886 113.056 55.9584 111.896C54.0307 110.735 51.8245 110.12 49.5749 110.115H49.1139C49.4153 108.944 49.5702 107.74 49.5749 106.531C49.5749 102.613 48.0192 98.855 45.25 96.0845C42.4808 93.314 38.7251 91.7576 34.8089 91.7576C30.8927 91.7576 27.1369 93.314 24.3677 96.0845C21.5985 98.855 20.0428 102.613 20.0428 106.531C20.0476 107.74 20.2024 108.944 20.5039 110.115H20.0428C16.8133 110.22 13.7512 111.578 11.5039 113.9C9.25649 116.223 8 119.329 8 122.562C8 125.795 9.25649 128.901 11.5039 131.224C13.7512 133.546 16.8133 134.904 20.0428 135.009H63.2081V134.917C65.4223 134.626 67.4559 133.542 68.9312 131.865C70.4066 130.187 71.2234 128.032 71.2299 125.797Z" fill="#ECECEC"/>
<path d="M372.475 55.3403C372.472 52.0992 371.182 48.9919 368.89 46.7013C366.598 44.4106 363.491 43.124 360.251 43.124C359.594 43.1275 358.937 43.1848 358.289 43.2953C356.883 40.6735 354.793 38.4817 352.242 36.9526C349.691 35.4235 346.773 34.6143 343.799 34.6108H343.194C343.59 33.0649 343.794 31.4757 343.799 29.8797C343.867 27.2679 343.412 24.669 342.459 22.2362C341.507 19.8033 340.078 17.5859 338.255 15.7147C336.433 13.8434 334.254 12.3562 331.848 11.3407C329.442 10.3252 326.857 9.80206 324.245 9.80206C321.634 9.80206 319.049 10.3252 316.643 11.3407C314.237 12.3562 312.058 13.8434 310.236 15.7147C308.413 17.5859 306.984 19.8033 306.031 22.2362C305.079 24.669 304.623 27.2679 304.691 29.8797C304.685 31.5061 304.884 33.1267 305.284 34.703H304.678C300.425 34.8732 296.403 36.6832 293.454 39.7539C290.505 42.8246 288.858 46.9177 288.858 51.176C288.858 55.4343 290.505 59.5274 293.454 62.598C296.403 65.6687 300.425 67.4787 304.678 67.6489H361.845V67.5303C364.798 67.1447 367.508 65.6929 369.466 63.4479C371.424 61.2029 372.494 58.3196 372.475 55.3403Z" fill="#ECECEC"/>
</svg>
