<svg width="120" height="120" viewBox="0 0 120 120" fill="none" xmlns="http://www.w3.org/2000/svg">
<path d="M114.4 99.7678C111.864 96.2198 108.416 93.5558 104.388 92.0198C107.048 89.7438 108.612 86.4038 108.612 82.9038C108.612 76.2878 103.228 70.9038 96.6121 70.9038C89.9961 70.9038 84.6121 76.2878 84.6121 82.9038C84.6121 86.4078 86.1761 89.7478 88.8361 92.0198C84.8081 93.5558 81.3601 96.2198 78.8241 99.7678C78.3481 100.432 77.9161 101.12 77.5241 101.832C77.6761 102.896 78.2241 103.94 78.6041 104.912C79.1001 106.188 79.3281 107.548 79.4721 108.912C80.0601 106.056 81.3561 103.368 83.2721 101.112L84.3201 99.8758L85.6401 98.7998L86.0401 98.4958C86.6561 98.0278 87.2881 97.6078 87.9241 97.2398L88.6961 96.7958L90.0841 96.1758L90.8241 95.9158C94.6161 94.5798 98.6241 94.5798 102.416 95.9158L103.156 96.1758L104.544 96.7958L105.316 97.2398C105.948 97.6038 106.58 98.0238 107.18 98.4838L108.92 99.8758L109.968 101.112C112.652 104.276 114.128 108.288 114.128 112.412V113.524H79.7561C79.7961 114.968 79.8081 116.412 79.8081 117.856H117.996L118.44 115.084L118.456 112.676C118.448 107.932 117.048 103.472 114.4 99.7678ZM96.6081 90.5678C92.3801 90.5678 88.9361 87.1278 88.9361 82.8958C88.9361 78.6638 92.3761 75.2278 96.6081 75.2278C100.84 75.2278 104.28 78.6678 104.28 82.8958C104.28 87.1238 100.84 90.5678 96.6081 90.5678Z" fill="#006CB5"/>
<path d="M38.7481 114.464C38.7881 114.148 38.8321 113.832 38.8761 113.52H5.08007V112.408C5.08007 108.284 6.55608 104.272 9.24008 101.108L10.2881 99.8718L11.6081 98.7958L12.0081 98.4918C12.6241 98.0238 13.2601 97.5998 13.8921 97.2358L14.6641 96.7918L16.0521 96.1718L16.7921 95.9118C20.5841 94.5758 24.5921 94.5758 28.3841 95.9118L29.1241 96.1718L30.5121 96.7918L31.2841 97.2358C31.9161 97.5998 32.5481 98.0198 33.1481 98.4798L34.8881 99.8718L35.9361 101.108C37.8401 103.352 39.1321 106.024 39.7241 108.86C39.9321 107.944 40.1681 107.032 40.4401 106.132C40.8161 104.892 41.2521 103.616 41.9321 102.508C41.9521 102.476 41.9721 102.448 41.9881 102.416C41.5161 101.5 40.9801 100.612 40.3761 99.7678C37.8401 96.2198 34.3921 93.5558 30.3641 92.0198C33.0241 89.7438 34.5881 86.4038 34.5881 82.9038C34.5881 76.2878 29.2041 70.9038 22.5881 70.9038C15.9721 70.9038 10.5881 76.2878 10.5881 82.9038C10.5881 86.4078 12.1521 89.7478 14.8121 92.0198C10.7841 93.5558 7.33607 96.2198 4.80008 99.7678C2.15208 103.472 0.752075 107.936 0.752075 112.672V114.868L1.21208 117.852H38.4561C38.4961 116.72 38.6041 115.588 38.7481 114.464ZM22.5841 75.2278C26.8121 75.2278 30.2521 78.6678 30.2521 82.8958C30.2521 87.1238 26.8121 90.5678 22.5841 90.5678C18.3561 90.5678 14.9121 87.1278 14.9121 82.8958C14.9121 78.6638 18.3561 75.2278 22.5841 75.2278Z" fill="#006CB5"/>
<path d="M77.388 99.7679C74.852 96.2199 71.404 93.5559 67.376 92.0199C70.036 89.7439 71.6 86.3999 71.6 82.8999C71.6 76.2839 66.216 70.8999 59.6 70.8999C52.984 70.8999 47.6 76.2839 47.6 82.8999C47.6 86.4039 49.164 89.7439 51.824 92.0159C47.796 93.5519 44.348 96.2159 41.812 99.7639C39.164 103.468 37.764 107.932 37.764 112.668V114.864L38.224 117.848H80.976L81.42 115.076L81.436 112.668C81.436 107.932 80.036 103.472 77.388 99.7679ZM47.3 99.8679L48.62 98.7919L49.02 98.4879C49.636 98.0199 50.268 97.5999 50.904 97.2319L51.676 96.7879L53.064 96.1679L53.804 95.9079C57.596 94.5719 61.604 94.5719 65.396 95.9079L66.136 96.1679L67.524 96.7879L68.296 97.2319C68.928 97.5959 69.56 98.0159 70.16 98.4759L71.9 99.8679L72.948 101.104C75.632 104.268 77.108 108.284 77.108 112.404V113.516H42.096V112.404C42.096 108.28 43.572 104.268 46.256 101.104L47.3 99.8679ZM51.928 82.8999C51.928 78.6719 55.368 75.2319 59.6 75.2319C63.832 75.2319 67.272 78.6719 67.272 82.8999C67.272 87.1279 63.832 90.5719 59.6 90.5719C55.368 90.5719 51.928 87.1279 51.928 82.8999Z" fill="#006CB5"/>
</svg>
