<svg width="120" height="120" viewBox="0 0 120 120" fill="none" xmlns="http://www.w3.org/2000/svg">
<path d="M67.044 75.0158C67.476 75.3638 67.892 75.7398 68.28 76.1438L68.648 75.8438L69.048 75.5398C69.66 75.0758 70.296 74.6518 70.928 74.2838L71.7 73.8398L73.088 73.2198L73.828 72.9598C77.62 71.6238 81.628 71.6238 85.42 72.9598L86.16 73.2198L87.548 73.8398L88.32 74.2838C88.724 74.5158 89.128 74.7798 89.524 75.0558C90.836 74.2318 92.184 73.4518 93.468 72.5878C91.66 71.0998 89.62 69.9118 87.404 69.0638C90.064 66.7878 91.628 63.4478 91.628 59.9478C91.628 53.3318 86.244 47.9478 79.628 47.9478C73.012 47.9478 67.628 53.3318 67.628 59.9478C67.628 63.4478 69.192 66.7918 71.852 69.0638C69.212 70.0718 66.824 71.5638 64.78 73.4678C65.576 73.9198 66.332 74.4438 67.044 75.0158ZM79.628 52.2838C83.856 52.2838 87.3 55.7238 87.3 59.9518C87.3 64.1798 83.86 67.6238 79.628 67.6238C75.396 67.6238 71.956 64.1838 71.956 59.9518C71.956 55.7198 75.396 52.2838 79.628 52.2838Z" fill="#006CB5"/>
<path d="M29.0081 76.0197L29.2241 75.8437L29.6241 75.5397C30.2401 75.0717 30.8721 74.6518 31.5081 74.2838L32.2801 73.8398L33.6681 73.2197L34.4081 72.9597C38.2001 71.6237 42.2081 71.6237 46.0001 72.9597L46.7401 73.2197L48.1281 73.8398L48.9001 74.2838C49.5321 74.6478 50.1641 75.0718 50.7641 75.5278L50.8041 75.5597C51.6841 74.4117 52.9361 73.5157 54.2721 72.7757C52.4081 71.1997 50.2921 69.9478 47.9801 69.0637C50.6401 66.7878 52.2041 63.4477 52.2041 59.9477C52.2041 53.3317 46.8201 47.9478 40.2041 47.9478C33.5881 47.9478 28.2041 53.3317 28.2041 59.9477C28.2041 63.4477 29.7681 66.7917 32.4281 69.0637C29.9881 69.9958 27.7641 71.3397 25.8241 73.0437C26.8641 74.0597 27.9361 75.0397 29.0081 76.0197ZM40.2001 52.2838C44.4281 52.2838 47.8721 55.7238 47.8721 59.9518C47.8721 64.1798 44.4321 67.6237 40.2001 67.6237C35.9681 67.6237 32.5281 64.1838 32.5281 59.9518C32.5281 55.7198 35.9681 52.2838 40.2001 52.2838Z" fill="#006CB5"/>
<path d="M114.4 99.7678C111.864 96.2198 108.416 93.5558 104.388 92.0198C107.048 89.7438 108.612 86.4038 108.612 82.9038C108.612 76.2878 103.228 70.9038 96.6121 70.9038C89.9961 70.9038 84.6121 76.2878 84.6121 82.9038C84.6121 86.4078 86.1761 89.7478 88.8361 92.0198C84.8081 93.5558 81.3601 96.2198 78.8241 99.7678C78.3481 100.432 77.9161 101.12 77.5241 101.832C77.6761 102.896 78.2241 103.94 78.6041 104.912C79.1001 106.188 79.3281 107.548 79.4721 108.912C80.0601 106.056 81.3561 103.368 83.2721 101.112L84.3201 99.8758L85.6401 98.7998L86.0401 98.4958C86.6561 98.0278 87.2881 97.6078 87.9241 97.2398L88.6961 96.7958L90.0841 96.1758L90.8241 95.9158C94.6161 94.5798 98.6241 94.5798 102.416 95.9158L103.156 96.1758L104.544 96.7958L105.316 97.2398C105.948 97.6038 106.58 98.0238 107.18 98.4838L108.92 99.8758L109.968 101.112C112.652 104.276 114.128 108.288 114.128 112.412V113.524H79.7561C79.7961 114.968 79.8081 116.412 79.8081 117.856H117.996L118.44 115.084L118.456 112.676C118.448 107.932 117.048 103.472 114.4 99.7678ZM96.6081 90.5678C92.3801 90.5678 88.9361 87.1278 88.9361 82.8958C88.9361 78.6638 92.3761 75.2278 96.6081 75.2278C100.84 75.2278 104.28 78.6678 104.28 82.8958C104.28 87.1238 100.84 90.5678 96.6081 90.5678Z" fill="#006CB5"/>
<path d="M38.7481 114.464C38.7881 114.148 38.8321 113.832 38.8761 113.52H5.08007V112.408C5.08007 108.284 6.55608 104.272 9.24008 101.108L10.2881 99.8718L11.6081 98.7958L12.0081 98.4918C12.6241 98.0238 13.2601 97.5998 13.8921 97.2358L14.6641 96.7918L16.0521 96.1718L16.7921 95.9118C20.5841 94.5758 24.5921 94.5758 28.3841 95.9118L29.1241 96.1718L30.5121 96.7918L31.2841 97.2358C31.9161 97.5998 32.5481 98.0198 33.1481 98.4798L34.8881 99.8718L35.9361 101.108C37.8401 103.352 39.1321 106.024 39.7241 108.86C39.9321 107.944 40.1681 107.032 40.4401 106.132C40.8161 104.892 41.2521 103.616 41.9321 102.508C41.9521 102.476 41.9721 102.448 41.9881 102.416C41.5161 101.5 40.9801 100.612 40.3761 99.7678C37.8401 96.2198 34.3921 93.5558 30.3641 92.0198C33.0241 89.7438 34.5881 86.4038 34.5881 82.9038C34.5881 76.2878 29.2041 70.9038 22.5881 70.9038C15.9721 70.9038 10.5881 76.2878 10.5881 82.9038C10.5881 86.4078 12.1521 89.7478 14.8121 92.0198C10.7841 93.5558 7.33607 96.2198 4.80008 99.7678C2.15208 103.472 0.752075 107.936 0.752075 112.672V114.868L1.21208 117.852H38.4561C38.4961 116.72 38.6041 115.588 38.7481 114.464ZM22.5841 75.2278C26.8121 75.2278 30.2521 78.6678 30.2521 82.8958C30.2521 87.1238 26.8121 90.5678 22.5841 90.5678C18.3561 90.5678 14.9121 87.1278 14.9121 82.8958C14.9121 78.6638 18.3561 75.2278 22.5841 75.2278Z" fill="#006CB5"/>
<path d="M77.3881 99.7679C74.8521 96.2199 71.4041 93.5559 67.3761 92.0199C70.0361 89.7439 71.6001 86.3999 71.6001 82.8999C71.6001 76.2839 66.2161 70.8999 59.6001 70.8999C52.9841 70.8999 47.6001 76.2839 47.6001 82.8999C47.6001 86.4039 49.1641 89.7439 51.8241 92.0159C47.7961 93.5519 44.3481 96.2159 41.8121 99.7639C39.1641 103.468 37.7641 107.932 37.7641 112.668V114.864L38.2241 117.848H80.9761L81.4201 115.076L81.4361 112.668C81.4361 107.932 80.0361 103.472 77.3881 99.7679ZM47.3001 99.8679L48.6201 98.7919L49.0201 98.4879C49.6361 98.0199 50.2681 97.5999 50.9041 97.2319L51.6761 96.7879L53.0641 96.1679L53.8041 95.9079C57.5961 94.5719 61.6041 94.5719 65.3961 95.9079L66.1361 96.1679L67.5241 96.7879L68.2961 97.2319C68.9281 97.5959 69.5601 98.0159 70.1601 98.4759L71.9001 99.8679L72.9481 101.104C75.6321 104.268 77.1081 108.284 77.1081 112.404V113.516H42.0961V112.404C42.0961 108.28 43.5721 104.268 46.2561 101.104L47.3001 99.8679ZM51.9281 82.8999C51.9281 78.6719 55.3681 75.2319 59.6001 75.2319C63.8321 75.2319 67.2721 78.6719 67.2721 82.8999C67.2721 87.1279 63.8321 90.5719 59.6001 90.5719C55.3681 90.5719 51.9281 87.1279 51.9281 82.8999Z" fill="#006CB5"/>
</svg>
