<svg width="120" height="120" viewBox="0 0 120 120" fill="none" xmlns="http://www.w3.org/2000/svg">
<path d="M114.4 54.016C111.864 50.468 108.416 47.804 104.388 46.264C107.048 43.988 108.612 40.648 108.612 37.148C108.612 30.532 103.228 25.1479 96.612 25.1479C89.996 25.1479 84.612 30.532 84.612 37.148C84.612 40.648 86.176 43.992 88.836 46.264C86.712 47.076 84.752 48.2 83 49.6C83.58 49.944 84.18 50.256 84.724 50.628C85.42 51.104 86.06 51.7 86.68 52.276C87.092 51.992 87.504 51.72 87.92 51.48L88.692 51.032L90.08 50.412L90.82 50.148C94.612 48.812 98.62 48.812 102.412 50.148L103.152 50.408L104.54 51.028L105.312 51.472C105.944 51.836 106.576 52.256 107.176 52.716L108.916 54.108L109.964 55.344C112.648 58.508 114.124 62.52 114.124 66.644V67.756H87.376C87.112 68.696 86.744 69.616 86.444 70.544C86.28 71.052 86.156 71.568 86.044 72.088H117.992L118.436 69.316L118.452 66.908C118.448 62.184 117.048 57.724 114.4 54.016ZM96.608 44.82C92.38 44.82 88.936 41.38 88.936 37.148C88.936 32.916 92.376 29.4799 96.608 29.4799C100.84 29.4799 104.28 32.92 104.28 37.148C104.28 41.376 100.84 44.82 96.608 44.82Z" fill="#006CB5"/>
<path d="M32.6239 67.768H5.07993V66.656C5.07993 62.532 6.55593 58.52 9.23993 55.356L10.2879 54.12L11.6079 53.044L12.0079 52.74C12.6239 52.272 13.2599 51.848 13.8919 51.484L14.6639 51.036L16.0519 50.416L16.7919 50.156C20.5839 48.82 24.5919 48.82 28.3839 50.156L29.1239 50.416L30.5119 51.036L31.2839 51.48C31.7879 51.768 32.2839 52.1 32.7679 52.452C34.2639 51.752 35.8159 51.164 37.3799 50.612C35.3479 48.732 32.9799 47.256 30.3639 46.26C33.0239 43.984 34.5879 40.644 34.5879 37.144C34.5879 30.528 29.2039 25.144 22.5879 25.144C15.9719 25.144 10.5879 30.528 10.5879 37.144C10.5879 40.644 12.1519 43.988 14.8119 46.26C10.7839 47.796 7.33593 50.46 4.79993 54.012C2.14793 57.72 0.747932 62.184 0.747932 66.92V69.116L1.20793 72.1H33.3559C33.1879 70.64 32.9879 69.188 32.6239 67.768ZM22.5839 29.48C26.8119 29.48 30.2519 32.92 30.2519 37.148C30.2519 41.376 26.8119 44.82 22.5839 44.82C18.3559 44.82 14.9119 41.38 14.9119 37.148C14.9119 32.916 18.3559 29.48 22.5839 29.48Z" fill="#006CB5"/>
<path d="M51.82 46.268C49.296 47.2319 47 48.6399 45.012 50.4279C45.8 51.4799 46.816 52.388 47.788 53.212C47.892 53.3 47.996 53.3839 48.1 53.4719L48.624 53.044L49.024 52.74C49.64 52.272 50.272 51.852 50.908 51.484L51.68 51.0359L53.068 50.416L53.808 50.156C57.6 48.82 61.608 48.82 65.4 50.156L66.14 50.416L67.528 51.0359L68.3 51.4799C68.932 51.844 69.564 52.268 70.164 52.724L70.776 53.2159C72.18 52.5279 73.592 51.8679 75.004 51.2039C72.84 49.0399 70.26 47.364 67.376 46.264C70.036 43.988 71.6 40.648 71.6 37.148C71.6 30.532 66.216 25.1479 59.6 25.1479C52.984 25.1479 47.6 30.532 47.6 37.148C47.596 40.652 49.16 43.9919 51.82 46.268ZM59.596 29.4799C63.824 29.4799 67.268 32.92 67.268 37.148C67.268 41.376 63.828 44.82 59.596 44.82C55.364 44.82 51.924 41.38 51.924 37.148C51.924 32.916 55.368 29.4799 59.596 29.4799Z" fill="#006CB5"/>
<path d="M67.0439 75.0162C67.4759 75.3642 67.8919 75.7402 68.2799 76.1442L68.6479 75.8442L69.0479 75.5402C69.6599 75.0762 70.2959 74.6522 70.9279 74.2842L71.6999 73.8402L73.0879 73.2202L73.8279 72.9602C77.6199 71.6242 81.6279 71.6242 85.4199 72.9602L86.1599 73.2202L87.5479 73.8402L88.3199 74.2842C88.7239 74.5162 89.1279 74.7802 89.5239 75.0562C90.8359 74.2322 92.1839 73.4522 93.4679 72.5882C91.6599 71.1002 89.6199 69.9122 87.4039 69.0642C90.0639 66.7882 91.6279 63.4482 91.6279 59.9482C91.6279 53.3322 86.2439 47.9482 79.6279 47.9482C73.0119 47.9482 67.6279 53.3322 67.6279 59.9482C67.6279 63.4482 69.1919 66.7922 71.8519 69.0642C69.2119 70.0722 66.8239 71.5642 64.7799 73.4682C65.5759 73.9202 66.3319 74.4442 67.0439 75.0162ZM79.6279 52.2842C83.8559 52.2842 87.2999 55.7242 87.2999 59.9522C87.2999 64.1802 83.8599 67.6242 79.6279 67.6242C75.3959 67.6242 71.9559 64.1842 71.9559 59.9522C71.9559 55.7202 75.3959 52.2842 79.6279 52.2842Z" fill="#006CB5"/>
<path d="M29.008 76.0202L29.224 75.8442L29.624 75.5402C30.24 75.0722 30.872 74.6522 31.508 74.2842L32.28 73.8402L33.668 73.2202L34.408 72.9602C38.2 71.6242 42.208 71.6242 46 72.9602L46.74 73.2202L48.128 73.8402L48.9 74.2842C49.532 74.6482 50.164 75.0722 50.764 75.5282L50.804 75.5602C51.684 74.4122 52.936 73.5162 54.272 72.7762C52.408 71.2002 50.292 69.9482 47.98 69.0642C50.64 66.7882 52.204 63.4482 52.204 59.9482C52.204 53.3322 46.82 47.9482 40.204 47.9482C33.588 47.9482 28.204 53.3322 28.204 59.9482C28.204 63.4482 29.768 66.7922 32.428 69.0642C29.988 69.9962 27.764 71.3402 25.824 73.0442C26.864 74.0602 27.936 75.0402 29.008 76.0202ZM40.2 52.2842C44.428 52.2842 47.872 55.7242 47.872 59.9522C47.872 64.1802 44.432 67.6242 40.2 67.6242C35.968 67.6242 32.528 64.1842 32.528 59.9522C32.528 55.7202 35.968 52.2842 40.2 52.2842Z" fill="#006CB5"/>
<path d="M114.4 99.7683C111.864 96.2203 108.416 93.5563 104.388 92.0203C107.048 89.7443 108.612 86.4043 108.612 82.9043C108.612 76.2883 103.228 70.9043 96.612 70.9043C89.996 70.9043 84.612 76.2883 84.612 82.9043C84.612 86.4083 86.176 89.7483 88.836 92.0203C84.808 93.5563 81.36 96.2203 78.824 99.7683C78.348 100.432 77.916 101.12 77.524 101.832C77.676 102.896 78.224 103.94 78.604 104.912C79.1 106.188 79.328 107.548 79.472 108.912C80.06 106.056 81.356 103.368 83.272 101.112L84.32 99.8763L85.64 98.8003L86.04 98.4963C86.656 98.0283 87.288 97.6083 87.924 97.2403L88.696 96.7963L90.084 96.1763L90.824 95.9163C94.616 94.5803 98.624 94.5803 102.416 95.9163L103.156 96.1763L104.544 96.7963L105.316 97.2403C105.948 97.6043 106.58 98.0243 107.18 98.4843L108.92 99.8763L109.968 101.112C112.652 104.276 114.128 108.288 114.128 112.412V113.524H79.756C79.796 114.968 79.808 116.412 79.808 117.856H117.996L118.44 115.084L118.456 112.676C118.448 107.932 117.048 103.472 114.4 99.7683ZM96.608 90.5683C92.38 90.5683 88.936 87.1283 88.936 82.8963C88.936 78.6643 92.376 75.2283 96.608 75.2283C100.84 75.2283 104.28 78.6683 104.28 82.8963C104.28 87.1243 100.84 90.5683 96.608 90.5683Z" fill="#006CB5"/>
<path d="M38.7479 114.464C38.7879 114.148 38.8319 113.832 38.8759 113.52H5.07993V112.408C5.07993 108.284 6.55593 104.272 9.23993 101.108L10.2879 99.8723L11.6079 98.7963L12.0079 98.4923C12.6239 98.0243 13.2599 97.6003 13.8919 97.2363L14.6639 96.7923L16.0519 96.1723L16.7919 95.9123C20.5839 94.5763 24.5919 94.5763 28.3839 95.9123L29.1239 96.1723L30.5119 96.7923L31.2839 97.2363C31.9159 97.6003 32.5479 98.0203 33.1479 98.4803L34.8879 99.8723L35.9359 101.108C37.8399 103.352 39.1319 106.024 39.7239 108.86C39.9319 107.944 40.1679 107.032 40.4399 106.132C40.8159 104.892 41.2519 103.616 41.9319 102.508C41.9519 102.476 41.9719 102.448 41.9879 102.416C41.5159 101.5 40.9799 100.612 40.3759 99.7683C37.8399 96.2203 34.3919 93.5563 30.3639 92.0203C33.0239 89.7443 34.5879 86.4043 34.5879 82.9043C34.5879 76.2883 29.2039 70.9043 22.5879 70.9043C15.9719 70.9043 10.5879 76.2883 10.5879 82.9043C10.5879 86.4083 12.1519 89.7483 14.8119 92.0203C10.7839 93.5563 7.33593 96.2203 4.79993 99.7683C2.15193 103.472 0.75193 107.936 0.75193 112.672V114.868L1.21193 117.852H38.4559C38.4959 116.72 38.6039 115.588 38.7479 114.464ZM22.5839 75.2283C26.8119 75.2283 30.2519 78.6683 30.2519 82.8963C30.2519 87.1243 26.8119 90.5683 22.5839 90.5683C18.3559 90.5683 14.9119 87.1283 14.9119 82.8963C14.9119 78.6643 18.3559 75.2283 22.5839 75.2283Z" fill="#006CB5"/>
<path d="M77.3879 99.7679C74.8519 96.2199 71.4039 93.5559 67.3759 92.0199C70.0359 89.7439 71.5999 86.3999 71.5999 82.8999C71.5999 76.2839 66.2159 70.8999 59.5999 70.8999C52.9839 70.8999 47.5999 76.2839 47.5999 82.8999C47.5999 86.4039 49.1639 89.7439 51.8239 92.0159C47.7959 93.5519 44.3479 96.2159 41.8119 99.7639C39.1639 103.468 37.7639 107.932 37.7639 112.668V114.864L38.2239 117.848H80.9759L81.4199 115.076L81.4359 112.668C81.4359 107.932 80.0359 103.472 77.3879 99.7679ZM47.2999 99.8679L48.6199 98.7919L49.0199 98.4879C49.6359 98.0199 50.2679 97.5999 50.9039 97.2319L51.6759 96.7879L53.0639 96.1679L53.8039 95.9079C57.5959 94.5719 61.6039 94.5719 65.3959 95.9079L66.1359 96.1679L67.5239 96.7879L68.2959 97.2319C68.9279 97.5959 69.5599 98.0159 70.1599 98.4759L71.8999 99.8679L72.9479 101.104C75.6319 104.268 77.1079 108.284 77.1079 112.404V113.516H42.0959V112.404C42.0959 108.28 43.5719 104.268 46.2559 101.104L47.2999 99.8679ZM51.9279 82.8999C51.9279 78.6719 55.3679 75.2319 59.5999 75.2319C63.8319 75.2319 67.2719 78.6719 67.2719 82.8999C67.2719 87.1279 63.8319 90.5719 59.5999 90.5719C55.3679 90.5719 51.9279 87.1279 51.9279 82.8999Z" fill="#006CB5"/>
</svg>
