<svg width="120" height="120" viewBox="0 0 120 120" fill="none" xmlns="http://www.w3.org/2000/svg">
<path d="M102.912 1.81592H20.3199C19.0119 1.81592 17.9479 2.87992 17.9479 4.18792V68.2399C17.9479 69.5199 18.9919 70.5639 20.2719 70.5639C21.5519 70.5639 22.5959 69.5199 22.5959 68.2399V6.46392H100.64V113.356H22.5959V82.1079C22.5959 80.8759 21.6759 79.8239 20.4999 79.7119C19.8479 79.6519 19.1959 79.8639 18.7119 80.3039C18.2279 80.7439 17.9519 81.3719 17.9519 82.0239V115.628C17.9519 116.936 19.0159 118 20.3239 118H102.916C104.224 118 105.288 116.936 105.288 115.628V4.19192C105.284 2.88392 104.22 1.81592 102.912 1.81592Z" fill="#006CB5"/>
<path d="M20.3199 77.572C21.5759 77.572 22.5959 76.552 22.5959 75.296C22.5959 74.04 21.5759 73.02 20.3199 73.02H20.2239C18.9679 73.02 17.9479 74.04 17.9479 75.296C17.9479 76.552 18.9679 77.572 20.2239 77.572H20.3199Z" fill="#006CB5"/>
<path d="M54.0279 61.1919C53.9799 60.5719 53.6959 60.0119 53.2239 59.6079C52.7519 59.2039 52.1519 59.0079 51.5319 59.0559C50.9119 59.1039 50.3519 59.3879 49.9479 59.8599L41.2919 69.956L38.6559 67.32C38.2159 66.88 37.6319 66.64 37.0119 66.64C36.3919 66.64 35.8079 66.88 35.3679 67.32C34.4639 68.224 34.4639 69.7 35.3679 70.604L39.7959 75.032C40.2199 75.456 40.7999 75.696 41.3919 75.696C41.4319 75.696 41.4679 75.696 41.5079 75.692C42.1519 75.668 42.7639 75.372 43.1839 74.884L53.4719 62.884C53.8799 62.412 54.0759 61.8119 54.0279 61.1919Z" fill="#006CB5"/>
<path d="M27.5639 74.332C27.5679 78.26 30.7679 81.456 34.6959 81.464H44.3119C48.2399 81.46 51.4359 78.26 51.4439 74.332C51.4439 73.58 50.8319 72.972 50.0839 72.972H48.1599C47.4079 72.972 46.7999 73.584 46.7999 74.332C46.7999 75.7 45.6839 76.816 44.3159 76.816H34.6959C33.3279 76.816 32.2119 75.7 32.2119 74.332V64.716C32.2119 63.348 33.3279 62.232 34.6959 62.232H41.4279C42.7079 62.232 43.7519 61.188 43.7519 59.908C43.7519 58.628 42.7079 57.584 41.4279 57.584H34.6919C30.7639 57.588 27.5679 60.788 27.5599 64.716V74.332H27.5639Z" fill="#006CB5"/>
<path d="M51.5319 87.8997C50.9119 87.9477 50.3519 88.2317 49.9479 88.7037L41.2919 98.7997L38.6559 96.1637C38.2159 95.7237 37.6319 95.4837 37.0119 95.4837C36.3919 95.4837 35.8079 95.7237 35.3679 96.1637C34.9279 96.6037 34.6879 97.1837 34.6879 97.8077C34.6879 98.4277 34.9279 99.0117 35.3679 99.4517L39.7999 103.88C40.2239 104.304 40.8039 104.544 41.3959 104.544C41.4359 104.544 41.4719 104.544 41.5119 104.54C42.1559 104.516 42.7679 104.22 43.1879 103.732L53.4759 91.7317C53.8799 91.2597 54.0759 90.6597 54.0279 90.0397C53.9799 89.4197 53.6959 88.8597 53.2239 88.4557C52.7519 88.0477 52.1559 87.8517 51.5319 87.8997Z" fill="#006CB5"/>
<path d="M27.5639 103.18C27.5679 107.108 30.7679 110.304 34.6959 110.312H44.3119C48.2399 110.308 51.4359 107.108 51.4439 103.18C51.4439 102.428 50.8319 101.82 50.0839 101.82H48.1599C47.4079 101.82 46.7999 102.432 46.7999 103.18C46.7999 104.548 45.6839 105.664 44.3159 105.664H34.6959C33.3279 105.664 32.2119 104.548 32.2119 103.18V93.564C32.2119 92.196 33.3279 91.08 34.6959 91.08H42.3879C43.1399 91.08 43.7479 90.468 43.7479 89.72V87.796C43.7479 87.044 43.1359 86.436 42.3879 86.436H34.6919C30.7639 86.44 27.5679 89.64 27.5599 93.568V103.18H27.5639Z" fill="#006CB5"/>
<path d="M85.656 86.4321H60.656C59.376 86.4321 58.332 87.4761 58.332 88.7561C58.332 90.0361 59.376 91.0801 60.656 91.0801H85.656C86.936 91.0801 87.98 90.0361 87.98 88.7561C87.98 87.4761 86.936 86.4321 85.656 86.4321Z" fill="#006CB5"/>
<path d="M60.656 96.0479C59.376 96.0479 58.332 97.0919 58.332 98.3718C58.332 99.6518 59.376 100.696 60.656 100.696H66.424C67.704 100.696 68.748 99.6518 68.748 98.3718C68.748 97.0919 67.704 96.0479 66.424 96.0479H60.656Z" fill="#006CB5"/>
<path d="M85.6559 96.0479H74.1159C72.8359 96.0479 71.7919 97.0919 71.7919 98.3718C71.7919 99.6518 72.8359 100.696 74.1159 100.696H85.6559C86.9359 100.696 87.9799 99.6518 87.9799 98.3718C87.9799 97.0919 86.9359 96.0479 85.6559 96.0479Z" fill="#006CB5"/>
<path d="M58.332 59.908C58.332 61.188 59.376 62.232 60.656 62.232H85.656C86.936 62.232 87.98 61.188 87.98 59.908C87.98 58.628 86.936 57.584 85.656 57.584H60.656C59.376 57.588 58.332 58.628 58.332 59.908Z" fill="#006CB5"/>
<path d="M60.656 71.8477H66.424C67.704 71.8477 68.748 70.8037 68.748 69.5237C68.748 68.2437 67.704 67.1997 66.424 67.1997H60.656C59.376 67.1997 58.332 68.2437 58.332 69.5237C58.332 70.8037 59.376 71.8477 60.656 71.8477Z" fill="#006CB5"/>
<path d="M85.6559 67.1997H74.1159C72.8359 67.1997 71.7919 68.2437 71.7919 69.5237C71.7919 70.8037 72.8359 71.8477 74.1159 71.8477H85.6559C86.9359 71.8477 87.9799 70.8037 87.9799 69.5237C87.9799 68.2437 86.9359 67.1997 85.6559 67.1997Z" fill="#006CB5"/>
<path d="M80.7839 17.4197L63.5199 9.7197C62.9039 9.4437 62.1999 9.4437 61.5879 9.7197L44.3239 17.4157C43.3679 17.8437 42.8119 18.8637 42.9759 19.8997L44.4159 29.0477L44.4239 29.0997C45.9079 37.1637 50.3759 44.2637 56.9959 49.0877L61.1599 52.1557C61.5799 52.4637 62.0719 52.6197 62.5679 52.6197C63.0559 52.6197 63.5439 52.4677 63.9639 52.1637L67.9279 49.2837C74.6439 44.4557 79.1679 37.3117 80.6679 29.1757L82.1319 19.8997C82.2959 18.8677 81.7399 17.8437 80.7839 17.4197ZM59.7559 45.3477C54.0999 41.2277 50.2799 35.1717 49.0039 28.2997L47.8439 20.9357L62.5559 14.3757L77.2679 20.9357L76.0959 28.3717C74.8079 35.3157 70.9399 41.4037 65.1999 45.5277L62.5799 47.4317L59.7559 45.3477Z" fill="#006CB5"/>
<path d="M73.1119 24.7439C73.1119 24.1239 72.8719 23.5399 72.4319 23.0999C71.9919 22.6599 71.4119 22.4199 70.7879 22.4199C70.1679 22.4199 69.5839 22.6599 69.1439 23.0999L60.6079 31.6399L57.8399 28.8719C57.3999 28.4319 56.8199 28.1919 56.1959 28.1919C55.5759 28.1919 54.9919 28.4319 54.5519 28.8719C54.1119 29.3119 53.8719 29.8959 53.8719 30.5159C53.8719 31.1359 54.1119 31.7199 54.5519 32.1599L58.9599 36.5679C59.4119 37.0199 60.0079 37.2479 60.6039 37.2479C61.1999 37.2479 61.7919 37.0199 62.2479 36.5679L72.4279 26.3879C72.8679 25.9479 73.1119 25.3639 73.1119 24.7439Z" fill="#006CB5"/>
<path d="M29.8879 14.1558H37.5799C38.8599 14.1558 39.9039 13.1118 39.9039 11.8318C39.9039 10.5518 38.8599 9.50781 37.5799 9.50781H29.8879C28.6079 9.50781 27.5639 10.5518 27.5639 11.8318C27.5639 13.1118 28.6039 14.1558 29.8879 14.1558Z" fill="#006CB5"/>
<path d="M29.8879 21.8477H33.7359C35.0159 21.8477 36.0599 20.8037 36.0599 19.5237C36.0599 18.2437 35.0159 17.1997 33.7359 17.1997H29.8879C28.6079 17.1997 27.5639 18.2437 27.5639 19.5237C27.5639 20.8037 28.6039 21.8477 29.8879 21.8477Z" fill="#006CB5"/>
<path d="M87.5799 14.1558C88.8634 14.1558 89.9039 13.1153 89.9039 11.8318C89.9039 10.5483 88.8634 9.50781 87.5799 9.50781C86.2964 9.50781 85.2559 10.5483 85.2559 11.8318C85.2559 13.1153 86.2964 14.1558 87.5799 14.1558Z" fill="#006CB5"/>
<path d="M95.272 14.1558C96.5555 14.1558 97.596 13.1153 97.596 11.8318C97.596 10.5483 96.5555 9.50781 95.272 9.50781C93.9885 9.50781 92.948 10.5483 92.948 11.8318C92.948 13.1153 93.9885 14.1558 95.272 14.1558Z" fill="#006CB5"/>
</svg>
