<svg width="120" height="120" viewBox="0 0 120 120" fill="none" xmlns="http://www.w3.org/2000/svg">
<path d="M85.1 1.50788C85.284 1.50388 84.668 1.50388 85.1 1.50788V1.50788Z" fill="#006CB5"/>
<path d="M84.956 4.92773C84.58 4.93174 85.3839 4.93174 84.956 4.92773V4.92773Z" fill="#006CB5"/>
<path d="M7.79996 118.128C42.416 118.128 77.036 118.128 111.652 118.128C112.648 118.128 113.444 117.272 113.348 116.256C113.264 115.372 112.468 114.72 111.58 114.72C109.632 114.72 107.684 114.712 105.736 114.712C103.728 114.712 101.724 114.712 99.58 114.712V113.172C99.58 98.9763 99.58 84.7803 99.58 70.5843C99.58 68.5243 99.096 68.0523 97.02 68.0483C96.64 68.0483 96.26 68.0483 95.88 68.0483H90.704V23.2163C90.864 23.1803 90.94 23.1483 91.012 23.1483C92.304 23.1403 93.592 23.1443 94.884 23.1323C96.544 23.1163 97.144 22.5243 97.152 20.8563C97.164 18.1243 97.16 15.3923 97.152 12.6563C97.148 10.7843 96.596 10.2483 94.68 10.2443C93.364 10.2403 92.048 10.2443 90.616 10.2443C90.616 8.8163 90.628 7.5363 90.612 6.2563C90.58 3.4323 88.704 1.5403 85.9 1.5163C85.48 1.5123 85.232 1.5123 85.092 1.5083C85.008 1.5083 84.756 1.5123 84.164 1.5123C82.764 1.5163 81.952 2.1843 81.988 3.2683C82.024 4.3083 82.808 4.9203 84.152 4.9243C84.576 4.9243 84.82 4.9283 84.952 4.9283C85.076 4.9283 85.32 4.9243 85.772 4.9243C86.5 4.9203 87.12 5.1403 87.16 5.9403C87.228 7.3323 87.18 8.7283 87.18 10.1603H65.548C65.548 8.8323 65.548 7.5843 65.548 6.3403C65.548 5.3363 66.068 4.9123 67.048 4.9243C68.416 4.9443 69.78 4.9363 71.148 4.9283C72.58 4.9203 73.34 4.3083 73.324 3.1963C73.308 2.0923 72.56 1.5203 71.092 1.5163C69.8 1.5123 68.512 1.5123 67.22 1.5163C63.972 1.5243 62.14 3.3483 62.128 6.5843C62.124 7.7843 62.128 8.9843 62.128 10.2483H45.8C34.832 10.2483 23.86 10.2483 12.892 10.2483C10.504 10.2483 10.148 10.6083 10.148 13.0363C10.148 15.6563 10.14 18.2763 10.152 20.8923C10.156 22.5723 10.72 23.1323 12.416 23.1323C16.288 23.1403 20.16 23.1363 24.032 23.1363C24.436 23.1363 24.84 23.1363 25.228 23.1363C25.72 27.8403 26.824 28.8203 31.48 28.8203H34.144V36.1443C32.98 36.1443 30.076 36.1443 28.236 36.1443C27.344 36.1443 26.624 36.8683 26.624 37.7603V46.9443C26.624 47.8363 27.348 48.5603 28.24 48.5603L43.612 48.5643C44.504 48.5643 45.228 47.8403 45.228 46.9483V37.7643C45.228 36.8723 44.508 36.1483 43.616 36.1483C41.772 36.1483 38.848 36.1483 37.632 36.1483V28.8163C38.892 28.8163 39.992 28.7523 41.084 28.8283C44.772 29.0803 46.792 26.6403 46.536 23.6923C46.524 23.5483 46.58 23.3963 46.608 23.2003H76.652V67.9763H69.392C69.392 67.4923 69.392 67.0843 69.392 66.6723C69.392 61.9283 69.4 57.1843 69.388 52.4363C69.384 51.0163 68.78 50.3203 67.444 50.3083C64.496 50.2843 61.88 50.2803 59.064 50.2963C49.62 50.2963 30.084 50.2963 21.472 50.2963C19.172 50.2963 18.744 50.7163 18.744 53.0083C18.744 67.8803 18.744 78.4243 18.744 93.2963C18.744 93.7123 18.74 94.1363 18.804 94.5443C18.94 95.4203 19.532 95.8923 20.368 95.9283C21.256 95.9643 21.904 95.5043 22.076 94.5843C22.168 94.1043 22.156 93.6043 22.156 93.1123C22.16 79.0763 22.16 69.3643 22.16 55.3283C22.16 54.8403 22.16 54.3523 22.16 53.7123C22.816 53.7123 23.268 53.7123 23.716 53.7123C31.36 53.7123 49.38 53.7123 58.324 53.7123C60.48 53.7203 62.396 53.7123 64.672 53.7123C65.076 53.7123 65.476 53.7123 65.976 53.7123C65.976 54.2803 65.976 54.6923 65.976 55.1043C65.976 59.7323 65.976 64.3643 65.976 68.9923C65.976 70.3563 67.084 71.4643 68.448 71.4643C77.216 71.4643 85.984 71.4643 94.752 71.4643H96.076V114.644H22.164C22.164 111.66 22.176 108.744 22.16 105.828C22.152 104.444 21.548 103.736 20.46 103.732C19.36 103.728 18.768 104.424 18.76 105.816C18.74 108.36 18.752 110.904 18.752 113.444C18.752 113.844 18.752 114.244 18.752 114.708C15.028 114.708 11.404 114.712 7.80796 114.708C6.86396 114.708 6.09596 115.472 6.09596 116.416C6.09196 117.364 6.85596 118.128 7.79996 118.128ZM90.912 13.7443C88.836 15.6203 86.936 17.3403 84.988 19.1043C83.036 17.3403 81.14 15.6283 79.06 13.7443H90.912ZM13.672 19.6883V15.9163C15.044 17.1603 16.328 18.3163 17.84 19.6883H13.672ZM22.292 19.1003C20.3 17.2963 18.424 15.6003 16.376 13.7483H28.216C26.128 15.6363 24.216 17.3643 22.292 19.1003ZM32.74 14.2643C34.72 16.0563 36.616 17.7723 38.684 19.6443H26.808C28.852 17.7883 30.74 16.0763 32.74 14.2643ZM41.756 39.6523V45.0963H30.14V39.6523H41.756ZM41.224 25.4003C37.696 25.4003 34.168 25.4003 30.64 25.4003C28.856 25.4003 28.632 25.1403 28.824 23.1803H42.952C43.348 24.9843 43.02 25.3963 41.224 25.4003ZM43.196 19.1003C41.268 17.3603 39.368 15.6443 37.232 13.7163H49.136C47.06 15.6003 45.172 17.3123 43.196 19.1003ZM47.672 19.6683C49.752 17.7843 51.64 16.0723 53.632 14.2683C55.568 16.0163 57.488 17.7483 59.616 19.6683H47.672ZM58.16 13.7323H70.02C67.928 15.6283 66.024 17.3523 64.084 19.1043C62.132 17.3323 60.244 15.6203 58.16 13.7323ZM68.62 19.6203C70.688 17.7523 72.592 16.0283 74.54 14.2683C76.484 16.0243 78.388 17.7443 80.46 19.6203H68.62ZM86.132 29.4643C84.12 31.0083 82.244 32.4483 80.22 34.0003V24.9483C82.212 26.4683 84.108 27.9163 86.132 29.4643ZM80.196 41.0323C82.24 42.6043 84.144 44.0643 86.132 45.5923C84.088 47.1563 82.212 48.5923 80.196 50.1363V41.0323ZM80.232 57.1843C82.232 58.7163 84.144 60.1843 86.132 61.7083C84.136 63.2403 82.252 64.6883 80.232 66.2403V57.1843ZM87.116 67.9803H83.584C84.864 66.9963 85.924 66.1843 87.116 65.2643V67.9803ZM87.116 58.1483C85.12 56.6163 83.252 55.1803 81.252 53.6443C83.268 52.0963 85.124 50.6723 87.116 49.1443V58.1483ZM87.136 42.0443C85.132 40.5043 83.276 39.0803 81.256 37.5283C83.212 36.0243 85.096 34.5763 87.136 33.0083V42.0443ZM87.144 25.9283C85.964 25.0243 84.888 24.1963 83.576 23.1883H87.144V25.9283ZM93.668 15.8803V19.6203H89.508C90.952 18.3243 92.236 17.1683 93.668 15.8803Z" fill="#006CB5"/>
<path d="M29.9959 80.4682C30.0239 81.4442 30.5999 81.9962 31.5399 82.1162C32.4239 82.2282 33.2239 81.5762 33.3519 80.6162C33.4279 80.0242 33.3679 79.4122 33.3679 78.8082C33.3639 78.8082 33.3599 78.8082 33.3559 78.8082C33.3559 78.1282 33.4439 77.4362 33.3359 76.7762C33.1799 75.8442 32.5399 75.2882 31.5799 75.3522C30.6399 75.4122 30.0359 75.9802 29.9999 76.9602C29.9599 78.1282 29.9639 79.3002 29.9959 80.4682Z" fill="#006CB5"/>
<path d="M58.932 80.528C59.008 81.496 59.584 82.064 60.5319 82.116C61.4999 82.168 62.1799 81.604 62.2639 80.676C62.3799 79.404 62.3759 78.108 62.2719 76.832C62.1959 75.896 61.5279 75.364 60.5679 75.344C59.6759 75.328 58.984 76.044 58.928 77.02C58.892 77.584 58.9199 78.152 58.9239 78.72C58.9239 79.32 58.884 79.928 58.932 80.528Z" fill="#006CB5"/>
<path d="M87.8559 80.4279C87.9119 81.4159 88.5799 82.1239 89.4799 82.1239C90.4479 82.1239 91.1199 81.5919 91.2039 80.6599C91.3159 79.3879 91.3119 78.0879 91.2079 76.8159C91.1279 75.8799 90.4519 75.3519 89.4919 75.3399C88.5999 75.3319 87.9159 76.0479 87.8599 77.0279C87.8279 77.5919 87.8559 78.1599 87.8519 78.7279C87.8479 79.2959 87.8239 79.8639 87.8559 80.4279Z" fill="#006CB5"/>
<path d="M47.788 76.8238C47.696 75.9038 47.092 75.3958 46.204 75.3478C45.364 75.3038 44.628 75.7398 44.552 76.5798C44.424 77.9958 44.412 79.4398 44.544 80.8558C44.628 81.7438 45.388 82.1958 46.288 82.1078C47.172 82.0198 47.736 81.4798 47.8 80.5558C47.844 79.9558 47.808 79.3478 47.808 78.7438C47.804 78.7438 47.804 78.7438 47.8 78.7438C47.8 78.1078 47.852 77.4598 47.788 76.8238Z" fill="#006CB5"/>
<path d="M29.9919 94.1521C30.0239 95.2241 30.6919 95.9121 31.6439 95.9281C32.5799 95.9441 33.2999 95.2521 33.3799 94.2041C33.4239 93.6401 33.3879 93.0721 33.3839 92.5081C33.3839 91.9441 33.4239 91.3721 33.3719 90.8121C33.2759 89.7601 32.5559 89.1281 31.5799 89.1721C30.6439 89.2121 30.0239 89.8441 29.9879 90.8761C29.9599 91.9641 29.9599 93.0601 29.9919 94.1521Z" fill="#006CB5"/>
<path d="M47.804 104.516C47.744 103.584 47.172 103.052 46.292 102.964C45.404 102.876 44.628 103.324 44.548 104.212C44.416 105.624 44.416 107.072 44.556 108.484C44.644 109.372 45.412 109.792 46.32 109.7C47.172 109.612 47.708 109.104 47.792 108.248C47.856 107.612 47.804 106.968 47.804 106.328C47.808 106.328 47.808 106.328 47.812 106.328C47.808 105.724 47.84 105.116 47.804 104.516Z" fill="#006CB5"/>
<path d="M73.436 108.32C73.52 109.264 74.2201 109.772 75.1921 109.704C76.1601 109.632 76.6841 109.048 76.7441 108.084C76.7801 107.52 76.7521 106.952 76.7481 106.388C76.7481 105.784 76.7721 105.18 76.7401 104.58C76.6921 103.596 76.1041 103.028 75.1721 102.964C74.2281 102.9 73.5041 103.428 73.4281 104.376C73.3201 105.684 73.32 107.012 73.436 108.32Z" fill="#006CB5"/>
<path d="M76.7319 76.876C76.6599 75.952 76.0719 75.424 75.1919 75.352C74.2999 75.28 73.5519 75.744 73.4719 76.64C73.3479 78.02 73.3479 79.428 73.4679 80.808C73.5439 81.7 74.2759 82.176 75.1759 82.112C76.0639 82.052 76.6479 81.532 76.7319 80.608C76.7879 80.008 76.7439 79.4 76.7439 78.8C76.7399 78.16 76.7799 77.512 76.7319 76.876Z" fill="#006CB5"/>
<path d="M47.8039 90.7278C47.7359 89.8118 47.2159 89.2598 46.2919 89.1798C45.3719 89.0998 44.6279 89.5318 44.5399 90.4318C44.4039 91.8158 44.4039 93.2358 44.5319 94.6198C44.6119 95.5158 45.3639 95.9798 46.2679 95.9078C47.1679 95.8358 47.7359 95.3038 47.8039 94.3718C47.8479 93.7678 47.8119 93.1598 47.8119 92.5518C47.8119 91.9438 47.8479 91.3318 47.8039 90.7278Z" fill="#006CB5"/>
<path d="M58.9279 94.2799C58.9759 95.2559 59.5359 95.8319 60.4839 95.9079C61.4439 95.9839 62.1639 95.4559 62.2559 94.5279C62.3839 93.2199 62.3799 91.8839 62.2599 90.5799C62.1759 89.6519 61.4919 89.1199 60.5079 89.1839C59.5359 89.2479 59.0039 89.8199 58.9319 90.7799C58.8919 91.3439 58.9239 91.9119 58.9239 92.4759C58.9199 93.0719 58.8959 93.6759 58.9279 94.2799Z" fill="#006CB5"/>
<path d="M29.996 108.092C30.056 109.056 30.592 109.636 31.56 109.704C32.536 109.776 33.232 109.244 33.32 108.316C33.444 107.008 33.444 105.672 33.324 104.364C33.236 103.432 32.516 102.892 31.564 102.96C30.628 103.028 30.048 103.596 29.996 104.58C29.968 105.144 29.992 105.712 29.992 106.276C29.992 106.884 29.96 107.488 29.996 108.092Z" fill="#006CB5"/>
<path d="M58.932 108.136C59.012 109.096 59.568 109.66 60.536 109.708C61.52 109.756 62.18 109.196 62.264 108.272C62.38 107 62.372 105.704 62.268 104.432C62.192 103.492 61.512 102.968 60.556 102.948C59.652 102.928 58.98 103.64 58.92 104.628C58.888 105.192 58.912 105.76 58.912 106.324H58.916C58.924 106.928 58.884 107.536 58.932 108.136Z" fill="#006CB5"/>
<path d="M87.8599 108.116C87.9359 109.076 88.4799 109.648 89.4479 109.708C90.4279 109.768 91.1039 109.22 91.1919 108.296C91.3159 107.024 91.3039 105.728 91.2079 104.452C91.1359 103.512 90.4679 102.98 89.5159 102.948C88.6199 102.916 87.9199 103.628 87.8599 104.608C87.8239 105.172 87.8519 105.74 87.8559 106.308C87.8519 106.908 87.8159 107.512 87.8599 108.116Z" fill="#006CB5"/>
<path d="M76.7279 90.6799C76.6599 89.8159 76.1519 89.2879 75.2879 89.1879C74.3799 89.0839 73.5879 89.4718 73.4959 90.3718C73.3519 91.7919 73.3639 93.2439 73.4799 94.6679C73.5519 95.5199 74.2879 95.9519 75.1359 95.9119C76.0319 95.8679 76.6359 95.3679 76.7239 94.4359C76.7799 93.8359 76.7359 93.2239 76.7359 92.6159C76.7359 91.9679 76.7799 91.3199 76.7279 90.6799Z" fill="#006CB5"/>
<path d="M87.8559 94.2399C87.9119 95.2359 88.5719 95.9279 89.4839 95.9199C90.4439 95.9119 91.1199 95.3879 91.1999 94.4519C91.3079 93.1799 91.3119 91.8839 91.1999 90.6119C91.1159 89.6879 90.4639 89.1359 89.4759 89.1759C88.4999 89.2159 87.9519 89.7759 87.8639 90.7319C87.8119 91.2919 87.8559 91.8639 87.8559 92.4279H87.8519C87.8519 93.0319 87.8239 93.6359 87.8559 94.2399Z" fill="#006CB5"/>
<path d="M29.9959 66.6437C30.0479 67.6117 30.5599 68.2077 31.5399 68.2877C32.5239 68.3717 33.2319 67.8477 33.3199 66.9117C33.4479 65.5997 33.4479 64.2557 33.3199 62.9397C33.2279 61.9997 32.5079 61.4917 31.5319 61.5717C30.6199 61.6477 30.0759 62.1917 30.0079 63.1117C29.9639 63.7157 29.9999 64.3237 29.9999 64.9317C29.9959 64.9317 29.9959 64.9317 29.9959 64.9317C29.9879 65.5037 29.9639 66.0757 29.9959 66.6437Z" fill="#006CB5"/>
<path d="M46.316 61.5799C45.344 61.4839 44.6 61.9639 44.512 62.9119C44.384 64.2599 44.392 65.6399 44.52 66.9919C44.604 67.8839 45.316 68.3519 46.24 68.2919C47.16 68.2359 47.716 67.7119 47.796 66.7919C47.852 66.1519 47.808 65.5039 47.808 64.8599C47.812 64.8599 47.812 64.8599 47.816 64.8599C47.816 64.2919 47.844 63.7199 47.808 63.1559C47.748 62.2279 47.232 61.6679 46.316 61.5799Z" fill="#006CB5"/>
<path d="M58.9279 66.6716C58.9879 67.6396 59.5199 68.2197 60.4999 68.2877C61.4879 68.3557 62.1759 67.8157 62.2599 66.8837C62.3799 65.5677 62.3839 64.2236 62.2439 62.9116C62.1439 61.9796 61.4079 61.4796 60.4319 61.5756C59.5159 61.6676 58.9959 62.2236 58.9319 63.1436C58.8919 63.7117 58.9239 64.2797 58.9239 64.8517C58.9199 65.4597 58.8919 66.0676 58.9279 66.6716Z" fill="#006CB5"/>
<path d="M77.7639 4.93181C78.7094 4.93181 79.4759 4.16532 79.4759 3.21981C79.4759 2.2743 78.7094 1.50781 77.7639 1.50781C76.8184 1.50781 76.0519 2.2743 76.0519 3.21981C76.0519 4.16532 76.8184 4.93181 77.7639 4.93181Z" fill="#006CB5"/>
<path d="M20.448 101.696C21.384 101.696 22.144 100.936 22.144 99.9997C22.144 99.0637 21.384 98.3037 20.448 98.3037C19.512 98.3037 18.752 99.0637 18.752 99.9997C18.748 100.936 19.508 101.696 20.448 101.696Z" fill="#006CB5"/>
</svg>
