<svg width="120" height="120" viewBox="0 0 120 120" fill="none" xmlns="http://www.w3.org/2000/svg">
<path d="M114.428 61.9638H63.7639V11.2998C63.7639 10.0358 62.7359 9.00781 61.4719 9.00781H8.51594C5.16794 9.01181 2.44394 11.7358 2.43994 15.0838V81.2798C2.44394 84.6238 5.16794 87.3478 8.51594 87.3518H47.8319V101.684H42.5599C41.2959 101.684 40.2679 102.712 40.2679 103.976V111.54C40.2679 112.804 41.2959 113.832 42.5599 113.832H76.6039C77.8679 113.832 78.8959 112.804 78.8959 111.54V103.976C78.8959 102.712 77.8679 101.684 76.6039 101.684H71.3319V87.3518H110.652C113.996 87.3478 116.72 84.6238 116.724 81.2758V64.2558C116.72 62.9958 115.692 61.9678 114.428 61.9638ZM44.8519 109.248V106.264H74.3119V109.248H44.8519ZM59.5799 94.9198C60.8439 94.9198 61.8719 93.8918 61.8719 92.6278V87.3558H66.7479V101.688H52.4159V87.3558H57.2919V92.6278C57.2879 93.8918 58.3159 94.9198 59.5799 94.9198ZM59.1799 20.3558H7.02394V15.0838C7.02394 14.2638 7.69594 13.5918 8.51594 13.5918H59.1799V20.3558ZM7.02394 24.9398H59.1799V64.2558C59.1799 64.8678 59.4199 65.4438 59.8519 65.8758C60.2839 66.3078 60.8599 66.5478 61.4719 66.5478H112.136V81.2798C112.136 82.0998 111.468 82.7718 110.644 82.7718H8.51594C7.69594 82.7718 7.02394 82.0998 7.02394 81.2798V24.9398Z" fill="#006CB5"/>
<path d="M10.408 19.2637C11.672 19.2637 12.7 18.2357 12.7 16.9717C12.7 15.7077 11.672 14.6797 10.408 14.6797C9.14397 14.6797 8.11597 15.7077 8.11597 16.9717C8.11597 18.2357 9.14397 19.2637 10.408 19.2637Z" fill="#006CB5"/>
<path d="M16.0799 19.2637C17.3439 19.2637 18.3719 18.2357 18.3719 16.9717C18.3719 15.7077 17.3439 14.6797 16.0799 14.6797C14.8159 14.6797 13.7879 15.7077 13.7879 16.9717C13.7879 18.2357 14.8159 19.2637 16.0799 19.2637Z" fill="#006CB5"/>
<path d="M21.7559 19.2637C23.0199 19.2637 24.0479 18.2357 24.0479 16.9717C24.0479 15.7077 23.0199 14.6797 21.7559 14.6797C20.4919 14.6797 19.4639 15.7077 19.4639 16.9717C19.4639 18.2357 20.4919 19.2637 21.7559 19.2637Z" fill="#006CB5"/>
<path d="M12.296 74.1119H61.472C62.736 74.1119 63.764 73.0839 63.764 71.8199C63.764 70.5559 62.736 69.5279 61.472 69.5279H56.2V30.2119C56.2 28.9479 55.172 27.9199 53.908 27.9199H46.344C45.08 27.9199 44.052 28.9479 44.052 30.2119V37.3759H38.776C37.512 37.3759 36.484 38.4039 36.484 39.6679V44.9399H31.212C29.948 44.9399 28.92 45.9679 28.92 47.2319V54.3999H23.644C22.38 54.3999 21.352 55.4279 21.352 56.6919V61.9639H16.08C14.816 61.9639 13.788 62.9919 13.788 64.2559V69.5319H12.296C11.032 69.5319 10.004 70.5599 10.004 71.8239C10.008 73.0879 11.036 74.1119 12.296 74.1119ZM18.372 69.5319V66.5479H21.356V69.5319H18.372ZM25.936 69.5319V58.9839H28.92V69.5319H25.936ZM33.504 69.5319V49.5279H36.488V69.5319H33.504ZM41.068 69.5319V41.9599H44.052V69.5279H41.068V69.5319ZM48.632 69.5319V32.5039H51.616V69.5319H48.632Z" fill="#006CB5"/>
<path d="M69.0359 74.1118C70.2999 74.1118 71.3279 73.0838 71.3279 71.8198C71.3279 70.5558 70.2999 69.5278 69.0359 69.5278C67.7719 69.5278 66.7439 70.5558 66.7439 71.8198C66.7479 73.0878 67.7759 74.1118 69.0359 74.1118Z" fill="#006CB5"/>
<path d="M81.9239 39.4638C78.9279 38.7038 75.9039 40.2398 74.7599 43.0518H69.0359C67.7719 43.0518 66.7439 44.0798 66.7439 45.3438C66.7439 46.6078 67.7719 47.6358 69.0359 47.6358H74.7599C75.6879 49.9078 77.9119 51.4158 80.3839 51.4198C82.1559 51.4198 83.8359 50.6478 84.9919 49.3038C86.1479 47.9598 86.6559 46.1718 86.3879 44.3998C86.2519 43.5118 85.9159 42.6758 85.4239 41.9478C86.0839 42.6518 86.9119 43.1958 87.8639 43.5278C88.5079 43.7518 89.1719 43.8598 89.8279 43.8598C91.8799 43.8598 93.8719 42.8118 94.9919 41.0078C95.9239 39.5078 96.1639 37.7558 95.6719 36.0758C95.1879 34.4198 94.0159 33.0438 92.4599 32.2998C90.8799 31.5438 89.0839 31.5078 87.4799 32.1838L83.8919 28.5958C83.4599 28.1638 82.8839 27.9238 82.2719 27.9238H69.0319C67.7679 27.9238 66.7399 28.9518 66.7399 30.2158C66.7399 31.4798 67.7679 32.5078 69.0319 32.5078H81.3239L84.2399 35.4238C83.6119 36.9198 83.6039 38.6158 84.2319 40.1198C84.3879 40.4998 84.5839 40.8518 84.8079 41.1838C84.0399 40.3598 83.0439 39.7478 81.9239 39.4638ZM89.8399 36.2878C90.6599 36.2878 91.3319 36.9598 91.3319 37.7798C91.3319 38.6038 90.6639 39.2718 89.8399 39.2718C89.0159 39.2718 88.3479 38.6038 88.3479 37.7798C88.3479 36.9558 89.0199 36.2878 89.8399 36.2878ZM81.8759 45.3438C81.8759 46.1678 81.2079 46.8358 80.3839 46.8358C79.5599 46.8358 78.8919 46.1678 78.8919 45.3438C78.8919 44.5238 79.5599 43.8518 80.3839 43.8518C81.2079 43.8518 81.8759 44.5238 81.8759 45.3438Z" fill="#006CB5"/>
<path d="M110.648 9.00781C108.176 9.01181 105.952 10.5198 105.024 12.7918H101.192C100.52 12.7918 99.8879 13.0838 99.4519 13.5918L89.7119 24.9518L83.8959 19.1358C83.4639 18.7038 82.8879 18.4638 82.2759 18.4638H69.0359C67.7719 18.4638 66.7439 19.4918 66.7439 20.7558C66.7439 22.0198 67.7719 23.0478 69.0359 23.0478H81.3279L88.2239 29.9438C88.6559 30.3758 89.2319 30.6158 89.8439 30.6158H99.3519C99.9639 32.1198 101.16 33.3198 102.668 33.9438C103.416 34.2518 104.196 34.4078 104.98 34.4078C105.884 34.4078 106.788 34.1998 107.644 33.7878C110.172 32.5678 111.54 29.6998 110.904 26.9678C110.504 25.2518 109.436 23.8398 107.9 22.9998C106.384 22.1718 104.584 22.0238 102.96 22.5998C101.312 23.1838 100.012 24.4278 99.3599 26.0358H94.8359L102.256 17.3798H105.036C105.664 18.9238 106.9 20.1438 108.464 20.7518C110.116 21.3918 111.972 21.2758 113.552 20.4318C115.66 19.3038 116.932 16.9518 116.712 14.5798C116.412 11.3998 113.808 9.00781 110.648 9.00781ZM112.136 15.0838C112.136 15.9038 111.468 16.5758 110.644 16.5758C109.82 16.5758 109.152 15.9078 109.152 15.0838C109.152 14.2598 109.82 13.5918 110.644 13.5918C111.468 13.5918 112.136 14.2598 112.136 15.0838ZM103.48 28.3238C103.48 27.5038 104.148 26.8318 104.972 26.8318C105.796 26.8318 106.464 27.4998 106.464 28.3238C106.464 29.1478 105.796 29.8158 104.972 29.8158C104.148 29.8158 103.48 29.1438 103.48 28.3238Z" fill="#006CB5"/>
<path d="M69.0359 15.4839H91.0999C92.3639 15.4839 93.3919 14.4559 93.3919 13.1919C93.3919 11.9279 92.3639 10.8999 91.0999 10.8999H69.1439C67.8639 10.8999 66.8119 11.8519 66.7479 13.0679C66.7159 13.7039 66.9359 14.3079 67.3759 14.7679C67.8159 15.2279 68.4039 15.4839 69.0359 15.4839Z" fill="#006CB5"/>
<path d="M69.0359 57.0919H95.5159C96.2159 57.0919 96.8679 56.7799 97.3039 56.2319L102.948 49.1799C104.472 49.7199 106.16 49.6279 107.624 48.9239C109.2 48.1599 110.336 46.8079 110.824 45.1079C111.6 42.4079 110.376 39.4719 107.908 38.1279C106.36 37.2839 104.596 37.1359 102.944 37.7199C101.316 38.2959 100.004 39.5439 99.3479 41.1399C98.6799 42.7599 98.7439 44.5639 99.5119 46.1279L94.4079 52.5119H69.0319C67.7679 52.5119 66.7399 53.5399 66.7399 54.8039C66.7399 56.0679 67.7759 57.0919 69.0359 57.0919ZM106.464 43.4519C106.464 44.2759 105.796 44.9439 104.972 44.9439C104.148 44.9439 103.48 44.2759 103.48 43.4519C103.48 42.6319 104.148 41.9599 104.972 41.9599C105.796 41.9599 106.464 42.6319 106.464 43.4519Z" fill="#006CB5"/>
</svg>
