<svg width="120" height="120" viewBox="0 0 120 120" fill="none" xmlns="http://www.w3.org/2000/svg">
<path d="M43.344 113.66C42.212 113.66 41.288 114.584 41.288 115.716C41.288 116.852 42.212 117.772 43.344 117.772C44.48 117.772 45.408 116.848 45.408 115.716C45.408 114.58 44.484 113.66 43.344 113.66Z" fill="#006CB5"/>
<path d="M97.468 85.3681H90.52V78.4201C90.52 77.3041 89.612 76.3921 88.492 76.3921H87.852C86.736 76.3921 85.824 77.3001 85.824 78.4201V85.3681H78.88C77.764 85.3681 76.8521 86.2761 76.8521 87.3921V88.0361C76.8521 89.1521 77.76 90.0601 78.88 90.0601H85.8281V97.0081C85.8281 98.1241 86.736 99.0361 87.856 99.0361H88.496C89.612 99.0361 90.524 98.1281 90.524 97.0081V90.0601H97.472C98.588 90.0601 99.496 89.1521 99.496 88.0361V87.3921C99.492 86.2801 98.584 85.3681 97.468 85.3681Z" fill="#006CB5"/>
<path d="M113.116 78.7082L113.024 78.6322C113.096 77.1002 113.116 75.5282 113.076 73.8282C113.052 72.8122 112.272 71.9802 111.256 71.8922C110.088 71.7882 108.852 71.5682 107.58 71.2362L107.268 71.1282C106.352 70.8762 105.42 70.5642 104.496 70.2042L103.332 69.7562L99.652 67.9002L97.408 66.5762C97.376 66.5562 97.344 66.5362 97.316 66.5162C97.276 66.4882 97.232 66.4642 97.22 66.4562C95.732 65.4802 94.28 64.3922 92.916 63.2362C91.916 62.3482 90.88 61.3402 89.656 60.0722C89.284 59.6882 88.764 59.4642 88.228 59.4642C88.212 59.4642 88.192 59.4642 88.176 59.4642H88.136C87.6 59.4642 87.08 59.6842 86.708 60.0722C85.484 61.3402 84.448 62.3442 83.46 63.2242C82.088 64.3882 80.64 65.4722 79.172 66.4402C79.164 66.4442 79.156 66.4482 79.148 66.4522C84.424 60.6362 87.532 53.7122 87.532 47.6162V43.6762L87.724 43.5922C90.48 42.3922 92.264 39.6762 92.264 36.6762C92.264 33.5722 90.312 30.7402 87.404 29.6362L87.22 29.5682L87.2 29.3722C87.044 27.8722 86.768 26.3682 86.376 24.8922L86.4 24.8882L86.28 24.4642C85.112 20.4002 83.06 16.5922 80.34 13.4482C78.724 11.5842 76.836 9.90821 74.724 8.46821C74.64 8.38821 74.548 8.31622 74.456 8.25622C71.976 6.61222 69.264 5.36021 66.388 4.53621L66.204 4.48421L66.164 4.29621C65.852 2.80421 64.516 1.72021 62.988 1.72021H54.38C52.908 1.72021 51.62 2.71221 51.248 4.13621L51.2 4.32421L51.02 4.37222C45.452 5.85622 40.304 9.08022 36.52 13.4522C32.68 17.8922 30.228 23.5442 29.616 29.3762L29.596 29.5722L29.412 29.6402C26.504 30.7482 24.548 33.5762 24.548 36.6802C24.548 39.6842 26.332 42.4002 29.092 43.6002L29.284 43.6842V47.6242C29.284 54.2242 32.928 61.8002 39.028 67.8922L39.4 68.2642L38.9 68.4202C38.356 68.5922 37.82 68.7682 37.328 68.9442L37.292 68.9562C37.204 68.9802 37.116 69.0122 37.044 69.0442L37.012 69.0562C29.288 71.8402 22.816 76.4762 17.78 82.8322C12.916 88.9682 9.45602 96.5522 7.50002 105.368C6.81602 108.468 6.29602 112.356 8.37202 114.94C10.396 117.46 14.08 117.784 17.064 117.784H32.52C33.608 117.784 34.54 116.972 34.64 115.932C34.696 115.352 34.504 114.776 34.116 114.348C33.728 113.92 33.172 113.672 32.592 113.672H17.06C14.076 113.672 12.284 113.244 11.576 112.364C10.832 111.436 10.812 109.44 11.516 106.26C13.876 95.6402 19.816 81.5002 34.732 74.4522L35.216 74.2242L35.188 74.7562C34.748 82.6602 38.976 87.7562 41.776 91.1322C42.14 91.5722 42.68 91.8402 43.244 91.8722C43.812 91.9082 44.376 91.7002 44.792 91.2922L58.4 78.0482L63.636 83.1362C64.392 88.6922 66.084 93.6922 69.112 99.3242C69.172 99.4362 70.632 102.068 73.044 105.468L74.004 106.82L77.244 110.792L77.484 111.06C78.352 112.02 79.22 112.892 80.068 113.66H54.172C53.084 113.66 52.152 114.472 52.052 115.512C51.996 116.092 52.184 116.668 52.576 117.096C52.964 117.524 53.52 117.772 54.1 117.772H99.756C102.74 117.772 106.42 117.448 108.448 114.928C110.524 112.344 110.004 108.456 109.32 105.356C108.828 103.136 108.22 100.936 107.512 98.8162C111.032 92.1362 112.708 86.2362 113.104 79.1162L113.116 78.7082ZM63.268 77.0442L62.88 76.6642L63.26 76.5602C63.264 76.7242 63.264 76.8842 63.268 77.0442ZM50.696 8.75221L51.12 8.61221L51.116 9.05621C51.036 17.1802 50.544 22.4842 48.076 28.9402L47.996 29.1442H33.776L33.832 28.7802C35.204 19.5522 41.82 11.6882 50.696 8.75221ZM52.528 28.7242C55.032 21.4082 55.228 15.0362 55.244 6.15222V5.83622H62.112V6.15222C62.128 15.0402 62.324 21.4122 64.832 28.7242L64.976 29.1442H52.384L52.528 28.7242ZM70.032 10.4242C75.468 13.3402 79.636 18.1362 81.76 23.9202C81.768 23.9522 81.776 23.9842 81.788 24.0162C82.34 25.5602 82.736 27.1642 82.972 28.7802L83.024 29.1442H69.364L69.284 28.9402C66.82 22.5082 66.328 17.2602 66.24 9.24422L66.236 8.78821L66.664 8.94021C67.712 9.31221 68.752 9.76021 69.756 10.2762L70.032 10.4242ZM109.128 75.6362L109.12 76.3482C109.028 84.3602 107.496 90.2722 103.648 97.4402C101.988 100.536 99.148 104.564 96.408 107.704C93.416 111.132 90.94 113.136 89.044 113.66H87.304C85.408 113.14 82.928 111.136 79.936 107.704C77.196 104.564 74.356 100.536 72.696 97.4402C68.848 90.2762 67.316 84.3642 67.224 76.3482L67.216 75.6362L67.916 75.5042C74.52 74.2482 81.708 70.3562 87.636 64.8242L88.168 64.3282L88.7 64.8242C94.628 70.3562 101.816 74.2482 108.42 75.5042L109.128 75.6362ZM98.864 111.056L102.344 106.816L103.304 105.464C103.748 104.84 104.188 104.196 104.624 103.54C104.876 104.472 105.1 105.376 105.292 106.244C105.996 109.424 105.976 111.424 105.232 112.348C104.524 113.228 102.732 113.656 99.748 113.656H96.28C97.128 112.892 97.996 112.02 98.864 111.056ZM43.06 71.5202L43.204 71.4842L43.324 71.5722C45.768 73.3642 48.316 74.7642 50.904 75.7282C51.736 76.0362 52.544 76.2962 53.376 76.5202L53.916 76.6682L43.536 86.7602L43.32 86.4762C40.956 83.3882 38.392 79.0322 39.572 72.6882L39.608 72.5042L39.788 72.4442C40.864 72.0962 41.968 71.7842 43.06 71.5202ZM83.404 44.2162V47.6162C83.404 56.7882 74.536 68.1242 64.424 71.8802C62.108 72.7402 60.244 73.1242 58.388 73.1242C56.528 73.1242 54.66 72.7402 52.336 71.8762C42.244 68.1082 33.392 56.7722 33.392 47.6202V44.2202H83.404V44.2162ZM88.136 36.6762C88.136 38.5642 86.6 40.1042 84.716 40.1042H32.084C30.196 40.1042 28.656 38.5682 28.656 36.6762C28.656 34.7922 30.192 33.2562 32.084 33.2562H84.716C86.604 33.2562 88.136 34.7922 88.136 36.6762Z" fill="#006CB5"/>
</svg>
