<svg width="120" height="120" viewBox="0 0 120 120" fill="none" xmlns="http://www.w3.org/2000/svg">
<path d="M104.388 92.0161C107.048 89.7401 108.612 86.4001 108.612 82.9001C108.612 78.1561 105.844 74.0481 101.844 72.1001H117.988L118.432 69.3281L118.448 66.9201C118.448 62.1841 117.048 57.7241 114.4 54.0161C111.864 50.4681 108.416 47.8041 104.388 46.2641C107.048 43.9881 108.612 40.6481 108.612 37.1481C108.612 30.5321 103.228 25.1481 96.6119 25.1481C95.1159 25.1481 93.6839 25.4241 92.3599 25.9281C90.8639 24.8641 89.2319 23.9841 87.4919 23.3201C90.1519 21.0481 91.7159 17.7041 91.7159 14.2041C91.7159 7.5881 86.3319 2.2041 79.7159 2.2041C73.0999 2.2041 67.7159 7.5881 67.7159 14.2041C67.7159 17.7081 69.2799 21.0481 71.9399 23.3201C69.6999 24.1761 67.6439 25.3761 65.8199 26.8881C64.0039 25.7841 61.8759 25.1481 59.5999 25.1481C57.5159 25.1481 55.5559 25.6841 53.8479 26.6201C52.1079 25.2361 50.1679 24.1241 48.0679 23.3201C50.7279 21.0441 52.2919 17.7041 52.2919 14.2041C52.2919 7.5881 46.9079 2.2041 40.2919 2.2041C33.6759 2.2041 28.2919 7.5881 28.2919 14.2041C28.2919 17.7081 29.8559 21.0481 32.5159 23.3201C30.6639 24.0281 28.9359 24.9761 27.3599 26.1361C25.8959 25.5001 24.2879 25.1441 22.5919 25.1441C15.9759 25.1441 10.5919 30.5281 10.5919 37.1441C10.5919 40.6441 12.1559 43.9881 14.8159 46.2601C10.7879 47.7961 7.33992 50.4601 4.80392 54.0121C2.14792 57.7201 0.747925 62.1841 0.747925 66.9201V69.1161L1.20792 72.1001H17.3519C13.3479 74.0481 10.5839 78.1561 10.5839 82.9001C10.5839 86.4041 12.1479 89.7441 14.8079 92.0161C10.7799 93.5521 7.33192 96.2161 4.79592 99.7641C2.14792 103.468 0.747925 107.932 0.747925 112.668V114.864L1.20792 117.848H38.2199H43.9599H79.7839H80.9719H117.984L118.428 115.076L118.444 112.668C118.444 107.932 117.044 103.472 114.396 99.7641C111.864 96.2161 108.416 93.5521 104.388 92.0161ZM104.28 82.9001C104.28 87.1281 100.84 90.5721 96.6079 90.5721C92.3759 90.5721 88.9359 87.1321 88.9359 82.9001C88.9359 78.6681 92.3759 75.2321 96.6079 75.2321C100.84 75.2321 104.28 78.6681 104.28 82.9001ZM78.1039 100.844C77.8759 100.48 77.6399 100.116 77.3879 99.7681C74.8519 96.2201 71.4039 93.5561 67.3759 92.0201C70.0359 89.7441 71.5999 86.4001 71.5999 82.9001C71.5999 80.2041 70.7079 77.7121 69.1999 75.7081C69.7679 75.2841 70.3479 74.8961 70.9319 74.5601L71.7039 74.1161L73.0919 73.4961L73.8319 73.2361C77.6239 71.9001 81.6319 71.9001 85.4239 73.2361L86.1639 73.4961L87.5519 74.1161L88.1119 74.4361C85.9479 76.6081 84.6119 79.6001 84.6119 82.9001C84.6119 86.4041 86.1759 89.7441 88.8359 92.0161C84.8079 93.5521 81.3599 96.2161 78.8239 99.7641C78.5679 100.12 78.3319 100.48 78.1039 100.844ZM40.3759 99.7681C37.8399 96.2201 34.3919 93.5561 30.3639 92.0201C33.0239 89.7441 34.5879 86.4041 34.5879 82.9041C34.5879 79.7241 33.3439 76.8321 31.3159 74.6801C31.3799 74.6441 31.4399 74.6001 31.5039 74.5641L32.2759 74.1201L33.6639 73.5001L34.4039 73.2401C38.1959 71.9041 42.2039 71.9041 45.9959 73.2401L46.7359 73.5001L48.1239 74.1201L48.8959 74.5641C49.3439 74.8201 49.7879 75.1161 50.2239 75.4241C48.5839 77.4761 47.5959 80.0761 47.5959 82.9041C47.5959 86.4081 49.1599 89.7481 51.8199 92.0201C47.7919 93.5561 44.3439 96.2201 41.8079 99.7681C41.5559 100.12 41.3199 100.48 41.0919 100.844C40.8639 100.476 40.6279 100.116 40.3759 99.7681ZM40.1999 52.5521C44.4279 52.5521 47.8719 55.9921 47.8719 60.2201C47.8719 64.4481 44.4319 67.8921 40.1999 67.8921C35.9679 67.8921 32.5279 64.4521 32.5279 60.2201C32.5279 55.9881 35.9679 52.5521 40.1999 52.5521ZM87.2959 60.2241C87.2959 64.4521 83.8559 67.8961 79.6239 67.8961C75.3919 67.8961 71.9519 64.4561 71.9519 60.2241C71.9519 55.9921 75.3919 52.5561 79.6239 52.5561C83.8559 52.5561 87.2959 55.9921 87.2959 60.2241ZM71.8479 69.3401C69.6999 70.1601 67.7199 71.3001 65.9519 72.7241C64.1079 71.5681 61.9279 70.8961 59.5959 70.8961C57.4119 70.8961 55.3599 71.4881 53.5959 72.5121C51.8999 71.1881 50.0119 70.1161 47.9759 69.3401C50.6359 67.0641 52.1999 63.7241 52.1999 60.2241C52.1999 57.2801 51.1319 54.5841 49.3679 52.4921C49.8719 52.1241 50.3879 51.7841 50.9039 51.4841L51.6759 51.0361L53.0639 50.4161L53.8039 50.1561C57.5959 48.8201 61.6039 48.8201 65.3959 50.1561L66.1359 50.4161L67.5239 51.0361L68.2959 51.4801C68.9279 51.8441 69.5599 52.2681 70.1599 52.7241L70.2239 52.7761C68.5999 54.8241 67.6279 57.4081 67.6279 60.2201C67.6239 63.7241 69.1879 67.0681 71.8479 69.3401ZM67.2679 82.9001C67.2679 87.1281 63.8279 90.5721 59.5959 90.5721C55.3639 90.5721 51.9239 87.1321 51.9239 82.9001C51.9239 78.6681 55.3639 75.2321 59.5959 75.2321C63.8279 75.2321 67.2679 78.6681 67.2679 82.9001ZM42.0919 112.404C42.0919 108.28 43.5679 104.268 46.2519 101.104L47.2999 99.8681L48.6199 98.7921L49.0199 98.4881C49.6359 98.0201 50.2679 97.6001 50.9039 97.2321L51.6759 96.7881L53.0639 96.1681L53.8039 95.9081C57.5959 94.5721 61.6039 94.5721 65.3959 95.9081L66.1359 96.1681L67.5239 96.7881L68.2959 97.2321C68.9279 97.5961 69.5599 98.0161 70.1599 98.4761L71.8999 99.8681L72.9479 101.104C75.6319 104.268 77.1079 108.284 77.1079 112.404V113.516H42.0959V112.404H42.0919ZM104.532 51.0401L105.304 51.4841C105.936 51.8481 106.568 52.2681 107.168 52.7281L108.908 54.1201L109.956 55.3561C112.64 58.5201 114.116 62.5321 114.116 66.6561V67.7681H88.9319C90.6519 65.6481 91.6279 62.9881 91.6279 60.2201C91.6279 56.7921 90.1799 53.7001 87.8679 51.5081C87.8839 51.5001 87.8999 51.4881 87.9119 51.4801L88.6839 51.0321L90.0719 50.4121L90.8119 50.1481C94.6039 48.8121 98.6119 48.8121 102.404 50.1481L103.144 50.4081L104.532 51.0401ZM104.28 37.1481C104.28 41.3761 100.84 44.8201 96.6079 44.8201C92.3759 44.8201 88.9359 41.3801 88.9359 37.1481C88.9359 32.9161 92.3759 29.4801 96.6079 29.4801C100.84 29.4801 104.28 32.9201 104.28 37.1481ZM79.7159 6.5361C83.9439 6.5361 87.3879 9.9761 87.3879 14.2081C87.3879 18.4401 83.9479 21.8761 79.7159 21.8761C75.4839 21.8761 72.0439 18.4361 72.0439 14.2081C72.0439 9.9801 75.4839 6.5361 79.7159 6.5361ZM71.0159 28.5401L71.7879 28.0961L73.1759 27.4761L73.9159 27.2121C77.7079 25.8761 81.7159 25.8761 85.5079 27.2121L86.2479 27.4761L87.6359 28.0961L88.3159 28.4881C86.0319 30.6761 84.6079 33.7481 84.6079 37.1521C84.6079 40.6521 86.1719 43.9961 88.8319 46.2681C87.0359 46.9521 85.3559 47.8681 83.8159 48.9801C82.5119 48.4921 81.0999 48.2241 79.6239 48.2241C77.4079 48.2241 75.3319 48.8321 73.5479 49.8801C71.7119 48.3481 69.6359 47.1281 67.3719 46.2681C70.0319 43.9921 71.5959 40.6521 71.5959 37.1521C71.5959 34.3961 70.6599 31.8561 69.0919 29.8281L69.1319 29.7961C69.7519 29.3281 70.3839 28.9041 71.0159 28.5401ZM67.2679 37.1481C67.2679 41.3761 63.8279 44.8201 59.5959 44.8201C55.3639 44.8201 51.9239 41.3801 51.9239 37.1481C51.9239 32.9161 55.3639 29.4801 59.5959 29.4801C63.8279 29.4801 67.2679 32.9201 67.2679 37.1481ZM40.2839 6.5361C44.5119 6.5361 47.9559 9.9761 47.9559 14.2081C47.9559 18.4401 44.5159 21.8761 40.2839 21.8761C36.0519 21.8761 32.6119 18.4361 32.6119 14.2081C32.6119 9.9801 36.0559 6.5361 40.2839 6.5361ZM32.3639 28.0921L33.7519 27.4721L34.4919 27.2081C38.2839 25.8721 42.2919 25.8721 46.0839 27.2081L46.8239 27.4681L48.2119 28.0881L48.9839 28.5321C49.4599 28.8041 49.9319 29.1201 50.3919 29.4521C48.6479 31.5361 47.5959 34.2201 47.5959 37.1441C47.5959 40.6441 49.1599 43.9881 51.8199 46.2601C49.6639 47.0841 47.6799 48.2321 45.9079 49.6641C44.2079 48.7401 42.2639 48.2161 40.1959 48.2161C38.5639 48.2161 37.0079 48.5441 35.5919 49.1361C33.9959 47.9481 32.2439 46.9801 30.3639 46.2601C33.0239 43.9841 34.5879 40.6441 34.5879 37.1441C34.5879 33.8961 33.2879 30.9481 31.1879 28.7841C31.3239 28.7001 31.4559 28.6121 31.5919 28.5321L32.3639 28.0921ZM22.5839 29.4801C26.8119 29.4801 30.2519 32.9201 30.2519 37.1481C30.2519 41.3761 26.8119 44.8201 22.5839 44.8201C18.3559 44.8201 14.9119 41.3801 14.9119 37.1481C14.9119 32.9161 18.3559 29.4801 22.5839 29.4801ZM5.07992 66.6561C5.07992 62.5321 6.55592 58.5201 9.23992 55.3561L10.2879 54.1201L11.6079 53.0441L12.0079 52.7401C12.6239 52.2721 13.2599 51.8481 13.8919 51.4841L14.6639 51.0361L16.0519 50.4161L16.7919 50.1561C20.5839 48.8201 24.5919 48.8201 28.3839 50.1561L29.1239 50.4161L30.5119 51.0361L31.2839 51.4801C31.4279 51.5641 31.5679 51.6561 31.7079 51.7441C29.5399 53.9161 28.1959 56.9121 28.1959 60.2161C28.1959 62.9801 29.1719 65.6441 30.8919 67.7641H5.07992V66.6561ZM22.5839 75.2281C26.8119 75.2281 30.2519 78.6681 30.2519 82.8961C30.2519 87.1241 26.8119 90.5681 22.5839 90.5681C18.3559 90.5681 14.9119 87.1281 14.9119 82.8961C14.9119 78.6641 18.3559 75.2281 22.5839 75.2281ZM5.07992 112.404C5.07992 108.28 6.55592 104.268 9.23992 101.104L10.2879 99.8681L11.6079 98.7921L12.0079 98.4881C12.6239 98.0201 13.2599 97.5961 13.8919 97.2321L14.6639 96.7881L16.0519 96.1681L16.7919 95.9081C20.5839 94.5721 24.5919 94.5721 28.3839 95.9081L29.1239 96.1681L30.5119 96.7881L31.2839 97.2321C31.9159 97.5961 32.5479 98.0161 33.1479 98.4761L34.8879 99.8681L35.9359 101.104C37.1439 102.528 38.1039 104.128 38.7959 105.828C38.1159 108 37.7639 110.3 37.7639 112.668V113.516H5.07992V112.404ZM114.116 113.52H81.4279L81.4359 112.672C81.4359 110.308 81.0879 108.008 80.4079 105.84C81.0999 104.136 82.0559 102.536 83.2679 101.108L84.3159 99.8721L85.6359 98.7961L86.0359 98.4921C86.6519 98.0241 87.2839 97.6041 87.9199 97.2361L88.6919 96.7921L90.0799 96.1721L90.8199 95.9121C94.6119 94.5761 98.6199 94.5761 102.412 95.9121L103.152 96.1721L104.54 96.7921L105.312 97.2361C105.944 97.6001 106.576 98.0201 107.176 98.4801L108.916 99.8721L109.964 101.108C112.648 104.272 114.124 108.284 114.124 112.408V113.52H114.116Z" fill="#006CB5"/>
</svg>
