<svg width="120" height="120" viewBox="0 0 120 120" fill="none" xmlns="http://www.w3.org/2000/svg">
<path d="M89.676 19.7079C88.468 19.7079 87.304 19.9399 86.204 20.4039V17.6479C86.204 15.2439 85.236 12.9799 83.472 11.2759C81.76 9.61992 79.524 8.70792 77.176 8.70792C75.928 8.70792 74.728 8.95992 73.604 9.45592C73.268 7.56392 72.38 5.85592 71.016 4.48792C69.3 2.76392 67.036 1.81592 64.64 1.81592C59.712 1.81592 55.604 5.89592 55.488 10.9199L55.484 13.3239C52.94 12.2919 50.068 12.5039 47.684 13.9159C44.924 15.5519 43.224 18.5879 43.248 21.8359V57.4119C37.764 51.5119 29.432 49.1679 21.716 51.4399C19.168 52.1879 17.204 54.4079 16.72 57.0919C16.244 59.7239 17.22 62.4319 19.212 64.0519V64.2559H19.476L28.384 71.0599C28.412 71.0839 28.44 71.0999 28.472 71.1239L28.508 71.1519C30.756 72.6919 32.34 74.8519 32.852 77.0839C33.236 78.7719 33.804 80.4319 34.528 81.9959C34.576 82.1199 34.632 82.2399 34.684 82.3359C36.796 86.7479 40.088 90.3919 44.2 92.8759C46.232 94.1039 47.496 96.3719 47.496 98.7959V115.512C47.496 117.08 48.752 118.352 50.296 118.352C51.84 118.352 53.096 117.076 53.096 115.512V98.7959C53.096 96.5999 52.528 94.4519 51.452 92.5399C64.8 91.4519 77.7 86.8959 88.82 79.3319C90.084 80.5439 91.352 81.8479 92.592 83.2159C91.856 85.6479 90.352 87.7839 88.34 89.2559L88.312 89.2759C85.116 91.6279 83.212 95.4319 83.212 99.4559V99.5439C83.212 101.088 84.468 102.344 86.012 102.344C87.556 102.344 88.812 101.088 88.812 99.5439V99.4559C88.812 97.2399 89.86 95.1519 91.616 93.8679L91.78 93.7479C95.124 91.2399 97.444 87.5799 98.324 83.4119C98.424 83.1279 98.476 82.8319 98.484 82.5279C98.632 81.6039 98.704 80.6719 98.704 79.7559V28.7359C98.704 26.3199 97.748 24.0479 96.012 22.3319C94.3 20.6399 92.048 19.7079 89.676 19.7079ZM73.752 43.1399V17.7799L73.756 17.7399C73.832 15.8639 75.34 14.3919 77.18 14.3919C78.072 14.3919 78.96 14.7559 79.616 15.3879C80.256 16.0119 80.612 16.8119 80.612 17.6439V45.2999C78.368 44.4759 76.064 43.7479 73.752 43.1399ZM93.104 28.7359V51.2119C90.848 49.8959 88.532 48.6919 86.204 47.6199V28.8559L86.208 28.8119C86.276 26.8959 87.796 25.3919 89.676 25.3919C90.58 25.3919 91.444 25.7519 92.108 26.4039C92.752 27.0399 93.104 27.8679 93.104 28.7359ZM50.508 18.8279C51.024 18.5199 51.608 18.3679 52.188 18.3679C52.768 18.3679 53.348 18.5199 53.864 18.8279C54.892 19.4399 55.496 20.5519 55.484 21.8119V40.6359C54.104 40.6119 52.704 40.6239 51.32 40.6759C50.512 40.7039 49.68 40.7479 48.844 40.7999V21.8119C48.832 20.5879 49.468 19.4479 50.508 18.8279ZM48.844 49.5679V46.4999C49.76 46.4359 50.66 46.3879 51.52 46.3559C56.316 46.1839 61.128 46.4839 65.816 47.2479C75.392 48.8079 84.572 52.3719 93.108 57.8479V61.6319C86.004 56.6359 78.476 53.1159 70.724 51.1719C65.816 49.9399 60.656 49.3319 55.076 49.3319C53.056 49.3279 50.98 49.4079 48.844 49.5679ZM60.248 81.0879C67.22 79.1239 73.872 76.1479 80.012 72.2519C81.488 73.2199 82.968 74.2999 84.42 75.4599C72.896 82.9519 59.536 86.9759 45.74 87.1079C44.46 86.1759 43.296 85.0799 42.272 83.8439C48.352 83.6639 54.396 82.7399 60.248 81.0879ZM49.764 57.8479C49.46 57.8479 49.152 57.8479 48.848 57.8559V55.2719C56.464 54.6679 63.184 55.1319 69.38 56.6879C77.644 58.7599 85.628 62.7959 93.108 68.6759V75.6239C92.428 74.9599 91.736 74.3119 91.052 73.6959C90.948 73.5879 90.852 73.5039 90.78 73.4519C87.808 70.7879 84.704 68.4599 81.572 66.5399C81.484 66.4799 81.392 66.4239 81.324 66.3879C79.444 65.2439 77.496 64.2119 75.528 63.3119C67.68 59.7319 58.8 57.8479 49.764 57.8479ZM23.276 56.8999C29.252 55.1439 35.716 57.1279 39.74 61.9519C40.7 63.1039 42.104 63.7799 43.584 63.8119C43.644 63.8159 43.7 63.8159 43.748 63.8159C43.972 63.8119 44.192 63.7959 44.38 63.7719C54.52 62.8759 64.5 64.5119 73.232 68.4959C73.604 68.6679 73.988 68.8479 74.384 69.0439C63.632 75.2199 51.416 78.3839 39.016 78.1879C38.728 77.4039 38.488 76.5999 38.308 75.7999L38.284 75.6879C37.424 72.0959 35.092 68.8359 31.724 66.5039L22.736 59.6399C22.316 59.3199 22.116 58.7239 22.224 58.1239C22.328 57.5439 22.752 57.0559 23.276 56.8999ZM68.156 41.8879C67.672 41.7999 67.188 41.7159 66.704 41.6359C64.872 41.3359 62.984 41.0999 61.084 40.9319V11.0279C61.14 9.08392 62.736 7.50392 64.64 7.50392C66.524 7.50392 68.104 9.08792 68.156 11.0239V41.8879Z" fill="#006CB5"/>
<path d="M85.992 108.728H86.032C87.476 108.728 88.648 107.552 88.648 106.112C88.648 104.668 87.472 103.492 85.992 103.492C84.548 103.492 83.376 104.668 83.376 106.112C83.372 107.556 84.548 108.728 85.992 108.728Z" fill="#006CB5"/>
<path d="M86.008 109.956C84.464 109.956 83.208 111.212 83.208 112.756V115.04C83.208 116.608 84.464 117.88 86.008 117.88C87.552 117.88 88.808 116.604 88.808 115.04V112.756C88.808 111.208 87.552 109.956 86.008 109.956Z" fill="#006CB5"/>
</svg>
