<svg width="120" height="120" viewBox="0 0 120 120" fill="none" xmlns="http://www.w3.org/2000/svg">
<g clip-path="url(#clip0)">
<path d="M119.912 37.7883L119.916 26.7563C119.916 25.0043 119.916 23.2563 119.92 21.5043C119.924 17.2803 119.928 12.9163 119.908 8.6203C119.892 4.9643 117.66 1.8883 114.216 0.788297C113.968 0.708297 113.72 0.624297 113.472 0.540297L113.072 0.404297H21.32L21.248 0.432297C21.156 0.468297 21.064 0.508297 20.976 0.544297C20.8 0.616297 20.62 0.692297 20.44 0.752297C16.98 1.8603 14.728 4.8683 14.696 8.4163C14.696 8.6163 14.692 9.0083 14.692 9.4443C14.692 10.0163 14.912 10.5563 15.316 10.9603C15.72 11.3643 16.256 11.5883 16.828 11.5883C18.008 11.5883 18.964 10.6283 18.964 9.4483V9.1483C18.968 6.1083 20.38 4.6923 23.416 4.6923C52.668 4.6923 81.92 4.6923 111.172 4.6923C114.168 4.6923 115.624 6.1563 115.624 9.1643V24.7003C115.624 38.8923 115.624 53.0883 115.636 67.2803C115.64 69.2003 114.96 70.4803 113.512 71.2843C110.856 68.6523 107.916 68.1563 104.284 69.7203C104.164 69.7723 103.924 69.7603 103.78 69.6963C101.348 68.6323 98.86 68.6243 96.392 69.6683C96.156 69.7683 96.044 69.7923 95.996 69.8003C94.524 68.8763 92.956 68.9283 91.432 68.9803C91.092 68.9923 90.748 69.0043 90.408 69.0043C90.364 69.0043 90.316 69.0043 90.268 69.0003V68.0163H96.14C100.352 68.0163 104.564 68.0163 108.776 68.0163C111.104 68.0163 111.968 67.1563 111.968 64.8483C111.972 47.1003 111.972 29.3563 111.968 11.6123C111.968 9.8203 110.508 8.3603 108.716 8.3603C81.944 8.3603 55.172 8.3603 28.404 8.3603C26.616 8.3603 25.164 9.8163 25.164 11.6003V17.2323C25.164 31.7683 25.16 46.7963 25.18 61.5803C25.18 62.3603 24.992 62.8603 24.512 63.3603C24.06 63.8323 23.612 64.3083 23.16 64.7843C21.896 66.1203 20.592 67.5003 19.148 68.8523C19.148 68.8483 19.148 68.8483 19.148 68.8443C19.064 68.3043 18.98 67.7923 18.98 67.2803C18.964 57.8923 18.964 48.5043 18.968 39.1203V32.7603V32.4803C18.968 32.2603 18.972 32.0363 18.964 31.8163C18.936 30.9843 18.672 30.3123 18.196 29.8683C17.804 29.5043 17.296 29.3163 16.72 29.3483C15.452 29.4003 14.688 30.3323 14.684 31.8483C14.68 32.9883 14.68 34.1243 14.684 35.2643C14.688 37.3883 14.688 39.5803 14.656 41.7403C14.648 42.3043 14.48 42.8563 14.176 43.3363C11.328 47.8323 8.44799 52.2843 5.75999 56.4243C5.52399 56.7883 5.28399 57.1523 5.04399 57.5203C2.87599 60.8203 0.631993 64.2363 0.0719932 68.4203L0.0679932 72.1923L0.0719932 72.2443C0.667993 76.8403 3.24799 80.4963 5.74399 84.0323L5.91999 84.2803C6.51199 85.1243 7.09999 85.9963 7.66399 86.8403C8.43599 87.9923 9.23199 89.1803 10.068 90.3163C11.592 92.3923 12.356 94.7643 12.396 97.5723C12.44 100.636 12.588 103.748 12.728 106.756L12.8 108.272C12.84 109.164 13.024 109.7 13.38 109.956C13.908 110.336 14.784 110.728 15.528 110.584C16.272 110.44 17.14 109.892 17.068 108.08C16.984 105.964 16.908 103.848 16.832 101.728C16.768 99.9723 16.704 98.2203 16.636 96.4643C16.524 93.5483 15.648 90.8803 14.028 88.5323C11.44 84.7803 9.10799 81.3963 6.82799 77.9683C3.83199 73.4683 3.75199 67.6123 6.61599 63.0443C8.51999 60.0083 10.508 56.9523 12.432 53.9923C13.184 52.8363 13.932 51.6843 14.68 50.5243V64.9763C14.68 65.2923 14.676 65.6083 14.672 65.9243C14.64 68.1603 14.612 70.4683 16.06 72.4723C15.984 72.5563 15.912 72.6363 15.84 72.7163C15.548 73.0403 15.268 73.3443 15.024 73.6763C14.312 74.6443 14.4 75.7003 15.256 76.5043C16.048 77.2483 17.044 77.3003 17.992 76.6523C18.176 76.5243 18.328 76.3723 18.436 76.2523L23.792 70.4403C27.852 66.0403 31.908 61.6363 35.968 57.2363L36.132 57.0563C36.384 56.7763 36.624 56.5123 36.9 56.3163C37.652 55.7843 38.408 55.7803 39.144 56.3043C39.892 56.8363 40.136 57.5443 39.872 58.4163C39.76 58.7883 39.552 59.1643 39.352 59.5243L37.616 62.6723C34.772 67.8243 31.828 73.1563 28.916 78.3883C27.884 80.2403 27.992 81.9403 29.248 83.5803C31.264 86.2163 31.788 89.1803 30.844 92.6483C30.344 94.4923 30.032 96.2923 29.916 97.9963C29.784 100.004 29.76 102.048 29.736 104.024C29.728 104.772 29.72 105.516 29.704 106.26C29.676 107.832 30.472 108.828 31.788 108.86C33.104 108.892 33.932 107.96 33.98 106.364C34.012 105.336 34.028 104.308 34.044 103.28C34.068 101.664 34.096 99.9923 34.188 98.3563C34.28 96.7003 34.504 95.3123 34.864 94.1123C36.296 89.3643 35.636 85.1323 32.852 81.1763C32.72 80.9923 32.692 80.5043 32.8 80.2763C33.084 79.6803 33.42 79.0883 33.744 78.5203C34.08 77.9323 34.424 77.3283 34.72 76.7003C34.976 76.1603 35.264 76.0043 35.992 76.0043H35.996C46.068 76.0203 56.136 76.0203 66.208 76.0203H77.028C77.3 76.0203 77.572 76.0363 77.84 76.0563C77.844 76.0563 77.848 76.0563 77.852 76.0563V83.1963C77.452 83.0003 77.056 82.8083 76.664 82.6163C75.368 81.9843 74.14 81.3843 72.88 80.8083C70.34 79.6483 67.58 80.3363 65.848 82.5603C63.8 85.1883 64.004 88.6843 66.352 91.2563L67.896 92.9523C70.392 95.6963 72.976 98.5323 75.612 101.232C77.324 102.988 78.052 104.82 77.968 107.18C77.876 109.884 77.9 112.636 77.924 115.296C77.932 116.16 77.94 117.024 77.944 117.892C77.952 119.276 78.788 120.224 80.032 120.244C80.044 120.244 80.06 120.244 80.072 120.244C81.272 120.244 82.136 119.336 82.22 117.976C82.228 117.828 82.228 117.68 82.224 117.532V117.368C82.224 116.264 82.224 115.164 82.22 114.06C82.216 111.524 82.212 108.904 82.232 106.328C82.256 102.684 80.708 99.7523 77.496 97.3563C75.044 95.5283 72.844 93.0643 70.568 89.5963C70.352 89.2643 70.084 88.9803 69.824 88.7003C69.608 88.4683 69.404 88.2523 69.232 88.0163C68.596 87.1363 68.612 85.9603 69.268 85.1603C69.776 84.5403 70.336 84.3123 71.7 84.9763C72.668 85.4443 73.632 85.9203 74.6 86.3923C75.892 87.0243 77.188 87.6563 78.484 88.2843C79.632 88.8403 80.552 88.9163 81.212 88.5043C81.88 88.0883 82.224 87.2043 82.228 85.8883V79.0043C82.228 71.9203 82.228 64.8403 82.228 57.7563V57.4603C82.224 57.0963 82.22 56.7483 82.264 56.4123C82.396 55.3643 83.156 54.6043 84.068 54.6043C84.98 54.6043 85.736 55.3683 85.864 56.4163C85.908 56.7643 85.904 57.1243 85.904 57.5043V57.7603V69.1043C85.904 74.7763 85.904 80.4483 85.908 86.1203C85.908 87.7723 86.732 88.8043 88.052 88.8123C88.056 88.8123 88.064 88.8123 88.068 88.8123C88.628 88.8123 89.116 88.6243 89.476 88.2643C89.944 87.8003 90.188 87.0643 90.192 86.1363C90.196 83.6443 90.196 81.1563 90.196 78.6643V75.7923C90.196 74.5323 90.196 73.7003 90.46 73.4403C90.72 73.1843 91.508 73.2083 92.804 73.2403C93.272 73.2523 93.576 73.3483 93.736 73.5323C93.936 73.7643 93.992 74.2043 93.912 74.8803C93.536 78.0483 93.532 81.2203 93.892 84.3083C93.94 84.7323 93.94 85.1643 93.936 85.6203C93.932 86.0243 93.932 86.4403 93.968 86.8563C94.068 87.9803 94.796 88.7003 95.924 88.7803C97.044 88.8643 97.86 88.2443 98.116 87.1283C98.22 86.6803 98.22 86.2243 98.22 85.7723C98.224 83.1043 98.224 80.4323 98.224 77.7603V75.4243C98.224 74.3563 98.224 73.6483 98.432 73.4403C98.644 73.2283 99.376 73.2363 100.484 73.2443C101.912 73.2563 101.912 73.2803 101.912 74.6363C101.912 77.3123 101.912 79.9883 101.912 82.6683V85.6803V85.9123C101.912 86.1123 101.908 86.3123 101.916 86.5123C101.98 87.8683 102.856 88.8043 104.052 88.8043C104.06 88.8043 104.072 88.8043 104.08 88.8043C105.316 88.7883 106.184 87.8243 106.192 86.4563C106.204 83.8323 106.204 81.2083 106.2 78.5803V75.6403C106.2 74.4123 106.2 73.6723 106.436 73.4403C106.668 73.2123 107.392 73.2243 108.592 73.2403C109.844 73.2603 109.896 73.3083 109.896 74.5243C109.896 75.5683 109.892 76.6163 109.884 77.6603C109.872 79.9483 109.856 82.3163 109.932 84.6443C109.972 85.9643 110.26 87.2803 110.536 88.5523L110.66 89.1323C110.836 89.9563 111.044 90.7803 111.248 91.5803C111.556 92.7923 111.872 94.0443 112.072 95.2883C112.268 96.5123 112.676 97.7603 114.216 97.7603C114.856 97.7603 115.424 97.5283 115.808 97.1003C116.236 96.6323 116.424 95.9683 116.348 95.1883C116.168 93.2923 115.756 91.4123 115.384 89.8043C115.252 89.2363 115.048 88.6843 114.844 88.1483C114.552 87.3683 114.276 86.6283 114.236 85.8843C114.092 83.1563 114.136 80.3643 114.184 77.6603C114.192 77.1163 114.2 76.5763 114.208 76.0323C114.208 75.8963 114.432 75.5763 114.596 75.5043C118.188 73.9563 119.928 71.2363 119.924 67.1843C119.908 57.4003 119.912 47.4323 119.912 37.7883ZM77.936 68.6243C77.936 69.6363 77.936 70.5963 77.932 71.5523C77.932 71.5803 77.928 71.6163 77.92 71.6563H37.552L37.784 71.2363C38.396 70.1363 38.972 69.1003 39.584 68.0723C39.644 68.0523 39.788 68.0243 40.004 68.0203C52.556 68.0123 65.108 68.0123 77.66 68.0203C77.732 68.0203 77.82 68.0363 77.936 68.0563V68.6243ZM90.26 60.4483C90.268 60.4483 90.272 60.4483 90.28 60.4483C90.556 60.4243 90.816 60.4003 91.076 60.4003C91.684 60.3963 92.292 60.4003 92.9 60.4043C93.94 60.4123 95.02 60.4163 96.084 60.3843C99.156 60.2883 101.244 58.1643 101.284 55.0923C101.316 52.6083 101.316 50.1803 101.284 47.8763C101.244 44.9283 99.236 42.7803 96.404 42.6603C93.764 42.5443 91.076 42.5803 88.48 42.6163L87.664 42.6283C86.98 42.6363 86.376 42.8803 85.964 43.3163C85.584 43.7203 85.388 44.2603 85.412 44.8403C85.464 46.0403 86.376 46.8563 87.688 46.8723C89.288 46.8923 90.916 46.8923 92.484 46.8883C93.444 46.8883 94.404 46.8843 95.364 46.8883C96.864 46.8923 97 47.0323 97.004 48.5283V49.5283C97.008 51.2843 97.012 53.0443 97 54.8003C96.992 55.8603 96.768 56.0923 95.736 56.1043C94.384 56.1203 93.056 56.1163 91.648 56.1123C91.172 56.1123 90.692 56.1083 90.204 56.1083C89.928 54.5323 89.296 52.4763 87.324 51.3643C86.208 50.7363 84.904 50.3723 83.752 50.3723C81.72 50.3723 79.084 51.3723 77.916 56.0883C77.496 56.0883 77.076 56.0923 76.656 56.0923C75.364 56.0963 74.024 56.1043 72.708 56.0763C72.036 56.0643 71.892 55.5763 71.888 55.1763C71.86 52.4883 71.86 50.0963 71.884 47.8603C71.892 47.3523 72.044 46.8803 73.116 46.8803C73.12 46.8803 73.12 46.8803 73.124 46.8803C75.012 46.8843 76.9 46.8803 78.788 46.8803H79.636H79.852C80.136 46.8803 80.428 46.8843 80.724 46.8523C81.94 46.7203 82.656 45.9763 82.688 44.8083C82.708 44.1763 82.512 43.6163 82.144 43.2283C81.8 42.8683 81.332 42.6763 80.784 42.6683L80.576 42.6643C77.664 42.6203 74.652 42.5763 71.696 42.7683C69.656 42.9003 67.836 44.7883 67.728 46.8923C67.552 50.2603 67.556 53.2723 67.732 56.1043C67.88 58.4563 69.932 60.2523 72.616 60.3763C73.616 60.4203 74.632 60.4123 75.612 60.4043C76.052 60.4003 76.492 60.3963 76.936 60.3963H77.868V63.6643H41.988C42.084 63.4923 42.18 63.3203 42.272 63.1483C42.704 62.3603 43.116 61.6163 43.504 60.8523C44.496 58.9123 44.504 56.7523 43.528 54.9283C42.56 53.1203 40.78 51.9363 38.644 51.6843C36.636 51.4483 34.872 52.1243 33.4 53.6963C32.38 54.7843 31.372 55.8803 30.316 57.0283L29.544 57.8643V12.7323H107.576V63.6363H90.256V60.4483H90.26Z" fill="#006CB5"/>
<path d="M16.852 17.1762C17.416 17.1762 17.948 16.9562 18.348 16.5562C18.748 16.1562 18.968 15.6242 18.968 15.0242C18.968 13.8562 18.02 12.9082 16.852 12.9082H16.788C15.624 12.9082 14.672 13.8562 14.672 15.0562C14.672 15.6202 14.892 16.1522 15.292 16.5522C15.692 16.9522 16.224 17.1722 16.788 17.1722H16.852V17.1762Z" fill="#006CB5"/>
<path d="M16.784 28.3362C16.792 28.3362 16.796 28.3362 16.804 28.3362C17.376 28.3362 17.876 28.1402 18.252 27.7642C18.712 27.3082 18.956 26.6282 18.96 25.7962C18.964 23.9122 18.968 22.0242 18.968 20.1402C18.968 18.9562 18.004 17.9922 16.82 17.9922C16.248 17.9922 15.708 18.2162 15.3 18.6202C14.892 19.0242 14.672 19.5642 14.672 20.1402C14.672 22.0522 14.676 23.9682 14.68 25.8802C14.684 27.3642 15.508 28.3282 16.784 28.3362Z" fill="#006CB5"/>
<path d="M112.496 100.485C111.44 99.8766 110.372 100.097 109.704 101.053C107.796 103.793 105.42 107.201 105.884 111.541C105.936 112.013 105.92 112.489 105.908 112.997C105.9 113.233 105.896 113.469 105.896 113.705V114.937C105.896 115.845 105.892 116.753 105.9 117.661C105.916 119.229 106.728 120.213 108.02 120.237C108.036 120.237 108.048 120.237 108.064 120.237C108.616 120.237 109.1 120.049 109.468 119.689C109.928 119.237 110.176 118.553 110.18 117.709C110.192 115.565 110.2 113.029 110.18 110.497C110.168 108.973 110.548 107.645 111.34 106.437C111.92 105.553 112.64 104.457 113.252 103.353C113.832 102.301 113.508 101.069 112.496 100.485Z" fill="#006CB5"/>
<path d="M24.232 37.716C24.244 37.364 24.252 36.996 24.212 36.628C24.072 35.4 23.128 34.552 22.012 34.652C20.796 34.764 20.064 35.492 20.008 36.644C19.948 37.812 19.952 38.844 20.02 39.808C20.1 40.996 20.88 41.712 22.104 41.716C22.108 41.716 22.112 41.716 22.116 41.716C23.296 41.716 24.056 41.032 24.204 39.832C24.252 39.436 24.24 39.04 24.228 38.66C24.228 38.628 24.228 38.6 24.224 38.568L24.228 38.168C24.22 38.02 24.228 37.868 24.232 37.716Z" fill="#006CB5"/>
<path d="M71.288 24.7924C66.504 22.1724 60.188 18.7124 53.804 15.1604C52.588 14.4844 51.46 14.4804 50.256 15.1484C44.384 18.4204 38.588 21.6004 32.676 24.8404C31.872 25.2804 30.956 25.9604 30.972 27.3444C30.988 28.7044 31.924 29.3764 32.736 29.8084C33.36 30.1404 33.976 30.4844 34.592 30.8324C35.448 31.3124 36.332 31.8084 37.228 32.2604C37.68 32.4884 37.808 32.7124 37.796 33.2564C37.768 34.5724 37.776 35.9084 37.78 37.2004C37.78 37.7084 37.784 38.2164 37.784 38.7284V40.5004C37.784 41.7324 37.78 42.9644 37.788 44.1924C37.8 46.1844 38.752 47.5724 40.612 48.3164C44.42 49.8404 48.244 50.6004 52.048 50.6004C55.784 50.6004 59.508 49.8684 63.192 48.3964C65.428 47.5044 66.22 46.3484 66.224 43.9764L66.228 42.6924C66.236 39.6084 66.24 36.4164 66.212 33.2804C66.208 32.7364 66.336 32.5124 66.788 32.2804C67.596 31.8644 68.4 31.4164 69.18 30.9804C69.864 30.5964 70.572 30.2044 71.272 29.8364C72.06 29.4244 73.1 28.7084 73.072 27.2524C73.044 25.9204 72.104 25.2364 71.288 24.7924ZM42.072 36.2844V34.9684L42.312 35.0964C42.864 35.3844 43.364 35.6484 43.86 35.9204C44.396 36.2164 44.936 36.5084 45.476 36.8004C47.048 37.6564 48.676 38.5444 50.248 39.4564C51.476 40.1724 52.608 40.1684 53.812 39.4444C54.616 38.9604 55.456 38.5124 56.344 38.0364C56.564 37.9164 56.792 37.7964 57.02 37.6724C57.02 37.8404 57.02 38.0044 57.02 38.1684C57.016 38.9844 57.012 39.7404 57.028 40.4964C57.052 41.9324 57.82 42.8124 59.084 42.8484C59.688 42.8564 60.22 42.6764 60.612 42.3044C61.052 41.8884 61.288 41.2644 61.304 40.5004L61.316 39.9044C61.344 38.6804 61.368 37.4124 61.288 36.1684C61.244 35.4884 61.408 35.1444 61.94 34.9604V36.4684C61.944 38.9364 61.944 41.4924 61.908 43.9924C61.892 44.0924 61.68 44.3444 61.52 44.4124C55.18 46.9644 48.78 46.9564 42.488 44.3924C42.324 44.3244 42.128 44.1324 42.104 44.0924C42.068 41.5324 42.068 38.9844 42.072 36.2844ZM59.632 31.3004C59.52 31.2884 59.252 31.1684 59.1 31.0244C57.812 29.8444 56.52 28.6164 55.268 27.4324L54.196 26.4164C53.292 25.5604 52.504 25.1604 51.804 25.1844C51.304 25.2044 50.848 25.4324 50.448 25.8724C49.2 27.2404 50.172 28.5044 51.288 29.5604L55.528 33.5764C55.344 33.6804 55.16 33.7804 54.98 33.8844C54.012 34.4284 53.096 34.9404 52.168 35.4164C52.1 35.4444 51.864 35.4124 51.7 35.3244C46.9 32.7044 42.032 30.0204 37.324 27.4244L37.1 27.3004L48.664 20.9324C48.712 20.9044 48.764 20.8804 48.816 20.8564C48.948 20.7924 49.1 20.7244 49.236 20.6084C50.98 19.1564 52.608 19.1444 54.848 20.5604C57.44 22.2004 60.188 23.6684 62.848 25.0884C64.004 25.7044 65.16 26.3244 66.308 26.9564C66.504 27.0644 66.696 27.1804 66.916 27.3124L65.86 27.8964C63.724 29.0844 61.7 30.2084 59.632 31.3004Z" fill="#006CB5"/>
<path d="M100.888 31.5364C98.264 31.5324 95.644 31.5324 93.02 31.5324H87.412C84.712 31.5364 82.008 31.5364 79.308 31.5244C79.304 31.5244 79.296 31.5244 79.292 31.5244C78.168 31.5244 77.436 31.9484 77.056 32.8164C76.76 33.4884 76.8 34.1964 77.168 34.7564C77.604 35.4244 78.42 35.8084 79.412 35.8084C82.952 35.8164 86.488 35.8164 89.896 35.8164C93.772 35.8164 97.488 35.8124 100.876 35.8084C101.768 35.8084 102.476 35.5604 102.924 35.1004C103.296 34.7164 103.484 34.1964 103.468 33.5884C103.448 32.8284 103.084 31.5404 100.888 31.5364Z" fill="#006CB5"/>
<path d="M79.4161 27.784C80.8321 27.796 82.2481 27.792 83.6641 27.792L85.4641 27.788L87.2561 27.792C87.8881 27.792 88.5201 27.796 89.1521 27.796C89.9761 27.796 90.8001 27.796 91.6281 27.788C93.8321 27.772 94.1641 26.452 94.1681 25.668C94.1721 24.324 93.2281 23.52 91.6401 23.512C87.7481 23.496 83.6401 23.496 79.4321 23.512C77.8761 23.516 76.8681 24.356 76.8641 25.652C76.8561 26.952 77.8361 27.772 79.4161 27.784Z" fill="#006CB5"/>
</g>
<defs>
<clipPath id="clip0">
<rect width="120" height="120" fill="white"/>
</clipPath>
</defs>
</svg>
