<svg width="120" height="120" viewBox="0 0 120 120" fill="none" xmlns="http://www.w3.org/2000/svg">
<path d="M41.4 98.8759C41.4 98.5159 41.356 98.1479 41.292 97.7959C40.752 94.9359 40.196 92.0799 39.652 89.2239C38.224 81.7239 36.804 74.2199 35.356 66.7199C35.216 65.9879 35.272 65.4439 35.78 64.8239C37.6 62.6159 38.608 60.0599 38.672 57.1759C38.684 56.5679 38.888 56.1239 39.276 55.6719C47.604 45.8919 55.916 36.0999 64.244 26.3199C64.512 26.0039 64.876 25.7439 65.24 25.5479C66.124 25.0759 66.96 24.5399 67.624 23.7879C68.012 23.3479 68.436 23.2119 69.008 23.2159C72.42 23.2359 75.828 23.2239 79.24 23.2279C79.528 23.2279 79.82 23.2559 80.216 23.2799C80.216 23.6839 80.216 24.0399 80.216 24.3959C80.216 27.6759 80.228 30.9519 80.208 34.2319C80.204 35.0479 80.36 35.7879 80.716 36.5239C81.84 38.8439 82.908 41.1919 84.024 43.5159C84.26 44.0079 84.372 44.4959 84.364 45.0399C84.344 46.7279 84.356 48.4159 84.36 50.1079C84.36 50.4039 84.348 50.7079 84.396 50.9999C84.568 52.0039 85.456 52.7239 86.428 52.6799C87.428 52.6319 88.208 51.8679 88.3 50.8359C88.32 50.6039 88.312 50.3719 88.312 50.1399C88.312 48.4519 88.324 46.7639 88.304 45.0719C88.3 44.5279 88.4 44.0399 88.628 43.5439C89.7 41.1999 90.736 38.8359 91.804 36.4919C92.128 35.7839 92.276 35.0679 92.272 34.2879C92.248 30.9759 92.26 27.6639 92.264 24.3559C92.264 24.0039 92.284 23.6519 92.296 23.2759C92.66 23.2599 92.92 23.2399 93.18 23.2359C94.172 23.2319 95.168 23.2439 96.16 23.2319C97.844 23.2119 98.6 22.4679 98.608 20.8079C98.62 18.2599 98.62 15.7079 98.608 13.1599C98.6 11.5519 97.836 10.8079 96.216 10.7959C94.892 10.7879 93.568 10.7959 92.244 10.7959C84.032 10.7959 75.82 10.7919 67.608 10.8039C67.024 10.8039 66.524 10.7079 66.032 10.3599C65.188 9.76389 64.22 9.41589 63.212 9.18789C63.028 9.14789 62.856 9.05589 62.68 8.98389C61.82 8.98389 60.956 8.98389 60.096 8.98389C59.984 9.04389 59.88 9.13189 59.76 9.15989C56.556 9.83989 54.404 11.7399 53.172 14.7479C53.016 15.1319 52.776 15.5119 52.488 15.8079C51.476 16.8559 50.42 17.8599 49.388 18.8879C41.496 26.7279 33.592 34.5599 25.72 42.4239C24.984 43.1599 24.22 43.5759 23.184 43.7559C17.548 44.7239 12.72 49.5559 12.456 56.1879C12.32 59.5959 13.42 62.6439 15.688 65.2119C16.136 65.7199 16.272 66.1879 16.164 66.8159C15.852 68.6079 15.56 70.4039 15.264 72.1959C14.708 75.6239 14.156 79.0519 13.6 82.4759C12.968 86.3599 12.332 90.2439 11.704 94.1279C11.468 95.5959 11.096 97.0639 11.052 98.5399C10.952 101.88 11.008 105.228 11.028 108.572C11.036 109.896 11.812 110.664 13.116 110.716C13.316 110.724 13.512 110.72 13.712 110.72C22.056 110.72 30.4 110.72 38.744 110.72C39.008 110.72 39.276 110.732 39.54 110.708C40.524 110.612 41.252 109.904 41.38 108.924C41.404 108.728 41.4 108.528 41.4 108.328C41.404 105.168 41.408 102.02 41.4 98.8759ZM88.304 33.9639C88.304 34.3159 88.248 34.6959 88.112 35.0159C87.6 36.2319 87.048 37.4319 86.504 38.6359C86.468 38.7199 86.384 38.7799 86.252 38.9319C86.036 38.4879 85.84 38.0919 85.652 37.6919C85.284 36.9159 84.932 36.1319 84.544 35.3679C84.268 34.8239 84.16 34.2679 84.164 33.6559C84.184 30.5479 84.172 27.4399 84.172 24.3359C84.172 24.0119 84.172 23.6879 84.172 23.2639C85.612 23.2639 86.896 23.2639 88.24 23.2639C88.264 23.5439 88.308 23.7959 88.308 24.0519C88.316 27.3519 88.32 30.6559 88.304 33.9639ZM94.62 14.8359C94.62 16.3119 94.62 17.7239 94.62 19.1279C93.84 19.3079 71.176 19.3359 70.04 19.1559C70.124 17.7239 70.16 16.2759 69.652 14.8879C70.396 14.7079 93.332 14.6639 94.62 14.8359ZM61.348 12.9439C64 12.9239 66.164 15.0679 66.164 17.7079C66.164 20.2799 63.996 22.4679 61.436 22.4839C58.78 22.4999 56.656 20.3799 56.648 17.7039C56.64 15.0799 58.732 12.9599 61.348 12.9439ZM53.16 20.7119C54.368 23.4999 56.3 25.2719 59.16 26.1719C52 34.5999 44.892 42.9639 37.7 51.4279C36.828 49.6719 35.82 48.1399 34.42 46.8919C33.044 45.6679 31.492 44.7519 29.604 44.0919C37.472 36.2879 45.252 28.5639 53.16 20.7119ZM25.596 47.4399C30.468 47.4519 34.84 51.6119 34.736 56.6119C34.72 61.6719 30.616 65.8239 25.604 65.7799C20.356 65.7359 16.428 61.6399 16.412 56.6639C16.396 51.1959 20.896 47.4319 25.596 47.4399ZM16.84 87.1879C17.32 84.0839 17.852 80.9919 18.36 77.8919C18.864 74.7999 19.364 71.7079 19.872 68.5679C21.176 68.9559 22.4 69.3159 23.704 69.6999C23.716 69.9639 23.74 70.2879 23.744 70.6079C23.748 73.2879 23.744 75.9719 23.748 78.6519C23.748 78.9479 23.732 79.2519 23.772 79.5439C23.908 80.5479 24.772 81.2999 25.748 81.2879C26.728 81.2759 27.568 80.5119 27.688 79.5039C27.72 79.2439 27.704 78.9759 27.704 78.7119C27.704 76.0319 27.704 73.3479 27.704 70.6679C27.704 70.3399 27.704 70.0119 27.704 69.6959C29.032 69.2559 30.304 68.8359 31.656 68.3879C33.436 77.7039 35.216 87.0119 37.024 96.4719C29.776 96.4719 22.64 96.4719 15.38 96.4719C15.78 93.3359 16.364 90.2679 16.84 87.1879ZM37.392 106.608C36.652 106.792 17.324 106.872 15.016 106.692C15.016 104.62 15.016 102.612 15.016 100.616C15.056 100.576 15.08 100.552 15.104 100.532C15.128 100.512 15.16 100.48 15.184 100.48C22.36 100.468 29.54 100.456 36.716 100.448C36.912 100.448 37.104 100.472 37.288 100.48C37.484 101.232 37.54 104.836 37.392 106.608Z" fill="#791E7F"/>
<path d="M107.156 71.9799C106.892 71.964 106.628 71.9719 106.36 71.9719C102.984 71.9719 99.604 71.9719 96.228 71.9719C95.872 71.9719 95.52 71.9719 95.08 71.9719C95.08 71.5399 95.08 71.216 95.08 70.8919C95.08 67.7799 95.08 64.668 95.08 61.556C95.08 61.292 95.092 61.0239 95.068 60.7599C94.988 59.8719 94.432 59.212 93.564 59.012C93.244 58.94 92.908 58.9079 92.58 58.9039C88.54 58.8959 84.5 58.8959 80.46 58.9039C80.164 58.9039 79.864 58.936 79.576 59C78.696 59.2 78.132 59.82 78.02 60.712C77.984 61.004 77.996 61.3079 77.996 61.6039C77.996 64.7159 77.996 67.828 77.992 70.94C77.992 71.26 77.964 71.58 77.944 71.964C77.548 71.964 77.224 71.964 76.9 71.964C73.488 71.964 70.08 71.964 66.668 71.964C66.372 71.964 66.068 71.948 65.776 71.984C64.616 72.124 63.896 73.0559 64.028 74.2159C64.148 75.2399 64.936 75.9039 66.12 75.9159C67.776 75.9359 69.432 75.92 71.088 75.92C71.412 75.92 71.74 75.92 72.164 75.92C71.824 78.956 71.512 81.852 71.176 84.74C70.748 88.452 70.3 92.164 69.864 95.876C69.4 99.852 68.952 103.828 68.488 107.804C68.248 109.852 68.984 110.696 71.06 110.696C81.392 110.696 91.72 110.696 102.052 110.696C102.348 110.696 102.652 110.712 102.944 110.672C103.948 110.528 104.616 109.788 104.636 108.78C104.644 108.284 104.596 107.788 104.54 107.296C104.176 104.14 103.792 100.988 103.432 97.8359C103.068 94.68 102.732 91.524 102.368 88.368C101.94 84.656 101.492 80.944 101.06 77.232C101.012 76.82 101.016 76.404 100.996 75.92C102.164 75.92 103.22 75.92 104.272 75.92C105.232 75.92 106.192 75.944 107.152 75.908C108.276 75.864 109.12 74.996 109.124 73.944C109.124 72.908 108.284 72.056 107.156 71.9799ZM82.016 62.908C85.036 62.908 87.996 62.908 90.956 62.908C91.164 63.584 91.232 70.3159 91.044 71.9159C88.064 71.9159 85.072 71.9159 82.02 71.9159C82.016 68.8719 82.016 65.912 82.016 62.908ZM72.768 106.7C72.744 106.676 72.716 106.656 72.696 106.632C72.676 106.608 72.66 106.58 72.656 106.548C72.648 106.484 72.64 106.416 72.648 106.352C73.792 96.432 74.932 86.516 76.08 76.6C76.104 76.408 76.164 76.216 76.216 75.984C83.104 75.984 89.976 75.984 96.948 75.984C98.124 86.196 99.296 96.3999 100.472 106.596C99.672 106.796 75.184 106.88 72.768 106.7Z" fill="#791E7F"/>
<path d="M25.7081 86.292C24.6641 86.296 23.7641 87.196 23.7521 88.248C23.7401 89.328 24.6961 90.26 25.7841 90.228C26.8281 90.196 27.7041 89.276 27.6881 88.22C27.6761 87.18 26.7601 86.288 25.7081 86.292Z" fill="#731C71"/>
<path d="M25.58 62.6959C28.984 62.6999 31.696 59.9919 31.688 56.5919C31.68 53.2079 28.948 50.4959 25.552 50.5039C22.204 50.5119 19.436 53.3039 19.5 56.6679C19.56 60.0359 22.212 62.6919 25.58 62.6959ZM25.568 54.4679C26.748 54.4519 27.72 55.4079 27.728 56.5839C27.736 57.7919 26.824 58.7279 25.616 58.7519C24.436 58.7759 23.476 57.8319 23.46 56.6319C23.448 55.4359 24.372 54.4839 25.568 54.4679Z" fill="#731C71"/>
</svg>
