<svg width="120" height="120" viewBox="0 0 120 120" fill="none" xmlns="http://www.w3.org/2000/svg">
<path d="M38.244 93.9559C39.4502 93.9559 40.428 92.9781 40.428 91.7719C40.428 90.5657 39.4502 89.5879 38.244 89.5879C37.0378 89.5879 36.06 90.5657 36.06 91.7719C36.06 92.9781 37.0378 93.9559 38.244 93.9559Z" fill="#4CA22F"/>
<path d="M111.548 80.908C109.488 69.456 107.424 58.004 105.372 46.552C105.004 44.504 104.396 43.96 102.308 43.96C96.808 43.96 81.312 43.96 70.676 43.96C71.052 42.088 71.212 40.244 71.308 38.552C71.34 37.996 71.368 37.44 71.392 36.884C71.512 34.46 71.636 31.952 72.1 29.532C72.72 26.32 74.028 23.984 76.1 22.396C76.82 21.844 77.644 21.384 78.444 20.936C78.68 20.804 78.916 20.672 79.148 20.54C79.984 20.06 80.38 19.344 80.3 18.464C80.216 17.564 79.68 16.932 78.796 16.676C78.148 16.492 77.612 16.348 77.104 16.228C76.204 16.012 75.304 15.804 74.404 15.6L73.296 15.344L68.248 14.62L68.02 14.624C67.888 14.628 67.752 14.628 67.62 14.628C66.86 14.616 66.096 14.592 65.336 14.564C63.7 14.508 62.008 14.452 60.34 14.544C52.84 14.96 46.04 17.36 40.132 21.684C35.288 25.228 32.232 30.656 31.74 36.576C31.532 39.088 31.8 41.588 32.492 43.964C26.556 43.964 21.24 43.964 18.44 43.964C16.252 43.964 15.668 44.476 15.296 46.584C14.224 52.604 13.136 58.624 12.052 64.644C11.056 70.188 10.04 75.724 9.06 81.272C8.656 83.56 9.524 84.532 11.892 84.536C12.816 84.536 13.74 84.536 14.76 84.536C14.76 85.528 14.72 86.384 14.768 87.24C14.976 91.192 17.816 93.984 21.78 94.084C23.868 94.14 25.964 94.12 28.052 94.076C28.552 94.064 29.112 93.936 29.532 93.684C30.428 93.144 30.748 92.26 30.468 91.26C30.192 90.268 29.492 89.664 28.428 89.644C26.3 89.608 24.172 89.64 22.044 89.604C20.228 89.572 19.3 88.644 19.232 86.832C19.204 86.124 19.228 85.416 19.228 84.624H101.452C101.452 85.012 101.448 85.312 101.452 85.608C101.484 88.96 100.84 89.612 97.504 89.612C81.524 89.612 65.54 89.612 49.56 89.616C49.076 89.616 48.584 89.608 48.108 89.672C47.048 89.816 46.288 90.668 46.228 91.72C46.168 92.768 46.824 93.728 47.864 93.968C48.4 94.092 48.972 94.084 49.528 94.092C50.592 94.108 51.656 94.096 52.78 94.096C52.78 97.048 52.78 99.808 52.776 102.568C52.776 102.744 52.736 102.924 52.692 103.292C50.876 103.292 49.088 103.184 47.316 103.316C43.66 103.584 40.916 106.572 40.844 110.232C40.824 111.116 40.84 112.988 40.84 112.988V113.876C40.84 115.86 42.452 117.468 44.432 117.468C55.252 117.468 65.432 117.468 76.252 117.468C78.252 117.468 79.868 115.836 79.844 113.836C79.84 113.328 79.832 112.988 79.832 112.988C79.832 112.276 79.832 111.756 79.832 111.232C79.832 106.048 77.004 103.236 71.784 103.228C70.528 103.224 69.268 103.228 67.96 103.228V94.092C70.376 94.092 72.72 94.092 75.064 94.092C82.868 94.092 90.672 94.104 98.476 94.088C102.932 94.08 105.84 91.196 105.924 86.756C105.936 86.056 105.924 85.352 105.924 84.532C107.144 84.532 108.256 84.552 109.368 84.528C110.952 84.488 111.824 83.488 111.688 81.904C111.668 81.572 111.608 81.24 111.548 80.908ZM57.348 94.172H63.328V103.172H57.348V94.172ZM71.416 107.712C74.656 107.712 75.356 108.412 75.356 111.64C75.356 112.044 75.356 112.448 75.356 112.956H45.364C45.364 111.896 45.248 110.852 45.396 109.844C45.56 108.724 46.32 107.988 47.484 107.8C47.996 107.716 48.524 107.712 49.044 107.712C56.5 107.708 63.96 107.712 71.416 107.712ZM33.7 80.012H13.872C14.136 78.48 14.392 77 14.64 75.52C15.144 72.492 15.144 72.488 18.176 72.488H34.732C34.376 75.084 34.04 77.536 33.7 80.012ZM35.408 67.556C35.38 67.732 35 67.988 34.784 67.988C28.6 67.996 22.416 67.976 16.228 67.956C16.196 67.956 16.164 67.92 16.028 67.836C16.468 65.404 16.904 62.992 17.344 60.552H36.384C36.06 62.94 35.76 65.252 35.408 67.556ZM37.028 55.932H18.172C18.628 53.4 19.068 50.956 19.512 48.492H34.432C35.276 49.948 36.296 51.312 37.492 52.548C37.336 53.68 37.18 54.804 37.028 55.932ZM58.056 79.984H38.244C38.58 77.52 38.916 75.072 39.256 72.564H58.052V79.984H58.056ZM58.036 60.488V67.944H39.904C40.232 65.552 40.536 63.236 40.888 60.924C40.916 60.748 41.3 60.504 41.52 60.504C47 60.484 52.48 60.488 58.036 60.488ZM41.568 55.912C41.572 55.872 41.58 55.832 41.584 55.788C41.66 55.832 41.732 55.868 41.808 55.912H41.568ZM61.804 51.368C61.748 51.408 61.696 51.452 61.64 51.492C61.348 51.708 61.044 51.916 60.728 52.112H60.724C60.416 52.3 60.096 52.476 59.764 52.648C59.684 52.688 59.604 52.732 59.52 52.772C59.184 52.94 58.836 53.1 58.476 53.244C53.044 55.456 47.744 54.904 42.72 51.604C42.392 51.388 42.26 51.212 42.252 50.92C42.252 50.864 42.256 50.804 42.264 50.736C42.264 50.736 42.264 50.736 42.264 50.732C42.272 50.664 42.284 50.596 42.3 50.516C42.304 50.488 42.312 50.464 42.316 50.436C42.456 49.788 42.612 49.144 42.784 48.512C43.2 46.944 43.704 45.428 44.284 43.96C44.524 43.352 44.776 42.756 45.044 42.164C45.392 41.396 45.236 40.488 44.64 39.888C44.628 39.876 44.616 39.864 44.604 39.852C43.6 38.844 41.896 39.16 41.304 40.452C40.784 41.584 40.304 42.756 39.864 43.956C39.864 43.96 39.86 43.964 39.86 43.968C39.652 44.54 39.448 45.12 39.256 45.708C39.064 46.3 38.876 46.9 38.7 47.508C38.504 47.228 38.32 46.94 38.144 46.652C37.992 46.404 37.852 46.148 37.716 45.892C37.696 45.856 37.676 45.82 37.656 45.788C37.352 45.2 37.084 44.592 36.852 43.96C36.828 43.892 36.8 43.832 36.776 43.764C34.304 36.732 36.784 29.092 42.948 24.76C48.768 20.668 55.536 18.596 63.072 18.596C63.264 18.596 63.46 18.596 63.652 18.6C63.764 18.6 63.88 18.604 63.992 18.604C57.4 21.444 52.512 24.868 48.24 29.88C47.528 30.716 47.616 31.964 48.42 32.712C48.432 32.72 48.44 32.732 48.452 32.74C49.312 33.536 50.652 33.432 51.412 32.544C52.572 31.192 53.276 30.428 54.644 29.22C59.368 25.044 64.636 22.304 70.304 21.076C70.772 20.976 71.256 20.896 71.728 20.82C70.268 22.476 69.224 24.396 68.54 26.656C67.768 29.216 67.536 31.836 67.368 34.3C67.32 35.004 67.28 35.708 67.24 36.412C67.104 38.832 66.96 41.332 66.46 43.752C66.444 43.824 66.424 43.896 66.408 43.968C66.272 44.588 66.096 45.18 65.892 45.752C65.88 45.784 65.868 45.816 65.856 45.848C65.788 46.028 65.72 46.208 65.648 46.38C65.648 46.38 65.648 46.384 65.644 46.384C65.412 46.94 65.144 47.472 64.844 47.976C64.836 47.988 64.832 48 64.824 48.008C64.724 48.176 64.62 48.336 64.512 48.496C63.972 49.3 63.344 50.036 62.62 50.692C62.368 50.928 62.088 51.152 61.804 51.368ZM62.628 55.816C65.568 54.084 67.764 51.704 69.164 48.7C69.196 48.632 69.224 48.564 69.256 48.496H78.08C78.42 50.944 78.756 53.368 79.108 55.904H62.628V55.816ZM62.632 60.568C62.96 60.54 63.276 60.488 63.596 60.488C68.632 60.484 73.668 60.5 78.704 60.468C79.48 60.464 79.804 60.628 79.892 61.48C80.108 63.616 80.46 65.74 80.772 67.944H62.636V60.568H62.632ZM62.656 79.984V72.544H81.392C81.736 74.996 82.08 77.448 82.432 79.984H62.656ZM82.62 48.5H101.156C101.596 50.94 102.04 53.384 102.5 55.924H83.64C83.292 53.424 82.96 50.996 82.62 48.5ZM85.136 66.88C84.928 64.808 84.58 62.752 84.272 60.584H103.328C103.764 63.008 104.2 65.416 104.668 68.012H103.532C97.828 68.012 92.128 67.992 86.428 68.032C85.524 68.036 85.228 67.788 85.136 66.88ZM86.968 80.012C86.628 77.56 86.288 75.108 85.928 72.492H87.12C92.864 72.492 98.608 72.512 104.352 72.472C105.244 72.464 105.564 72.728 105.692 73.612C105.996 75.708 106.424 77.788 106.828 80.012H86.968Z" fill="#4CA22F"/>
<path d="M47.62 34.3598C46.712 33.5478 45.3 33.7318 44.644 34.7598C44.636 34.7718 44.628 34.7838 44.62 34.7958C44.112 35.5918 44.248 36.6438 44.944 37.2838C44.992 37.3278 45.04 37.3758 45.092 37.4198C45.984 38.2518 47.412 38.0758 48.068 37.0518C48.076 37.0398 48.084 37.0278 48.092 37.0158C48.612 36.2078 48.488 35.1358 47.768 34.4958C47.716 34.4518 47.668 34.4078 47.62 34.3598Z" fill="#4CA22F"/>
</svg>
