<svg width="120" height="120" viewBox="0 0 120 120" fill="none" xmlns="http://www.w3.org/2000/svg">
<path d="M105.408 60.7922C104.516 60.3642 103.616 60.6642 103.06 61.5802C102.904 61.8402 102.764 62.1162 102.632 62.3802C102.56 62.5282 102.484 62.6722 102.408 62.8162C100.716 66.0002 98.756 68.5402 96.42 70.5802C96.248 70.7282 96.06 70.8602 95.86 70.9962C95.856 70.9962 95.856 71.0002 95.852 71.0002C95.852 70.9922 95.848 70.9802 95.848 70.9722C95.812 70.7242 95.776 70.4882 95.776 70.2522L95.772 60.8322C95.772 57.0922 95.772 53.7682 95.768 48.0842C95.768 47.0922 94.96 46.2842 93.964 46.2842C92.972 46.2842 92.164 47.0922 92.164 48.0842V50.0762C92.164 59.4642 92.164 63.6282 92.16 73.7762V73.8962C92.156 74.6842 92.156 75.5802 93.068 76.1122C93.376 76.2922 93.664 76.3642 93.936 76.3642C94.516 76.3642 95.028 76.0402 95.496 75.7402L95.632 75.6522C98.244 74.0042 100.576 71.8522 102.56 69.2642C104.02 67.3602 105.252 65.3242 106.228 63.2122C106.692 62.2242 106.36 61.2482 105.408 60.7922Z" fill="#DA1C5C"/>
<path d="M95.24 44.6044C95.58 44.2644 95.768 43.8124 95.768 43.3324V43.2644C95.768 42.2724 94.96 41.4644 93.968 41.4644C92.976 41.4644 92.168 42.2724 92.168 43.2644V43.3324C92.168 43.8124 92.356 44.2644 92.696 44.6044C93.036 44.9444 93.488 45.1324 93.968 45.1324C94.448 45.1324 94.9 44.9444 95.24 44.6044Z" fill="#DA1C5C"/>
<path d="M110.292 17.6482C110 15.2722 109.604 12.7522 109.084 9.94021C108.868 8.76421 108.2 7.89221 107.26 7.54021C106.296 7.18421 105.2 7.42421 104.244 8.19221C103.832 8.52421 103.428 8.87621 103.036 9.21621C102.84 9.38421 102.648 9.55221 102.452 9.72021L100.388 11.4762C98.228 13.3162 96.072 15.1562 93.92 17.0082C93.56 17.3202 93.28 17.3922 92.856 17.2842C92.156 17.1122 91.44 16.9802 90.744 16.8562C90.396 16.7922 90.052 16.7322 89.704 16.6642L83.58 15.4602C80.388 14.8322 77.192 14.2042 74 13.5842C68.98 12.6042 63.96 11.6322 58.94 10.6562L52.428 9.39221C51.892 9.28821 51.356 9.18421 50.82 9.07621C49.528 8.82021 48.192 8.56021 46.876 8.32021C45.9 8.14421 44.996 8.72021 44.772 9.66421C44.548 10.6002 45.088 11.5002 46.056 11.8042C46.332 11.8922 46.616 11.9442 46.908 12.0042C48.528 12.3162 50.148 12.6282 51.768 12.9402C54.756 13.5122 57.744 14.0882 60.732 14.6682C65.564 15.6082 70.392 16.5562 75.22 17.5042C78.276 18.1042 81.336 18.7042 84.392 19.3002C85.44 19.5042 86.492 19.7082 87.54 19.9082C88.864 20.1642 90.188 20.4202 91.516 20.6802C92.152 20.8042 92.152 20.8042 92.16 21.4282C92.164 21.6842 92.16 21.9362 92.16 22.1922C92.156 22.5442 92.156 22.8962 92.164 23.2482C92.168 23.3962 92.148 23.5002 92.108 23.5362C92.068 23.5722 91.968 23.5842 91.828 23.5682C90.716 23.4362 89.604 23.3162 88.492 23.1962L87.58 23.0962C84.536 22.7682 81.496 22.4362 78.452 22.1082L66.064 20.7682C64.32 20.5762 62.576 20.3882 60.832 20.2002C59.204 20.0242 57.58 19.8562 55.952 19.6842C54.604 19.5442 53.26 19.4002 51.912 19.2602C48.8 18.9282 45.684 18.5922 42.572 18.2562L38.596 17.8242C36.916 17.6402 35.232 17.4562 33.548 17.2762C31.744 17.0842 29.94 16.8922 28.132 16.6962C26.328 16.5042 24.524 16.3122 22.72 16.1202C22.008 16.0442 21.296 15.9642 20.58 15.8842C19.56 15.7682 18.54 15.6562 17.516 15.5522C17.316 15.5322 17.272 15.5002 17.272 15.5042C17.272 15.4962 17.268 15.4402 17.36 15.2602C19.672 10.7202 25.144 7.92821 30.092 8.76421C31.784 9.04821 33.5 9.38421 35.156 9.70821C36.052 9.88421 36.948 10.0562 37.844 10.2242L38.276 10.3082C38.864 10.4242 39.468 10.5402 40.076 10.5802C40.956 10.6402 41.712 10.0242 41.876 9.12021C42.02 8.32021 41.56 7.50421 40.78 7.17621C40.52 7.06821 40.24 7.00421 40.024 6.96421C39.06 6.77621 38.092 6.59221 37.128 6.40821C35.788 6.15221 34.448 5.89621 33.112 5.63221C32.448 5.50021 31.784 5.35621 31.12 5.21221C30.82 5.14421 30.516 5.08021 30.216 5.01621L26.54 5.01221L26.14 5.10421C25.888 5.16821 25.636 5.23221 25.384 5.28421C20.692 6.28821 17.076 8.81621 14.64 12.8042C14.092 13.7002 13.548 14.6802 12.868 15.9882C12.512 16.6762 12.472 17.3522 12.756 17.8842C13.048 18.4282 13.644 18.7762 14.44 18.8642C15.456 18.9762 16.476 19.0842 17.492 19.1922L18.476 19.2962C19.076 19.3602 19.076 19.3602 19.084 20.0042C19.088 20.2962 19.084 20.5882 19.084 20.8802C19.08 21.3002 19.08 21.7242 19.092 22.1442C19.156 24.3122 20.72 25.8722 22.888 25.9322C23.028 25.9362 23.184 25.9282 23.344 25.9242C23.692 25.9082 24.128 25.8922 24.268 26.0362C24.42 26.1922 24.4 26.6522 24.38 27.0202C24.372 27.1562 24.368 27.2922 24.368 27.4162L24.372 39.9882C24.372 50.4722 24.372 61.3122 24.396 71.9762C24.396 72.9242 24.036 73.4442 23.228 74.2562C22.396 75.0882 21.684 75.7962 20.972 76.5042C20.244 77.2282 19.52 77.9482 18.664 78.8042L18.52 78.9482C18.22 79.2442 17.908 79.5522 17.652 79.9002C17.136 80.6042 17.192 81.6002 17.792 82.2162C18.432 82.8762 19.332 82.9642 20.088 82.4402C20.632 82.0642 21.128 81.5922 21.584 81.1362C22.572 80.1482 23.456 79.3642 24.308 78.6082C25.128 77.8802 25.98 77.1242 26.896 76.2082C27.328 75.7762 27.716 75.3402 28.092 74.9162C29.236 73.6282 30.224 72.5122 31.824 72.2602C34.116 71.8962 36.28 72.8842 37.472 74.8322C38.676 76.8002 38.572 79.1762 37.2 81.0362C36.952 81.3722 36.652 81.6842 36.368 81.9682C34.572 83.7682 32.776 85.5642 30.976 87.3602C28.516 89.8202 26.056 92.2802 23.6 94.7402C22.62 95.7242 21.64 96.2922 20.52 96.5282C18.184 97.0202 15.8 95.9882 14.588 93.9602C13.38 91.9402 13.6 89.2882 15.12 87.5162C15.324 87.2762 15.512 87.0802 15.692 86.9122C16.088 86.5442 16.308 86.0482 16.308 85.5162C16.312 85.0162 16.12 84.5322 15.8 84.2282C15.008 83.4762 14.02 83.5162 13.152 84.3442C11.8 85.6322 10.952 87.0162 10.56 88.5722C9.63997 92.2202 10.52 95.3322 13.18 97.8202C13.652 98.2602 13.728 98.5602 13.532 99.1562C12.64 101.816 11.76 104.532 10.912 107.156C10.548 108.276 10.188 109.392 9.82397 110.512C9.77197 110.672 9.70797 112.076 9.69597 112.432C9.67997 113.068 9.91197 113.672 10.356 114.128C10.796 114.58 11.384 114.828 12.016 114.828H28.872C30.156 114.828 31.2 113.784 31.2 112.512C31.2 112.476 31.244 111.592 30.916 110.604C30.128 108.24 29.348 105.828 28.592 103.496C28.264 102.488 27.94 101.476 27.608 100.468C27.508 100.16 27.412 99.8522 27.316 99.5402C27.124 98.9042 26.92 98.2482 26.676 97.6202C26.484 97.1322 26.556 96.8442 26.968 96.4362C28.912 94.5242 30.868 92.5602 32.76 90.6642L35.884 87.5402C36.96 86.4682 38.036 85.3962 39.096 84.3122C40.916 82.4562 41.936 79.9802 41.892 77.5242C41.84 74.4362 40.216 71.6122 37.556 69.9762C34.832 68.3042 31.5 68.1362 28.636 69.5242C28.416 69.6322 28.084 69.7922 28.028 69.7962C27.98 69.7242 27.98 69.3642 27.98 68.9842V27.4202V27.2522V26.5602C27.98 26.2762 27.98 26.0122 28.024 25.9642C28.064 25.9242 28.32 25.9242 28.564 25.9202C28.664 25.9202 28.776 25.9202 28.904 25.9162H29.164C29.512 25.9162 29.868 25.9162 30.22 25.8442C31.912 25.4962 33.104 24.0802 33.184 22.3282C33.204 21.9042 33.2 21.4922 33.192 21.1402C33.188 20.9762 33.22 20.9322 33.236 20.9202C33.252 20.9082 33.308 20.8762 33.488 20.9002C34.244 20.9882 35 21.0642 35.756 21.1402C36.24 21.1882 36.724 21.2362 37.208 21.2882C39.308 21.5122 41.412 21.7402 43.512 21.9682L46.544 22.2962C46.588 22.3002 46.632 22.3042 46.672 22.3082L46.76 22.3162C47.96 22.4242 47.96 22.4242 47.96 23.5882C47.96 24.2722 47.956 24.9522 47.956 25.6362C47.952 27.3842 47.944 29.1882 47.98 30.9642C47.992 31.5282 48.076 32.3602 48.412 33.1042C49.016 34.4362 50.2 35.1842 51.836 35.2682C52.572 35.3042 53.304 35.2922 53.988 35.2722C54.156 35.2642 54.276 35.2922 54.324 35.3442C54.372 35.3962 54.384 35.5122 54.36 35.6762C54.248 36.5002 54.148 37.3202 54.048 38.1442C53.976 38.7322 53.904 39.3242 53.828 39.9122C53.512 42.3642 53.192 44.8162 52.872 47.2722L52.116 53.0682C51.82 55.3522 51.52 57.6322 51.224 59.9162C51.004 61.6002 50.788 63.2882 50.572 64.9722L47.5 88.7082C47.46 89.0282 47.416 89.3482 47.372 89.6682C47.272 90.4282 47.164 91.2162 47.08 91.9962C47.044 92.3362 46.944 92.3922 46.688 92.3802C46.512 92.3762 46.34 92.3762 46.164 92.3802C45.94 92.3842 45.732 92.3882 45.52 92.3722C44.664 92.3042 43.848 92.6002 43.284 93.1802C42.684 93.7962 42.412 94.6642 42.516 95.6202C42.612 96.5202 42.7 97.5802 42.604 98.6642C42.504 99.7802 42.508 100.528 42.508 101.02C42.508 101.384 42.512 101.696 42.452 101.756C42.404 101.804 42.168 101.8 41.892 101.8C41.664 101.796 41.376 101.796 41.012 101.812C40.692 101.828 40.36 101.812 40.04 101.796L39.836 101.788C38.932 101.748 38.048 102.084 37.412 102.704C36.94 103.164 36.38 103.996 36.404 105.344C36.42 106.348 36.416 107.372 36.412 108.36C36.412 108.812 36.408 109.268 36.408 109.72V111.412C36.408 113.292 37.936 114.82 39.816 114.82L83.576 114.824C85.456 114.824 86.984 113.296 86.984 111.392V110.324C86.984 110.288 87.016 106.808 86.972 105.08C86.92 103.136 85.62 101.848 83.656 101.792C83.38 101.784 83.104 101.788 82.828 101.788C82.604 101.788 82.38 101.792 82.16 101.788C81.928 101.784 81.728 101.788 81.564 101.788C81.264 101.792 81.004 101.796 80.948 101.74C80.88 101.676 80.884 101.348 80.884 100.936C80.884 100.808 80.884 100.664 80.884 100.504C80.88 99.8602 80.884 99.2162 80.884 98.5722C80.888 97.4402 80.892 96.2682 80.864 95.1162C80.828 93.6402 79.64 92.4322 78.164 92.3722C77.624 92.3482 77.18 92.3482 76.756 92.3682C76.46 92.3802 76.348 92.3202 76.304 91.9282C76.16 90.6802 75.996 89.4162 75.832 88.1962L75.172 83.1442C74.94 81.3802 74.712 79.6122 74.484 77.8482C74.136 75.1762 73.796 72.5082 73.452 69.8362L72.896 65.5042C72.656 63.6202 72.412 61.7362 72.168 59.8522C71.9 57.7882 71.628 55.7242 71.36 53.6642L70.772 49.1642C70.368 46.0602 69.964 42.9562 69.564 39.8482C69.476 39.1522 69.388 38.4562 69.304 37.7562C69.216 37.0402 69.128 36.3282 69.036 35.6122C69.024 35.5122 69.048 35.4242 69.108 35.3562C69.168 35.2922 69.244 35.2522 69.356 35.2562C70.088 35.2722 70.756 35.2722 71.396 35.2522C73.8 35.1922 75.384 33.6042 75.436 31.2082C75.448 30.5722 75.448 29.9322 75.444 29.2962C75.444 29.0082 75.44 28.7162 75.44 28.4282V27.6722C75.436 27.0722 75.436 26.4682 75.448 25.8682C75.452 25.7242 75.456 25.5042 75.48 25.4642C75.524 25.4362 75.74 25.4482 75.964 25.4562C76.204 25.4682 76.44 25.4842 76.68 25.5082C78.164 25.6642 79.652 25.8242 81.136 25.9802L84.952 26.3842C87 26.6002 89.048 26.8162 91.096 27.0482C92.164 27.1682 92.164 27.1682 92.164 28.3202V38.0682C92.164 38.5722 92.38 39.0602 92.752 39.4002C93.132 39.7442 93.624 39.9082 94.136 39.8602C95.044 39.7722 95.756 38.9562 95.756 38.0002L95.752 32.8362C95.748 28.8042 95.744 23.9282 95.736 21.9162C95.732 20.5722 96.116 19.7362 97.112 18.9362C99.016 17.4082 100.9 15.7842 102.72 14.2202C103.568 13.4882 104.42 12.7602 105.272 12.0322C105.392 11.9322 105.54 11.8522 105.696 11.7682C105.7 11.7682 105.704 11.7642 105.704 11.7642C105.704 11.7722 105.708 11.7762 105.708 11.7842C105.764 11.9642 105.82 12.1322 105.848 12.3042C105.972 13.0442 106.084 13.7882 106.2 14.5282L106.36 15.5722C107 19.6682 107.46 23.9482 107.732 28.2882C108.068 33.6242 108.02 38.4642 107.596 43.0922C107.28 46.5002 106.816 49.4922 106.18 52.2322C106.028 52.8962 105.844 53.5682 105.668 54.2162C105.54 54.6882 105.412 55.1602 105.292 55.6322C105.024 56.6922 105.376 57.5522 106.232 57.9402C106.736 58.1682 107.24 58.1802 107.688 57.9722C108.196 57.7402 108.584 57.2442 108.78 56.5722C109.768 53.2202 110.404 50.2082 110.728 47.3642C111.032 44.6802 111.24 42.0202 111.46 38.8482C111.74 34.7562 111.512 30.6562 111.252 27.1842C111.02 24.1602 110.708 21.0322 110.292 17.6482ZM26.784 109.576C26.832 109.72 26.872 109.868 26.912 110.016C26.996 110.316 27.08 110.628 27.22 110.92C27.276 111.032 27.316 111.176 27.34 111.352C26.14 111.34 22.848 111.312 19.764 111.284L15.34 111.244C14.808 111.24 14.412 111.236 14.112 111.236C13.764 111.236 13.552 111.24 13.42 111.256L13.424 111.232C13.42 111.232 13.412 111.232 13.408 111.228C13.42 111.144 13.48 110.96 13.512 110.856C14.632 107.412 15.756 103.972 16.884 100.536C17.056 100.008 17.056 100.008 17.62 100.124C19.428 100.492 21.204 100.296 23.052 99.5202C23.188 99.4642 23.396 99.3642 23.428 99.3842C23.468 99.4202 23.536 99.6322 23.584 99.7722C24.372 102.18 25.156 104.592 25.94 107.004L26.784 109.576ZM29.596 20.9602C29.592 20.9962 29.592 21.0282 29.596 21.0922V21.2922C29.596 21.8402 29.6 22.2002 29.512 22.2842C29.448 22.3482 29.196 22.3442 28.876 22.3362C28.764 22.3362 28.64 22.3322 28.504 22.3322C28.46 22.3322 28.412 22.3322 28.368 22.3322C27.852 22.3362 27.336 22.3362 26.824 22.3362H26.128H25.276C24.636 22.3362 23.992 22.3402 23.352 22.3322C22.724 22.3242 22.724 22.3242 22.712 21.6602C22.7 21.1282 22.7 20.6442 22.712 20.1762C22.716 20.0602 22.72 19.8162 22.752 19.7762C22.804 19.7442 23.06 19.7762 23.188 19.7882C24.032 19.8802 24.872 19.9802 25.712 20.0762C26.388 20.1562 27.068 20.2362 27.748 20.3122C28.268 20.3722 28.724 20.4082 29.144 20.4282C29.336 20.4362 29.468 20.4842 29.536 20.5642C29.596 20.6442 29.62 20.7762 29.596 20.9602ZM53.088 73.7762L53.356 71.6842C53.564 70.0562 53.772 68.4282 53.984 66.8002C54.16 65.4282 54.344 64.0522 54.528 62.6802C54.548 62.5242 54.584 62.2682 54.592 62.2362C54.664 62.2402 54.904 62.3482 55.02 62.4042C57.064 63.3762 59.1 64.3602 61.14 65.3402L63.212 66.3402C64.384 66.9042 65.556 67.4682 66.724 68.0402C66.752 68.0522 66.784 68.0802 66.812 68.1122C66.772 68.1402 66.736 68.1642 66.696 68.1802C63.96 69.3642 61.22 70.5402 58.48 71.7202L57.292 72.2322C55.96 72.8042 54.628 73.3802 53.292 73.9442C53.18 73.9922 53.108 74.0162 53.064 74.0322C53.068 73.9762 53.076 73.8922 53.088 73.7762ZM60.66 35.4482C59.704 36.2882 58.744 37.1202 57.78 37.9482C57.772 37.9562 57.764 37.9602 57.752 37.9682C57.744 37.9402 57.74 37.9162 57.74 37.9042C57.78 37.5082 57.828 37.1122 57.876 36.7162C57.916 36.3762 57.96 36.0362 57.996 35.6962C58.024 35.4482 58.116 35.3602 58.376 35.3602C58.396 35.3602 58.412 35.3602 58.436 35.3602C58.708 35.3722 58.98 35.3682 59.256 35.3682L59.908 35.3642C60.16 35.3642 60.412 35.3602 60.664 35.3682C60.684 35.3682 60.704 35.3722 60.724 35.3762C60.7 35.4042 60.68 35.4282 60.66 35.4482ZM63.748 37.5362L65.112 36.3482C65.192 36.2802 65.272 36.2162 65.352 36.1482C65.396 36.1122 65.428 36.0922 65.452 36.0802C65.46 36.1082 65.472 36.1522 65.48 36.2242C65.592 37.1002 65.708 37.9762 65.828 38.8482C65.912 39.4522 65.992 40.0562 66.072 40.6602C66.284 42.2722 66.492 43.8842 66.7 45.5002L66.908 47.1082C66.916 47.1722 66.924 47.2402 66.932 47.3282L66.936 47.3602C66.924 47.3642 66.916 47.3682 66.908 47.3682C66.544 47.1562 66.18 46.9202 65.832 46.6922L64.4 45.7642C62.592 44.5922 60.784 43.4202 58.98 42.2442C58.868 42.1722 58.708 42.0682 58.652 42.0082C58.7 41.9442 58.836 41.8282 58.928 41.7442C60.524 40.3402 62.136 38.9402 63.748 37.5362ZM64.94 50.4242C64.988 50.4562 65.036 50.4842 65.088 50.5122C65.184 50.5682 65.276 50.6202 65.32 50.6762C65.336 50.7082 65.34 50.8082 65.328 50.8322C65.28 50.8922 65.184 50.9402 65.08 50.9882C65.032 51.0122 64.984 51.0362 64.936 51.0602L56.748 55.5802L55.796 56.1082C55.736 56.1442 55.676 56.1762 55.612 56.2082C55.5 56.2602 55.436 56.2842 55.396 56.2962C55.388 56.2522 55.384 56.1722 55.388 56.0362L55.532 54.8722C55.644 53.9562 55.756 53.0362 55.876 52.1202C56.12 50.2202 56.368 48.3202 56.62 46.4202L56.692 45.8802C56.7 45.8282 56.704 45.7762 56.708 45.7242C56.724 45.5722 56.74 45.4282 56.784 45.3242C56.808 45.2922 56.904 45.2522 56.944 45.2522H56.948C57.02 45.2642 57.104 45.3282 57.192 45.3962C57.24 45.4322 57.284 45.4642 57.332 45.4962L64.94 50.4242ZM50.708 91.9922C50.84 91.0442 50.964 90.0922 51.084 89.1402L52.192 80.5802L52.204 80.4682C52.264 79.9162 52.312 79.4842 52.416 79.4202C52.52 79.3602 52.92 79.5122 53.432 79.7122L57.02 81.1042C60.852 82.5882 64.684 84.0762 68.516 85.5642C68.664 85.6202 68.804 85.7082 68.952 85.8042C68.82 85.9202 68.692 86.0242 68.556 86.1002C65.144 87.9642 61.276 90.0722 57.508 92.0922C57.204 92.2562 56.788 92.3522 56.276 92.3842C55.708 92.4202 55.124 92.4122 54.56 92.4042C54.32 92.4002 54.076 92.3962 53.836 92.3962L53.056 92.3922C52.776 92.3922 52.496 92.3882 52.212 92.3882C51.828 92.3882 51.444 92.3922 51.06 92.4002C50.892 92.4042 50.78 92.3802 50.736 92.3282C50.696 92.2802 50.684 92.1642 50.708 91.9922ZM82.216 105.428H82.36H82.64C82.992 105.432 83.268 105.436 83.328 105.496C83.388 105.552 83.388 105.828 83.388 106.144C83.392 107.676 83.396 109.204 83.388 110.736C83.388 110.904 83.384 111.16 83.352 111.192C83.316 111.228 83.076 111.236 82.864 111.24C82.696 111.244 82.524 111.244 82.356 111.244H41.316H41.136C41.02 111.244 40.9 111.244 40.784 111.244C40.432 111.24 40.156 111.24 40.092 111.18C40.032 111.124 40.032 110.852 40.032 110.536C40.028 109.004 40.024 107.476 40.036 105.944C40.04 105.448 40.04 105.448 40.564 105.432C40.708 105.428 40.852 105.428 40.996 105.428H82.216ZM76.296 96.0042H76.588C76.908 96.0042 77.184 96.0002 77.24 96.0522C77.296 96.1082 77.292 96.3882 77.292 96.7162V97.0202C77.296 98.3722 77.3 99.7242 77.292 101.076C77.292 101.408 77.288 101.692 77.228 101.756C77.168 101.82 76.884 101.82 76.56 101.82C73.176 101.824 69.792 101.82 66.408 101.82H47.292C47.212 101.82 47.136 101.82 47.056 101.816C46.884 101.812 46.704 101.808 46.528 101.824C46.376 101.836 46.276 101.816 46.22 101.768C46.16 101.712 46.128 101.584 46.132 101.392C46.144 99.8562 46.144 98.2122 46.136 96.3682C46.136 96.2122 46.16 96.1042 46.212 96.0562C46.252 96.0202 46.324 96.0002 46.428 96.0002C46.448 96.0002 46.468 96.0002 46.488 96.0002C46.636 96.0082 46.784 96.0082 46.928 96.0042C47 96.0042 47.068 96.0002 47.14 96.0002H52.444C60.392 96.0042 68.344 96.0042 76.296 96.0042ZM72.2 88.2762C72.2 88.2762 72.236 88.3122 72.256 88.4602C72.408 89.6602 72.56 90.8562 72.716 92.0562C72.736 92.1962 72.724 92.2922 72.684 92.3362C72.644 92.3802 72.54 92.4042 72.392 92.4042C71.808 92.3962 71.224 92.3962 70.64 92.3962C70.272 92.3962 69.908 92.3962 69.54 92.3962L67.556 92.4002C66.572 92.4002 65.588 92.4002 64.604 92.3962C64.596 92.3962 64.588 92.3962 64.576 92.3962C66.088 91.5682 67.6 90.7482 69.116 89.9242L70.676 89.0762C71.108 88.8442 71.54 88.6082 71.972 88.3682C72.14 88.2682 72.196 88.2762 72.2 88.2762ZM69.88 70.7922C69.936 70.8442 69.984 71.2002 70.02 71.4642C70.38 74.1322 70.728 76.8042 71.08 79.4762L71.428 82.1402C71.436 82.2082 71.44 82.2722 71.444 82.3402L71.452 82.4402C71.456 82.5522 71.46 82.7122 71.452 82.7962C71.356 82.7762 71.18 82.7082 71.076 82.6682C67.996 81.4842 64.92 80.2922 61.844 79.1002L57.844 77.5522C57.22 77.3122 56.6 77.0722 55.98 76.8242C55.96 76.8162 55.936 76.8002 55.912 76.7802C55.94 76.7642 55.964 76.7482 55.988 76.7402C58.364 75.7042 60.74 74.6722 63.12 73.6442C65.172 72.7602 67.232 71.8802 69.288 71.0002C69.524 70.9002 69.816 70.7722 69.88 70.7922ZM69.18 64.9242C69.188 65.0002 69.188 65.0802 69.18 65.1682C69.1 65.1522 69.028 65.1362 68.968 65.1082C65.124 63.2602 61.28 61.4042 57.444 59.5442C57.388 59.5162 57.332 59.4682 57.272 59.4162C57.312 59.3842 57.356 59.3562 57.4 59.3322C60.7 57.5122 64 55.6922 67.304 53.8722C67.4 53.8202 67.504 53.7722 67.624 53.7202L67.66 53.7042C67.664 53.7082 67.664 53.7122 67.668 53.7202C67.724 53.8362 67.776 53.9362 67.788 54.0282C67.948 55.1282 68.092 56.2762 68.208 57.1962C68.536 59.7722 68.86 62.3482 69.18 64.9242ZM71.844 30.8362C71.84 31.6642 71.824 31.6802 71 31.6842C68.74 31.6922 66.484 31.6922 64.224 31.6882H52.844H52.636C52.42 31.6882 52.212 31.6922 52.004 31.6762C51.724 31.6522 51.588 31.5162 51.588 31.2562C51.584 29.5682 51.584 27.8842 51.584 26.1962V23.1402C51.584 23.0482 51.6 22.9802 51.632 22.9522C51.66 22.9242 51.72 22.9122 51.812 22.9122C51.848 22.9122 51.892 22.9162 51.94 22.9202C52.248 22.9482 52.556 22.9762 52.868 23.0042C53.516 23.0602 54.16 23.1202 54.808 23.1882C56.652 23.3882 58.5 23.5962 60.344 23.8002C62.104 23.9962 63.868 24.1922 65.628 24.3842C66.684 24.5002 67.744 24.6082 68.804 24.7162L70.624 24.9002C70.832 24.9202 71.04 24.9402 71.244 24.9722C71.856 25.0722 71.856 25.0722 71.856 25.7162C71.852 27.4202 71.856 29.1282 71.844 30.8362Z" fill="#DA1C5C"/>
<path d="M100.096 25.1164C100.248 25.1164 100.4 25.0964 100.552 25.0524C100.828 24.9764 101.12 24.8204 101.368 24.6124C102.328 23.8124 103.328 22.9604 104.616 21.8444C104.836 21.6524 105.016 21.4404 105.14 21.2284C105.444 20.6964 105.436 20.0564 105.124 19.5204C104.776 18.9244 104.12 18.5684 103.372 18.5684C103.368 18.5684 103.364 18.5684 103.36 18.5684H103.308L103.264 18.5924C103.204 18.6244 103.128 18.6604 103.044 18.7004C102.812 18.8124 102.492 18.9644 102.22 19.1804C101.436 19.8164 100.656 20.4844 99.908 21.1364L99.208 21.7364C99.032 21.8884 98.864 22.0364 98.724 22.2084C98.268 22.7804 98.212 23.6124 98.588 24.2324C98.924 24.7924 99.496 25.1164 100.096 25.1164Z" fill="#DA1C5C"/>
<path d="M97.488 54.5003C97.456 54.7803 97.464 55.0603 97.472 55.3323C97.476 55.4523 97.48 55.5723 97.48 55.6923L97.484 55.8443C97.484 55.9243 97.48 56.0043 97.476 56.0803C97.468 56.3763 97.456 56.6843 97.496 56.9883C97.608 57.8403 98.244 58.4243 99.12 58.4683C99.164 58.4723 99.208 58.4723 99.248 58.4723C100.14 58.4723 100.816 57.9563 100.916 57.1843C101.036 56.2563 101.036 55.2843 100.928 54.2963C100.828 53.4163 99.952 52.9003 99.176 52.9283C98.3 52.9603 97.592 53.6203 97.488 54.5003Z" fill="#DA1C5C"/>
<path d="M19.7599 86.4163C17.2079 86.3603 15.2359 88.2163 15.1719 90.7323C15.1039 93.2323 16.9999 95.2643 19.4839 95.3603C19.5399 95.3603 19.5959 95.3643 19.6519 95.3643C20.7679 95.3643 21.8359 94.9323 22.6759 94.1323C23.5679 93.2843 24.0879 92.1083 24.1039 90.8963C24.1359 88.4803 22.1879 86.4683 19.7599 86.4163ZM20.2359 91.4563C20.0679 91.6363 19.8479 91.7403 19.6319 91.7443C19.1999 91.7363 18.8199 91.3963 18.7839 90.9483C18.7639 90.6963 18.8319 90.4643 18.9799 90.2963C19.1239 90.1323 19.3239 90.0403 19.5639 90.0283C19.5799 90.0283 19.5959 90.0283 19.6119 90.0283C19.8359 90.0283 20.0439 90.1083 20.2079 90.2603C20.3759 90.4123 20.4719 90.6203 20.4839 90.8443C20.4959 91.0563 20.4039 91.2803 20.2359 91.4563Z" fill="#DA1C5C"/>
<path d="M32.18 82.7879C32.18 82.7879 32.184 82.7879 32.18 82.7879C33.38 82.7879 34.5 82.3239 35.336 81.4799C36.176 80.6359 36.636 79.5119 36.636 78.3079C36.636 75.8039 34.68 73.8399 32.18 73.8359H32.176C30.988 73.8359 29.864 74.3039 29.012 75.1519C28.156 76.0039 27.684 77.1199 27.684 78.3039C27.688 80.7319 29.744 82.7839 32.18 82.7879ZM32.128 77.4479C32.148 77.4479 32.168 77.4479 32.192 77.4479C32.404 77.4479 32.6 77.5199 32.748 77.6559C32.916 77.8079 33.012 78.0279 33.02 78.2759C33.028 78.5239 32.944 78.7559 32.784 78.9239C32.632 79.0839 32.42 79.1759 32.192 79.1759C31.976 79.1759 31.752 79.0799 31.58 78.9079C31.408 78.7359 31.312 78.5119 31.316 78.2959C31.316 77.8719 31.7 77.4759 32.128 77.4479Z" fill="#DA1C5C"/>
<path d="M26.444 82.2965C25.664 81.5925 24.692 81.5965 23.968 82.2965C23.228 83.0165 23.22 84.0445 23.952 84.8565C24.536 85.5045 25.084 86.0485 25.628 86.5205C25.872 86.7325 26.172 86.8685 26.392 86.9645C26.464 86.9965 26.528 87.0245 26.58 87.0525L26.628 87.0765H26.684C27.612 87.0365 28.192 86.7045 28.516 86.0245C28.84 85.3405 28.748 84.6645 28.256 84.1205C27.628 83.4285 27.036 82.8325 26.444 82.2965Z" fill="#DA1C5C"/>
<path d="M65.456 26.7763C64.584 26.7483 63.696 26.7563 62.84 26.7603C62.464 26.7643 62.08 26.7683 61.712 26.7643C61.336 26.7643 60.964 26.7603 60.588 26.7603C59.728 26.7523 58.84 26.7483 57.968 26.7763C56.956 26.8083 56.2839 27.4283 56.2159 28.3923C56.1479 29.4003 56.7439 30.1323 57.78 30.3123C58.064 30.3603 58.356 30.3603 58.664 30.3643C59.688 30.3643 60.708 30.3683 61.732 30.3683C62.74 30.3683 63.748 30.3683 64.752 30.3643C65.108 30.3643 65.488 30.3483 65.856 30.2603C66.752 30.0443 67.268 29.3323 67.204 28.3963C67.14 27.4283 66.468 26.8083 65.456 26.7763Z" fill="#DA1C5C"/>
</svg>
