<svg width="120" height="120" viewBox="0 0 120 120" fill="none" xmlns="http://www.w3.org/2000/svg">
<path d="M104.24 46.8437C109.08 46.6717 112.944 43.0037 113.236 38.3157C113.524 33.6477 110.136 29.5317 105.356 28.7437C104.948 28.6757 104.516 28.5237 104.14 28.3157C96.424 24.0437 88.712 19.7677 81 15.4917C75.732 12.5717 70.464 9.64769 65.196 6.73169C62.176 5.05569 59.116 5.05169 56.108 6.71969C51.016 9.53969 45.924 12.3597 40.836 15.1837C32.908 19.5717 24.988 23.9637 17.06 28.3477C16.724 28.5357 16.296 28.6757 15.832 28.7517C11.484 29.4837 8.2 33.0477 8.02 37.2237C7.828 41.6637 10.656 45.4957 14.9 46.5477C15.564 46.7117 16.248 46.7837 16.848 46.8477C16.892 46.8517 16.932 46.8557 16.976 46.8597C17.012 47.2237 17.044 47.5917 17.076 47.9477C17.188 49.2557 17.308 50.6117 17.656 51.9117C18.132 53.6717 19.432 54.9797 21.62 55.8957V75.1037C21.62 75.1877 21.62 75.2757 21.616 75.3597C21.612 75.6397 21.604 75.9557 21.652 76.2757C21.828 77.5077 22.668 78.2837 23.9 78.3517C25.064 78.4197 25.972 77.7437 26.292 76.6037C26.412 76.1677 26.412 75.7317 26.412 75.3437V75.2317C26.416 70.2357 26.416 65.2397 26.416 60.2437V56.3597H30.22V84.8397H26.416C26.416 84.6877 26.416 84.5397 26.416 84.3917C26.416 84.2717 26.416 84.1517 26.42 84.0317C26.424 83.7117 26.432 83.3797 26.392 83.0317C26.244 81.7037 25.236 80.7797 23.948 80.8277C22.656 80.8597 21.708 81.8197 21.636 83.1597C21.596 83.9157 21.596 84.5717 21.636 85.1677C21.644 85.2957 21.632 85.3477 21.636 85.3517C21.628 85.3637 21.576 85.4077 21.408 85.4797C18.636 86.6957 17.156 88.9317 17.128 91.9437C17.12 92.7277 17.124 93.5117 17.124 94.2957V94.7997C14.776 95.7357 13.276 97.2717 12.66 99.3757C12.36 100.404 12.324 101.472 12.292 102.504L12.276 102.924C12.264 103.26 12.264 103.26 11.988 103.376C9.044 104.616 7.452 106.984 7.384 110.224C7.376 110.6 7.384 110.976 7.388 111.352C7.396 111.908 7.404 112.432 7.368 112.952C7.28 114.288 7.768 115.292 8.82 115.936L9.012 116.052H110.984L111.176 115.932C112.248 115.272 112.744 114.24 112.644 112.86C112.608 112.344 112.616 111.824 112.624 111.272C112.632 110.828 112.636 110.372 112.62 109.912C112.504 106.988 111.132 104.84 108.648 103.688C107.816 103.304 107.704 103.012 107.74 102.152C107.876 98.7517 106.256 96.2197 103.044 94.8397C103.004 94.7957 102.948 94.6997 102.94 94.6637C102.904 94.1437 102.908 93.6197 102.908 93.0677C102.908 92.5157 102.912 91.9437 102.872 91.3677C102.692 88.6677 101.32 86.6837 98.912 85.6237C98.436 85.4157 98.384 85.3277 98.388 84.6877C98.404 77.2317 98.404 69.7797 98.4 62.3237V55.8717C101.628 54.4917 103.148 51.8877 102.92 48.1197C102.896 47.7077 102.9 47.2837 102.908 46.8317C103.392 46.8557 103.808 46.8597 104.24 46.8437ZM34.6 24.1117C42.292 19.8517 50.244 15.4437 58.06 11.0917C59.84 10.0997 61.4 10.0797 63.108 11.0357C71.032 15.4517 79.1 19.9197 86.904 24.2437C89.552 25.7117 92.2 27.1757 94.848 28.6437H26.42C29.148 27.1317 31.872 25.6237 34.6 24.1117ZM24.076 51.4917C22.764 51.4757 21.96 50.6677 21.92 49.3197C21.9 48.6117 21.904 47.9037 21.908 47.1557C21.908 47.0757 21.908 46.9957 21.908 46.9157H34.808C34.808 47.0277 34.812 47.1357 34.812 47.2477C34.824 48.0237 34.832 48.7557 34.792 49.4717C34.716 50.6837 33.88 51.4757 32.66 51.4917C29.852 51.5197 26.964 51.5237 24.076 51.4917ZM22.016 91.2357C22.108 90.4197 22.984 89.7677 24.012 89.7517C27.232 89.6917 30.072 89.6957 32.696 89.7557C33.888 89.7837 34.692 90.5477 34.792 91.7477C34.832 92.2477 34.828 92.7557 34.82 93.2957C34.816 93.5397 34.816 93.7797 34.816 94.0237C34.816 94.1437 34.816 94.2597 34.816 94.3837H21.98C21.976 94.2237 21.972 94.0637 21.968 93.9037C21.944 92.9677 21.92 92.0917 22.016 91.2357ZM104.692 107.632C105.796 107.632 107.668 107.928 107.824 109.896C107.856 110.324 107.848 110.776 107.84 111.252H12.212C12.212 111.24 12.212 111.228 12.212 111.212C12.192 110.652 12.172 110.124 12.244 109.64C12.4 108.616 13.188 107.868 14.3 107.688C14.628 107.636 14.976 107.632 15.34 107.632C45.124 107.632 74.908 107.632 104.692 107.632ZM99.9 99.2237C100.956 99.2237 102.756 99.4997 102.94 101.34C102.984 101.788 102.972 102.244 102.96 102.776C102.96 102.784 102.96 102.788 102.96 102.796H17.096C17.096 102.776 17.096 102.752 17.092 102.732C17.068 102.152 17.044 101.604 17.128 101.104C17.304 100.072 18.24 99.3037 19.404 99.2357C19.616 99.2237 19.828 99.2237 20.036 99.2237H30.076C53.352 99.2197 76.628 99.2197 99.9 99.2237ZM39.608 47.0717V46.9197H49.36V47.0357C49.36 47.6837 49.36 48.3277 49.36 48.9717C49.372 52.2077 50.832 54.5117 53.704 55.8197C53.768 55.8877 53.856 56.0677 53.864 56.1437C53.896 58.5677 53.896 61.0357 53.892 63.4197C53.892 64.3237 53.892 65.2277 53.892 66.1317V66.2357C53.892 66.6197 53.892 67.0197 53.964 67.4317C54.176 68.6557 55.084 69.3917 56.332 69.3917C57.516 69.3757 58.38 68.6397 58.596 67.4717C58.68 67.0237 58.68 66.5957 58.68 66.1637C58.684 63.7917 58.684 61.4197 58.684 59.0477V56.3717H62.492V84.8477H58.696C58.692 84.7357 58.688 84.6237 58.688 84.5157C58.684 82.7317 58.684 80.9517 58.684 79.1677V75.1557V74.9877C58.684 74.6637 58.688 74.3317 58.636 73.9797C58.444 72.6597 57.54 71.8837 56.268 71.8917C54.948 71.9037 54.056 72.7317 53.94 74.0517C53.888 74.6597 53.892 75.2637 53.896 75.8437C53.896 76.0117 53.9 76.1837 53.9 76.3517L53.896 77.8997C53.892 80.2517 53.888 82.6837 53.908 85.0797C53.912 85.3997 53.912 85.3997 53.632 85.5237C50.924 86.6997 49.452 88.9437 49.372 92.0077C49.352 92.7157 49.356 93.4117 49.364 94.1517C49.364 94.2317 49.364 94.3077 49.364 94.3877H39.608V94.2517C39.608 93.5597 39.608 92.8797 39.608 92.1997C39.592 89.0317 38.128 86.7557 35.284 85.4397C35.232 85.4037 35.148 85.2837 35.128 85.2117C35.096 75.4917 35.096 65.6757 35.128 56.0317C35.152 55.9637 35.24 55.8437 35.272 55.8197C38.132 54.5077 39.592 52.2277 39.608 49.0397C39.612 48.3917 39.612 47.7397 39.608 47.0717ZM66.968 49.8837C66.884 50.7757 66.084 51.4597 65.116 51.4717C62.156 51.5157 59.132 51.5157 56.116 51.4717C55.18 51.4597 54.396 50.8077 54.296 49.9557C54.2 49.1277 54.22 48.2717 54.248 47.3677C54.252 47.2157 54.256 47.0677 54.26 46.9157H67C67.004 47.0597 67.004 47.2037 67.008 47.3477C67.028 48.2317 67.048 49.0677 66.968 49.8837ZM67.048 91.8677C67.088 92.5877 67.08 93.3117 67.068 94.0797C67.068 94.1717 67.064 94.2677 67.064 94.3597H54.124C54.132 94.1917 54.136 94.0237 54.14 93.8557C54.172 92.8437 54.2 91.8877 54.404 90.9837C54.652 89.8837 55.828 89.7477 56.32 89.7397C58.668 89.7077 61.768 89.6757 64.896 89.7437C66.192 89.7717 66.972 90.5477 67.048 91.8677ZM71.876 47.1677C71.876 47.0917 71.876 47.0157 71.876 46.9357H80.416V46.9997C80.416 47.6237 80.416 48.2437 80.416 48.8677C80.396 52.1717 81.868 54.5117 84.788 55.8197C84.84 55.8717 84.912 55.9997 84.924 56.0637C84.972 56.3637 84.96 56.6997 84.952 57.0557C84.944 57.2957 84.94 57.5357 84.948 57.7717C85.004 59.3757 85.932 60.4157 87.32 60.4317C87.328 60.4317 87.336 60.4317 87.344 60.4317C88.724 60.4317 89.676 59.3757 89.724 57.7997C89.74 57.3117 89.736 56.8197 89.732 56.3437H93.532V84.8757H89.744C89.736 84.7357 89.732 84.5917 89.732 84.4517C89.732 81.0237 89.728 77.5957 89.728 74.1677V66.2597V66.1077C89.728 65.7477 89.732 65.3757 89.68 64.9877C89.512 63.7357 88.664 62.9677 87.416 62.9277C86.096 62.8757 85.204 63.6517 84.996 64.9677C84.936 65.3557 84.936 65.7277 84.94 66.0837V66.2557V69.8037C84.936 74.7077 84.932 79.7797 84.956 84.7717C84.96 85.3397 84.904 85.4357 84.464 85.6317C81.92 86.7797 80.524 88.9517 80.424 91.9117C80.4 92.6477 80.404 93.3677 80.412 94.1277C80.412 94.2077 80.412 94.2877 80.412 94.3677H71.872V94.2957C71.868 93.6757 71.868 93.0597 71.876 92.4437C71.92 89.0517 70.368 86.6237 67.388 85.4197C67.364 85.4117 67.348 85.4037 67.332 85.3957C67.328 85.3397 67.332 85.2517 67.336 85.1877C67.34 85.1117 67.34 85.0357 67.34 84.9597C67.336 78.7197 67.336 72.4797 67.336 66.2397V62.2997C67.336 61.7317 67.336 61.1637 67.34 60.5957C67.344 59.1277 67.348 57.6117 67.324 56.1157C67.32 55.9477 67.34 55.8957 67.34 55.8957C67.344 55.8917 67.388 55.8477 67.56 55.7717C70.3 54.5837 71.788 52.3517 71.864 49.3197C71.884 48.6037 71.88 47.9077 71.876 47.1677ZM98.092 49.4797C98.024 50.6957 97.252 51.4637 96.084 51.4797C93.348 51.5197 90.472 51.5197 87.292 51.4837C86.212 51.4717 85.412 50.7837 85.296 49.7717C85.208 48.9917 85.228 48.1797 85.252 47.3237C85.256 47.1877 85.26 47.0517 85.264 46.9157H98.108C98.108 47.0277 98.112 47.1397 98.112 47.2517C98.124 48.0277 98.136 48.7637 98.092 49.4797ZM98.124 94.0917C98.124 94.1877 98.124 94.2837 98.12 94.3797H85.3C85.296 94.2277 85.292 94.0757 85.288 93.9237C85.26 93.0237 85.236 92.1717 85.34 91.3517C85.46 90.3997 86.248 89.7717 87.348 89.7517C90.556 89.6877 93.396 89.6917 96.024 89.7557C97.292 89.7877 98.052 90.5797 98.108 91.9317C98.14 92.6277 98.132 93.3397 98.124 94.0917ZM49.512 42.0597C38.884 42.0597 28.252 42.0597 17.62 42.0597C15.168 42.0597 13.504 40.9117 12.944 38.8277C12.62 37.6277 12.856 36.3397 13.592 35.2997C14.328 34.2557 15.464 33.6037 16.704 33.5077C16.932 33.4917 17.172 33.4917 17.428 33.4917H17.6C46.292 33.4917 74.988 33.4917 103.68 33.4917C105.992 33.4917 107.66 34.5797 108.252 36.4797C108.64 37.7277 108.46 39.0477 107.752 40.1077C107.008 41.2157 105.78 41.9237 104.372 42.0477C104.108 42.0717 103.832 42.0677 103.54 42.0677H103.272L49.512 42.0597Z" fill="#333333"/>
<path d="M60.652 13.7754C60.644 13.7754 60.64 13.7754 60.632 13.7754C57.152 13.7754 54.304 16.5914 54.28 20.0634C54.268 21.7394 54.92 23.3314 56.12 24.5474C57.32 25.7634 58.908 26.4394 60.588 26.4474C60.6 26.4474 60.612 26.4474 60.624 26.4474C62.296 26.4474 63.876 25.7954 65.068 24.6074C66.268 23.4114 66.936 21.8194 66.944 20.1274C66.952 18.4194 66.304 16.8234 65.12 15.6274C63.94 14.4394 62.352 13.7834 60.652 13.7754ZM60.624 21.6554C60.236 21.6554 59.84 21.4834 59.548 21.1834C59.248 20.8794 59.08 20.4794 59.084 20.0794C59.088 19.6714 59.248 19.2914 59.536 19.0114C59.824 18.7314 60.212 18.5754 60.632 18.5754C60.644 18.5754 60.652 18.5754 60.664 18.5754C61.084 18.5834 61.464 18.7474 61.736 19.0314C62.012 19.3234 62.16 19.7194 62.144 20.1514C62.116 20.9794 61.436 21.6554 60.624 21.6554Z" fill="#333333"/>
</svg>
