<svg width="120" height="120" viewBox="0 0 120 120" fill="none" xmlns="http://www.w3.org/2000/svg">
<path d="M52.3207 96.0957C52.3207 94.7917 51.2647 93.7357 49.9607 93.7357C46.9127 93.7357 30.7767 93.7597 29.2207 93.7277C28.1167 93.7037 27.2167 94.0437 26.4447 94.8557C25.2367 96.1237 23.9727 97.3397 22.7407 98.5797C22.5127 98.8077 22.2887 99.0477 22.1047 99.3117C21.4207 100.3 21.5167 101.416 22.3327 102.24C23.1767 103.092 24.3247 103.176 25.3327 102.44C25.8047 102.096 26.1887 101.628 26.6167 101.268C27.2927 100.692 27.9247 100.064 28.4807 99.3717C29.0607 98.6477 29.6847 98.4397 30.5447 98.4397C37.8687 98.4477 42.6367 98.4517 49.9607 98.4557C51.2607 98.4597 52.3207 97.3997 52.3207 96.0957Z" fill="#F9A703"/>
<path d="M97.6807 98.6156C96.4247 97.3476 95.1447 96.1037 93.9087 94.8197C93.1607 94.0437 92.2807 93.6997 91.2127 93.7277C90.2407 93.7517 83.2487 93.7437 80.6367 93.7397C80.0047 93.7397 79.4047 93.9916 78.9607 94.4436C77.5087 95.9277 78.5607 98.4277 80.6367 98.4237C84.0687 98.4197 87.9727 98.4196 88.8287 98.4156C90.3807 98.4116 91.5487 98.7317 92.5327 99.9557C93.2407 100.836 94.0967 101.604 94.9407 102.356C95.8447 103.164 97.0927 103.12 97.9487 102.336C98.8367 101.524 98.9807 100.372 98.3007 99.3557C98.1207 99.0957 97.9087 98.8476 97.6807 98.6156Z" fill="#F9A703"/>
<path d="M21.1047 30.3719C22.0607 30.5039 23.0287 30.5199 24.0327 30.5919C24.9647 30.5199 25.9447 30.5279 26.8887 30.3519C27.9727 30.1519 28.5287 29.3079 28.5207 28.1479C28.5127 26.9959 27.9407 26.2279 26.8527 25.9599C26.4807 25.8679 26.0887 25.8199 25.7047 25.8119C24.5407 25.7919 23.3767 25.7919 22.2127 25.8119C21.8287 25.8199 21.4407 25.8719 21.0647 25.9599C20.0407 26.1999 19.3207 27.0679 19.3607 28.1359C19.4047 29.2199 19.8967 30.2039 21.1047 30.3719Z" fill="#F9A703"/>
<path d="M26.3647 39.4998C27.6927 39.4598 28.5167 38.5438 28.5207 37.2398C28.5287 35.8918 27.6807 34.9918 26.3007 34.9318C25.5567 34.8998 24.8087 34.9278 24.0647 34.9278C24.0647 34.9238 24.0647 34.9238 24.0647 34.9198C23.3207 34.9198 22.5727 34.9198 21.8287 34.9198C21.7327 34.9198 21.6327 34.9278 21.5367 34.9318C20.2367 35.0238 19.3647 35.9318 19.3567 37.2078C19.3447 38.4838 20.2087 39.4558 21.5047 39.4998C23.1247 39.5518 24.7447 39.5518 26.3647 39.4998Z" fill="#F9A703"/>
<path d="M93.6087 30.3719C94.5647 30.5039 95.5328 30.5199 96.5368 30.5919C97.4688 30.5199 98.4488 30.5279 99.3928 30.3519C100.477 30.1519 101.033 29.3079 101.025 28.1479C101.021 26.9959 100.445 26.2279 99.3568 25.9599C98.9847 25.8679 98.5928 25.8199 98.2088 25.8119C97.0448 25.7919 95.8808 25.7919 94.7168 25.8119C94.3328 25.8199 93.9447 25.8719 93.5687 25.9599C92.5447 26.1999 91.8247 27.0679 91.8647 28.1359C91.9087 29.2199 92.4007 30.2039 93.6087 30.3719Z" fill="#F9A703"/>
<path d="M94.0087 39.4997C95.6287 39.5517 97.2527 39.5517 98.8687 39.5037C100.197 39.4637 101.021 38.5477 101.025 37.2437C101.033 35.8957 100.185 34.9957 98.8047 34.9357C98.0607 34.9037 97.3127 34.9318 96.5687 34.9318C96.5687 34.9278 96.5687 34.9277 96.5687 34.9237C95.8247 34.9237 95.0767 34.9237 94.3327 34.9237C94.2367 34.9237 94.1367 34.9317 94.0407 34.9357C92.7407 35.0277 91.8687 35.9357 91.8607 37.2117C91.8487 38.4837 92.7087 39.4557 94.0087 39.4997Z" fill="#F9A703"/>
<path d="M100.445 44.7359C99.2527 43.9279 97.3447 44.2719 95.7007 45.5879L59.5887 74.4158C53.8927 70.2078 48.5527 66.2639 46.7447 64.9118C46.0727 64.4079 46.0727 64.3839 46.7447 63.8999C49.2167 62.1199 51.6967 60.3479 54.1647 58.5598C54.5567 58.2758 54.9487 57.9679 55.2487 57.5959C55.8327 56.8839 55.9367 56.0839 55.5047 55.2399C54.7207 53.7119 53.3967 53.3799 51.9567 54.4039C49.7887 55.9439 47.6447 57.5159 45.4927 59.0718C45.0727 59.3759 44.6527 59.6759 44.2327 59.9759C44.1447 59.9199 44.1367 59.9159 44.0487 59.8639C44.9127 54.8319 45.7727 49.7999 46.6527 44.6639C46.9287 44.8319 47.1647 44.9559 47.3847 45.1119C51.5407 48.0679 62.9087 56.7479 69.8407 61.7199C70.6767 62.3199 71.8087 62.2999 72.6247 61.6718L72.6767 61.6319C73.9127 60.6839 73.8847 58.8119 72.6247 57.8959C70.3127 56.2119 65.6967 52.3559 64.7087 51.6479C64.5567 51.5359 64.4087 51.4159 64.1927 51.2479C67.3727 48.9559 70.4927 46.7079 73.7207 44.3799C73.8087 44.8759 74.9247 51.2119 75.5327 53.7119C75.9327 55.3559 77.8847 56.0599 79.2447 55.0519C79.2647 55.0399 79.2807 55.0239 79.3007 55.0119C80.0727 54.4399 80.4207 53.4559 80.1847 52.5239C79.2887 49.0039 77.7887 41.2559 77.5727 40.0279C76.8127 35.6919 76.0567 31.3559 75.3007 27.0239C75.0287 25.4639 74.7407 23.9039 74.4767 22.3399C74.3367 21.5119 74.4087 21.4359 75.2167 21.4199C75.4127 21.4159 75.6047 21.4199 75.8007 21.4199C83.1327 21.4199 90.4607 21.4199 97.7927 21.4199C98.1807 21.4199 98.5727 21.4279 98.9607 21.3959C100.045 21.3039 100.785 20.6239 101.033 19.5199C101.249 18.5559 100.849 17.7079 99.9087 17.1639C99.6847 17.0359 99.4527 16.9199 99.2167 16.8119C93.7447 14.2839 88.2727 11.7639 82.8007 9.23186C78.5087 7.24786 74.2247 5.24786 69.9327 3.25586H50.4687C46.1807 5.24786 41.8927 7.24386 37.6007 9.23186C32.1607 11.7479 26.7127 14.2479 21.2807 16.7839C20.7407 17.0359 20.2007 17.4159 19.8327 17.8759C18.5527 19.4719 19.9367 21.3359 21.4087 21.3999C21.7967 21.4159 22.1887 21.4239 22.5767 21.4239C29.9727 21.4239 37.3687 21.4239 44.7607 21.4239C45.0207 21.4239 45.2807 21.4319 45.5407 21.4279C45.8887 21.4239 45.9967 21.6159 45.9607 21.9279C45.9407 22.1199 45.9167 22.3159 45.8847 22.5039C45.5967 24.0959 45.2927 25.6839 45.0127 27.2799C44.0087 32.9839 43.0207 38.6919 42.0127 44.3959C40.9447 50.4199 39.8567 56.4359 38.7847 62.4559C37.7527 68.2559 36.7247 74.0518 35.7047 79.8519C35.5207 80.9039 35.2927 81.9598 35.2447 83.0199C35.1647 84.7758 36.7327 85.9239 38.3687 85.3878C39.3487 85.0678 39.7927 84.2918 39.9567 83.3478C40.6367 79.3918 41.2887 75.4319 41.9527 71.4759C42.1567 70.2598 42.3727 69.0438 42.6047 67.7159C44.4247 69.0598 46.1207 70.3078 47.8127 71.5598C50.4767 73.5238 53.1407 75.4838 55.8007 77.4478L46.3647 84.9838C45.4287 85.7318 44.8687 86.7158 44.8767 87.6158C44.8847 88.6478 45.6367 89.3438 46.7487 89.3438H61.5847L41.6367 114.516C40.8687 115.484 40.5207 116.504 40.6527 117.384C40.7447 117.98 41.0487 118.476 41.5407 118.808C41.9527 119.092 42.4767 119.24 43.0607 119.24C44.0967 119.24 45.2767 118.772 46.2927 117.956L95.6407 78.5558C96.5767 77.8078 97.1327 76.8279 97.1287 75.9279V75.9239C97.1207 74.8918 96.3647 74.1999 95.2567 74.1999H80.4207L100.369 49.0279C101.137 48.0599 101.485 47.0399 101.349 46.1599C101.245 45.5679 100.937 45.0719 100.445 44.7359ZM71.9727 39.8959C68.7127 42.1919 65.4767 44.5159 62.2327 46.8319C61.6247 47.2639 61.0127 47.6879 60.4167 48.1359C60.1167 48.3599 59.8647 48.3879 59.5447 48.1559C56.5327 45.9639 53.5127 43.7839 50.4967 41.5959C50.4727 41.5799 50.4687 41.5359 50.4367 41.4599C51.8167 40.3559 53.1967 39.2359 54.5967 38.1359C55.2567 37.6159 55.5767 36.9679 55.5807 36.1279C55.5847 35.1519 55.0487 34.5439 54.2487 34.1559C53.4807 33.7839 52.6727 33.7639 51.9527 34.3159C50.7967 35.2039 49.6607 36.1159 48.5087 37.0159C48.3127 37.1679 48.1007 37.2999 47.7967 37.5119C47.7967 37.1399 47.7607 36.8839 47.8007 36.6439C48.4367 33.0759 49.0767 29.5119 49.7247 25.9479C49.8167 25.4399 49.8647 25.4159 50.3247 25.7919C52.0847 27.2239 53.8327 28.6719 55.5847 30.1119C59.1367 33.0359 62.6887 35.9599 66.2447 38.8839C67.1327 39.6159 68.2807 39.7399 69.1087 39.2199C69.9407 38.6999 70.3567 37.5679 70.1647 36.4839C70.0527 35.8479 69.6407 35.4599 69.1847 35.0919C67.6487 33.8479 66.1087 32.6079 64.5687 31.3679C63.7047 30.6719 63.7007 30.6719 64.5407 29.9719C66.1847 28.5999 67.8287 27.2319 69.4767 25.8719C70.0087 25.4319 70.1167 25.4679 70.2407 26.1639C70.8407 29.5719 71.4287 32.9839 72.0207 36.3919C72.1607 37.1879 72.2607 37.9919 72.4367 38.7799C72.5607 39.2999 72.4087 39.5879 71.9727 39.8959ZM32.9527 16.7919C32.9007 16.7919 32.8527 16.7479 32.7127 16.6839C32.9247 16.5719 33.0767 16.4759 33.2407 16.3999C39.1567 13.6839 45.0687 10.9599 50.9967 8.26386C51.4807 8.04386 52.0487 7.91986 52.5807 7.91586C57.8007 7.89186 63.0207 7.89186 68.2407 7.91186C68.7447 7.91586 69.2887 7.99586 69.7407 8.20386C75.7247 10.9279 81.6967 13.6839 87.6687 16.4319C87.8367 16.5079 87.9927 16.6079 88.3287 16.7919H81.2567C79.0847 16.7919 76.9127 16.7959 74.7407 16.7919C73.8647 16.7879 73.8407 16.7639 73.6967 15.8919C73.6127 15.3799 73.5567 14.8639 73.4567 14.3559C73.1927 13.0159 72.0287 12.0359 70.8647 12.1999C69.3087 12.4199 68.5927 13.7919 68.7247 14.8799C68.7687 15.2319 68.8007 15.5879 68.8527 15.9399C68.9687 16.7359 68.9447 16.7839 68.1527 16.7879C65.7207 16.7959 63.2887 16.7879 60.8567 16.7919C59.7887 16.7919 58.7167 16.7719 57.6487 16.8319C56.4927 16.8959 55.7567 17.6799 55.6607 18.8279C55.5527 20.0759 56.1287 21.0239 57.2127 21.3039C57.6127 21.4079 58.0487 21.4079 58.4687 21.4079C61.2567 21.4159 64.0447 21.4119 66.8327 21.4119H67.5607C67.3407 21.6519 67.2367 21.7999 67.1007 21.9119C64.9767 23.6679 62.8407 25.4079 60.7287 27.1759C60.3247 27.5159 60.0647 27.5119 59.6647 27.1719C56.9607 24.8999 54.2407 22.6399 51.5007 20.4079C51.0247 20.0199 51.0447 19.5959 51.1287 19.1119C51.3527 17.8359 51.5847 16.5639 51.8167 15.2919C51.9687 14.4599 51.9407 13.6599 51.3087 13.0199C50.7167 12.4199 50.0247 11.9959 49.1367 12.2799C48.1127 12.6039 47.3647 13.2279 47.1567 14.3399C47.0487 14.9119 46.9807 15.4919 46.9007 16.0679C46.8327 16.5439 46.6447 16.7999 46.0887 16.7999C41.7047 16.7879 37.3287 16.7959 32.9527 16.7919ZM73.2687 75.8878C72.6567 76.6638 72.4047 77.5118 72.5847 78.2198C72.7847 79.0079 73.4807 79.4958 74.4007 79.4958H87.3887L54.1447 106.04L68.7127 87.6558C69.3287 86.8798 69.5767 86.0278 69.3967 85.3238C69.1967 84.5359 68.5007 84.0478 67.5807 84.0478H54.5927L87.8327 57.5079L73.2687 75.8878Z" fill="#F99D1C"/>
</svg>
