<svg width="385" height="296" viewBox="0 0 385 296" fill="none" xmlns="http://www.w3.org/2000/svg">
<rect width="385" height="296" fill="white"/>
<path opacity="0.3" d="M133.489 35.3601C82.658 47.3129 42.496 85.0821 30.7465 133.631C21.9869 169.766 29.6795 207.035 88.6382 220.608C216.079 249.944 353.768 240.205 370.312 181.614C386.856 123.023 356.152 22.5244 283.257 16.3042C241.752 12.7329 179.447 24.5934 133.489 35.3601Z" fill="#006CB5"/>
<path opacity="0.45" d="M198.766 289.802C297.754 289.802 378 280.326 378 268.637C378 256.949 297.754 247.473 198.766 247.473C99.778 247.473 19.5322 256.949 19.5322 268.637C19.5322 280.326 99.778 289.802 198.766 289.802Z" fill="#ECECEC"/>
<path d="M340.399 165.208L333.158 163.176L305.368 262.286L312.61 264.319L340.399 165.208Z" fill="#E6E6E6"/>
<path d="M344.561 169.08C343.991 169.078 343.423 168.998 342.875 168.842L330.704 165.482C329.912 165.26 329.172 164.884 328.526 164.375C327.879 163.867 327.34 163.236 326.937 162.519C326.535 161.802 326.277 161.012 326.18 160.196C326.083 159.379 326.147 158.551 326.37 157.759L328.82 149.022C329.269 147.422 330.333 146.066 331.78 145.25C333.228 144.435 334.939 144.227 336.539 144.673L348.684 148.086C350.283 148.538 351.638 149.606 352.451 151.057C353.264 152.507 353.467 154.221 353.017 155.822L350.567 164.559C350.187 165.86 349.396 167.002 348.314 167.817C347.232 168.632 345.915 169.074 344.561 169.08ZM343.928 165.126C344.227 165.21 344.539 165.235 344.847 165.198C345.155 165.162 345.452 165.065 345.723 164.913C345.993 164.761 346.231 164.558 346.423 164.314C346.614 164.07 346.756 163.791 346.84 163.492L349.29 154.755C349.376 154.455 349.402 154.142 349.366 153.832C349.331 153.523 349.234 153.223 349.082 152.951C348.93 152.679 348.726 152.44 348.481 152.247C348.237 152.055 347.956 151.913 347.656 151.829L335.511 148.429C335.213 148.345 334.901 148.32 334.593 148.357C334.285 148.393 333.988 148.49 333.717 148.642C333.447 148.794 333.209 148.997 333.017 149.241C332.826 149.485 332.684 149.764 332.6 150.063L330.15 158.8C330.066 159.099 330.042 159.411 330.078 159.719C330.115 160.027 330.212 160.325 330.363 160.596C330.515 160.866 330.719 161.104 330.962 161.296C331.206 161.487 331.485 161.629 331.784 161.713L343.928 165.126Z" fill="#C9C9C9"/>
<path d="M326.864 269.735L332.91 248.175L296.884 238.107L290.562 260.642C289.718 263.622 289.632 266.766 290.311 269.787L326.864 269.735Z" fill="#C9C9C9"/>
<path d="M158.482 96.4407H140.067V271.608H158.482V96.4407Z" fill="#009FDA"/>
<path d="M257.953 96.4407H239.538V271.608H257.953V96.4407Z" fill="#009FDA"/>
<path opacity="0.08" d="M158.482 96.4407H140.067V271.608H158.482V96.4407Z" fill="#006CB5"/>
<path opacity="0.08" d="M257.953 96.4407H239.538V271.608H257.953V96.4407Z" fill="#006CB5"/>
<path d="M279.442 118.686H117.833V175.722H279.442V118.686Z" fill="#158BD1"/>
<path d="M126.024 118.686L145.335 175.722H172.048L150.103 118.686H126.024Z" fill="#006CB5"/>
<path d="M175.175 118.686L194.485 175.722H221.198L199.24 118.686H175.175Z" fill="#006CB5"/>
<path d="M225.495 118.686L244.806 175.722H271.519L249.561 118.686H225.495Z" fill="#006CB5"/>
<path d="M279.442 197.129H117.833V223.868H279.442V197.129Z" fill="#006CB5"/>
<path d="M74.5337 261.174L90.6828 186.822C90.8521 186.091 91.2639 185.438 91.8511 184.971C92.4384 184.504 93.1664 184.25 93.9166 184.25C94.6667 184.25 95.3947 184.504 95.982 184.971C96.5692 185.438 96.9811 186.091 97.1503 186.822L114.775 262.413L74.5337 261.174Z" fill="#158BD1"/>
<path d="M114.691 253.327H75.6749C72.4594 253.327 69.8528 255.935 69.8528 259.152V259.956C69.8528 263.173 72.4594 265.781 75.6749 265.781H114.691C117.906 265.781 120.513 263.173 120.513 259.956V259.152C120.513 255.935 117.906 253.327 114.691 253.327Z" fill="#009FDA"/>
<path opacity="0.46" d="M114.691 253.327H75.6749C72.4594 253.327 69.8528 255.935 69.8528 259.152V259.956C69.8528 263.173 72.4594 265.781 75.6749 265.781H114.691C117.906 265.781 120.513 263.173 120.513 259.956V259.152C120.513 255.935 117.906 253.327 114.691 253.327Z" fill="white"/>
<path opacity="0.08" d="M85.2323 213.427L102.527 206.495L107.572 228.134L80.3849 235.659L85.2323 213.427Z" fill="black"/>
<path d="M78.3706 267.361C78.3706 267.361 85.7338 256.818 74.7482 253.84C63.7626 250.861 77.3827 236.642 67.161 234.758C56.9394 232.873 58.6386 247.936 58.6386 247.936C58.6386 247.936 51.631 241.874 46.7046 247.013C41.7782 252.153 48.6541 257.688 48.6541 257.688C48.6541 257.688 38.8145 261.088 44.9527 267.308L78.3706 267.361Z" fill="#E6E6E6"/>
<path d="M62.8313 268.631C62.8313 268.631 67.5074 260.619 74.4097 261.607C81.3119 262.595 80.5611 268.631 80.5611 268.631H62.8313Z" fill="#C9C9C9"/>
<path d="M234.698 117.117L290.021 145.121C290.458 145.338 290.949 145.418 291.432 145.352C291.915 145.285 292.367 145.074 292.728 144.747C293.089 144.42 293.343 143.991 293.457 143.517C293.571 143.043 293.54 142.546 293.367 142.09L292.195 139.098C290.872 135.709 290.872 131.945 292.195 128.556C295.738 119.331 300.981 99.5631 286.267 88.5064C267.431 74.3133 238.321 75.6839 231.471 110.527C231.201 111.828 231.372 113.182 231.956 114.375C232.541 115.568 233.505 116.533 234.698 117.117Z" fill="#FFD200"/>
<path opacity="0.08" d="M236.027 118.686L279.482 160.646V140.667L236.027 118.686Z" fill="black"/>
<path opacity="0.31" d="M242.704 96.7258C246.063 92.0211 252.847 85.0234 263.543 84.7335C263.963 84.7222 264.375 84.8509 264.714 85.0994C265.054 85.3479 265.301 85.7021 265.417 86.1064C265.533 86.5107 265.511 86.9422 265.356 87.3329C265.2 87.7237 264.919 88.0517 264.557 88.2653C258.65 91.6199 253.515 96.1821 249.488 101.655C248.913 102.469 248.065 103.05 247.098 103.292C246.131 103.533 245.11 103.42 244.219 102.972C243.668 102.703 243.183 102.315 242.799 101.837C242.415 101.358 242.141 100.801 241.996 100.205C241.852 99.6085 241.84 98.9876 241.962 98.3863C242.085 97.785 242.338 97.2181 242.704 96.7258Z" fill="white"/>
<path d="M72.2299 125.797C72.2284 124.461 71.9366 123.141 71.3747 121.928C70.8128 120.716 69.9943 119.64 68.9758 118.775C67.9573 117.91 66.7631 117.277 65.476 116.919C64.1888 116.562 62.8393 116.488 61.521 116.704C60.4629 114.718 58.886 113.056 56.9584 111.896C55.0307 110.735 52.8245 110.12 50.5749 110.115H50.1139C50.4153 108.944 50.5702 107.74 50.5749 106.531C50.5749 102.612 49.0192 98.8549 46.25 96.0845C43.4808 93.314 39.7251 91.7576 35.8089 91.7576C31.8927 91.7576 28.1369 93.314 25.3677 96.0845C22.5985 98.8549 21.0428 102.612 21.0428 106.531C21.0476 107.74 21.2024 108.944 21.5039 110.115H21.0428C17.8133 110.22 14.7512 111.578 12.5039 113.9C10.2565 116.223 9 119.329 9 122.562C9 125.795 10.2565 128.901 12.5039 131.224C14.7512 133.546 17.8133 134.904 21.0428 135.009H64.2081V134.917C66.4223 134.626 68.4559 133.542 69.9312 131.865C71.4066 130.187 72.2234 128.031 72.2299 125.797Z" fill="#ECECEC"/>
<path d="M373.475 55.3403C373.472 52.0991 372.183 48.9919 369.89 46.7012C367.598 44.4106 364.491 43.1239 361.252 43.1239C360.594 43.1275 359.937 43.1848 359.289 43.2952C357.883 40.6735 355.793 38.4816 353.242 36.9525C350.691 35.4235 347.774 34.6142 344.8 34.6107H344.194C344.59 33.0648 344.794 31.4757 344.8 29.8797C344.867 27.2679 344.412 24.6689 343.459 22.2361C342.507 19.8033 341.078 17.5859 339.255 15.7146C337.433 13.8433 335.254 12.3561 332.848 11.3406C330.442 10.3252 327.857 9.802 325.245 9.802C322.634 9.802 320.049 10.3252 317.643 11.3406C315.237 12.3561 313.058 13.8433 311.236 15.7146C309.413 17.5859 307.984 19.8033 307.031 22.2361C306.079 24.6689 305.624 27.2679 305.691 29.8797C305.685 31.506 305.884 33.1266 306.284 34.703H305.678C301.425 34.8732 297.403 36.6832 294.454 39.7538C291.505 42.8245 289.859 46.9176 289.859 51.1759C289.859 55.4342 291.505 59.5273 294.454 62.598C297.403 65.6686 301.425 67.4786 305.678 67.6489H362.845V67.5303C365.798 67.1447 368.508 65.6928 370.466 63.4478C372.424 61.2028 373.494 58.3195 373.475 55.3403Z" fill="#ECECEC"/>
</svg>
