<svg width="544" height="296" viewBox="0 0 544 296" fill="none" xmlns="http://www.w3.org/2000/svg">
<g clip-path="url(#clip0)">
<rect width="544" height="296" fill="white"/>
<g clip-path="url(#clip1)">
<path d="M211.836 59.0657L188.265 88.2338L207.053 55.7135C204.184 53.9521 201.135 52.5032 197.957 51.3916C198.59 44.9966 197.898 38.5398 195.924 32.4237C193.95 26.3075 190.737 20.6631 186.483 15.8421C182.23 11.0211 177.029 7.12684 171.203 4.40208C165.377 1.67731 159.053 0.180394 152.622 0.0046302C146.192 -0.171134 139.795 0.978019 133.829 3.38047C127.863 5.78291 122.456 9.38717 117.945 13.9686C113.435 18.5501 109.917 24.0105 107.611 30.0097C105.305 36.0088 104.261 42.4182 104.543 48.8382L147.12 51.6363L105.292 55.3903C106.471 61.6603 108.919 67.6239 112.485 72.9157C116.052 78.2075 120.663 82.716 126.035 86.1652L149.343 71.0571L129.959 88.4185C131.882 89.4071 133.871 90.2619 135.912 90.9765C134.885 101.417 137.399 111.9 143.052 120.741C148.705 129.582 157.168 136.269 167.082 139.727C166.293 147.699 167.565 155.741 170.777 163.081C173.99 170.422 179.035 176.815 185.43 181.649C191.825 186.483 199.355 189.596 207.299 190.69C215.243 191.784 223.335 190.822 230.8 187.896C231.215 189.728 231.949 191.474 232.968 193.053C234.419 195.379 236.466 197.274 238.898 198.543C239.054 201.276 239.91 203.923 241.384 206.23C242.857 208.538 244.899 210.428 247.314 211.721C247.474 214.453 248.331 217.097 249.805 219.403C251.278 221.71 253.318 223.6 255.731 224.895C255.888 227.627 256.743 230.274 258.216 232.582C259.689 234.89 261.729 236.782 264.143 238.077C264.274 240.814 265.132 243.466 266.629 245.761C270.433 251.713 277.209 254.188 281.761 251.302C286.314 248.416 286.92 241.222 283.116 235.265C281.665 232.94 279.622 231.042 277.195 229.766C277.037 227.03 276.179 224.381 274.703 222.071C273.227 219.761 271.182 217.869 268.765 216.574C268.605 213.842 267.748 211.197 266.273 208.891C264.799 206.584 262.757 204.694 260.343 203.401C260.187 200.669 259.33 198.023 257.857 195.717C256.383 193.41 254.341 191.52 251.927 190.227C251.795 187.491 250.935 184.839 249.436 182.544C248.45 180.977 247.199 179.592 245.738 178.453C251.61 172.949 255.962 166.025 258.374 158.35C260.786 150.675 261.177 142.509 259.509 134.64C257.84 126.77 254.169 119.463 248.85 113.424C243.53 107.385 236.742 102.819 229.141 100.165C229.904 92.4185 228.721 84.6042 225.701 77.4289C222.68 70.2537 217.916 63.9439 211.841 59.0703L211.836 59.0657Z" fill="#F2F2F2"/>
<path d="M308.545 35.6509L304.339 38.3151L306.895 33.6746C306.173 33.0915 305.277 32.7665 304.349 32.7512H304.284C303.992 32.7553 303.699 32.7336 303.411 32.6865L301.982 33.61L302.597 32.4972C301.587 32.1457 300.714 31.4848 300.101 30.6087L297.55 32.2248L299.163 29.2973C298.484 28.4222 297.619 27.7088 296.63 27.2089C295.641 26.709 294.554 26.435 293.446 26.4069C290.788 26.4069 288.426 27.986 286.901 30.4425C286.448 31.1741 285.809 31.773 285.049 32.1785C284.289 32.5839 283.436 32.7815 282.575 32.7512H282.432C279.501 32.7512 277.126 36.0711 277.126 40.139C277.126 44.2069 279.501 47.5499 282.432 47.5499C283.076 47.5477 283.711 47.3892 284.28 47.0882C285.278 46.6041 286.368 46.3423 287.477 46.3208C288.585 46.2992 289.685 46.5185 290.7 46.9635C291.559 47.3455 292.489 47.543 293.429 47.543C294.37 47.543 295.3 47.3455 296.159 46.9635C297.167 46.5274 298.256 46.3129 299.354 46.3344C300.453 46.3559 301.533 46.613 302.523 47.0882C303.093 47.3894 303.727 47.5478 304.372 47.5499C307.302 47.5499 309.678 44.2346 309.678 40.139C309.682 38.5719 309.293 37.0287 308.545 35.6509Z" fill="#F2F2F2"/>
<path opacity="0.03" d="M300.619 46.4971C299.089 46.2085 297.508 46.3804 296.076 46.9912C295.217 47.3733 294.287 47.5707 293.346 47.5707C292.406 47.5707 291.476 47.3733 290.617 46.9912C289.601 46.5462 288.5 46.3268 287.391 46.3483C286.282 46.3699 285.191 46.6317 284.193 47.1159C283.623 47.4181 282.989 47.5767 282.344 47.5776C279.737 47.5776 277.574 44.9596 277.121 41.5057C277.639 41.1307 278.082 40.6606 278.424 40.1205C279.95 37.6641 282.316 36.0895 284.969 36.0895C287.622 36.0895 289.956 37.6456 291.481 40.0743C291.936 40.809 292.574 41.4137 293.332 41.8295C294.09 42.2454 294.943 42.4583 295.808 42.4477H295.877C297.952 42.4154 299.732 44.0776 300.619 46.4971Z" fill="black"/>
<path d="M464.304 17.6431L460.098 20.3073L462.654 15.6668C461.932 15.0837 461.036 14.7586 460.108 14.7433H460.043C459.75 14.7474 459.458 14.7258 459.169 14.6787L457.741 15.6022L458.356 14.4894C457.346 14.1378 456.472 13.477 455.86 12.6009L453.309 14.217L454.922 11.2895C454.243 10.4144 453.378 9.70103 452.389 9.2011C451.4 8.70118 450.312 8.42722 449.204 8.39905C446.547 8.39905 444.185 9.9782 442.66 12.4347C442.206 13.1663 441.567 13.7652 440.808 14.1707C440.048 14.5761 439.194 14.7737 438.334 14.7433H438.19C435.26 14.7433 432.884 18.0633 432.884 22.1312C432.884 26.1991 435.26 29.5421 438.19 29.5421C438.835 29.5398 439.469 29.3814 440.039 29.0803C441.036 28.5963 442.127 28.3345 443.235 28.3129C444.344 28.2914 445.444 28.5107 446.459 28.9557C447.318 29.3377 448.248 29.5351 449.188 29.5351C450.129 29.5351 451.058 29.3377 451.917 28.9557C452.925 28.5196 454.015 28.3051 455.113 28.3266C456.211 28.3481 457.292 28.6052 458.282 29.0803C458.852 29.3816 459.486 29.54 460.131 29.5421C463.061 29.5421 465.437 26.2268 465.437 22.1312C465.441 20.564 465.052 19.0209 464.304 17.6431Z" fill="#F2F2F2"/>
<path opacity="0.03" d="M456.378 28.4893C454.848 28.2006 453.266 28.3726 451.834 28.9834C450.975 29.3654 450.045 29.5629 449.105 29.5629C448.165 29.5629 447.235 29.3654 446.376 28.9834C445.36 28.5383 444.259 28.319 443.15 28.3405C442.041 28.362 440.949 28.6239 439.951 29.1081C439.382 29.4103 438.747 29.5689 438.103 29.5698C435.496 29.5698 433.333 26.9517 432.88 23.4979C433.398 23.1228 433.84 22.6528 434.183 22.1127C435.708 19.6563 438.075 18.0817 440.728 18.0817C443.381 18.0817 445.715 19.6378 447.24 22.0665C447.695 22.8012 448.333 23.4058 449.091 23.8217C449.849 24.2376 450.701 24.4505 451.566 24.4399H451.635C453.711 24.4076 455.49 26.0698 456.378 28.4893Z" fill="black"/>
<path d="M360.436 61.2313L367.212 65.5347L363.107 58.0776C364.271 57.1522 365.71 56.6404 367.198 56.6232H367.304C367.768 56.6301 368.232 56.5961 368.691 56.5216L370.979 57.9714L369.985 56.1891C371.606 55.6198 373.007 54.5572 373.992 53.1509L378.092 55.7459L375.531 51.0407C377.93 48.1687 381.161 46.4233 384.715 46.4233C388.981 46.4233 392.775 48.9537 395.23 52.8877C395.953 54.0665 396.975 55.0337 398.192 55.6912C399.41 56.3488 400.779 56.6735 402.163 56.6324H402.394C407.099 56.6324 410.912 61.9609 410.912 68.536C410.912 75.1112 407.099 80.4443 402.394 80.4443C401.357 80.4403 400.338 80.1852 399.422 79.7009C397.82 78.9234 396.068 78.503 394.288 78.4687C392.507 78.4345 390.741 78.7871 389.11 79.5024C387.729 80.1192 386.233 80.4381 384.719 80.4381C383.206 80.4381 381.71 80.1192 380.329 79.5024C378.71 78.8018 376.959 78.4569 375.195 78.4912C373.431 78.5255 371.695 78.938 370.105 79.7009C369.198 80.1723 368.192 80.4209 367.17 80.4258C362.46 80.4258 358.647 75.0974 358.647 68.5176C358.622 65.9773 359.237 63.4716 360.436 61.2313Z" fill="#F2F2F2"/>
<path opacity="0.03" d="M373.169 78.6712C375.628 78.2082 378.17 78.4846 380.472 79.4653C381.853 80.0822 383.349 80.4011 384.863 80.4011C386.376 80.4011 387.872 80.0822 389.253 79.4653C390.885 78.75 392.652 78.3973 394.433 78.4316C396.215 78.4659 397.967 78.8864 399.57 79.6639C400.484 80.1482 401.502 80.4033 402.537 80.4073C406.72 80.4073 410.195 76.2009 410.921 70.6507C410.086 70.0405 409.377 69.2755 408.832 68.3975C406.378 64.4542 402.583 61.9331 398.317 61.9331C394.051 61.9331 390.307 64.4357 387.853 68.342C387.123 69.5189 386.101 70.4877 384.887 71.155C383.672 71.8223 382.306 72.1655 380.92 72.1514H380.814C377.458 72.1191 374.574 74.7879 373.169 78.6712Z" fill="black"/>
<path d="M272 297C422.221 297 544 292.659 544 287.303C544 281.948 422.221 277.607 272 277.607C121.779 277.607 0 281.948 0 287.303C0 292.659 121.779 297 272 297Z" fill="#3F3D56"/>
<path d="M455.296 72.0175H88.7038C83.4914 72.0175 79.2659 76.2388 79.2659 81.4462V273.142C79.2659 278.349 83.4914 282.571 88.7038 282.571H455.296C460.508 282.571 464.734 278.349 464.734 273.142V81.4462C464.734 76.2388 460.508 72.0175 455.296 72.0175Z" fill="#F2F2F2"/>
<path d="M464.734 81.4462V86.7931H79.2659V81.4462C79.2659 78.9455 80.2602 76.5473 82.0302 74.7791C83.8001 73.0108 86.2007 72.0175 88.7038 72.0175H455.296C457.799 72.0175 460.2 73.0108 461.97 74.7791C463.74 76.5473 464.734 78.9455 464.734 81.4462Z" fill="#3F3D56"/>
<path d="M89.2031 82.4066C90.7347 82.4066 91.9762 81.1662 91.9762 79.6362C91.9762 78.1061 90.7347 76.8657 89.2031 76.8657C87.6715 76.8657 86.4299 78.1061 86.4299 79.6362C86.4299 81.1662 87.6715 82.4066 89.2031 82.4066Z" fill="#6C63FF"/>
<path d="M96.1359 82.4066C97.6675 82.4066 98.9091 81.1662 98.9091 79.6362C98.9091 78.1061 97.6675 76.8657 96.1359 76.8657C94.6044 76.8657 93.3628 78.1061 93.3628 79.6362C93.3628 81.1662 94.6044 82.4066 96.1359 82.4066Z" fill="#6C63FF"/>
<path d="M103.069 82.4066C104.6 82.4066 105.842 81.1662 105.842 79.6362C105.842 78.1061 104.6 76.8657 103.069 76.8657C101.537 76.8657 100.296 78.1061 100.296 79.6362C100.296 81.1662 101.537 82.4066 103.069 82.4066Z" fill="#6C63FF"/>
<path d="M178.041 111.265H142.258C139.887 111.265 137.964 113.186 137.964 115.555V142.991C137.964 145.361 139.887 147.281 142.258 147.281H178.041C180.412 147.281 182.335 145.361 182.335 142.991V115.555C182.335 113.186 180.412 111.265 178.041 111.265Z" fill="white"/>
<path d="M229.807 111.265H194.024C191.652 111.265 189.73 113.186 189.73 115.555V142.991C189.73 145.361 191.652 147.281 194.024 147.281H229.807C232.178 147.281 234.1 145.361 234.1 142.991V115.555C234.1 113.186 232.178 111.265 229.807 111.265Z" fill="#006CB5"/>
<path d="M281.572 111.265H245.789C243.418 111.265 241.495 113.186 241.495 115.555V142.991C241.495 145.361 243.418 147.281 245.789 147.281H281.572C283.943 147.281 285.866 145.361 285.866 142.991V115.555C285.866 113.186 283.943 111.265 281.572 111.265Z" fill="white"/>
<path d="M333.338 111.265H297.555C295.183 111.265 293.261 113.186 293.261 115.555V142.991C293.261 145.361 295.183 147.281 297.555 147.281H333.338C335.709 147.281 337.631 145.361 337.631 142.991V115.555C337.631 113.186 335.709 111.265 333.338 111.265Z" fill="white"/>
<path d="M385.103 111.265H349.32C346.949 111.265 345.026 113.186 345.026 115.555V142.991C345.026 145.361 346.949 147.281 349.32 147.281H385.103C387.474 147.281 389.397 145.361 389.397 142.991V115.555C389.397 113.186 387.474 111.265 385.103 111.265Z" fill="#006CB5"/>
<path d="M178.041 171.753H142.258C139.887 171.753 137.964 173.674 137.964 176.043V203.479C137.964 205.848 139.887 207.769 142.258 207.769H178.041C180.412 207.769 182.335 205.848 182.335 203.479V176.043C182.335 173.674 180.412 171.753 178.041 171.753Z" fill="white"/>
<path d="M229.807 171.753H194.024C191.652 171.753 189.73 173.674 189.73 176.043V203.479C189.73 205.848 191.652 207.769 194.024 207.769H229.807C232.178 207.769 234.1 205.848 234.1 203.479V176.043C234.1 173.674 232.178 171.753 229.807 171.753Z" fill="white"/>
<path d="M281.572 171.753H245.789C243.418 171.753 241.495 173.674 241.495 176.043V203.479C241.495 205.848 243.418 207.769 245.789 207.769H281.572C283.943 207.769 285.866 205.848 285.866 203.479V176.043C285.866 173.674 283.943 171.753 281.572 171.753Z" fill="#006CB5"/>
<path d="M333.338 171.753H297.555C295.183 171.753 293.261 173.674 293.261 176.043V203.479C293.261 205.848 295.183 207.769 297.555 207.769H333.338C335.709 207.769 337.631 205.848 337.631 203.479V176.043C337.631 173.674 335.709 171.753 333.338 171.753Z" fill="white"/>
<path d="M385.103 171.753H349.32C346.949 171.753 345.026 173.674 345.026 176.043V203.479C345.026 205.848 346.949 207.769 349.32 207.769H385.103C387.474 207.769 389.397 205.848 389.397 203.479V176.043C389.397 173.674 387.474 171.753 385.103 171.753Z" fill="white"/>
<path d="M178.041 232.241H142.258C139.887 232.241 137.964 234.162 137.964 236.531V263.967C137.964 266.336 139.887 268.257 142.258 268.257H178.041C180.412 268.257 182.335 266.336 182.335 263.967V236.531C182.335 234.162 180.412 232.241 178.041 232.241Z" fill="white"/>
<path d="M229.807 232.241H194.024C191.652 232.241 189.73 234.162 189.73 236.531V263.967C189.73 266.336 191.652 268.257 194.024 268.257H229.807C232.178 268.257 234.1 266.336 234.1 263.967V236.531C234.1 234.162 232.178 232.241 229.807 232.241Z" fill="white"/>
<path d="M281.572 232.241H245.789C243.418 232.241 241.495 234.162 241.495 236.531V263.967C241.495 266.336 243.418 268.257 245.789 268.257H281.572C283.943 268.257 285.866 266.336 285.866 263.967V236.531C285.866 234.162 283.943 232.241 281.572 232.241Z" fill="white"/>
<path opacity="0.3" d="M333.338 232.241H297.555C295.183 232.241 293.261 234.162 293.261 236.531V263.967C293.261 266.336 295.183 268.257 297.555 268.257H333.338C335.709 268.257 337.631 266.336 337.631 263.967V236.531C337.631 234.162 335.709 232.241 333.338 232.241Z" fill="#006CB5"/>
<path d="M385.103 232.241H349.32C346.949 232.241 345.026 234.162 345.026 236.531V263.967C345.026 266.336 346.949 268.257 349.32 268.257H385.103C387.474 268.257 389.397 266.336 389.397 263.967V236.531C389.397 234.162 387.474 232.241 385.103 232.241Z" fill="white"/>
<path d="M244.37 104.635L242.031 102.285C241.916 102.168 241.779 102.076 241.628 102.013C241.477 101.95 241.315 101.917 241.151 101.917C240.987 101.917 240.825 101.95 240.674 102.013C240.523 102.076 240.386 102.168 240.27 102.285L225.591 116.825L219.384 110.573C219.27 110.457 219.134 110.366 218.984 110.303C218.834 110.241 218.673 110.209 218.511 110.209C218.348 110.209 218.187 110.241 218.037 110.303C217.887 110.366 217.751 110.457 217.637 110.573L215.275 112.905C215.043 113.14 214.913 113.456 214.913 113.786C214.913 114.117 215.043 114.433 215.275 114.668L224.699 124.157C224.935 124.389 225.252 124.519 225.582 124.519C225.912 124.519 226.23 124.389 226.465 124.157L244.37 106.399C244.487 106.283 244.58 106.146 244.644 105.995C244.707 105.843 244.74 105.681 244.74 105.517C244.74 105.353 244.707 105.19 244.644 105.039C244.58 104.887 244.487 104.75 244.37 104.635Z" fill="#3ACC6C"/>
<path d="M401.516 104.635L399.177 102.285C399.062 102.168 398.925 102.076 398.773 102.013C398.622 101.95 398.46 101.917 398.296 101.917C398.133 101.917 397.97 101.95 397.819 102.013C397.668 102.076 397.531 102.168 397.416 102.285L382.737 116.825L376.529 110.573C376.415 110.457 376.279 110.366 376.129 110.303C375.979 110.241 375.818 110.209 375.656 110.209C375.493 110.209 375.332 110.241 375.183 110.303C375.033 110.366 374.897 110.457 374.782 110.573L372.42 112.905C372.188 113.14 372.058 113.456 372.058 113.786C372.058 114.117 372.188 114.433 372.42 114.668L381.845 124.157C382.08 124.389 382.397 124.519 382.727 124.519C383.058 124.519 383.375 124.389 383.61 124.157L401.516 106.399C401.633 106.283 401.726 106.146 401.789 105.995C401.853 105.843 401.885 105.681 401.885 105.517C401.885 105.353 401.853 105.19 401.789 105.039C401.726 104.887 401.633 104.75 401.516 104.635Z" fill="#3ACC6C"/>
<path d="M296.136 164.661L293.797 162.311C293.682 162.194 293.545 162.102 293.394 162.039C293.242 161.976 293.08 161.944 292.917 161.944C292.753 161.944 292.591 161.976 292.439 162.039C292.288 162.102 292.151 162.194 292.036 162.311L277.357 176.851L271.15 170.599C271.035 170.484 270.899 170.392 270.749 170.33C270.599 170.267 270.438 170.235 270.276 170.235C270.114 170.235 269.953 170.267 269.803 170.33C269.653 170.392 269.517 170.484 269.402 170.599L267.041 172.931C266.809 173.166 266.679 173.483 266.679 173.813C266.679 174.143 266.809 174.459 267.041 174.695L276.465 184.183C276.7 184.415 277.017 184.545 277.348 184.545C277.678 184.545 277.995 184.415 278.23 184.183L296.136 166.425C296.253 166.31 296.346 166.172 296.409 166.021C296.473 165.87 296.505 165.707 296.505 165.543C296.505 165.379 296.473 165.216 296.409 165.065C296.346 164.913 296.253 164.776 296.136 164.661Z" fill="#3ACC6C"/>
<path d="M347.439 227.457L345.1 225.107C344.985 224.991 344.848 224.899 344.697 224.836C344.546 224.773 344.384 224.74 344.22 224.74C344.056 224.74 343.894 224.773 343.743 224.836C343.592 224.899 343.455 224.991 343.339 225.107L328.66 239.647L322.453 233.395C322.339 233.28 322.203 233.189 322.053 233.126C321.903 233.064 321.742 233.031 321.579 233.031C321.417 233.031 321.256 233.064 321.106 233.126C320.956 233.189 320.82 233.28 320.706 233.395L318.344 235.704C318.112 235.939 317.982 236.256 317.982 236.586C317.982 236.916 318.112 237.233 318.344 237.468L327.768 246.957C328.003 247.188 328.321 247.318 328.651 247.318C328.981 247.318 329.298 247.188 329.534 246.957L347.439 229.198C347.668 228.967 347.797 228.654 347.797 228.328C347.797 228.002 347.668 227.689 347.439 227.457Z" fill="#3ACC6C"/>
<path d="M467.923 285.535C466.537 282.991 468.108 279.869 469.906 277.602C471.704 275.335 473.885 272.985 473.839 270.081C473.77 265.925 469.356 263.468 465.829 261.266C463.211 259.633 460.797 257.694 458.638 255.49C457.733 254.642 456.985 253.642 456.428 252.535C455.698 250.909 455.717 249.062 455.763 247.285C455.92 241.356 456.214 235.432 456.646 229.512" stroke="#3F3D56" stroke-width="4" stroke-miterlimit="10"/>
<path d="M449.944 229.189C449.993 228.104 450.315 227.048 450.881 226.12C451.446 225.192 452.237 224.421 453.179 223.879L454.631 226.751L454.584 223.274C455.279 223.071 456.002 222.983 456.724 223.015C458.001 223.078 459.231 223.517 460.258 224.277C461.286 225.036 462.065 226.083 462.498 227.285C462.93 228.487 462.997 229.79 462.689 231.03C462.381 232.269 461.712 233.39 460.767 234.25C459.822 235.11 458.643 235.672 457.38 235.863C456.116 236.055 454.823 235.868 453.665 235.327C452.508 234.786 451.536 233.914 450.874 232.821C450.212 231.729 449.888 230.465 449.944 229.189Z" fill="#57B894"/>
<path d="M461.499 273.05C462.179 274.367 463.292 275.411 464.651 276.006C466.011 276.601 467.533 276.712 468.964 276.319C470.395 275.926 471.647 275.054 472.511 273.848C473.375 272.643 473.797 271.177 473.708 269.697C473.619 268.217 473.024 266.813 472.021 265.72C471.019 264.627 469.671 263.911 468.203 263.692C466.736 263.473 465.237 263.765 463.959 264.519C462.682 265.273 461.702 266.442 461.185 267.832L465.238 271.124L460.778 270.094C460.779 271.123 461.027 272.136 461.499 273.05Z" fill="#57B894"/>
<path d="M464.734 260.467C466.328 260.55 467.897 260.04 469.138 259.037C470.38 258.034 471.206 256.608 471.458 255.033C471.71 253.458 471.371 251.846 470.505 250.506C469.639 249.166 468.308 248.193 466.768 247.774L466.805 250.443L465.335 247.538C464.484 247.497 463.633 247.624 462.831 247.911C462.029 248.199 461.292 248.643 460.662 249.216C460.032 249.789 459.522 250.481 459.16 251.252C458.798 252.022 458.593 252.857 458.555 253.707C458.517 254.455 458.61 255.204 458.832 255.919C459.226 257.193 460.005 258.313 461.062 259.127C462.118 259.942 463.401 260.41 464.734 260.467Z" fill="#57B894"/>
<path d="M448.964 250C449.96 250.036 450.951 249.842 451.859 249.434C452.767 249.025 453.569 248.412 454.202 247.643C454.834 246.874 455.28 245.969 455.505 244.999C455.73 244.03 455.728 243.021 455.499 242.052C455.27 241.084 454.82 240.181 454.184 239.415C453.548 238.648 452.744 238.039 451.833 237.634C450.923 237.229 449.932 237.04 448.936 237.081C447.94 237.122 446.968 237.392 446.094 237.87L447.24 241.009L444.883 238.747C443.62 239.903 442.867 241.512 442.789 243.221C442.758 243.822 442.813 244.423 442.951 245.008C443.271 246.381 444.032 247.613 445.118 248.514C446.203 249.415 447.554 249.937 448.964 250Z" fill="#57B894"/>
<path opacity="0.1" d="M450.813 230.916C452.31 231.077 453.766 231.544 455.268 231.636C456.77 231.728 458.42 231.373 459.373 230.205C459.881 229.577 460.14 228.783 460.57 228.095C460.98 227.455 461.542 226.927 462.206 226.557C462.597 227.374 462.812 228.265 462.837 229.17C462.862 230.076 462.696 230.977 462.349 231.814C462.003 232.652 461.485 233.407 460.828 234.031C460.17 234.656 459.389 235.135 458.534 235.438C457.68 235.741 456.771 235.862 455.867 235.792C454.963 235.721 454.083 235.462 453.286 235.03C452.489 234.599 451.791 234.004 451.238 233.286C450.686 232.568 450.29 231.741 450.078 230.86C450.324 230.87 450.569 230.888 450.813 230.916Z" fill="black"/>
<path opacity="0.1" d="M448.964 250C450.083 250.056 451.197 249.822 452.198 249.319C453.199 248.817 454.052 248.063 454.674 247.132C455.296 246.202 455.665 245.125 455.746 244.009C455.827 242.893 455.616 241.775 455.134 240.765C454.62 241.11 454.177 241.553 453.831 242.067C453.369 242.764 453.087 243.572 452.546 244.209C451.534 245.396 449.81 245.784 448.243 245.715C446.676 245.645 445.165 245.197 443.621 245.054C443.404 245.054 443.187 245.022 442.965 245.017C443.286 246.387 444.046 247.614 445.128 248.513C446.211 249.412 447.558 249.934 448.964 250Z" fill="black"/>
<path opacity="0.1" d="M464.734 260.467C465.842 260.523 466.946 260.294 467.94 259.8C468.934 259.307 469.784 258.567 470.409 257.65C471.034 256.734 471.412 255.673 471.508 254.568C471.603 253.464 471.413 252.353 470.955 251.343C470.417 251.694 469.947 252.14 469.569 252.659C469.065 253.37 468.75 254.188 468.182 254.843C467.087 256.062 465.247 256.492 463.592 256.455C461.938 256.418 460.436 256.025 458.841 255.901C459.232 257.176 460.008 258.3 461.063 259.117C462.118 259.935 463.4 260.406 464.734 260.467Z" fill="black"/>
<path opacity="0.1" d="M461.499 273.05C462.201 274.616 463.497 275.841 465.102 276.453C466.707 277.065 468.49 277.015 470.059 276.314C471.627 275.613 472.852 274.318 473.465 272.714C474.078 271.111 474.028 269.33 473.326 267.763C472.79 268.111 472.31 268.539 471.903 269.032C471.283 269.78 470.877 270.635 470.165 271.341C468.838 272.643 466.698 273.188 464.79 273.23C463.69 273.235 462.591 273.175 461.499 273.05Z" fill="black"/>
<path d="M477.708 282.603C477.708 282.603 472.587 282.446 471.043 281.347C469.499 280.248 463.186 278.941 462.788 280.701C462.391 282.46 455.093 289.474 460.87 289.501C466.648 289.529 474.301 288.578 475.845 287.654C477.389 286.731 477.708 282.603 477.708 282.603Z" fill="#656380"/>
<path opacity="0.2" d="M460.768 288.892C466.55 288.938 474.2 287.991 475.739 287.045C476.913 286.329 477.38 283.771 477.537 282.589H477.708C477.708 282.589 477.384 286.717 475.859 287.668C474.334 288.619 466.666 289.552 460.884 289.515C459.215 289.515 458.642 288.91 458.675 288.033C458.892 288.55 459.525 288.869 460.768 288.892Z" fill="black"/>
<path d="M85.1774 283.263C83.1484 279.514 85.4501 274.915 88.0938 271.567C90.7376 268.22 93.9637 264.743 93.899 260.486C93.7973 254.358 87.2896 250.743 82.0853 247.492C78.2268 245.083 74.6678 242.225 71.4826 238.978C70.1576 237.725 69.0626 236.25 68.2473 234.619C67.1704 232.223 67.2027 229.498 67.2721 226.871C67.4939 218.129 67.9253 209.394 68.5662 200.667" stroke="#3F3D56" stroke-width="4" stroke-miterlimit="10"/>
<path d="M58.6568 200.182C58.7279 198.579 59.2027 197.019 60.0372 195.647C60.8717 194.274 62.0391 193.135 63.4313 192.333L65.5758 196.567L65.5111 191.442C67.4567 190.869 69.534 190.93 71.4431 191.613C73.3523 192.297 74.9945 193.57 76.1326 195.247C77.2708 196.924 77.846 198.919 77.7753 200.944C77.7046 202.969 76.9915 204.919 75.7391 206.513C74.4867 208.106 72.7597 209.261 70.8075 209.811C68.8552 210.36 66.7788 210.275 64.8779 209.569C62.977 208.862 61.35 207.571 60.2318 205.88C59.1136 204.19 58.5621 202.188 58.6568 200.164V200.182Z" fill="#57B894"/>
<path d="M75.7163 264.858C76.7199 266.807 78.3639 268.352 80.3724 269.234C82.3809 270.116 84.6319 270.281 86.7478 269.702C88.8638 269.122 90.7159 267.834 91.9936 266.052C93.2713 264.27 93.8969 262.104 93.7655 259.916C93.634 257.728 92.7535 255.652 91.2716 254.035C89.7897 252.419 87.7966 251.361 85.6265 251.039C83.4564 250.716 81.2414 251.149 79.3528 252.265C77.4643 253.38 76.0172 255.111 75.2541 257.166L81.2257 262.019L74.644 260.499C74.6485 262.017 75.0161 263.512 75.7163 264.858Z" fill="#57B894"/>
<path d="M80.4399 246.306C82.7849 246.412 85.087 245.653 86.9082 244.173C88.7294 242.694 89.9426 240.597 90.3171 238.282C90.6915 235.967 90.2009 233.595 88.9388 231.618C87.6766 229.641 85.7309 228.196 83.4719 227.559L83.5228 231.493L81.3551 227.213H81.332C80.0655 227.134 78.796 227.308 77.5974 227.724C76.3988 228.14 75.2951 228.79 74.3504 229.636C73.4057 230.483 72.6389 231.508 72.0947 232.653C71.5506 233.798 71.2399 235.04 71.1807 236.307C71.1215 237.573 71.3151 238.838 71.7501 240.029C72.1852 241.22 72.853 242.312 73.7146 243.243C74.5763 244.173 75.6147 244.923 76.7693 245.449C77.9239 245.975 79.1716 246.266 80.4399 246.306Z" fill="#57B894"/>
<path d="M57.2194 230.87C59.7533 230.986 62.23 230.093 64.1054 228.387C65.9807 226.68 67.1014 224.3 67.2212 221.769C67.2937 220.206 66.976 218.649 66.2968 217.239C65.7376 216.053 64.9396 214.995 63.9528 214.13C62.966 213.265 61.8114 212.613 60.5612 212.214C59.3109 211.815 57.9918 211.678 56.686 211.811C55.3802 211.944 54.1159 212.344 52.9718 212.987L54.6588 217.604L51.1831 214.27C49.7917 215.545 48.8091 217.203 48.359 219.035C47.909 220.867 48.0116 222.792 48.6541 224.565C49.2965 226.339 50.45 227.883 51.9692 229.004C53.4885 230.124 55.3056 230.77 57.1916 230.86L57.2194 230.87Z" fill="#57B894"/>
<path opacity="0.1" d="M59.9463 202.727C62.151 202.971 64.3002 203.65 66.5141 203.793C68.728 203.936 71.1637 203.401 72.5642 201.678C73.3175 200.755 73.6965 199.582 74.3344 198.571C74.9388 197.629 75.7657 196.851 76.7424 196.304C77.3583 197.515 77.7087 198.844 77.77 200.201C77.8313 201.559 77.6022 202.914 77.098 204.176C76.5938 205.438 75.826 206.578 74.8459 207.52C73.8658 208.462 72.6958 209.185 71.4141 209.639C70.1324 210.094 68.7684 210.271 67.413 210.157C66.0576 210.044 64.742 209.643 63.554 208.981C62.366 208.319 61.3328 207.412 60.5234 206.32C59.714 205.228 59.147 203.976 58.8602 202.648C59.2207 202.662 59.5858 202.69 59.9463 202.727Z" fill="black"/>
<path opacity="0.1" d="M57.2194 230.87C59.7534 230.986 62.23 230.093 64.1054 228.387C65.9808 226.68 67.1014 224.3 67.2212 221.769C67.2937 220.206 66.9761 218.649 66.2968 217.239C65.5383 217.75 64.8854 218.402 64.3741 219.16C63.6947 220.19 63.2787 221.376 62.4791 222.318C60.9909 224.068 58.4442 224.627 56.1379 224.535C53.8315 224.442 51.5991 223.777 49.302 223.565C48.9831 223.537 48.6596 223.514 48.3361 223.505C48.8114 225.532 49.9363 227.348 51.5399 228.677C53.1434 230.007 55.1377 230.777 57.2194 230.87Z" fill="black"/>
<path opacity="0.1" d="M80.4399 246.306C82.0725 246.383 83.6976 246.04 85.16 245.311C86.6225 244.582 87.8735 243.491 88.7936 242.141C89.7138 240.792 90.2723 239.229 90.416 237.603C90.5597 235.976 90.2838 234.34 89.6144 232.851C88.8279 233.37 88.1434 234.029 87.5947 234.795C86.8505 235.843 86.3883 237.048 85.5148 238.027C83.9017 239.823 81.1887 240.455 78.7437 240.4C76.3772 240.345 74.094 239.767 71.7415 239.587C72.3245 241.465 73.4724 243.117 75.0288 244.319C76.5853 245.521 78.4747 246.215 80.4399 246.306Z" fill="black"/>
<path opacity="0.1" d="M75.7163 264.858C76.8368 267.031 78.748 268.693 81.057 269.501C83.3661 270.31 85.8974 270.204 88.1307 269.205C90.3639 268.207 92.1292 266.391 93.0637 264.132C93.9982 261.873 94.0308 259.342 93.1548 257.06C92.3678 257.57 91.6593 258.192 91.0518 258.907C90.1275 260.015 89.5451 261.271 88.4913 262.305C86.5362 264.221 83.3795 265.011 80.5693 265.075C78.9488 265.099 77.3283 265.026 75.7163 264.858Z" fill="black"/>
<path d="M99.6024 278.946C99.6024 278.946 92.0548 278.715 89.7762 277.099C87.4976 275.483 78.166 273.548 77.6021 276.143C77.0382 278.738 66.2553 289.072 74.7781 289.123C83.3009 289.174 94.583 287.798 96.8524 286.412C99.1218 285.027 99.6024 278.946 99.6024 278.946Z" fill="#656380"/>
<path opacity="0.2" d="M74.6441 288.213C83.1669 288.282 94.449 286.888 96.7183 285.507C98.4469 284.455 99.1402 280.678 99.3667 278.937H99.6209C99.6209 278.937 99.1587 285.018 96.8709 286.398C94.583 287.779 83.3194 289.169 74.7966 289.109C72.3377 289.109 71.4873 288.213 71.5335 286.92C71.8709 287.71 72.7953 288.199 74.6441 288.213Z" fill="black"/>
<path d="M398.068 260.241C397.99 260.435 397.94 260.638 397.92 260.846C397.185 265.68 392.956 269.249 391.412 273.89C390.422 276.907 390.617 280.186 391.957 283.065C392.198 283.468 392.342 283.922 392.378 284.39C392.378 284.852 392.008 285.355 391.541 285.313C390.423 285.239 389.54 284.39 388.606 283.79C387.439 283.071 386.424 282.129 385.621 281.019C385.222 280.461 384.939 279.83 384.788 279.162C384.636 278.493 384.619 277.802 384.738 277.127C385.293 274.606 387.22 272.357 387.821 269.845L389.397 263.33C389.612 262.102 390.05 260.923 390.691 259.853C390.938 259.43 391.323 259.104 391.782 258.93C392.051 258.864 392.328 258.842 392.604 258.865C394.43 258.943 396.33 259.627 398.068 260.241Z" fill="#FFC1C7"/>
<path d="M391.592 282.298C391.759 282.262 391.932 282.274 392.091 282.335C392.303 282.48 392.464 282.686 392.553 282.926C393.052 283.85 393.808 284.608 394.73 285.11C395.103 285.275 395.459 285.476 395.793 285.71C395.96 285.83 396.093 285.988 396.183 286.172C396.273 286.356 396.315 286.559 396.306 286.763C396.233 287.368 395.572 287.687 394.989 287.867C393.739 288.232 392.429 288.346 391.135 288.204C390.65 288.176 390.177 288.043 389.748 287.816C389.328 287.525 388.966 287.159 388.68 286.736C387.668 285.337 386.522 284.04 385.26 282.862C384.618 282.356 384.018 281.798 383.467 281.195C383.193 280.891 382.985 280.534 382.855 280.146C382.725 279.759 382.677 279.349 382.713 278.941C382.894 277.741 384.031 276.956 384.747 275.972C385.898 277.45 387.058 278.951 387.761 280.687C387.992 281.385 388.279 282.063 388.62 282.714C388.948 283.254 389.42 283.877 390.007 283.526C390.594 283.176 390.737 282.446 391.592 282.298Z" fill="#FF6584"/>
<path d="M405.486 224.812C405.831 225.679 405.972 226.614 405.897 227.545L405.855 234.439C405.882 235.78 405.811 237.121 405.643 238.451C405.278 240.848 404.293 243.115 403.863 245.502C403.457 247.742 403.535 250.069 402.874 252.248C401.848 255.623 399.131 258.297 398.174 261.695C398.138 261.901 398.044 262.092 397.901 262.245C397.789 262.334 397.655 262.392 397.513 262.411C396.748 262.482 395.978 262.338 395.29 261.995L390.321 260.047C389.979 260.195 389.743 259.802 389.762 259.424C389.82 259.052 389.993 258.709 390.256 258.44C390.862 257.669 391.397 256.845 391.856 255.979C393.243 253.205 394.03 250.17 394.167 247.072C394.292 243.991 394.201 240.905 393.894 237.837C393.724 235.615 393.555 233.395 393.385 231.179C393.307 230.122 393.247 228.977 393.848 228.095C394.449 227.213 395.47 226.848 396.454 226.543C399.393 225.64 402.421 225.06 405.486 224.812Z" fill="#3C354C"/>
<path opacity="0.1" d="M405.486 224.812C405.831 225.679 405.972 226.614 405.897 227.545L405.855 234.439C405.882 235.78 405.811 237.121 405.643 238.451C405.278 240.848 404.293 243.115 403.863 245.502C403.457 247.742 403.535 250.069 402.874 252.248C401.848 255.623 399.131 258.297 398.174 261.695C398.138 261.901 398.044 262.092 397.901 262.245C397.789 262.334 397.655 262.392 397.513 262.411C396.748 262.482 395.978 262.338 395.29 261.995L390.321 260.047C389.979 260.195 389.743 259.802 389.762 259.424C389.82 259.052 389.993 258.709 390.256 258.44C390.862 257.669 391.397 256.845 391.856 255.979C393.243 253.205 394.03 250.17 394.167 247.072C394.292 243.991 394.201 240.905 393.894 237.837C393.724 235.615 393.555 233.395 393.385 231.179C393.307 230.122 393.247 228.977 393.848 228.095C394.449 227.213 395.47 226.848 396.454 226.543C399.393 225.64 402.421 225.06 405.486 224.812Z" fill="black"/>
<path d="M416.366 235.256C415.681 236.246 415.123 237.318 414.706 238.447C414.453 239.296 414.266 240.164 414.147 241.042C413.5 245.119 412.848 249.233 413.098 253.352C412.695 253.447 412.275 253.445 411.873 253.346C411.471 253.246 411.099 253.052 410.787 252.779C410.165 252.229 409.652 251.566 409.276 250.826C408.806 250.027 408.391 249.197 408.032 248.342C407.239 246.423 406.838 244.365 406.854 242.289C406.841 242.12 406.87 241.95 406.937 241.795C407.002 241.685 407.085 241.586 407.182 241.504C409.895 238.936 411.457 235.413 412.95 231.992C413.485 230.874 413.9 229.702 414.189 228.496C414.434 227.277 414.452 225.929 415.224 224.955C415.917 224.087 417.073 223.722 418.154 223.57C418.941 223.43 419.748 223.463 420.521 223.667C421.362 223.925 423.354 224.909 423.47 225.901C423.585 226.894 421.81 228.164 421.233 228.824C419.458 230.849 417.832 232.999 416.366 235.256Z" fill="#FFC1C7"/>
<path d="M414.716 253.315C415.307 254.308 416.135 255.416 415.714 256.487C415.293 257.558 413.754 257.798 412.83 257.138C412.564 256.935 412.322 256.703 412.109 256.445C409.556 253.598 407.238 250.55 405.176 247.331C404.409 246.135 403.66 244.86 403.531 243.447C403.507 243.291 403.529 243.13 403.595 242.986C403.686 242.854 403.81 242.748 403.956 242.681C405.218 241.967 406.562 241.409 407.958 241.019C407.925 242.6 408.335 244.16 409.142 245.521C409.732 246.506 410.242 247.538 410.667 248.605C410.981 249.381 411.305 249.441 412.114 249.45C412.765 249.45 413.232 249.372 413.546 250.032C414.045 251.066 414.082 252.253 414.716 253.315Z" fill="#FF6584"/>
<path d="M397.393 213.143C403.336 213.236 409.271 213.651 415.201 214.067L419.056 214.339C420.191 214.373 421.319 214.54 422.416 214.838C423.46 215.216 424.459 215.71 425.392 216.311C425.712 216.473 425.996 216.7 426.224 216.976C426.402 217.257 426.521 217.571 426.575 217.899C426.794 218.588 426.868 219.314 426.793 220.033C426.678 220.546 426.487 221.04 426.224 221.496L423.525 226.825C422.661 226.543 421.991 225.98 421.145 225.647C420.126 225.304 419.066 225.102 417.993 225.047L415.182 224.77C415.09 224.601 415.062 224.404 415.104 224.216C412.636 225.075 410.177 225.874 407.709 226.732C403.179 228.307 398.641 229.886 394.278 231.881C393.63 232.176 392.891 232.486 392.23 232.236C391.992 232.135 391.774 231.991 391.588 231.812C390.507 230.784 389.807 229.422 389.6 227.947C389.395 226.482 389.417 224.995 389.665 223.537C390.081 220.531 390.991 217.387 393.293 215.406C394.509 214.33 395.784 213.102 397.393 213.143Z" fill="#3C354C"/>
<path opacity="0.1" d="M421.038 218.333C419.71 218.978 418.433 219.725 417.221 220.568C417.039 220.687 416.87 220.825 416.717 220.979C416.605 221.108 416.501 221.243 416.407 221.386C415.811 222.159 415.368 223.04 415.104 223.981" stroke="black" stroke-miterlimit="10"/>
<path d="M359.863 211.135C359.031 211.832 358.541 212.839 357.954 213.753C356.544 215.969 354.52 217.752 353.129 219.982C352.532 220.942 352.038 222.004 351.187 222.752C350.17 223.676 348.765 223.994 347.407 224.101C346.182 224.188 344.888 224.128 343.806 224.715C342.882 225.223 342.235 226.141 341.643 227.023V227.051C341.52 227.236 341.459 227.455 341.469 227.676C341.478 227.898 341.559 228.111 341.698 228.284C341.837 228.457 342.028 228.581 342.242 228.638C342.457 228.696 342.684 228.683 342.891 228.603C343.885 228.218 344.91 227.92 345.955 227.711C346.878 227.571 347.789 227.364 348.682 227.093C349.54 226.75 350.359 226.315 351.123 225.795C351.794 225.395 352.435 224.946 353.041 224.452C353.785 223.819 354.427 223.066 355.13 222.397C356.159 221.55 357.24 220.766 358.365 220.051C361.324 217.981 363.791 215.287 365.594 212.16C365.81 211.854 365.925 211.487 365.922 211.112C365.856 210.767 365.696 210.448 365.46 210.188C364.642 209.149 363.898 208.3 362.761 209.265C361.864 210.008 360.741 210.373 359.863 211.135Z" fill="#FFC1C7"/>
<path d="M383.116 188.634C383.125 188.93 383.229 189.215 383.411 189.447C383.716 189.756 384.22 189.692 384.655 189.664C385.248 189.605 385.848 189.675 386.411 189.871C386.975 190.066 387.489 190.382 387.918 190.795C388.708 191.622 389.018 192.79 389.203 193.921C389.411 194.862 389.383 195.839 389.12 196.766C388.681 197.837 387.835 198.69 386.767 199.139C385.71 199.581 384.59 199.855 383.448 199.952C382.5 200.118 381.531 200.118 380.583 199.952C379.46 199.693 378.484 199.028 377.472 198.469C376.764 198.132 376.08 197.747 375.425 197.315C374.764 196.875 374.289 196.208 374.089 195.44C374.031 195.247 374.032 195.04 374.092 194.846C374.152 194.653 374.268 194.482 374.426 194.355C374.591 194.279 374.765 194.226 374.944 194.198C375.32 194.103 375.665 193.91 375.942 193.638C376.219 193.366 376.418 193.026 376.52 192.652C376.83 191.456 376.086 190.251 376.012 189.018C375.975 188.66 376.051 188.3 376.229 187.988C376.498 187.647 376.859 187.391 377.269 187.249L379.58 186.215C380.276 185.831 381.005 185.508 381.757 185.25C382.492 185.061 382.543 185.569 382.681 186.173C382.852 187 383.005 187.817 383.116 188.634Z" fill="#FFC1C7"/>
<path opacity="0.1" d="M383.116 188.634C383.125 188.93 383.229 189.215 383.411 189.447C383.716 189.756 384.22 189.692 384.655 189.664C385.248 189.605 385.848 189.675 386.411 189.871C386.975 190.066 387.489 190.382 387.918 190.795C388.708 191.622 389.018 192.79 389.203 193.921C389.411 194.862 389.383 195.839 389.12 196.766C388.681 197.837 387.835 198.69 386.767 199.139C385.71 199.581 384.59 199.855 383.448 199.952C382.5 200.118 381.531 200.118 380.583 199.952C379.46 199.693 378.484 199.028 377.472 198.469C376.764 198.132 376.08 197.747 375.425 197.315C374.764 196.875 374.289 196.208 374.089 195.44C374.031 195.247 374.032 195.04 374.092 194.846C374.152 194.653 374.268 194.482 374.426 194.355C374.591 194.279 374.765 194.226 374.944 194.198C375.32 194.103 375.665 193.91 375.942 193.638C376.219 193.366 376.418 193.026 376.52 192.652C376.83 191.456 376.086 190.251 376.012 189.018C375.975 188.66 376.051 188.3 376.229 187.988C376.498 187.647 376.859 187.391 377.269 187.249L379.58 186.215C380.276 185.831 381.005 185.508 381.757 185.25C382.492 185.061 382.543 185.569 382.681 186.173C382.852 187 383.005 187.817 383.116 188.634Z" fill="black"/>
<path d="M377.103 190.564C380.286 190.564 382.866 187.987 382.866 184.807C382.866 181.627 380.286 179.049 377.103 179.049C373.919 179.049 371.339 181.627 371.339 184.807C371.339 187.987 373.919 190.564 377.103 190.564Z" fill="#FFC1C7"/>
<path d="M383.8 190.057C384.655 189.67 385.572 189.439 386.508 189.373C386.976 189.345 387.445 189.419 387.881 189.592C388.317 189.764 388.71 190.03 389.032 190.371C389.572 191.003 389.753 191.857 390.182 192.564C391.033 193.949 392.692 194.582 394.019 195.528C394.331 195.733 394.601 195.996 394.814 196.304C395.276 197.006 395.151 197.906 395.142 198.737C395.187 200.794 395.772 202.804 396.838 204.564C397.905 206.318 399.127 207.973 400.489 209.51C400.81 209.862 401.078 210.258 401.284 210.687C401.608 211.463 401.515 212.4 401.996 213.088C400.84 212.944 399.666 213.103 398.59 213.55C396.921 214.238 396.843 216.676 396.057 218.301C394.606 221.307 392.59 223.999 390.672 226.733C390.168 227.385 389.74 228.093 389.397 228.843C389.055 228.118 389.29 227.254 389.249 226.455C389.156 224.669 388.121 223.066 387.83 221.302C387.73 220.419 387.68 219.532 387.677 218.643C387.599 217.297 387.307 215.972 386.813 214.718C386.242 213.379 385.555 212.092 384.761 210.872C384.39 210.148 383.861 209.517 383.213 209.025C382.445 208.526 381.387 208.383 380.902 207.607C380.784 207.337 380.628 207.085 380.439 206.859C380.278 206.738 380.097 206.646 379.903 206.587C378.959 206.143 378.045 205.637 377.167 205.072C376.243 204.569 375.194 204.195 374.172 204.421C372.279 206.617 370.133 208.582 367.78 210.276C367.05 210.812 366.264 211.361 365.904 212.192C364.753 211.642 363.721 210.872 362.867 209.925C362.732 209.793 362.622 209.636 362.543 209.463C362.308 208.789 363.006 208.184 363.56 207.76C365.636 206.196 367.229 204.078 368.154 201.651C368.751 200.086 369.144 198.285 370.502 197.301C370.933 197.054 371.34 196.768 371.718 196.447C372.053 195.984 372.361 195.503 372.642 195.006C372.937 194.625 373.337 194.34 373.794 194.185C374.25 194.031 374.742 194.014 375.207 194.138C375.735 194.345 376.246 194.59 376.737 194.873C378.018 195.45 379.487 195.334 380.897 195.177L386.309 194.628C386.398 194.326 386.408 194.006 386.339 193.699C386.269 193.392 386.122 193.108 385.912 192.873C385.69 192.664 385.45 192.474 385.195 192.305C384.487 191.737 383.994 190.943 383.8 190.057Z" fill="#FF6584"/>
<path d="M380.153 174.856C380.808 175.099 381.404 175.477 381.904 175.966C382.403 176.454 382.794 177.042 383.051 177.691C383.213 178.246 383.417 178.788 383.661 179.312C384.093 179.927 384.597 180.489 385.163 180.983C385.681 181.533 386.124 182.249 386.004 182.992C385.958 183.269 385.838 183.528 385.801 183.8C385.639 184.996 386.998 185.818 387.414 186.949C387.955 188.436 386.776 190.209 387.497 191.613C387.77 192.139 388.264 192.536 388.574 192.998C388.884 193.46 388.916 194.291 388.394 194.572C387.58 195.011 386.637 193.727 385.773 194.064C385.551 194.152 385.38 194.342 385.163 194.438C384.558 194.711 383.85 194.175 383.652 193.543C383.525 192.892 383.538 192.221 383.689 191.576C383.762 191.253 383.767 190.918 383.704 190.592C383.64 190.267 383.509 189.959 383.319 189.687C382.968 189.285 382.395 189.128 382.029 188.764C381.364 188.09 381.489 187.004 381.567 186.063C381.711 184.16 381.368 182.078 380.005 180.739C379.976 180.701 379.939 180.669 379.897 180.646C379.854 180.623 379.808 180.609 379.76 180.605C379.662 180.623 379.574 180.677 379.515 180.757C378.894 181.407 378.199 181.982 377.444 182.47C377.231 182.633 376.973 182.727 376.705 182.738C376.442 182.738 376.178 182.47 376.243 182.216C375.588 182.519 375.001 182.949 374.514 183.481C374.409 183.23 374.361 182.959 374.376 182.687C374.122 183.192 373.812 183.666 373.451 184.1C373.083 184.494 372.743 184.914 372.434 185.356C372.282 185.578 372.179 185.831 372.135 186.096C372.09 186.362 372.104 186.634 372.175 186.894C372.693 188.376 375.332 188.034 375.905 189.498C376.03 189.826 376.026 190.186 376.155 190.509C376.409 191.137 377.079 191.433 377.634 191.848C378.189 192.264 378.669 192.97 378.337 193.557C378.045 194.06 377.366 194.115 376.802 194.245C376.32 194.364 375.867 194.579 375.47 194.878C375.073 195.176 374.74 195.551 374.491 195.981C374.359 196.296 374.155 196.576 373.895 196.798C373.662 196.917 373.404 196.981 373.141 196.983C372.356 197.047 371.454 197.066 370.914 196.521C370.188 195.759 370.53 194.374 369.791 193.626C369.62 193.46 369.407 193.34 369.245 193.164C369.077 192.947 368.954 192.698 368.883 192.432C368.812 192.167 368.796 191.889 368.834 191.617C368.908 190.08 369.476 188.574 369.388 187.037C369.252 186.02 369.056 185.011 368.801 184.017C368.575 182.857 368.606 181.661 368.89 180.513C369.174 179.366 369.705 178.294 370.447 177.373C371.704 175.9 373.345 175.322 375.203 175.064C376.857 174.819 378.457 174.242 380.153 174.856Z" fill="#3C354C"/>
</g>
</g>
<defs>
<clipPath id="clip0">
<rect width="544" height="296" fill="white"/>
</clipPath>
<clipPath id="clip1">
<rect width="544" height="297" fill="white"/>
</clipPath>
</defs>
</svg>
