<svg width="387" height="296" viewBox="0 0 387 296" fill="none" xmlns="http://www.w3.org/2000/svg">
<g clip-path="url(#clip0)">
<path opacity="0.18" d="M40.5238 33.4372C38.1401 34.4227 35.6936 35.6878 34.3837 37.9052C32.9962 40.2477 33.1623 43.1565 33.4206 45.8667C35.6715 69.3725 41.6013 94.3713 31.3615 115.663C26.3911 125.993 18.0775 134.271 11.4651 143.652C4.85257 153.033 -0.14 164.745 2.93008 175.781C6.67912 189.266 20.6716 196.742 30.1033 207.12C36.2766 213.904 40.605 222.149 46.3651 229.287C52.1252 236.425 60.0181 242.713 69.2136 243.132C82.4385 243.739 93.1986 232.357 106.165 229.721C119.449 227.022 132.826 233.891 143.597 242.114C154.368 250.336 164.165 260.298 176.714 265.432C190.574 271.106 206.197 270.238 220.788 273.647C234.072 276.754 246.3 283.363 259.488 286.886C272.677 290.408 288.134 290.195 298.352 281.197C311.669 269.429 310.621 248.468 319.126 232.902C327.027 218.439 342.491 209.804 352.901 197.018C371.631 174.005 371.019 138.831 355.115 113.803C339.211 88.7744 310.403 73.6199 280.946 69.674C267.662 67.8979 253.983 68.1406 241.212 64.0992C207.028 53.2877 186.685 14.5502 151.785 6.4894C129.6 1.37417 108.025 10.233 89.1285 21.1364C72.7265 30.6019 57.5938 26.3803 40.5238 33.4372Z" fill="#006CB5"/>
<path d="M73.837 109.375C73.837 109.375 61.243 121.22 47.7265 121.573C42.0506 121.685 36.5645 123.63 32.092 127.115C29.9779 128.78 28.0214 130.635 26.247 132.656" stroke="#535461" stroke-width="2" stroke-miterlimit="10"/>
<path d="M17.7231 132.947C19.5386 132.028 26.4684 132.638 26.4684 132.638C26.4684 132.638 22.8744 138.577 21.0589 139.496C20.6241 139.753 20.141 139.918 19.6395 139.981C19.138 140.044 18.6289 140.004 18.1437 139.863C17.6585 139.722 17.2075 139.483 16.8188 139.161C16.43 138.839 16.1118 138.441 15.8838 137.992C15.6559 137.542 15.523 137.05 15.4935 136.548C15.464 136.045 15.5385 135.541 15.7123 135.068C15.8862 134.595 16.1556 134.163 16.5041 133.798C16.8525 133.433 17.2725 133.143 17.7379 132.947H17.7231Z" fill="#57B894"/>
<path d="M25.0182 122.448C27.044 122.661 32.5274 126.927 32.5274 126.927C32.5274 126.927 26.2544 129.965 24.247 129.755C23.3078 129.614 22.4596 129.117 21.8787 128.368C21.2979 127.619 21.0291 126.676 21.1285 125.734C21.2279 124.793 21.6876 123.926 22.4121 123.314C23.1366 122.702 24.0701 122.392 25.0182 122.448Z" fill="#57B894"/>
<path d="M42.3169 113.987C43.9553 115.189 46.5309 121.632 46.5309 121.632C46.5309 121.632 39.59 121.106 37.9516 119.907C37.2132 119.312 36.7331 118.457 36.6112 117.519C36.4893 116.581 36.7349 115.632 37.2971 114.869C37.8592 114.107 38.6946 113.59 39.6295 113.425C40.5644 113.261 41.5269 113.462 42.3169 113.987Z" fill="#57B894"/>
<path d="M56.8519 110.526C58.6711 111.434 62.302 117.351 62.302 117.351C62.302 117.351 55.3722 118.002 53.553 117.094C53.094 116.894 52.6806 116.603 52.338 116.239C51.9954 115.875 51.7308 115.445 51.5602 114.976C51.3897 114.507 51.3167 114.008 51.3459 113.509C51.3751 113.011 51.5058 112.524 51.73 112.078C51.9542 111.631 52.2672 111.235 52.6499 110.913C53.0327 110.591 53.4773 110.351 53.9564 110.205C54.4356 110.06 54.9395 110.014 55.4373 110.069C55.9351 110.124 56.4164 110.28 56.8519 110.526Z" fill="#57B894"/>
<path d="M36.3835 133.624C36.9886 131.686 35.2174 124.978 35.2174 124.978C35.2174 124.978 29.9481 129.509 29.3429 131.447C29.1724 131.914 29.0989 132.412 29.1269 132.909C29.1549 133.406 29.2839 133.892 29.5059 134.337C29.7279 134.783 30.0384 135.179 30.4186 135.502C30.7988 135.825 31.2407 136.067 31.7176 136.215C32.1946 136.362 32.6966 136.412 33.1933 136.36C33.69 136.308 34.171 136.157 34.6072 135.915C35.0435 135.673 35.4258 135.345 35.7311 134.951C36.0364 134.557 36.2584 134.105 36.3835 133.624Z" fill="#57B894"/>
<path d="M53.3316 129.347C53.3316 127.317 49.6232 121.448 49.6232 121.448C49.6232 121.448 45.9553 127.332 45.959 129.369C45.962 130.344 46.3535 131.278 47.0476 131.966C47.7417 132.654 48.6814 133.038 49.6601 133.035C50.6387 133.032 51.5761 132.642 52.2661 131.95C52.956 131.259 53.342 130.322 53.339 129.347H53.3316Z" fill="#57B894"/>
<path d="M67.0557 122.963C67.3952 120.963 64.7384 114.553 64.7384 114.553C64.7384 114.553 60.1222 119.745 59.7864 121.746C59.673 122.684 59.9266 123.63 60.4946 124.387C61.0626 125.145 61.9013 125.655 62.8367 125.812C63.7721 125.969 64.7322 125.761 65.5178 125.231C66.3035 124.701 66.8542 123.89 67.0557 122.967V122.963Z" fill="#006CB5"/>
<path d="M90.2021 78.007C90.2021 78.007 75.0325 69.7035 70.5233 56.9834C68.6708 51.6346 65.1268 47.0292 60.4238 43.8589C58.1794 42.3706 55.803 41.0904 53.3242 40.0344" stroke="#535461" stroke-width="2" stroke-miterlimit="10"/>
<path d="M50.446 32.036C51.8815 33.4738 53.4276 40.2365 53.4276 40.2365C53.4276 40.2365 46.6527 38.6552 45.2173 37.2137C44.5834 36.5122 44.2445 35.5946 44.2708 34.6509C44.2971 33.7072 44.6866 32.8098 45.3585 32.1444C46.0305 31.479 46.9335 31.0966 47.8805 31.0764C48.8276 31.0562 49.7462 31.3998 50.446 32.036Z" fill="#57B894"/>
<path d="M62.7153 35.7246C63.1359 37.7103 60.7485 44.223 60.7485 44.223C60.7485 44.223 55.9257 39.2254 55.505 37.236C55.3802 36.7548 55.3545 36.2535 55.4294 35.7622C55.5044 35.2708 55.6786 34.7998 55.9414 34.3774C56.2041 33.955 56.5501 33.5901 56.9583 33.3047C57.3666 33.0193 57.8286 32.8193 58.3166 32.7169C58.8045 32.6144 59.3082 32.6115 59.7973 32.7085C60.2864 32.8054 60.7507 33.0002 61.1622 33.2809C61.5736 33.5617 61.9237 33.9227 62.1913 34.342C62.4589 34.7614 62.6384 35.2304 62.719 35.7209L62.7153 35.7246Z" fill="#57B894"/>
<path d="M76.11 49.5479C75.4679 51.4712 70.1063 55.895 70.1063 55.895C70.1063 55.895 68.4754 49.1544 69.1174 47.2275C69.4262 46.3009 70.0916 45.5346 70.9674 45.097C71.8431 44.6594 72.8574 44.5865 73.7871 44.8942C74.7168 45.2019 75.4858 45.865 75.9249 46.7378C76.364 47.6105 76.4372 48.6214 76.1284 49.5479H76.11Z" fill="#57B894"/>
<path d="M83.8886 62.2529C83.5823 64.2571 79.0473 69.5194 79.0473 69.5194C79.0473 69.5194 76.2945 63.1502 76.6008 61.146C76.6518 60.6507 76.8033 60.1709 77.0459 59.7356C77.2886 59.3004 77.6174 58.9188 78.0124 58.614C78.4075 58.3091 78.8605 58.0874 79.3441 57.9623C79.8277 57.8371 80.3317 57.8112 80.8257 57.8859C81.3196 57.9607 81.7932 58.1347 82.2177 58.3973C82.6421 58.6599 83.0087 59.0057 83.2951 59.4137C83.5815 59.8216 83.7818 60.2833 83.8838 60.7708C83.9858 61.2582 83.9874 61.7612 83.8886 62.2492V62.2529Z" fill="#57B894"/>
<path d="M55.5345 49.9412C57.5714 49.9192 63.4311 46.1756 63.4311 46.1756C63.4311 46.1756 57.4865 42.5718 55.4497 42.5939C54.471 42.6051 53.5369 43.0033 52.8529 43.7008C52.1688 44.3984 51.7908 45.3382 51.8021 46.3135C51.8133 47.2888 52.2129 48.2197 52.9129 48.9014C53.6128 49.5831 54.5559 49.9598 55.5345 49.9486V49.9412Z" fill="#57B894"/>
<path d="M64.8186 64.7023C66.7522 64.0735 71.2208 58.756 71.2208 58.756C71.2208 58.756 64.4644 57.0902 62.5308 57.719C62.0537 57.8547 61.6089 58.0849 61.2231 58.3959C60.8372 58.7068 60.5183 59.0921 60.2854 59.5288C60.0524 59.9654 59.9102 60.4443 59.8673 60.937C59.8244 61.4296 59.8816 61.9259 60.0355 62.396C60.1894 62.8661 60.4369 63.3004 60.7632 63.673C61.0894 64.0456 61.4877 64.3488 61.9342 64.5644C62.3808 64.7801 62.8664 64.9038 63.362 64.9281C63.8576 64.9524 64.353 64.8769 64.8186 64.706V64.7023Z" fill="#57B894"/>
<path d="M75.8148 77.8158C77.8295 77.5216 83.1358 73.0352 83.1358 73.0352C83.1358 73.0352 76.7594 70.2551 74.7484 70.5493C74.2531 70.6001 73.7733 70.7504 73.3378 70.991C72.9023 71.2315 72.5202 71.5574 72.2144 71.9491C71.9086 72.3407 71.6856 72.7899 71.5586 73.2698C71.4317 73.7496 71.4035 74.25 71.4758 74.741C71.548 75.2319 71.7193 75.7032 71.9791 76.1265C72.239 76.5498 72.5821 76.9162 72.9879 77.2039C73.3936 77.4915 73.8536 77.6943 74.34 77.8001C74.8265 77.9059 75.3294 77.9125 75.8185 77.8194L75.8148 77.8158Z" fill="#57B894"/>
<path d="M194.596 279.483C268.369 279.483 328.174 219.882 328.174 146.362C328.174 72.8411 268.369 13.2408 194.596 13.2408C120.823 13.2408 61.0179 72.8411 61.0179 146.362C61.0179 219.882 120.823 279.483 194.596 279.483Z" fill="url(#paint0_linear)"/>
<path d="M194.596 277.277C267.146 277.277 325.96 218.664 325.96 146.362C325.96 74.0599 267.146 15.4475 194.596 15.4475C122.046 15.4475 63.2319 74.0599 63.2319 146.362C63.2319 218.664 122.046 277.277 194.596 277.277Z" fill="#006CB5"/>
<path d="M194.596 250.432C252.269 250.432 299.023 203.838 299.023 146.362C299.023 88.886 252.269 42.2924 194.596 42.2924C136.922 42.2924 90.1689 88.886 90.1689 146.362C90.1689 203.838 136.922 250.432 194.596 250.432Z" fill="#DDE1EC"/>
<path opacity="0.3" d="M197.548 60.679H191.644V152.613H197.548V60.679Z" fill="#535461"/>
<g opacity="0.1">
<path opacity="0.1" d="M284.263 144.155H200.869V151.51H284.263V144.155Z" fill="black"/>
<path opacity="0.1" d="M141.992 116.639L138.568 123.155L191.041 150.539L194.464 144.024L141.992 116.639Z" fill="black"/>
<path opacity="0.1" d="M194.596 158.865C200.71 158.865 205.666 153.926 205.666 147.833C205.666 141.74 200.71 136.801 194.596 136.801C188.482 136.801 183.526 141.74 183.526 147.833C183.526 153.926 188.482 158.865 194.596 158.865Z" fill="black"/>
</g>
<path d="M284.263 142.685H200.869V150.04H284.263V142.685Z" fill="#535461"/>
<path d="M194.488 142.561L142.016 115.177L138.592 121.692L191.065 149.077L194.488 142.561Z" fill="#535461"/>
<path d="M194.596 157.394C200.71 157.394 205.666 152.455 205.666 146.362C205.666 140.269 200.71 135.33 194.596 135.33C188.482 135.33 183.526 140.269 183.526 146.362C183.526 152.455 188.482 157.394 194.596 157.394Z" fill="#535461"/>
<g opacity="0.1">
<path opacity="0.1" d="M98.2795 158.865C98.2795 101.388 145.032 54.7954 202.707 54.7954C218.894 54.7812 234.863 58.5234 249.348 65.7258C263.833 72.9282 276.436 83.3928 286.16 96.2909C268.389 64.1065 234.072 42.2924 194.589 42.2924C136.914 42.2924 90.1615 88.8847 90.1615 146.362C90.1276 168.942 97.4964 190.914 111.147 208.936C102.681 193.597 98.2546 176.371 98.2795 158.865Z" fill="black"/>
</g>
<path d="M291.082 69.8065C289.842 68.6187 279.407 76.4258 279.407 76.4258C279.407 76.4258 275.691 77.1024 276.577 79.6435C277.462 82.1845 272.684 96.416 272.684 96.416L270.739 93.7057C270.927 90.5248 270.049 88.2706 269.193 86.8658C269.123 86.7518 269.053 86.6415 268.983 86.5385L269.322 86.4209C269.193 84.6851 266.407 82.0411 264.927 80.7467C264.927 80.5591 264.927 80.3789 264.927 80.1877C265.02 78.1137 265.854 75.9256 264.927 74.0465C263.879 71.9026 260.813 70.8251 260.555 68.4716C260.4 67.0668 261.352 65.7981 261.772 64.4449C262.776 61.2088 260.691 57.9065 258.699 55.1191C258.024 54.074 257.202 53.1304 256.26 52.3169C255.361 51.6625 254.375 51.1376 253.33 50.7577C250.411 49.5809 247.426 48.9889 244.415 48.1835C241.525 47.4186 238.861 47.0546 235.928 48.0144C235.231 48.2014 234.596 48.565 234.083 49.0698C233.385 49.8494 233.293 50.9599 232.835 51.8903C232.097 53.387 230.507 54.2806 229.101 55.2404C227.695 56.2002 226.286 57.5167 226.278 59.1715C226.278 61.5214 228.972 62.9997 229.872 65.1877C230.714 67.225 229.872 69.4939 229.404 71.6415C229.208 72.3356 229.189 73.0674 229.348 73.7707C229.534 74.2948 229.814 74.7808 230.175 75.2049C230.732 75.9404 231.33 76.6243 231.924 77.323L231.651 77.4297C226.699 76.9222 223.514 83.1885 223.514 83.1885C223.743 83.2363 223.961 83.2914 224.175 83.3539L223.965 83.6261C222.468 85.5627 221.245 87.6946 220.33 89.9622L216.271 95.3826C216.271 95.3826 215.385 81.8278 217.511 78.7793C219.636 75.7307 215.566 73.8663 215.566 73.8663C215.566 73.8663 206.71 64.0404 205.481 64.8862C204.253 65.732 208.489 76.4074 212.205 78.1026C212.205 78.1026 212.574 81.4895 211.836 83.6923C211.389 85.086 209.005 99.7881 209.005 99.7881C209.005 99.7881 206.884 112.155 216.614 106.04C222.935 102.075 227.02 95.2502 229.101 90.9624C229.246 90.6609 229.383 90.3728 229.511 90.0982C229.607 90.553 229.672 91.0137 229.706 91.4773L230.075 105.646C230.169 109.151 229.401 112.625 227.839 115.766L223.503 124.53L223.987 124.677L223.695 125.096C220.839 129.284 215.983 138.702 225.979 143.501L239.263 145.196L238.555 148.583C238.555 148.583 233.072 158.917 231.477 166.032C230.487 170.39 228.941 174.603 226.876 178.569L227.286 178.785C227.201 178.881 227.112 178.98 227.027 179.083C226.222 179.986 225.69 181.098 225.492 182.29L223.692 184.835C223.692 184.835 222.983 195.337 224.4 197.882C225.175 199.272 227.747 200.155 229.935 200.67C233.182 201.438 235.802 198.095 234.079 195.341L234.057 195.304H234.024C233.655 193.594 232.525 188.288 232.894 186.273C232.998 185.699 233.094 185.129 233.142 184.548C233.23 183.784 233.463 183.045 233.828 182.367C233.887 182.253 233.95 182.143 234.012 182.033L234.204 182.114C234.798 182.367 235.385 182.606 235.942 182.816C235.079 183.599 234.466 185.221 235.204 188.556C235.204 188.556 235.274 196.9 235.913 198.213C236.551 199.526 243.695 201.262 244.935 199.908C246.175 198.555 244.138 193.892 244.138 193.892L244.075 193.936C243.666 191.233 243.16 186.394 244.404 184.489C244.905 183.721 245.392 182.926 245.828 182.183L246.097 181.724C248.407 182.871 250.85 183.735 252.186 183.136C252.186 183.136 258.023 169.581 257.669 167.889C257.315 166.198 266.691 147.05 266.691 147.05C266.691 147.05 274.65 138.224 264.924 132.142C261.835 130.204 259.584 128.902 257.95 128.023L256.581 120.889C255.877 117.149 256.003 113.301 256.95 109.614L258.426 104.002L258.547 103.524C258.547 103.524 262.263 95.9011 262.086 92.3414C262.072 92.0649 262.103 91.788 262.178 91.5214C262.219 91.6906 262.263 91.8671 262.311 92.0509C263.287 95.7507 264.574 99.3623 266.156 102.848C268.979 109.195 273.167 108.691 275.462 107.79C275.954 107.601 276.39 107.292 276.732 106.893C277.074 106.494 277.311 106.016 277.422 105.503C278.248 101.553 280.518 90.488 280.662 87.4321C280.79 85.0426 281.086 82.6649 281.547 80.3164C287.37 76.9222 292.322 70.9943 291.082 69.8065Z" fill="url(#paint1_linear)"/>
<path d="M247.765 178.37C247.765 178.37 246.987 179.925 245.92 181.793C245.503 182.529 245.038 183.32 244.562 184.081C242.876 186.769 244.562 195.334 244.562 195.334L240.872 195.837L237.182 193.999L236.507 187.784V183.239L240.714 178.55L242.559 176.52L247.765 178.37Z" fill="#F8BDC5"/>
<g opacity="0.1">
<path opacity="0.1" d="M247.765 178.37C247.765 178.37 246.987 179.925 245.92 181.793C244.291 180.926 242.716 179.961 241.204 178.903L240.88 178.675L240.706 178.55L242.551 176.52L247.765 178.37Z" fill="black"/>
</g>
<path d="M265.806 146.958C265.806 146.958 256.872 165.937 257.212 167.617C257.551 169.298 251.986 182.735 251.986 182.735C250.717 183.331 248.385 182.474 246.186 181.338C244.527 180.457 242.925 179.474 241.389 178.396L241.064 178.168L240.868 178.028L255.533 137.547L242.559 128.063L241.599 127.361L235.798 123.095L253.51 126.287C253.51 126.287 254.127 126.21 257.385 128.027C258.949 128.898 261.123 130.204 264.127 132.167C273.385 138.224 265.806 146.958 265.806 146.958Z" fill="#5E52AD"/>
<g opacity="0.03">
<path opacity="0.03" d="M265.806 146.958C265.806 146.958 256.872 165.937 257.212 167.617C257.551 169.298 251.986 182.735 251.986 182.735C250.717 183.331 248.385 182.474 246.186 181.338C244.527 180.457 242.925 179.474 241.389 178.396L241.064 178.168L240.868 178.028L255.533 137.547L242.559 128.063L241.599 127.361L235.798 123.095L253.51 126.287C253.51 126.287 254.127 126.21 257.385 128.027C258.949 128.898 261.123 130.204 264.127 132.167C273.385 138.224 265.806 146.958 265.806 146.958Z" fill="black"/>
</g>
<path d="M238.666 181.727C238.666 181.727 234.282 181.055 235.802 188.111C235.802 188.111 235.869 196.385 236.477 197.673C237.086 198.96 243.894 200.695 245.071 199.353C246.249 198.011 244.311 193.392 244.311 193.392C244.311 193.392 239.341 197.003 237.99 193.138C236.64 189.273 238.666 181.727 238.666 181.727Z" fill="#5D3E53"/>
<path d="M235.629 180.385C235.15 180.839 234.761 181.378 234.481 181.974C234.133 182.649 233.912 183.382 233.828 184.136C233.784 184.71 233.691 185.28 233.596 185.846C233.175 188.24 234.787 195.334 234.787 195.334L228.382 196.342L226.024 193.823L225.518 188.281C226.147 186.381 226.488 184.397 226.529 182.397C226.529 180.952 227.267 179.661 228.005 178.72C228.506 178.091 229.079 177.525 229.714 177.032C229.714 177.032 236.979 179.209 235.629 180.385Z" fill="#F8BDC5"/>
<g opacity="0.1">
<path opacity="0.1" d="M235.629 180.385C235.15 180.839 234.761 181.378 234.481 181.974C231.858 180.793 229.101 179.304 228.097 178.753L228.02 178.712C228.52 178.084 229.094 177.517 229.728 177.024C229.728 177.024 236.979 179.209 235.629 180.385Z" fill="black"/>
</g>
<path d="M256.363 141.92C256.363 141.92 252.153 149.815 249.451 156.365C247.68 160.667 244.02 170.912 241.702 177.436L241.363 178.399C240.345 181.286 239.666 183.239 239.666 183.239C239.217 183.242 238.77 183.176 238.341 183.044C237.942 182.937 237.496 182.794 237.02 182.617L236.485 182.415C235.953 182.209 235.378 181.97 234.828 181.72C232.149 180.529 229.293 178.977 228.256 178.41L227.865 178.193C229.843 174.245 231.319 170.066 232.26 165.753C233.776 158.7 239.001 148.469 239.001 148.469L239.677 145.108L227.035 143.428C217.511 138.684 222.138 129.332 224.858 125.18C225.321 124.46 225.823 123.764 226.359 123.095L236.474 125.302C236.474 125.302 238.068 125.809 241.61 127.372L243.238 128.108C245.223 129.016 247.666 130.185 250.618 131.686C260.573 136.702 256.363 141.92 256.363 141.92Z" fill="#5E52AD"/>
<path d="M234.725 194.83C235.085 195.435 235.258 196.134 235.221 196.837C235.184 197.54 234.939 198.217 234.517 198.782C234.095 199.346 233.514 199.774 232.848 200.01C232.183 200.247 231.462 200.282 230.776 200.11C228.706 199.599 226.252 198.724 225.514 197.345C224.168 194.826 224.839 184.412 224.839 184.412L226.61 181.808C226.61 181.808 225.684 193.315 227.876 194.311C230.068 195.308 234.703 194.778 234.703 194.778L234.725 194.83Z" fill="#5D3E53"/>
<path d="M236.518 48.7606C235.845 48.9473 235.234 49.309 234.747 49.8086C234.083 50.5809 234.009 51.6841 233.559 52.6071C232.858 54.0781 231.345 54.979 230.001 55.9168C228.658 56.8545 227.319 58.1747 227.311 59.8148C227.311 62.1462 229.894 63.6098 230.736 65.7758C231.537 67.7984 230.736 70.0452 230.289 72.1744C230.103 72.8638 230.085 73.5876 230.238 74.2853C230.414 74.8027 230.681 75.2847 231.027 75.7084C232.655 77.9148 234.677 79.8712 235.765 82.3828C236.592 84.2914 236.821 86.3985 237.038 88.4689C237.352 91.4476 237.666 94.4814 237.097 97.4233C237.042 97.5993 237.042 97.7879 237.097 97.9639C237.194 98.1326 237.347 98.2626 237.529 98.3316C238.603 98.8515 239.771 99.1497 240.963 99.2083C242.156 99.2668 243.348 99.0845 244.467 98.6723C245.587 98.2601 246.612 97.6265 247.48 96.8096C248.348 95.9928 249.041 95.0094 249.518 93.9188C250.256 92.2529 250.54 90.2414 252.001 89.1602C252.172 89.0197 252.377 88.927 252.595 88.8918C252.94 88.9013 253.274 89.0126 253.555 89.2117C255.451 90.234 257.75 90.2635 259.865 89.8442C261.141 89.5905 262.448 89.1382 263.293 88.1453C264.957 86.1742 264.031 83.2286 264.141 80.6582C264.23 78.6025 265.023 76.4328 264.141 74.5721C263.145 72.4466 260.219 71.3801 259.975 69.056C259.828 67.666 260.736 66.4046 261.138 65.0661C262.093 61.8557 260.108 58.5829 258.212 55.8212C257.574 54.791 256.792 53.8562 255.891 53.0447C255.04 52.3991 254.1 51.879 253.101 51.5002C250.322 50.3345 247.488 49.7461 244.614 48.9518C241.861 48.1685 239.326 47.8045 236.518 48.7606Z" fill="#85555C"/>
<path d="M250.632 96.7357H240.854V80.945C241.144 79.4285 241.315 77.8915 241.363 76.3483C241.363 75.8298 241.363 75.3003 241.363 74.767C241.271 72.8842 240.88 71.0051 239.854 69.8577C237.156 66.8349 248.618 67.3387 248.618 67.3387C248.969 68.7268 249.426 70.0864 249.983 71.4059C250.813 73.4649 251.918 75.4031 253.267 77.1684C254.454 78.7391 255.975 80.0288 257.721 80.945C264.451 84.3062 250.632 96.7357 250.632 96.7357Z" fill="#F8BDC5"/>
<g opacity="0.1">
<path opacity="0.1" d="M249.972 71.4059C248.979 72.696 247.651 73.6911 246.132 74.2835C244.613 74.8759 242.96 75.0431 241.352 74.767C241.26 72.8842 240.869 71.0051 239.843 69.8577C237.145 66.8349 248.607 67.3387 248.607 67.3387C248.958 68.7268 249.415 70.0864 249.972 71.4059Z" fill="black"/>
</g>
<path d="M242.876 74.3996C247.81 74.3996 251.809 70.4136 251.809 65.4967C251.809 60.5797 247.81 56.5938 242.876 56.5938C237.942 56.5938 233.942 60.5797 233.942 65.4967C233.942 70.4136 237.942 74.3996 242.876 74.3996Z" fill="#F8BDC5"/>
<path d="M279.957 80.7799C279.518 83.1095 279.237 85.4659 279.115 87.8331C278.979 90.8596 276.817 101.833 276.027 105.749C275.927 106.251 275.705 106.721 275.379 107.117C275.053 107.513 274.634 107.823 274.16 108.018C271.968 108.912 267.983 109.412 265.304 103.12C263.793 99.6578 262.568 96.0789 261.64 92.4188C261.311 91.1885 261.065 89.9379 260.902 88.6752L266.806 85.4832C267.361 86.0014 267.832 86.6032 268.2 87.2668C269.016 88.6605 269.854 90.8963 269.676 94.0479L271.521 96.736C271.521 96.736 276.071 82.6259 275.211 80.1069C274.352 77.5879 277.909 76.915 277.909 76.915C277.909 76.915 287.853 69.1925 289.034 70.3656C290.215 71.5386 285.518 77.4188 279.957 80.7799Z" fill="#F8BDC5"/>
<path d="M231.585 87.4982C231.124 88.8121 230.594 90.1009 229.998 91.3594C228.013 95.6141 224.123 102.392 218.101 106.312C208.832 112.357 210.854 100.097 210.854 100.097C210.854 100.097 213.123 85.5197 213.552 84.1407C214.227 81.9564 213.887 78.5989 213.887 78.5989C210.349 76.9184 206.304 66.3385 207.481 65.4964C208.659 64.6543 217.075 74.3994 217.075 74.3994C217.075 74.3994 220.954 76.238 218.92 79.2719C216.887 82.3057 217.74 95.7318 217.74 95.7318L221.64 90.3665C222.508 88.1277 223.673 86.0152 225.105 84.0856C225.843 83.0816 226.36 82.4749 226.36 82.4749L231.585 87.4982Z" fill="#F8BDC5"/>
<g opacity="0.1">
<path opacity="0.1" d="M268.204 87.2665C266.964 87.7225 262.164 89.6531 261.632 92.4148C261.304 91.1845 261.057 89.9339 260.894 88.6712L266.798 85.4792C267.358 85.9977 267.833 86.6008 268.204 87.2665Z" fill="black"/>
</g>
<g opacity="0.1">
<path opacity="0.1" d="M231.584 87.4982C231.124 88.8121 230.594 90.1009 229.998 91.3594C229.769 89.6973 228.828 85.4462 225.105 84.0746C225.843 83.0706 226.359 82.4639 226.359 82.4639L231.584 87.4982Z" fill="black"/>
</g>
<g opacity="0.1">
<path opacity="0.1" d="M250.632 96.736H240.854V80.9454C241.144 79.4288 241.315 77.8918 241.363 76.3486C243.374 78.2829 242.876 81.28 242.876 81.28L248.101 93.0476L250.632 82.6443L249.791 81.3021L253.26 77.1908C254.447 78.7615 255.968 80.0512 257.713 80.9674C264.451 84.3065 250.632 96.736 250.632 96.736Z" fill="black"/>
</g>
<g opacity="0.1">
<path opacity="0.1" d="M257.54 128.979C257.54 128.979 249.88 128.372 243.234 128.086L242.566 128.056C241.621 128.019 240.721 127.99 239.839 127.968C233.389 127.813 226.094 125.567 224.854 125.173C225.319 124.455 225.822 123.761 226.359 123.095L236.474 125.302C236.474 125.302 238.068 125.809 241.61 127.372L235.798 123.095L253.511 126.287C253.511 126.287 254.127 126.21 257.385 128.027L257.54 128.979Z" fill="black"/>
</g>
<path d="M250.632 83.2987L249.791 81.9564L253.533 77.4958C253.533 77.4958 261.248 81.2651 263.271 80.4377C263.271 80.4377 268.16 84.4828 268.326 86.8216C268.326 86.8216 261.248 89.1714 261.415 92.7054C261.581 96.2393 258.057 103.789 258.057 103.789L256.581 109.827C255.672 113.487 255.547 117.296 256.212 121.006L257.558 128.483C257.558 128.483 246.939 127.644 239.846 127.475C232.754 127.306 224.677 124.621 224.677 124.621L228.813 115.946C230.305 112.816 231.036 109.379 230.946 105.915L230.577 91.8706C230.577 91.8706 230.241 84.8174 224.673 83.6407C224.673 83.6407 227.706 77.4259 232.422 77.9297C232.422 77.9297 239.293 75.0724 241.334 77.003C243.374 78.9336 242.872 81.9601 242.872 81.9601L248.097 93.7277L250.632 83.2987Z" fill="#ED677B"/>
<g opacity="0.1">
<path opacity="0.1" d="M236.429 63.6613C237.784 63.6613 238.846 62.2308 240.201 62.3043C240.902 62.3411 241.503 62.7861 242.083 63.1869C244.272 64.6976 246.708 65.8175 249.282 66.4965C250.282 66.7613 251.341 66.9599 252.344 66.7172C253.348 66.4745 254.289 65.6875 254.403 64.6615C254.432 64.2093 254.371 63.756 254.226 63.3267C253.09 59.3817 250.519 56.0003 247.016 53.8427C245.614 52.9859 243.902 52.3313 242.348 52.8682C240.946 53.3499 240.042 54.6591 239.027 55.7366C238.262 56.5433 237.394 57.2457 236.444 57.8253C235.706 58.2703 234.599 58.5608 234.175 59.3771C233.374 60.8996 234.632 63.6466 236.429 63.6613Z" fill="black"/>
</g>
<path d="M236.429 63.3268C237.784 63.3268 238.846 61.8963 240.201 61.9699C240.902 62.0066 241.503 62.4516 242.083 62.8524C244.272 64.3632 246.708 65.483 249.282 66.1621C250.282 66.4268 251.341 66.6254 252.344 66.3827C253.348 66.14 254.289 65.3531 254.403 64.3271C254.432 63.8749 254.371 63.4215 254.226 62.9922C253.09 59.0472 250.519 55.6659 247.016 53.5082C245.614 52.6514 243.902 51.9968 242.348 52.5337C240.946 53.0155 240.042 54.3246 239.027 55.4021C238.262 56.2089 237.394 56.9112 236.444 57.4908C235.706 57.9358 234.599 58.2263 234.175 59.0427C233.374 60.5798 234.632 63.3084 236.429 63.3268Z" fill="#85555C"/>
<path opacity="0.05" d="M232.345 101.689C232.345 101.689 240.603 104.712 245.998 102.362L248.695 102.532C248.695 102.532 253.178 105.665 257.92 104.264" fill="black"/>
<path opacity="0.05" d="M271.448 96.6512C271.448 96.6512 270.101 99.8432 270.772 100.851L271.448 96.6512Z" fill="black"/>
<path opacity="0.05" d="M217.681 95.6438C217.681 95.6438 218.356 98.8357 217.681 99.8433V95.6438Z" fill="black"/>
<path d="M357.465 168.378C357.465 168.378 342.026 183.764 350.742 206.593C359.458 229.423 335.805 267.388 335.805 267.388C335.805 267.388 336.059 267.351 336.543 267.27C368.251 261.692 384.004 225.554 366.373 198.705C359.801 188.721 354.421 177.013 357.465 168.378Z" fill="#57B894"/>
<path d="M357.465 168.378C357.465 168.378 348.75 187.236 357.465 202.622C366.181 218.008 358.941 261.184 335.801 267.388" stroke="#535461" stroke-miterlimit="10"/>
<path d="M384.963 230.607C384.963 230.607 367.347 227.812 365.742 243.544C364.137 259.276 331.857 261.457 331.857 261.457L332.462 261.857C359.104 279.288 384.576 272.959 380.734 249.814C379.317 241.213 379.436 232.571 384.963 230.607Z" fill="#57B894"/>
<path d="M384.963 230.607C384.963 230.607 371.288 233.597 372.417 245.99C373.546 258.382 352.122 273.235 331.871 261.46" stroke="#535461" stroke-miterlimit="10"/>
<path d="M369.465 262.03C369.465 262.03 355.591 259.265 351.89 255.576C348.189 251.888 331.539 245.438 329.691 250.06C327.842 254.683 304.717 270.341 320.44 273.106C336.163 275.872 357.439 276.784 362.063 274.945C366.686 273.106 369.465 262.03 369.465 262.03Z" fill="#A8A8A8"/>
<path opacity="0.2" d="M320.44 271.382C336.167 274.147 357.439 275.059 362.063 273.22C365.587 271.816 368.033 265.071 369 261.931L369.461 262.027C369.461 262.027 366.687 273.088 362.063 274.93C357.439 276.773 336.163 275.853 320.44 273.092C315.901 272.294 314.602 270.418 315.093 268.046C315.477 269.595 317.06 270.786 320.44 271.382Z" fill="black"/>
</g>
<defs>
<linearGradient id="paint0_linear" x1="194.596" y1="279.483" x2="194.596" y2="13.2408" gradientUnits="userSpaceOnUse">
<stop stop-color="#808080" stop-opacity="0.25"/>
<stop offset="0.54" stop-color="#808080" stop-opacity="0.12"/>
<stop offset="1" stop-color="#808080" stop-opacity="0.1"/>
</linearGradient>
<linearGradient id="paint1_linear" x1="64578" y1="91483.6" x2="64578" y2="27535.9" gradientUnits="userSpaceOnUse">
<stop stop-color="#808080" stop-opacity="0.25"/>
<stop offset="0.54" stop-color="#808080" stop-opacity="0.12"/>
<stop offset="1" stop-color="#808080" stop-opacity="0.1"/>
</linearGradient>
<clipPath id="clip0">
<rect width="383" height="284" fill="white" transform="translate(2 5)"/>
</clipPath>
</defs>
</svg>
