<svg width="343" height="258" viewBox="0 0 343 258" fill="none" xmlns="http://www.w3.org/2000/svg">
<g clip-path="url(#clip0)">
<path opacity="0.18" d="M73.252 37.765C96.165 34.4384 119.757 36.7297 142.475 32.164C166.236 27.3863 187.876 15.3612 210.781 7.37561C233.685 -0.609982 260.137 -4.19968 281.387 7.50291C294.396 14.6738 303.969 26.8177 311.479 39.6659C326.282 65.0033 334.305 93.7282 334.774 123.069C334.986 137.615 333.297 152.262 328.833 166.112C313.915 212.396 268.759 244.431 221.143 254.309C168.85 265.163 111.992 251.933 69.7642 219.253C33.8078 191.375 -1.74976 141.671 10.445 96.3967C18.5325 66.2874 38.8995 42.7549 73.252 37.765Z" fill="#006CB5"/>
<path d="M253.052 161.314L226.965 180.62C226.41 181.03 225.715 181.203 225.032 181.102C224.35 181 223.736 180.631 223.324 180.077L212.504 165.455C212.301 165.183 212.156 164.87 212.08 164.539C211.953 164.04 211.977 163.515 212.15 163.03C212.322 162.545 212.635 162.122 213.048 161.815L239.143 142.508C239.451 142.281 239.806 142.125 240.181 142.05C240.556 141.976 240.944 141.984 241.315 142.075C241.901 142.225 242.419 142.569 242.783 143.051L253.603 157.682C253.806 157.956 253.952 158.268 254.034 158.6C254.116 158.931 254.132 159.275 254.08 159.612C254.029 159.949 253.912 160.273 253.735 160.565C253.559 160.857 253.327 161.112 253.052 161.314Z" fill="#006CB5"/>
<path d="M241.315 142.075L236.487 163.766L212.08 164.539C211.953 164.04 211.977 163.515 212.15 163.03C212.322 162.545 212.635 162.122 213.048 161.815L239.143 142.508C239.451 142.281 239.806 142.125 240.181 142.05C240.556 141.976 240.944 141.984 241.315 142.075Z" fill="url(#paint0_linear)"/>
<path d="M227 164.037L227.798 179.448L252.323 161.304L237.481 156L235.758 163.756L227 164.037Z" fill="url(#paint1_linear)"/>
<path d="M257.918 38.6574L228.776 80.1808L223.175 64.6424C203.833 69.7797 184.792 75.9871 166.139 83.2358C144.634 91.7985 123.928 102.44 117.979 113.439C104.341 138.702 136.377 149.87 136.377 149.87C130.282 150.358 124.153 150.21 118.089 149.429C102.11 147.333 82.2687 139.593 88.0139 113.439C92.554 92.7744 122.112 75.3945 151.152 63.013H151.194C155.437 61.2139 159.681 59.5252 163.805 57.9213L163.924 57.8703C179.459 51.9302 195.303 46.8311 211.387 42.595L208.595 29L257.918 38.6574Z" fill="#006CB5"/>
<path d="M117.497 113.568C103.859 138.832 135.895 150 135.895 150C129.8 150.487 123.671 150.339 117.607 149.559C115.206 146.763 112.962 143.837 110.886 140.792C92.4963 114.043 131.941 92.9635 131.941 92.9635C135.225 80.9724 150.67 71.0519 150.67 71.0519V63.1427H150.712L163.323 58.0509L163.442 58L166.217 81.1845L165.657 83.3485C144.152 91.9282 123.446 102.57 117.497 113.568Z" fill="url(#paint2_linear)"/>
<path d="M207.409 200.396C206.632 201.717 206.151 203.191 206 204.716C206.026 206.242 206.521 207.723 207.417 208.959C209.259 211.691 212.082 213.609 215.301 214.314C215.722 214.443 216.175 214.422 216.582 214.254C216.861 214.083 217.078 213.827 217.202 213.524C217.974 211.954 217.66 210.087 217.151 208.433C216.642 206.778 215.946 205.098 216.022 203.341C216.15 200.057 220.843 193.717 215.377 192.173C210.82 190.849 208.86 197.468 207.409 200.396Z" fill="#B2857F"/>
<path d="M204.345 205C204.345 205 202.733 206.324 203.039 207.783C203.344 209.243 209.14 219.418 217.397 218.256C225.654 217.093 212.093 208.921 212.093 208.921L204.345 205Z" fill="#68E1FD"/>
<path d="M206.707 201C207.045 201.012 207.367 201.146 207.615 201.377C207.863 201.607 208.019 201.919 208.056 202.256C208.271 203.225 208.73 204.124 209.39 204.866C210.049 205.609 210.887 206.171 211.824 206.499C213.979 207.085 215.948 205.286 216.916 205.795C217.883 206.304 220.599 213.39 219.886 215.41C219.173 217.429 215.829 217.379 212.859 215.995C209.889 214.612 204.475 209.087 204.059 206.906C203.643 204.725 205.527 201.586 206.707 201Z" fill="white"/>
<path d="M172.358 211.688C171.557 213.194 171.094 214.856 171 216.559C171.117 218.239 171.738 219.845 172.782 221.167C174.961 224.121 178.195 226.121 181.812 226.751C182.284 226.876 182.786 226.831 183.229 226.624C183.528 226.412 183.758 226.117 183.891 225.775C184.671 223.993 184.222 221.931 183.585 220.098C182.949 218.265 182.1 216.457 182.066 214.522C182.066 210.873 186.963 203.583 180.819 202.132C175.684 200.919 173.817 208.37 172.358 211.688Z" fill="#B2857F"/>
<path d="M168.371 217C168.371 217 166.674 218.553 167.056 220.157C167.438 221.761 174.38 232.801 183.511 231.104C192.642 229.407 177.18 221.048 177.18 221.048L168.371 217Z" fill="#68E1FD"/>
<path d="M171.746 213C172.126 212.996 172.494 213.13 172.782 213.376C173.071 213.623 173.261 213.965 173.316 214.341C173.6 215.405 174.152 216.379 174.921 217.168C175.689 217.957 176.647 218.535 177.703 218.847C180.131 219.39 182.244 217.311 183.313 217.82C184.382 218.329 187.777 226.094 187.064 228.36C186.351 230.626 182.642 230.745 179.273 229.353C175.904 227.961 169.616 222.072 169.09 219.67C168.564 217.269 170.465 213.713 171.746 213Z" fill="white"/>
<path d="M190.247 123.073C190.478 123.113 190.705 123.173 190.926 123.251C196.289 125.288 202.747 134.368 206.396 138.679C211.14 144.139 215.088 150.241 218.124 156.806C224.285 170.562 224.854 187.654 216.198 199.993L209.545 198.601C208.964 198.537 208.416 198.297 207.975 197.913C207.748 197.581 207.591 197.205 207.513 196.81C207.436 196.414 207.44 196.008 207.525 195.614C207.876 190.861 207.657 186.083 206.872 181.382C206.432 178.16 205.445 175.038 203.952 172.149C201.865 168.39 198.572 165.479 195.364 162.628C185.181 153.607 176.049 144.28 171 131.525C175.557 129.285 185.333 122.207 190.247 123.073Z" fill="#473F47"/>
<path d="M174.673 130.477C174.892 130.564 175.1 130.678 175.292 130.816C180.036 134.041 184.203 144.394 186.749 149.418C190.083 155.838 192.5 162.694 193.928 169.785C196.703 184.594 193.283 201.346 181.988 211.368L175.835 208.457C175.288 208.259 174.812 207.901 174.469 207.43C174.326 207.052 174.262 206.649 174.279 206.245C174.297 205.841 174.396 205.444 174.571 205.08C176.022 200.539 176.922 195.841 177.252 191.086C177.578 187.851 177.345 184.584 176.565 181.428C175.419 177.296 172.89 173.697 170.438 170.167C162.673 159.033 155.935 147.823 154 134.245C158.948 133.124 170.107 128.525 174.673 130.477Z" fill="#473F47"/>
<path d="M202.759 97.8818C202.763 97.9184 202.763 97.9555 202.759 97.9921C202.835 99.4093 203.302 100.657 202.937 102.099C202.547 103.703 201.053 105.155 199.424 104.917C198.066 104.722 197.141 103.5 196.097 102.609C195.005 101.734 193.793 101.02 192.499 100.487C190.802 99.6978 189.053 98.9596 187.305 98.2806C186.185 97.8394 184.047 97.5678 183.571 96.4221C183.096 95.2765 183.249 93.4689 183.113 92.2554L181 73L200.663 89.1239C201.469 90.8871 202.097 92.7265 202.538 94.6146C202.726 95.6929 202.8 96.788 202.759 97.8818Z" fill="white"/>
<path d="M188.509 100.348C188.628 101.486 188.891 102.614 189.027 103.743C189.74 110.014 188.967 116.659 191.513 122.608C192.09 123.932 192.837 125.34 192.498 126.749C192.083 127.943 191.247 128.945 190.147 129.567C184.953 133.199 178.648 134.82 172.504 136.356C167.879 137.527 161.37 139.657 156.753 137.603C154.784 136.754 153.936 134.786 153.13 132.851C150.584 126.69 149.243 119.901 148.038 113.332C147.885 112.484 147.724 111.635 147.58 110.744C146.578 104.821 145.795 98.8463 145.229 92.821C144.839 88.4421 144.66 83.6898 147.155 80.0916C150.465 75.2883 157.475 71.6053 162.931 69.908C164.696 69.34 166.534 69.034 168.388 69C171.029 69.1234 173.629 69.6974 176.077 70.6973C178.987 71.758 181.576 72.6406 183.231 75.2204C185.065 78.2174 186.471 81.4567 187.406 84.8439C188.286 88.0158 188.723 91.2943 188.704 94.5861C188.704 96.1985 188.484 97.8279 188.492 99.4318C188.465 99.7371 188.471 100.044 188.509 100.348Z" fill="white"/>
<path opacity="0.1" d="M165.91 138.801C164.145 139.539 159.766 138.326 158.349 138.232C157.5 138.181 156.651 137.842 155.803 137.74C151.56 137.155 149.752 125.528 149.014 122.465C147.028 114.276 144.431 105.857 143.396 97.5406C143.005 94.3243 142.725 91.0401 143.447 87.8917C144.168 84.7432 145.993 81.7052 148.92 80.254C154.012 77.759 157.449 94.3837 158.561 97.7782C159.952 102.021 161.353 106.264 162.736 110.508C163.347 112.409 163.542 114.522 164.586 116.261C166.173 118.901 167.514 118.4 170.17 117.959C175.745 116.991 180.956 114.623 186.447 113.3C186.672 113.215 186.913 113.178 187.154 113.189C187.395 113.201 187.63 113.262 187.847 113.367C188.143 113.611 188.344 113.95 188.415 114.326C188.739 115.398 188.916 116.509 188.942 117.628C188.974 117.948 188.927 118.271 188.806 118.57C188.614 118.874 188.349 119.125 188.034 119.299C184.323 121.754 180.247 123.607 175.958 124.79C172.563 125.74 169.347 127.336 167.056 130.17C164.993 132.716 167.675 135.398 166.555 138.156C166.496 138.301 166.409 138.433 166.298 138.544C166.187 138.655 166.055 138.742 165.91 138.801Z" fill="#020202"/>
<path d="M162 125.973L194.536 115L218.4 128.612L185.193 142.224L162 125.973Z" fill="#68E1FD"/>
<path d="M162 125.973L194.536 115L218.4 128.612L185.193 142.224L162 125.973Z" fill="url(#paint3_linear)"/>
<path d="M164 123.973L196.536 113L220.4 126.612L187.193 140.224L164 123.973Z" fill="#006CB5"/>
<path d="M188.984 138.103L215.902 126.213L202.766 119L176 129.133L188.984 138.103Z" fill="url(#paint4_linear)"/>
<path d="M187 140.202H219.087L246.71 123L220.207 126.59L187 140.202Z" fill="#006CB5"/>
<path d="M176.287 61.6411C175.957 62.8376 175.6 64.0342 175.218 65.2223C174.37 67.9379 172.672 70.4159 169.719 71.0693C169.066 71.195 168.406 71.2744 167.742 71.307C167.614 71.307 167.47 71.307 167.3 71.307C167.291 71.3115 167.281 71.3138 167.271 71.3138C167.261 71.3138 167.25 71.3115 167.241 71.307H167.165C166.833 71.2914 166.501 71.3257 166.18 71.4088C166.091 71.4135 166.003 71.4396 165.926 71.4852C165.077 71.8755 165.145 73.2503 165.204 74.031C165.413 74.9095 165.311 75.8332 164.916 76.6448C164.916 76.6448 164.916 76.6957 164.865 76.7297C164.63 76.9863 164.346 77.1935 164.03 77.3392C163.713 77.4849 163.371 77.5662 163.023 77.5783C161.56 77.6966 160.107 77.2536 158.958 76.3393C158.301 75.7291 157.773 74.9933 157.406 74.1753C157.29 73.9429 157.194 73.7017 157.117 73.454C157.021 73.0341 156.984 72.6028 157.007 72.1726C157.022 71.5127 157.085 70.8548 157.193 70.2037C157.506 68.9189 157.753 67.6188 157.932 66.3085C157.943 65.6447 157.988 64.9819 158.067 64.3227C158.176 63.9016 158.255 63.4734 158.305 63.0413C158.305 61.7938 157.669 60.5888 157.66 59.3243C157.649 58.0739 157.765 56.8256 158.008 55.5989C158.461 53.1656 159.52 50.8859 161.089 48.9711C163.999 45.5765 169.159 43.8793 173.215 45.8142C175.242 46.7813 176.815 48.4971 177.603 50.6004C178.961 54.1732 177.263 58.1532 176.287 61.6411Z" fill="#B2857F"/>
<path d="M171.947 122.252C172.66 122.167 173.381 122.091 174.094 122.031C174.519 121.972 174.952 121.998 175.367 122.108C175.571 122.161 175.757 122.268 175.906 122.417C176.055 122.566 176.162 122.752 176.215 122.956C176.211 123.111 176.243 123.266 176.309 123.406C176.417 123.532 176.568 123.613 176.733 123.635C179.279 124.297 181.91 125.332 183.429 127.429C183.61 127.627 183.736 127.869 183.795 128.131C183.855 128.392 183.845 128.665 183.768 128.922C183.42 129.635 182.402 129.533 181.638 129.321C181.748 129.478 181.806 129.664 181.806 129.856C181.806 130.047 181.748 130.234 181.638 130.39C181.524 130.544 181.373 130.668 181.2 130.751C181.027 130.834 180.837 130.873 180.645 130.866C180.393 130.819 180.134 130.819 179.881 130.866C179.708 130.946 179.548 131.052 179.406 131.18C179.049 131.416 178.647 131.577 178.225 131.652C177.804 131.728 177.371 131.717 176.954 131.621C176.105 131.493 175.256 131.205 174.408 131.137C173.092 131.035 171.913 131.468 170.691 130.933C169.343 130.266 167.918 129.77 166.448 129.457C165.98 129.382 165.549 129.159 165.217 128.82C165.074 128.533 165 128.216 165 127.895C165 127.574 165.074 127.258 165.217 126.97C165.437 125.929 165.833 124.933 166.388 124.026C167.11 123.007 168.315 122.829 169.494 122.625C170.36 122.481 171.132 122.371 171.947 122.252Z" fill="#B2857F"/>
<path d="M146.535 79.7727C140.298 90.1005 134.137 102.066 132.363 114.1C131.896 117.265 131.642 120.999 133.127 123.969C135.554 128.806 143.811 129.748 148.563 130.232C154.254 130.809 159.984 130.886 165.689 130.461C165.813 130.485 165.942 130.477 166.063 130.439C166.184 130.401 166.294 130.334 166.383 130.243C166.472 130.153 166.538 130.042 166.573 129.92C166.609 129.798 166.614 129.669 166.588 129.545L166.826 124.054C166.865 123.798 166.83 123.536 166.724 123.299C166.575 123.126 166.388 122.99 166.177 122.903C165.966 122.816 165.738 122.78 165.51 122.798C162.187 122.532 158.921 121.774 155.819 120.549C152.874 119.378 147.121 116.306 147.536 112.436C147.766 110.264 150.15 107.616 151.33 105.902C154.164 101.786 157.219 97.7975 160.342 93.8938C160.342 93.8938 160.648 71.6852 146.535 79.7727Z" fill="white"/>
<path d="M175.2 56.1692C175.622 56.0715 176.018 55.8857 176.364 55.6239C176.709 55.3621 176.995 55.0303 177.202 54.6502C177.55 55.6261 179.197 55.3291 179.613 54.3701C180.028 53.4112 179.613 52.3249 179.239 51.366C179.629 51.2742 179.99 51.0867 180.289 50.8205C180.588 50.5543 180.816 50.2177 180.953 49.8412C181.089 49.4647 181.13 49.0601 181.071 48.664C181.011 48.2679 180.854 47.8928 180.614 47.5726C180.334 47.2586 179.944 46.9871 179.867 46.5627C179.849 46.2394 179.898 45.9157 180.011 45.6123C180.064 45.1141 179.985 44.6107 179.781 44.1532C179.576 43.6957 179.255 43.3003 178.849 43.007C178.015 42.4315 177.083 42.0118 176.099 41.768C176.363 41.3385 176.462 40.8273 176.376 40.3305C176.29 39.8336 176.026 39.3852 175.632 39.0693C174.828 38.4549 173.852 38.1051 172.84 38.068C171.372 37.9067 169.751 37.9746 168.597 38.9166C167.809 38.4275 166.881 38.2153 165.958 38.3137C165.036 38.4121 164.173 38.8154 163.506 39.4597C163.269 39.7884 162.937 40.037 162.555 40.1726C162.282 40.1923 162.008 40.1457 161.757 40.0368C160.687 39.5792 159.504 39.4578 158.363 39.6889C157.793 39.8248 157.294 40.1695 156.966 40.655C156.638 41.1404 156.503 41.7314 156.589 42.3111C156.168 42.3617 155.772 42.5401 155.455 42.8223C155.138 43.1044 154.915 43.4769 154.816 43.8896C154.796 44.1484 154.715 44.3988 154.578 44.6194C154.332 44.9079 153.899 44.8909 153.534 44.9249C152.838 44.9855 152.191 45.3065 151.721 45.8237C151.251 46.3409 150.994 47.0163 151 47.715C151.007 48.4136 151.276 49.0842 151.755 49.5927C152.235 50.1011 152.888 50.4101 153.585 50.4579C153.505 50.7989 153.496 51.1528 153.559 51.4974C153.621 51.842 153.755 52.1699 153.95 52.4607C154.4 53.182 155.002 53.233 155.596 53.6827C155.944 53.9543 155.809 53.9798 155.792 54.5314C155.774 55.039 155.8 55.5471 155.868 56.0504C155.984 57.0199 156.226 57.97 156.589 58.8763C156.844 59.5298 157.166 60.1578 157.395 60.8197C157.711 61.8335 157.922 62.8772 158.023 63.9342L159.458 59.8777C159.474 59.8223 159.474 59.7634 159.458 59.708C159.429 59.6327 159.375 59.5697 159.305 59.5298C158.68 59.0424 158.239 58.3561 158.057 57.5845C157.875 56.8129 157.962 56.0022 158.303 55.2866C158.399 55.0622 158.55 54.8662 158.744 54.7176C158.937 54.5689 159.165 54.4726 159.407 54.438C159.984 54.438 160.425 54.9387 160.705 55.4394C161.003 55.9728 161.229 56.5436 161.376 57.1367C161.764 56.208 162.3 55.3483 162.962 54.5908C163.243 54.2768 163.582 53.7421 164.032 53.9034C164.482 54.0646 164.694 54.8793 164.88 55.1763C165.549 54.9162 166.158 54.5237 166.671 54.0222C166.612 54.6111 166.723 55.2047 166.99 55.7326C167.258 56.2604 167.671 56.7006 168.182 57.0009C169.251 57.5016 170.804 56.7887 170.804 55.6006C170.804 56.1353 173.121 55.2357 173.29 55.1339C173.469 55.477 173.747 55.7588 174.087 55.9432C174.427 56.1277 174.815 56.2064 175.2 56.1692Z" fill="#473F47"/>
<path d="M163.512 71.5686C164.196 71.6583 164.886 71.6867 165.574 71.6534C165.484 71.6581 165.397 71.6843 165.32 71.7298C164.471 72.1202 164.539 73.495 164.598 74.2757C164.807 75.1541 164.705 76.0778 164.31 76.8895C164.046 76.8915 163.782 76.8543 163.529 76.7792C163.27 76.6875 163.03 76.5463 162.825 76.3633C162.055 75.7297 161.492 74.8808 161.208 73.9253C160.924 72.9698 160.931 71.9512 161.229 71C161.964 71.2827 162.731 71.4736 163.512 71.5686Z" fill="#96625E"/>
<path d="M197.808 87C197.808 87 213.346 98.465 211.199 109.913C209.205 120.563 207.414 129.033 207.414 129.033L200.142 124.789C200.142 124.789 205.004 108.742 194.855 101.766C184.705 94.7904 197.808 87 197.808 87Z" fill="white"/>
<path d="M198.803 124.266L198.107 127.873C197.984 128.33 197.967 128.809 198.056 129.273C198.103 129.505 198.226 129.715 198.406 129.869C198.586 130.022 198.812 130.112 199.049 130.122C199.558 130.122 199.991 129.562 200.5 129.664C200.682 129.718 200.854 129.801 201.009 129.91C202.095 130.504 203.411 129.91 204.556 129.375C204.739 129.272 204.951 129.234 205.159 129.265C205.405 129.333 205.558 129.579 205.77 129.732C205.982 129.859 206.228 129.919 206.475 129.904C206.722 129.889 206.958 129.799 207.153 129.647C207.538 129.327 207.831 128.911 208.002 128.442C208.459 127.438 208.657 126.336 208.578 125.236C208.5 124.136 208.147 123.073 207.552 122.145C206.901 121.34 206.045 120.724 205.075 120.363C204.105 120.002 203.055 119.908 202.036 120.091C199.83 120.439 199.202 122.17 198.803 124.266Z" fill="#B2857F"/>
<path d="M186 142.202H218.087L245.71 125L219.207 128.59L186 142.202Z" fill="#006CB5"/>
<path d="M187.341 140L186 141.757H218.087L219.427 140H187.341Z" fill="url(#paint5_linear)"/>
<path d="M246.964 123L245.623 124.757L218 141.958L219.341 140.202L246.964 123Z" fill="#68E1FD"/>
<path d="M246.964 123L245.623 124.757L218 141.958L219.341 140.202L246.964 123Z" fill="url(#paint6_linear)"/>
<path d="M220.917 127.064L242.863 124L219.975 138.036L195 138.469L220.917 127.064Z" fill="white"/>
<path d="M183.314 125.987L195.738 121.379L189.746 117L177 121.379L183.314 125.987Z" fill="url(#paint7_linear)"/>
<path d="M156.055 172.918L106.758 195.424C105.709 195.902 104.513 195.944 103.433 195.542C102.353 195.139 101.476 194.325 100.996 193.277L88.385 165.645C88.1437 165.132 88.0136 164.574 88.0031 164.008C87.9704 163.146 88.1951 162.295 88.6485 161.561C89.102 160.828 89.7636 160.247 90.549 159.892L139.846 137.386C140.43 137.123 141.065 136.992 141.706 137C142.346 137.009 142.977 137.158 143.554 137.437C144.462 137.875 145.188 138.617 145.608 139.533L158.202 167.173C158.438 167.691 158.57 168.251 158.59 168.82C158.61 169.389 158.518 169.957 158.318 170.49C158.119 171.024 157.816 171.513 157.428 171.929C157.04 172.346 156.573 172.682 156.055 172.918Z" fill="#68E1FD"/>
<path d="M156.055 172.918L106.758 195.424C105.709 195.902 104.513 195.944 103.433 195.542C102.353 195.139 101.476 194.325 100.996 193.277L88.385 165.645C88.1437 165.132 88.0136 164.574 88.0031 164.008C87.9704 163.146 88.1951 162.295 88.6485 161.561C89.102 160.828 89.7636 160.247 90.549 159.892L139.846 137.386C140.43 137.123 141.065 136.992 141.706 137C142.346 137.009 142.977 137.158 143.554 137.437C144.462 137.875 145.188 138.617 145.608 139.533L158.202 167.173C158.438 167.691 158.57 168.251 158.59 168.82C158.61 169.389 158.518 169.957 158.318 170.49C158.119 171.024 157.816 171.513 157.428 171.929C157.04 172.346 156.573 172.682 156.055 172.918Z" fill="url(#paint8_linear)"/>
<path d="M159.063 171.914L109.766 194.42C108.717 194.898 107.521 194.94 106.441 194.538C105.361 194.135 104.484 193.321 104.004 192.273L91.3932 164.65C91.155 164.135 91.0222 163.579 91.0028 163.012C90.9718 162.15 91.197 161.298 91.6502 160.564C92.1034 159.83 92.7641 159.246 93.5487 158.888L142.846 136.391C143.894 135.914 145.088 135.872 146.167 136.273C147.247 136.673 148.124 137.484 148.608 138.529L161.218 166.169C161.454 166.688 161.586 167.248 161.605 167.817C161.625 168.387 161.532 168.955 161.331 169.488C161.131 170.022 160.828 170.511 160.439 170.927C160.049 171.343 159.582 171.679 159.063 171.914Z" fill="#006CB5"/>
<path d="M146.537 136.434L131.143 170.192L91.0028 163.013C90.9718 162.151 91.197 161.299 91.6502 160.565C92.1034 159.831 92.7641 159.247 93.5487 158.889L142.846 136.392C143.426 136.127 144.058 135.993 144.696 136C145.334 136.008 145.963 136.156 146.537 136.434Z" fill="url(#paint9_linear)"/>
<path d="M116.031 167.496L112 192.947L158.344 171.799L135.931 158L130.424 170.076L116.031 167.496Z" fill="url(#paint10_linear)"/>
<path d="M263.936 118.268L232.095 111.979C231.76 111.913 231.441 111.782 231.157 111.593C230.873 111.403 230.629 111.16 230.439 110.876C230.249 110.592 230.117 110.274 230.05 109.939C229.983 109.604 229.983 109.259 230.05 108.924L233.572 91.103C233.634 90.7689 233.764 90.4511 233.954 90.1695C234.237 89.7382 234.643 89.4013 235.119 89.2018C235.596 89.0023 236.12 88.9492 236.627 89.0493L268.467 95.3377C268.844 95.4085 269.2 95.5636 269.509 95.7914C269.818 96.0192 270.071 96.3137 270.25 96.653C270.537 97.1848 270.632 97.7989 270.521 98.3927L266.991 116.214C266.926 116.55 266.795 116.869 266.606 117.155C266.417 117.44 266.174 117.685 265.89 117.876C265.606 118.066 265.287 118.199 264.952 118.267C264.617 118.334 264.271 118.334 263.936 118.268Z" fill="#006CB5"/>
<path d="M270.253 96.653L250.973 107.685L234 90.1695C234.284 89.7382 234.69 89.4013 235.166 89.2018C235.642 89.0023 236.167 88.9492 236.673 89.0493L268.514 95.3377C268.883 95.4144 269.231 95.5722 269.532 95.7996C269.832 96.0271 270.079 96.3186 270.253 96.653Z" fill="url(#paint11_linear)"/>
<path d="M244.854 101L234 111.973L263.923 117.888L257.846 103.342L250.956 107.288L244.854 101Z" fill="url(#paint12_linear)"/>
</g>
<defs>
<linearGradient id="paint0_linear" x1="216.443" y1="128.799" x2="238.855" y2="182.327" gradientUnits="userSpaceOnUse">
<stop offset="0.01" stop-color="white"/>
<stop offset="1" stop-color="white" stop-opacity="0"/>
</linearGradient>
<linearGradient id="paint1_linear" x1="199.436" y1="144.745" x2="305.413" y2="211.509" gradientUnits="userSpaceOnUse">
<stop offset="0.01"/>
<stop offset="0.08" stop-opacity="0.69"/>
<stop offset="0.21" stop-opacity="0.32"/>
<stop offset="1" stop-opacity="0"/>
</linearGradient>
<linearGradient id="paint2_linear" x1="17370.7" y1="20155.7" x2="-3893.42" y2="10671.3" gradientUnits="userSpaceOnUse">
<stop offset="0.01"/>
<stop offset="0.08" stop-opacity="0.69"/>
<stop offset="0.21" stop-opacity="0.32"/>
<stop offset="1" stop-opacity="0"/>
</linearGradient>
<linearGradient id="paint3_linear" x1="12507.4" y1="3712.92" x2="12176.6" y2="7251.84" gradientUnits="userSpaceOnUse">
<stop offset="0.01"/>
<stop offset="0.08" stop-opacity="0.69"/>
<stop offset="0.21" stop-opacity="0.32"/>
<stop offset="1" stop-opacity="0"/>
</linearGradient>
<linearGradient id="paint4_linear" x1="8274.21" y1="2718.3" x2="9768.42" y2="5234.23" gradientUnits="userSpaceOnUse">
<stop offset="0.01"/>
<stop offset="0.08" stop-opacity="0.69"/>
<stop offset="0.21" stop-opacity="0.32"/>
<stop offset="1" stop-opacity="0"/>
</linearGradient>
<linearGradient id="paint5_linear" x1="6855.79" y1="463.719" x2="6911.84" y2="-178.841" gradientUnits="userSpaceOnUse">
<stop offset="0.01"/>
<stop offset="0.08" stop-opacity="0.69"/>
<stop offset="0.21" stop-opacity="0.32"/>
<stop offset="1" stop-opacity="0"/>
</linearGradient>
<linearGradient id="paint6_linear" x1="7587.52" y1="2828.73" x2="8470.89" y2="4647.6" gradientUnits="userSpaceOnUse">
<stop offset="0.01"/>
<stop offset="0.08" stop-opacity="0.69"/>
<stop offset="0.21" stop-opacity="0.32"/>
<stop offset="1" stop-opacity="0"/>
</linearGradient>
<linearGradient id="paint7_linear" x1="4031.72" y1="1339.5" x2="4149.29" y2="1692.75" gradientUnits="userSpaceOnUse">
<stop offset="0.01"/>
<stop offset="0.08" stop-opacity="0.69"/>
<stop offset="0.21" stop-opacity="0.32"/>
<stop offset="1" stop-opacity="0"/>
</linearGradient>
<linearGradient id="paint8_linear" x1="11787.3" y1="12597.1" x2="4384.69" y2="18520.6" gradientUnits="userSpaceOnUse">
<stop offset="0.01"/>
<stop offset="0.08" stop-opacity="0.69"/>
<stop offset="0.21" stop-opacity="0.32"/>
<stop offset="1" stop-opacity="0"/>
</linearGradient>
<linearGradient id="paint9_linear" x1="21119" y1="2855.07" x2="21760" y2="6710.01" gradientUnits="userSpaceOnUse">
<stop offset="0.01" stop-color="white"/>
<stop offset="1" stop-color="white" stop-opacity="0"/>
</linearGradient>
<linearGradient id="paint10_linear" x1="15957.6" y1="4314.6" x2="21804.6" y2="11721.8" gradientUnits="userSpaceOnUse">
<stop offset="0.01"/>
<stop offset="0.08" stop-opacity="0.69"/>
<stop offset="0.21" stop-opacity="0.32"/>
<stop offset="1" stop-opacity="0"/>
</linearGradient>
<linearGradient id="paint11_linear" x1="-19126.1" y1="-3504.18" x2="-19699" y2="-2360.42" gradientUnits="userSpaceOnUse">
<stop offset="0.01" stop-color="white"/>
<stop offset="1" stop-color="white" stop-opacity="0"/>
</linearGradient>
<linearGradient id="paint12_linear" x1="-16595.4" y1="-2608.01" x2="-16807.9" y2="289.483" gradientUnits="userSpaceOnUse">
<stop offset="0.01"/>
<stop offset="0.08" stop-opacity="0.69"/>
<stop offset="0.21" stop-opacity="0.32"/>
<stop offset="1" stop-opacity="0"/>
</linearGradient>
<clipPath id="clip0">
<rect width="342.314" height="258" fill="white"/>
</clipPath>
</defs>
</svg>
