<svg width="544" height="296" viewBox="0 0 544 296" fill="none" xmlns="http://www.w3.org/2000/svg">
<g clip-path="url(#clip0)">
<path opacity="0.1" d="M324.6 213.345C334.645 212.774 347.109 205.974 356.8 202.966C368.27 199.416 379.785 196 391.345 192.719C431.591 181.29 472.268 171.553 513.377 163.505C517.214 162.752 521.056 162.017 524.904 161.301C518.91 148.373 509.622 137.241 497.968 129.016C498.267 126.186 498.418 123.343 498.423 120.497C498.423 75.5245 462.409 39.0666 417.968 39.0666C404.286 39.0521 390.833 42.5764 378.923 49.2959C347.468 28.6468 306.414 16.1494 261.495 16.1494C197.668 16.1494 141.636 41.3846 109.886 79.3849L259.104 104.543L350.623 119.966C246.291 123.074 141.636 126.163 37.6044 118.868C23.8717 132.129 15.1798 149.738 13.0143 168.685C10.8488 187.633 15.344 206.742 25.7317 222.749C25.7317 224.377 25.7999 225.992 25.9226 227.594C28.5726 228.351 31.1317 229.086 33.4271 229.567C70.2787 237.336 107.367 243.838 144.691 249.073C117.186 265.997 83.6908 268.393 51.9635 275.56C67.3271 288.216 88.1908 295.973 111.182 295.973H453.509C490.577 295.973 520.623 270.221 520.623 238.449C526.185 229.295 529.892 219.139 531.532 208.559C462.941 215.169 393.495 209.43 324.6 213.345Z" fill="#6C63FF"/>
<path opacity="0.1" d="M532 196.027C532.037 182.933 528.917 170.022 522.905 158.383C516.893 146.744 508.164 136.719 497.454 129.154C497.751 126.325 497.902 123.483 497.909 120.639C497.909 75.6667 461.877 39.2224 417.454 39.2224C403.771 39.2078 390.318 42.7305 378.404 49.4472C346.95 28.789 305.891 16.2871 260.973 16.2871C187.909 16.2871 125.018 49.3791 97.1272 96.8329C95.5772 96.7422 94.0181 96.6923 92.4454 96.6923C48.0181 96.6923 11.9909 133.15 11.9909 178.123C11.9597 194.008 16.5586 209.559 25.2272 222.882C25.2272 263.345 63.4954 296.147 110.682 296.147H453.018C490.082 296.147 520.127 270.39 520.127 238.618C527.922 225.776 532.03 211.042 532 196.027Z" fill="#006CB5"/>
<path d="M436.673 145.138C436.023 144.64 435.262 144.307 434.455 144.167C433.605 143.972 432.736 143.85 431.873 143.714L420.682 142.103C419.552 141.894 418.4 141.833 417.255 141.922C416.68 141.969 416.12 142.13 415.609 142.394C415.097 142.659 414.643 143.023 414.273 143.464C413.939 143.875 413.756 144.387 413.755 144.916C413.817 145.448 413.99 145.961 414.264 146.422C414.372 146.637 414.465 146.86 414.541 147.089C414.648 147.602 414.782 148.109 414.941 148.608C414.99 148.716 415.055 148.817 415.132 148.908C415.134 148.933 415.134 148.959 415.132 148.985C415.009 149.611 415.405 150.264 415.227 150.867C415.073 151.385 414.568 151.698 414.25 152.129C414.038 152.434 413.92 152.795 413.912 153.167C413.904 153.539 414.006 153.905 414.205 154.22C414.546 154.746 415.164 155.104 415.341 155.708C415.573 156.501 414.946 157.268 414.386 157.88C413.358 159.008 412.407 160.204 411.541 161.46C411.298 161.768 411.141 162.136 411.086 162.526C411.036 163.315 411.796 164.009 411.664 164.794C411.559 165.411 410.955 165.787 410.432 166.155C408.5 167.425 406.95 169.466 406.796 171.775C406.3 168.101 404.774 164.642 402.396 161.795C401.746 161.015 401.032 160.23 400.764 159.241C400.664 158.847 400.646 158.425 400.509 158.044C400.055 156.842 398.609 156.325 397.977 155.218C397.523 154.437 397.523 153.435 396.959 152.75C396.396 152.065 395.509 151.911 395.023 151.248C394.78 150.8 394.573 150.333 394.405 149.851C394.201 149.459 393.914 149.115 393.564 148.844C393.497 148.791 393.427 148.741 393.355 148.695C393.43 148.627 393.491 148.545 393.532 148.452C393.574 148.36 393.595 148.26 393.596 148.159C393.596 147.629 393.068 147.279 392.609 147.016C392.018 146.68 391.441 146.318 390.877 145.941C391.492 145.655 392.025 145.22 392.427 144.675C392.932 143.863 393.14 142.902 393.018 141.954C392.987 141.189 392.701 140.456 392.205 139.872C391.918 139.568 391.559 139.35 391.259 139.064C390.482 138.307 390.218 137.186 389.896 136.152C389.468 134.791 388.8 133.362 387.555 132.641C386.955 132.291 386.255 132.128 385.668 131.761C385.082 131.393 384.591 130.699 384.796 130.032C384.932 129.579 385.355 129.266 385.641 128.88C385.983 128.382 386.114 127.769 386.006 127.174C385.898 126.58 385.559 126.052 385.064 125.705C384.727 125.492 384.314 125.306 384.246 124.915C383.982 124.847 383.744 124.706 383.557 124.509C383.371 124.312 383.244 124.066 383.191 123.8C383.089 123.266 383.089 122.718 383.191 122.185C383.309 121.341 383.426 120.5 383.541 119.662C383.741 119.746 383.956 119.788 384.173 119.788C384.39 119.788 384.604 119.746 384.805 119.662C385.198 120.3 385.655 120.895 386.168 121.441C387.552 123.072 388.63 124.939 389.35 126.952C389.609 127.678 389.873 128.49 390.546 128.876C390.777 129.007 391.041 129.075 391.268 129.216C391.549 129.411 391.789 129.657 391.977 129.942C392.523 130.663 393.068 131.38 393.609 132.101L393.636 132.21C393.651 132.274 393.676 132.335 393.709 132.391C393.81 132.504 393.949 132.576 394.1 132.591C395.773 132.976 397.65 133.33 399.1 132.418C400.409 131.602 400.982 129.987 402.091 128.907C402.877 128.141 403.991 127.547 404.214 126.467C403.948 126.385 403.687 126.29 403.432 126.181C403.659 125.954 403.886 125.691 404.196 125.392C404.645 124.953 405.05 124.471 405.405 123.954C405.788 123.315 406.094 122.633 406.314 121.922C407.189 119.43 408.068 116.936 408.95 114.441C409.368 113.262 409.786 112.073 410.314 110.926C410.859 109.683 411.505 108.49 412.1 107.269C413.637 104.096 414.823 100.765 415.636 97.335C415.781 96.8671 415.829 96.3749 415.777 95.888C415.65 95.1032 415.055 94.4862 414.486 93.9283C413.915 93.311 413.264 92.7725 412.55 92.327C412.192 92.1045 411.792 91.9555 411.376 91.8885C410.959 91.8215 410.533 91.838 410.123 91.9369C408.959 92.2771 408.227 93.4656 407.959 94.6586C407.691 95.8517 407.791 97.081 407.677 98.2876C407.514 100.034 406.914 101.722 406.768 103.473C406.691 104.484 406.768 105.509 406.646 106.521C406.422 107.845 405.96 109.117 405.282 110.277C403.808 113.043 401.812 115.498 399.405 117.508C399.127 117.739 398.841 117.961 398.568 118.211C398.568 118.016 398.6 117.816 398.627 117.621C398.429 117.673 398.236 117.741 398.05 117.825C398.073 117.596 398.05 117.365 397.982 117.145C397.618 116.061 396 115.784 395.709 114.682C395.661 114.409 395.635 114.133 395.632 113.856C395.536 112.89 394.877 112.073 394.65 111.134C394.441 110.268 394.6 109.32 394.196 108.517C393.851 108.015 393.445 107.558 392.986 107.156C392.44 106.533 392.047 105.793 391.836 104.992C391.777 104.77 391.723 104.539 391.659 104.316C391.728 103.813 391.672 103.3 391.496 102.824C391.082 101.799 390.014 101.141 389.627 100.102C389.327 99.2947 389.459 98.2876 388.891 97.6616C388.589 97.3625 388.22 97.1401 387.814 97.013C385.733 96.2044 383.55 95.6899 381.327 95.4842C380.082 95.3708 378.709 95.3073 377.818 94.4318C376.777 93.4157 376.727 91.5876 375.509 90.8028C374.436 90.1088 372.918 90.6214 372.086 91.5967C371.961 91.7401 371.846 91.8917 371.741 92.0503C371.589 91.4423 371.557 90.8107 371.646 90.1904C371.646 90.0362 371.677 89.8774 371.691 89.7368C373.743 89.0675 375.49 87.691 376.618 85.8538C376.618 85.8538 376.618 85.8538 376.618 85.881L376.673 86.0216C376.805 86.3527 377.014 86.6703 377.323 86.7066C377.528 86.7041 377.727 86.6321 377.886 86.5024C378.161 86.3123 378.414 86.0933 378.641 85.8492C378.756 85.7222 378.865 85.5906 378.968 85.4546C379.178 85.1713 379.357 84.8673 379.505 84.5473C379.73 84.0659 379.884 83.5538 379.959 83.0277C380.041 82.5015 380.05 81.9616 380.141 81.4354C380.226 81.0281 380.337 80.6266 380.473 80.2333C380.518 80.1018 380.564 79.9702 380.605 79.8387C380.646 79.7071 380.705 79.5302 380.75 79.385C381.035 78.4521 381.188 77.4841 381.205 76.5091C381.205 76.3458 381.205 76.1825 381.205 76.0191C381.188 75.3828 381.044 74.7561 380.782 74.1758C380.52 73.5955 380.144 73.0733 379.677 72.6396C378.896 72 377.859 71.7324 377.286 70.8659C376.914 70.2853 376.832 69.5368 376.614 68.8564C376.378 68.0421 375.918 67.31 375.287 66.7431C374.655 66.1763 373.877 65.7973 373.041 65.6493C372.034 65.539 371.023 65.8165 370.214 66.425L370.15 66.4749C369.699 66.8184 369.317 67.243 369.023 67.7269C368.422 67.5618 367.872 67.25 367.423 66.8196C366.968 66.3977 366.618 65.867 366.159 65.4587C365.73 65.0666 365.203 64.7966 364.634 64.6769C364.065 64.5572 363.474 64.5923 362.923 64.7783C362.355 65.0052 361.849 65.3632 361.447 65.8229C361.045 66.2827 360.758 66.831 360.609 67.4229C360.359 68.3574 360.405 69.4325 359.882 70.2127C359.477 70.8206 358.814 71.12 358.35 71.6734C358.062 72.0238 357.865 72.4399 357.777 72.8846C357.722 73.1333 357.696 73.3875 357.7 73.6421C357.7 73.7555 357.7 73.869 357.727 73.9778C357.727 73.9778 357.727 74.0141 357.727 74.0323C357.743 74.1566 357.769 74.2794 357.805 74.3997C357.934 74.8596 358.165 75.2844 358.482 75.6426C358.782 75.9857 359.157 76.2557 359.577 76.4319C359.749 76.4988 359.926 76.5548 360.105 76.5998L360.646 76.7223L360.836 76.7676C360.184 77.9907 359.821 79.3472 359.777 80.7322C359.733 82.1173 360.008 83.4939 360.582 84.756C360.582 84.883 360.55 85.01 360.536 85.137C360.462 86.9232 360.541 88.7125 360.773 90.4853C360.836 91.1884 360.873 91.9641 360.441 92.5221C360.244 92.7415 360.023 92.9379 359.782 93.1072C360.027 92.7897 360.277 92.4767 360.532 92.1637C359.891 91.5195 358.877 91.4379 357.968 91.5014C356.209 91.6325 354.501 92.1532 352.968 93.0256C351.95 93.6108 350.905 94.3865 349.741 94.2504C349.055 94.1733 348.377 93.7967 347.709 93.9782C347.334 94.1315 346.983 94.3394 346.668 94.5951C346.42 94.7731 346.12 94.8655 345.814 94.8582C345.1 93.9827 343.996 93.3885 343.141 92.6763C342.168 91.8123 341.278 90.8601 340.482 89.832C339.009 88.0584 337.541 86.2802 336.096 84.4883C334.877 82.9823 333.627 81.3538 333.414 79.4259C333.392 79.2346 333.381 79.0423 333.382 78.8498C333.411 77.9337 333.527 77.0225 333.727 76.128C333.781 75.9121 333.781 75.6862 333.727 75.4702C333.591 75.0166 333.068 74.8488 332.618 74.749C332.677 74.3997 332.718 74.0413 332.741 73.7011C332.996 69.7999 332.718 65.8352 333.546 62.0157C333.859 60.546 334.373 59.0581 335.432 57.992C337.091 56.3182 339.868 55.9144 341.141 53.9321C342.205 52.2809 341.782 49.9447 340.446 48.4886C339.109 47.0324 337.05 46.4382 335.091 46.5108C334.541 46.4919 333.998 46.6373 333.532 46.9281C333.096 47.3146 332.77 47.809 332.586 48.3616L330.636 53.0929C330.071 54.3247 329.594 55.595 329.209 56.8943C328.664 58.8812 328.541 60.9769 328.109 62.9819C328.109 64.5243 327.114 66.4476 326.568 67.8675C325.959 69.4643 325.3 71.0429 324.75 72.6714C324.614 73.0796 324.136 74.2908 323.841 75.3931C323.729 75.458 323.626 75.5357 323.532 75.6245C323.294 75.928 323.079 76.2479 322.886 76.5816C322.473 77.126 321.8 77.4163 321.345 77.9425C320.891 78.4687 320.795 79.4349 321.427 79.698C321.556 79.7411 321.688 79.77 321.823 79.7842C321.906 79.7912 321.988 79.8049 322.068 79.8251C322.75 80.0156 323.018 80.8729 322.918 81.5806C322.818 82.2882 322.464 82.9415 322.405 83.6491C322.282 84.9011 323.018 86.067 323.727 87.1194C324.461 88.2602 325.272 89.3499 326.155 90.3809C326.796 91.0977 327.518 91.7418 328.164 92.4313C330.623 94.9535 332.577 97.9021 334.786 100.642C335.581 101.676 336.485 102.622 337.482 103.464C338.133 103.972 338.815 104.44 339.523 104.865L343.323 107.269C343.754 107.585 344.241 107.814 344.759 107.945C344.928 107.968 345.099 107.968 345.268 107.945C345.291 108.059 345.309 108.168 345.336 108.281C345.632 109.47 346.282 110.549 346.355 111.76C346.427 112.972 346.318 114.21 346.405 115.435C346.486 116.564 346.736 117.703 346.8 118.814C346.927 120.955 346.4 123.069 345.891 125.165C345.123 128.231 344.659 131.362 343.164 134.142C342.746 134.909 342.255 135.689 342.255 136.565C342.255 136.669 342.255 136.778 342.282 136.882L341.6 137.268C341.4 137.381 341.2 137.495 341.018 137.612C340.155 138.175 339.232 138.796 338.877 139.767C338.591 140.552 338.723 141.45 338.377 142.212C338.361 142.246 338.343 142.28 338.323 142.312C337.959 143.02 337.236 143.546 337.073 144.322C336.95 144.916 337.186 145.546 337.073 146.136C337.073 146.136 337.073 146.136 337.073 146.159C336.969 146.455 336.887 146.758 336.827 147.066C336.822 147.167 336.832 147.267 336.855 147.365C336.941 147.709 337.132 148.018 337.4 148.25C337.564 148.407 337.742 148.548 337.932 148.672C338.126 148.799 338.326 148.917 338.532 149.026L338.65 149.089C338.823 149.18 338.996 149.266 339.173 149.348L339.291 149.398C339.495 149.488 339.705 149.57 339.914 149.643L340.059 149.688C340.223 149.742 340.391 149.792 340.559 149.833L340.673 149.869L340.777 149.892L341.232 149.987L341.4 150.019C341.6 150.052 341.805 150.08 342.014 150.101H342.196C342.35 150.101 342.5 150.123 342.65 150.128H342.864C343.023 150.128 343.177 150.128 343.318 150.128H343.482C343.696 150.128 343.909 150.096 344.123 150.069H344.191C344.382 150.042 344.573 150.01 344.764 149.969L344.909 149.937C345.086 149.897 345.264 149.856 345.441 149.801L345.536 149.774C345.75 149.711 345.964 149.643 346.173 149.561C346.896 149.264 347.598 148.917 348.273 148.522C348.727 148.273 349.182 148.019 349.636 147.787C349.974 147.618 350.319 147.466 350.673 147.334C351.533 146.967 352.468 146.812 353.4 146.88C353.86 146.943 354.316 147.035 354.764 147.157C354.764 147.207 354.764 147.257 354.764 147.306C355.133 149.484 355.499 151.661 355.859 153.839C356.454 153.411 357.084 153.033 357.741 152.709C357.618 153.038 357.537 153.381 357.5 153.73C357.473 154 357.473 154.272 357.5 154.542C357.541 154.973 357.632 155.449 357.373 155.789C357.214 155.998 356.918 156.116 356.832 156.352C356.769 156.593 356.753 156.844 356.786 157.091C356.768 157.373 356.648 157.639 356.45 157.841C356.251 158.042 355.987 158.166 355.705 158.189C355.835 158.554 355.838 158.952 355.713 159.319C355.589 159.686 355.344 160.001 355.018 160.212C354.828 160.303 354.651 160.419 354.491 160.557C354.336 160.757 354.231 160.992 354.186 161.242C353.586 163.488 352.35 165.515 350.627 167.08C349.981 167.587 349.391 168.162 348.868 168.795C348.545 169.285 348.278 169.81 348.073 170.36C346.861 173.317 345.63 176.277 344.382 179.237C343.691 180.893 343.018 182.576 342.8 184.359C342.255 189.249 337.891 193.395 338.709 198.249C338.875 199.461 339.364 200.607 340.127 201.565C341.036 202.658 342.4 203.284 343.764 203.792C347.268 205.153 350.964 205.897 354.646 206.645L360.427 207.829C361.562 208.09 362.713 208.272 363.873 208.374C365.268 208.469 366.7 208.337 368.059 208.691C368.9 208.909 369.705 209.313 370.573 209.358C371.318 209.399 372.236 209.24 372.677 209.848C373.118 210.456 372.777 211.259 373.196 211.798C373.868 212.656 375.509 211.798 376.241 212.606C376.441 212.916 376.594 213.254 376.696 213.608C376.807 213.828 376.961 214.022 377.15 214.18C377.195 214.436 377.213 214.696 377.205 214.956C377.11 216.009 376.89 217.048 376.55 218.049C376.005 219.891 375.461 221.734 374.918 223.579C374.711 224.231 374.559 224.898 374.464 225.575C374.43 225.904 374.43 226.235 374.464 226.564C374.559 227.566 375.136 228.601 376.096 228.927C376.84 229.124 377.631 229.026 378.305 228.655C378.955 228.316 379.565 227.906 380.123 227.43C381.129 226.67 382.014 225.762 382.746 224.736C385.018 221.343 384.282 216.752 385.877 213.001C386.936 210.497 389 208.464 389.686 205.824C389.847 205.322 389.866 204.785 389.741 204.273C389.455 203.366 388.486 202.848 387.582 202.522H387.541C386.798 202.258 386.039 202.041 385.268 201.873C385.077 201.832 384.882 201.801 384.686 201.769C384.254 201.418 383.91 200.97 383.682 200.462C383.646 200.192 383.574 199.928 383.468 199.678C383.396 199.569 383.299 199.48 383.185 199.417C383.071 199.354 382.944 199.319 382.814 199.315C382.359 199.269 381.75 199.433 381.255 199.396C380.241 199.324 379.568 198.33 378.659 197.872C377.75 197.414 376.764 197.527 375.796 197.595C375.449 197.643 375.097 197.621 374.759 197.532C374.355 197.346 373.986 197.093 373.668 196.783C373.109 196.349 372.456 196.05 371.761 195.911C371.066 195.772 370.348 195.795 369.664 195.981C369.229 196.156 368.768 196.26 368.3 196.289C367.414 196.239 366.786 195.45 366.132 194.851C364.341 193.213 361.791 192.782 359.618 191.707C359.286 191.584 359.008 191.346 358.836 191.036C358.586 190.419 359.15 189.802 359.659 189.38L363.396 186.282C367.486 182.889 372.6 180.335 374.5 175.359C374.698 174.691 375.005 174.062 375.409 173.494C375.556 173.321 375.726 173.169 375.914 173.041C376.74 172.506 377.742 172.311 378.709 172.496C379.888 172.76 381.005 173.246 382 173.93C383.627 174.913 385.211 175.971 386.75 177.105C388.275 178.193 389.725 179.381 391.091 180.662C393.477 182.93 395.464 185.62 397.686 188.065C399.909 190.51 402.45 192.792 405.536 193.962C408.623 195.132 412.355 195.082 415.005 193.118C418.064 190.85 419.046 186.795 419.818 183.075C421.523 181.433 422.036 178.933 422.868 176.724C423.391 175.322 424.059 174.002 424.623 172.605C425.296 170.963 425.823 169.266 426.35 167.574C426.948 165.875 427.353 164.115 427.559 162.326C427.777 159.5 427.018 156.492 427.814 153.839C428.864 153.607 429.818 153.018 430.85 152.673C432.386 152.169 434.032 152.251 435.659 152.26H435.764C436.324 152.32 436.889 152.187 437.364 151.884C437.909 151.43 437.996 150.654 438.023 149.951C438.086 148.214 437.977 146.263 436.673 145.138ZM370.814 67.7586C370.438 67.8514 370.049 67.879 369.664 67.8403L370.814 67.7586Z" fill="url(#paint0_linear)"/>
<path d="M372.605 96.4543C372.054 96.9208 371.409 97.2628 370.714 97.4568L367.491 98.609C365.741 99.235 363.914 99.8656 362.068 99.6388C361.037 99.5117 356.614 98.8631 355.946 98.0601C354.927 96.8172 358.496 94.9891 359.714 93.9412C359.99 93.7431 360.246 93.5182 360.477 93.2698C360.932 92.7164 360.873 91.9407 360.809 91.2421C360.578 89.4724 360.499 87.6861 360.573 85.903C360.608 85.4779 360.669 85.0552 360.755 84.6373C361.209 82.5507 363.155 83.3128 364.691 83.8662C366.54 84.4657 368.329 85.2388 370.032 86.1751C370.551 86.4421 371.002 86.8237 371.35 87.2911C372.023 88.3072 371.755 89.6408 371.646 90.9201C371.55 91.9135 371.555 92.8661 372.177 93.5874C372.491 93.8631 372.778 94.1668 373.036 94.4946C373.182 94.8248 373.219 95.1925 373.141 95.5448C373.063 95.897 372.876 96.2155 372.605 96.4543Z" fill="#BE6F72"/>
<path d="M328.086 63.7616C328.541 61.752 328.641 59.6789 329.186 57.6875C329.571 56.3927 330.048 55.1269 330.614 53.8997L332.618 49.2319C332.802 48.6808 333.128 48.1878 333.564 47.803C334.031 47.5142 334.573 47.369 335.123 47.3857C337.082 47.3131 339.141 47.9209 340.477 49.3589C341.814 50.7969 342.236 53.124 341.173 54.7707C339.9 56.753 337.123 57.1522 335.464 58.8216C334.405 59.8876 333.891 61.371 333.577 62.8362C332.75 66.6466 333.027 70.5977 332.773 74.4898C332.691 75.701 332.455 77.0846 331.409 77.7106C330.777 78.0196 330.075 78.1558 329.373 78.1052L326.391 78.1551C325.891 78.1551 324.077 78.4681 323.745 78.0916C323.164 77.4339 324.491 74.1587 324.732 73.4283C325.268 71.8089 325.927 70.2303 326.55 68.638C327.091 67.2182 328.086 65.2994 328.086 63.7616Z" fill="#BE6F72"/>
<path d="M389.655 206.273C388.968 208.895 386.905 210.937 385.845 213.436C384.25 217.178 384.968 221.756 382.714 225.14C381.982 226.167 381.098 227.078 380.091 227.839C379.533 228.312 378.923 228.722 378.273 229.059C377.599 229.43 376.808 229.527 376.064 229.331C375.105 229.004 374.527 227.97 374.432 226.972C374.398 226.645 374.398 226.315 374.432 225.988C374.527 225.313 374.679 224.646 374.886 223.996C375.432 222.161 375.976 220.322 376.518 218.48C376.858 217.482 377.077 216.446 377.173 215.396C377.232 214.253 376.505 212.765 376.814 211.699C376.955 211.218 377.482 210.791 377.723 210.388C378.065 209.807 378.328 209.183 378.505 208.532C378.877 207.267 379.132 205.915 379.914 204.849C380.424 204.217 381.021 203.659 381.686 203.193C382.178 202.763 382.754 202.44 383.377 202.245C383.982 202.139 384.603 202.168 385.195 202.331C385.967 202.496 386.726 202.711 387.468 202.975H387.509C388.418 203.302 389.382 203.806 389.668 204.722C389.807 205.23 389.803 205.767 389.655 206.273Z" fill="#3F3D56"/>
<path d="M438.018 150.504C437.991 151.207 437.905 151.992 437.359 152.432C436.884 152.735 436.32 152.868 435.759 152.809H435.636C434.014 152.809 432.364 152.718 430.827 153.221C429.659 153.607 428.586 154.315 427.368 154.455C425.691 154.646 424.114 153.729 422.627 152.931C421.228 152.179 419.791 151.497 418.323 150.89C417.359 150.495 415.391 150.241 414.927 149.189C414.768 148.691 414.635 148.185 414.527 147.674C414.451 147.445 414.358 147.222 414.25 147.007C413.977 146.547 413.804 146.036 413.741 145.505C413.743 144.977 413.926 144.464 414.259 144.054C414.63 143.616 415.084 143.255 415.595 142.993C416.106 142.73 416.664 142.571 417.236 142.525C418.382 142.436 419.534 142.497 420.664 142.706L431.855 144.312C432.718 144.435 433.586 144.557 434.436 144.766C435.244 144.906 436.005 145.239 436.655 145.737C437.977 146.843 438.086 148.789 438.018 150.504Z" fill="#3F3D56"/>
<path d="M428.182 153.407C426.818 156.278 427.8 159.676 427.555 162.851C427.348 164.636 426.943 166.391 426.345 168.086C425.818 169.773 425.291 171.465 424.618 173.103C424.055 174.464 423.386 175.825 422.864 177.213C422.032 179.427 421.5 181.917 419.814 183.564C419.041 187.274 418.059 191.33 415 193.58C412.341 195.539 408.636 195.607 405.532 194.423C402.427 193.24 399.905 190.971 397.682 188.526C395.459 186.081 393.473 183.419 391.086 181.141C389.719 179.86 388.265 178.674 386.736 177.589C385.197 176.473 383.614 175.424 381.986 174.441C380.99 173.761 379.873 173.276 378.695 173.012C377.728 172.827 376.727 173.022 375.9 173.557C375.712 173.685 375.542 173.837 375.395 174.01C374.991 174.575 374.684 175.204 374.486 175.87C372.577 180.833 367.455 183.382 363.364 186.766L359.627 189.855C359.118 190.277 358.554 190.894 358.804 191.507C358.976 191.816 359.254 192.055 359.586 192.178C361.759 193.249 364.309 193.68 366.1 195.313C366.755 195.911 367.382 196.701 368.268 196.746C368.736 196.719 369.197 196.616 369.632 196.442C370.316 196.257 371.033 196.233 371.728 196.372C372.423 196.51 373.076 196.808 373.636 197.24C373.955 197.55 374.323 197.803 374.727 197.989C375.065 198.078 375.417 198.1 375.764 198.052C376.732 197.984 377.759 197.898 378.627 198.329C379.495 198.76 380.209 199.776 381.223 199.849C381.718 199.885 382.309 199.722 382.782 199.767C382.912 199.771 383.039 199.806 383.153 199.87C383.267 199.933 383.364 200.022 383.436 200.13C383.542 200.379 383.614 200.642 383.65 200.91C383.836 201.55 384.464 201.94 384.873 202.466C385.5 203.274 385.591 204.371 385.527 205.392C385.321 208.584 383.896 211.574 381.545 213.748C380.878 214.429 380.027 214.902 379.095 215.109C378.629 215.206 378.144 215.155 377.708 214.962C377.273 214.769 376.909 214.444 376.668 214.034C376.567 213.681 376.414 213.344 376.214 213.036C375.482 212.233 373.841 213.086 373.168 212.228C372.75 211.693 373.05 210.836 372.65 210.282C372.25 209.729 371.286 209.829 370.545 209.797C369.677 209.751 368.873 209.343 368.032 209.13C366.668 208.776 365.241 208.908 363.845 208.812C362.686 208.71 361.535 208.529 360.4 208.268L354.618 207.089C350.936 206.34 347.241 205.583 343.736 204.244C342.395 203.736 341.045 203.11 340.1 202.022C339.338 201.065 338.848 199.921 338.682 198.71C337.859 193.87 342.223 189.733 342.773 184.857C342.968 183.078 343.682 181.4 344.354 179.749C345.588 176.797 346.818 173.844 348.045 170.889C348.244 170.339 348.503 169.813 348.818 169.32C349.341 168.688 349.931 168.115 350.577 167.61C352.3 166.05 353.535 164.028 354.136 161.785C354.181 161.536 354.285 161.301 354.441 161.1C354.602 160.966 354.779 160.851 354.968 160.76C355.293 160.549 355.537 160.235 355.661 159.869C355.786 159.503 355.783 159.106 355.654 158.741C355.937 158.718 356.201 158.594 356.4 158.393C356.598 158.191 356.718 157.925 356.736 157.644C356.703 157.398 356.719 157.148 356.782 156.909C356.891 156.673 357.164 156.555 357.323 156.346C357.582 156.006 357.491 155.53 357.45 155.103C357.423 154.833 357.423 154.561 357.45 154.291C357.549 153.331 357.98 152.434 358.668 151.755C359.755 150.689 361.3 150.966 362.8 150.712C364.296 150.39 365.758 149.923 367.164 149.319C371.108 147.769 375.26 146.81 379.486 146.475C383.733 146.142 387.999 146.82 391.932 148.453C392.504 148.684 393.043 148.989 393.536 149.36C393.886 149.63 394.173 149.972 394.377 150.363C394.545 150.843 394.752 151.309 394.995 151.755C395.482 152.418 396.4 152.631 396.932 153.257C397.464 153.883 397.509 154.94 397.95 155.716C398.582 156.822 400.045 157.335 400.482 158.537C400.618 158.918 400.636 159.336 400.736 159.73C400.982 160.719 401.718 161.499 402.368 162.28C404.751 165.124 406.277 168.584 406.768 172.259C406.914 169.959 408.464 167.923 410.405 166.653C410.927 166.312 411.532 165.936 411.636 165.319C411.768 164.539 411.009 163.845 411.059 163.051C411.114 162.663 411.271 162.297 411.514 161.989C412.38 160.736 413.331 159.543 414.359 158.419C414.918 157.807 415.545 157.058 415.314 156.251C415.136 155.648 414.518 155.294 414.177 154.768C413.978 154.454 413.877 154.088 413.885 153.717C413.893 153.346 414.01 152.986 414.223 152.681C414.541 152.25 415.045 151.937 415.2 151.424C415.377 150.821 414.982 150.168 415.105 149.546C415.271 149.049 415.601 148.622 416.041 148.335C416.644 147.787 417.33 147.337 418.073 147.001C419.273 146.548 420.609 146.716 421.882 146.893C424.009 147.187 426.395 147.641 427.595 149.419C428.364 150.531 428.755 152.218 428.182 153.407Z" fill="#65617D"/>
<path opacity="0.1" d="M438.018 150.504C437.991 151.207 437.905 151.992 437.359 152.432C436.884 152.735 436.32 152.868 435.759 152.809H435.636C435.823 151.865 436.973 151.325 437.173 150.368C437.207 150.074 437.18 149.776 437.094 149.493C437.008 149.21 436.865 148.947 436.673 148.721C435.7 147.41 434.136 146.685 432.582 146.154C428.19 144.651 423.485 144.3 418.918 145.133C417.676 145.335 416.468 145.706 415.327 146.236C414.949 146.472 414.585 146.729 414.236 147.007C413.964 146.547 413.79 146.036 413.727 145.505C413.729 144.977 413.912 144.464 414.245 144.054C414.616 143.616 415.07 143.255 415.581 142.993C416.092 142.73 416.65 142.571 417.223 142.525C418.368 142.436 419.52 142.497 420.65 142.706L431.841 144.312C432.705 144.435 433.573 144.557 434.423 144.766C435.23 144.906 435.991 145.239 436.641 145.737C437.977 146.843 438.086 148.789 438.018 150.504Z" fill="black"/>
<path opacity="0.1" d="M389.655 206.273C388.968 208.895 386.905 210.936 385.845 213.435C384.25 217.178 384.968 221.755 382.714 225.139C381.982 226.167 381.098 227.077 380.091 227.838C379.533 228.312 378.923 228.721 378.273 229.058C377.599 229.429 376.808 229.527 376.064 229.33C375.105 229.004 374.527 227.969 374.432 226.972C374.398 226.644 374.398 226.314 374.432 225.987L374.459 226.06C374.855 227.012 375.5 228.01 376.518 228.178C376.9 228.206 377.284 228.154 377.645 228.027C378.007 227.9 378.338 227.699 378.618 227.439C380.118 226.237 380.991 224.445 381.823 222.716C382.474 221.47 382.989 220.158 383.359 218.802C383.541 218.031 383.627 217.241 383.814 216.47C384.677 212.723 387.618 209.666 388.268 205.869C388.321 205.608 388.333 205.34 388.305 205.075C388.219 204.729 388.087 204.397 387.914 204.086C387.756 203.735 387.64 203.366 387.568 202.988C388.477 203.315 389.441 203.818 389.727 204.735C389.845 205.244 389.82 205.776 389.655 206.273Z" fill="black"/>
<path opacity="0.1" d="M382.791 199.768C382.37 200.866 381.662 201.831 380.741 202.562C379.447 203.546 377.932 204.2 376.327 204.468C375.58 204.658 374.797 204.648 374.055 204.44C373.045 204.091 372.318 203.148 371.286 202.875C370.55 202.676 369.759 202.853 369.014 202.744C367.673 202.558 366.632 201.537 365.55 200.721C362.236 198.235 357.886 197.432 354.573 194.946C354.425 194.856 354.303 194.729 354.218 194.579C354.155 194.416 354.131 194.24 354.15 194.066C354.162 192.558 354.502 191.071 355.145 189.707C355.673 188.755 356.3 187.862 357.018 187.044C359.986 183.415 362.968 179.759 366.523 176.697C368.014 175.413 369.641 174.215 371.523 173.635C372.568 173.313 374.632 173.009 375.905 173.553C375.717 173.681 375.547 173.834 375.4 174.007C374.995 174.572 374.688 175.2 374.491 175.867C372.577 180.834 367.455 183.383 363.364 186.767L359.627 189.856C359.118 190.278 358.555 190.895 358.805 191.508C358.977 191.817 359.254 192.055 359.586 192.179C361.759 193.25 364.309 193.68 366.1 195.314C366.755 195.912 367.382 196.702 368.268 196.747C368.736 196.72 369.197 196.617 369.632 196.443C370.316 196.258 371.033 196.234 371.728 196.373C372.423 196.511 373.076 196.809 373.636 197.241C373.955 197.551 374.324 197.804 374.727 197.99C375.065 198.079 375.417 198.101 375.764 198.053C376.732 197.985 377.759 197.899 378.627 198.33C379.495 198.761 380.209 199.777 381.223 199.85C381.727 199.886 382.318 199.714 382.791 199.768Z" fill="black"/>
<path d="M340.986 138.202C340.123 138.755 339.204 139.381 338.85 140.343C338.559 141.128 338.695 142.026 338.345 142.788C337.995 143.55 337.209 144.081 337.036 144.897C336.913 145.491 337.154 146.117 337.036 146.712C336.933 147.021 336.85 147.336 336.786 147.655C336.741 148.331 337.323 148.88 337.891 149.257C339.1 150.042 340.478 150.533 341.912 150.69C343.347 150.848 344.798 150.668 346.15 150.164C347.363 149.71 348.459 148.971 349.623 148.39C350.757 147.738 352.055 147.423 353.363 147.483C354.113 147.565 354.832 147.837 355.582 147.936C355.952 148.01 356.335 147.992 356.697 147.884C357.059 147.777 357.389 147.583 357.659 147.32C357.891 147 358.046 146.633 358.113 146.244C358.745 143.754 358.459 141.114 357.859 138.61C357.259 136.106 356.35 133.697 355.709 131.207C355.254 129.361 354.904 127.469 354.145 125.722C353.386 123.976 352.109 122.352 350.323 121.685C350.182 121.616 350.022 121.595 349.868 121.626C349.753 121.674 349.652 121.749 349.573 121.844C348.159 123.338 347.095 125.126 346.454 127.079C345.741 129.252 345.545 131.556 344.891 133.738C344.609 134.645 344.245 135.861 343.527 136.555C342.809 137.249 341.8 137.68 340.986 138.202Z" fill="#3F3D56"/>
<path opacity="0.1" d="M358.127 146.231C358.051 146.621 357.888 146.988 357.65 147.306C357.381 147.57 357.05 147.764 356.688 147.871C356.326 147.978 355.943 147.994 355.573 147.919C354.827 147.828 354.109 147.551 353.359 147.465C352.051 147.405 350.753 147.719 349.618 148.372C348.455 148.953 347.345 149.674 346.141 150.141C344.379 150.808 342.454 150.917 340.627 150.454C339.657 150.211 338.735 149.806 337.9 149.257C337.327 148.885 336.75 148.349 336.795 147.655C336.859 147.338 336.943 147.024 337.045 146.716C337.164 146.122 336.927 145.496 337.045 144.902C337.218 144.085 338.009 143.541 338.355 142.788C338.7 142.035 338.568 141.132 338.855 140.348C339.209 139.381 340.132 138.76 340.995 138.202C341.859 137.644 342.886 137.218 343.577 136.542C343.667 136.436 343.747 136.324 343.818 136.206C344.316 135.439 344.682 134.594 344.9 133.706C345.568 131.52 345.75 129.22 346.459 127.043C347.102 125.091 348.168 123.306 349.582 121.812C349.657 121.715 349.758 121.64 349.873 121.595C350.026 121.563 350.186 121.583 350.327 121.649C352.109 122.32 353.386 123.944 354.15 125.691C354.914 127.437 355.236 129.32 355.714 131.171C356.35 133.661 357.264 136.079 357.864 138.578C358.464 141.078 358.759 143.736 358.127 146.231Z" fill="black"/>
<path opacity="0.1" d="M371.646 90.9065C369.508 91.5843 367.195 91.4496 365.151 90.5286C363.107 89.6075 361.477 87.9649 360.573 85.9166C360.608 85.4915 360.669 85.0689 360.755 84.651C361.209 82.5643 363.155 83.3264 364.691 83.8798C366.54 84.4794 368.329 85.2525 370.032 86.1888C370.551 86.4557 371.002 86.8374 371.35 87.3047C372.023 88.3072 371.755 89.6409 371.646 90.9065Z" fill="black"/>
<path d="M368.9 90.8794C373.921 90.8794 377.991 86.8175 377.991 81.8069C377.991 76.7963 373.921 72.7344 368.9 72.7344C363.879 72.7344 359.809 76.7963 359.809 81.8069C359.809 86.8175 363.879 90.8794 368.9 90.8794Z" fill="#BE6F72"/>
<path opacity="0.1" d="M393.568 149.605C393.568 150.358 392.545 150.599 391.786 150.558C389.059 150.399 386.391 149.651 383.691 149.877C380.277 150.186 377.141 152.068 373.718 152.241C372.4 152.309 371.059 152.114 369.759 152.354C368.077 152.667 366.577 153.688 364.864 153.833C363.377 153.96 361.909 153.402 360.423 153.461C359.384 153.523 358.37 153.811 357.455 154.305C357.554 153.344 357.985 152.448 358.673 151.769C359.759 150.703 361.305 150.98 362.805 150.726C364.301 150.403 365.762 149.937 367.168 149.333C371.112 147.782 375.265 146.824 379.491 146.489C383.735 146.152 387.999 146.825 391.932 148.453C392.504 148.684 393.043 148.989 393.536 149.36C393.561 149.439 393.572 149.522 393.568 149.605Z" fill="black"/>
<path d="M364.695 98.3736L361.014 97.0127L359.459 96.4411C358.826 96.1762 358.159 95.9992 357.477 95.9149C355.695 95.7788 354.018 96.9628 353.068 98.4734C352.118 99.984 351.759 101.785 351.454 103.54C351.036 105.942 350.682 108.352 350.391 110.771C350.078 112.956 349.918 115.16 349.914 117.367C350.018 122.983 351.209 128.522 352.518 133.988C353.159 136.411 353.644 138.874 353.968 141.359C354.077 142.384 354.127 143.414 354.236 144.444C354.354 145.601 354.545 146.744 354.736 147.891L355.832 154.41C357.195 153.444 358.745 152.596 360.423 152.546C361.909 152.491 363.382 153.045 364.864 152.918C366.568 152.777 368.077 151.756 369.759 151.443C371.059 151.203 372.4 151.393 373.723 151.33C377.141 151.158 380.282 149.27 383.691 148.966C386.395 148.722 389.082 149.484 391.791 149.642C392.545 149.688 393.568 149.447 393.568 148.69C393.568 148.164 393.041 147.814 392.582 147.551C390.418 146.251 388.358 144.784 386.423 143.165C384.632 141.749 382.814 140.298 381.582 138.383C378.614 133.779 379.632 127.551 377.1 122.692C375.041 118.746 377.1 113.575 377.1 109.125C377.1 106.906 377.1 104.661 376.577 102.506C376.25 101.301 375.843 100.119 375.359 98.9678L373.591 94.4996C373.554 94.369 373.482 94.2512 373.382 94.1594C373.263 94.0777 373.122 94.0349 372.977 94.0369C371.915 93.9734 370.868 94.3083 370.041 94.9759C369.209 95.6518 368.677 96.6226 367.859 97.3257C366.964 98.1014 365.809 98.7819 364.695 98.3736Z" fill="#E3E8F4"/>
<path d="M370.636 95.7966C370.927 94.5537 371.241 93.2609 372.073 92.2901C372.905 91.3193 374.423 90.8067 375.495 91.5008C376.714 92.2901 376.764 94.1137 377.805 95.1298C378.714 96.0008 380.077 96.0688 381.314 96.1822C383.537 96.3841 385.72 96.8972 387.8 97.7064C388.206 97.8319 388.575 98.0528 388.877 98.3505C389.445 98.9947 389.332 99.9836 389.614 100.787C390 101.821 391.068 102.479 391.482 103.508C391.936 104.651 391.482 105.931 391.1 107.106C390.414 109.215 389.982 111.406 389.314 113.524C388.645 115.643 387.695 117.729 386.132 119.326C385.441 120.034 384.414 120.687 383.505 120.265L383.155 122.783C383.052 123.315 383.052 123.861 383.155 124.393C383.207 124.659 383.334 124.905 383.521 125.103C383.707 125.3 383.946 125.441 384.209 125.509C384.277 125.899 384.691 126.085 385.027 126.298C385.276 126.468 385.488 126.685 385.651 126.937C385.815 127.189 385.927 127.47 385.981 127.766C386.034 128.061 386.029 128.364 385.964 128.657C385.9 128.951 385.777 129.228 385.605 129.474C385.318 129.859 384.895 130.163 384.759 130.622C384.555 131.284 385.041 131.982 385.632 132.345C386.223 132.708 386.918 132.876 387.518 133.225C388.764 133.942 389.432 135.353 389.859 136.723C390.177 137.757 390.441 138.877 391.223 139.631C391.523 139.916 391.882 140.134 392.168 140.433C392.664 141.018 392.95 141.751 392.982 142.516C393.106 143.464 392.898 144.426 392.391 145.237C391.482 146.535 389.786 146.92 388.3 147.505C385.886 148.494 383.9 150.264 381.773 151.77C380.906 152.466 379.885 152.945 378.795 153.167C377.323 153.362 375.873 152.713 374.391 152.654C373.504 152.662 372.622 152.778 371.764 152.999L369.036 153.589C369.182 151.479 368.018 149.365 367.368 147.356C366.141 143.573 365.914 139.526 366.205 135.561C366.495 131.597 367.305 127.687 368.105 123.794C368.664 121.073 368.609 118.228 369.468 115.584C370.273 113.039 371.423 110.594 371.845 107.945C372.536 103.658 369.664 100.024 370.636 95.7966Z" fill="#3F3D56"/>
<path d="M391.313 104.184C391.564 104.645 391.741 105.143 391.836 105.658C392.046 106.458 392.44 107.197 392.986 107.818C393.444 108.22 393.85 108.677 394.195 109.179C394.614 109.968 394.454 110.93 394.65 111.791C394.877 112.73 395.536 113.547 395.632 114.513C395.634 114.79 395.66 115.066 395.709 115.339C396.004 116.437 397.623 116.7 397.982 117.797C398.223 118.51 397.809 119.285 397.886 120.034C397.943 120.265 397.957 120.505 397.927 120.741C397.824 121.009 397.644 121.239 397.409 121.404C395.905 122.838 394.863 124.688 394.418 126.716C393.98 128.733 393.75 130.789 393.732 132.853L391.954 130.508C391.766 130.224 391.526 129.977 391.245 129.782C391.018 129.646 390.754 129.578 390.523 129.442C389.85 129.061 389.586 128.254 389.327 127.528C388.607 125.519 387.529 123.656 386.145 122.03C385.423 121.181 384.582 120.329 384.423 119.226C384.375 118.72 384.402 118.21 384.504 117.711C384.959 114.74 385.445 111.696 386.895 109.061C387.573 107.827 388.45 106.711 389.1 105.459C389.536 104.629 390.15 102.469 391.313 104.184Z" fill="#3F3D56"/>
<path d="M346.473 107.037C346.481 107.419 346.384 107.796 346.191 108.126C346.017 108.327 345.791 108.476 345.537 108.556C345.284 108.636 345.013 108.644 344.755 108.58C344.237 108.45 343.749 108.222 343.318 107.908C342.052 107.11 340.785 106.31 339.518 105.509C338.811 105.083 338.13 104.617 337.477 104.112C336.48 103.272 335.577 102.327 334.782 101.295C332.573 98.5727 330.618 95.6196 328.159 93.1292C327.491 92.4488 326.795 91.7956 326.15 91.0834C325.268 90.0539 324.457 88.9657 323.723 87.8263C323.014 86.7785 322.277 85.6172 322.4 84.3652C322.473 83.6575 322.814 83.0043 322.914 82.3012C323.014 81.5981 322.745 80.7407 322.064 80.5502C321.983 80.53 321.901 80.5163 321.818 80.5093C321.684 80.4951 321.551 80.4662 321.423 80.4232C320.791 80.1601 320.886 79.1848 321.341 78.6722C321.795 78.1596 322.468 77.8738 322.882 77.3113C323.074 76.9775 323.29 76.6577 323.527 76.3541C323.832 76.0937 324.195 75.9115 324.586 75.8234C327.208 75.0523 329.982 74.9478 332.655 75.5195C333.109 75.6193 333.627 75.8007 333.764 76.2407C333.818 76.4551 333.818 76.6796 333.764 76.8939C333.563 77.7884 333.448 78.6996 333.418 79.6157C333.417 79.8067 333.428 79.9975 333.45 80.1873C333.664 82.1107 334.914 83.7392 336.132 85.2407C337.577 87.028 339.045 88.8016 340.518 90.5708C341.315 91.596 342.205 92.5451 343.177 93.4059C344.086 94.159 345.264 94.7668 345.973 95.733C346.55 96.5133 346.364 97.5793 346.427 98.5183C346.639 101.354 346.654 104.2 346.473 107.037Z" fill="#3F3D56"/>
<path d="M404.2 125.964C404.649 125.528 405.054 125.049 405.409 124.535C405.791 123.897 406.096 123.216 406.318 122.507L408.954 115.045C409.373 113.865 409.791 112.681 410.318 111.534C410.864 110.295 411.509 109.102 412.104 107.905C413.636 104.753 414.82 101.445 415.636 98.0384C415.78 97.5703 415.828 97.0782 415.777 96.5913C415.65 95.8065 415.054 95.1941 414.486 94.6362C413.915 94.0203 413.264 93.4833 412.55 93.0394C412.191 92.817 411.792 92.6679 411.376 92.6009C410.959 92.534 410.533 92.5504 410.123 92.6493C408.959 92.9895 408.227 94.178 407.959 95.3711C407.691 96.5641 407.791 97.7843 407.677 99.0001C407.514 100.742 406.914 102.425 406.768 104.171C406.691 105.183 406.768 106.204 406.645 107.211C406.422 108.533 405.96 109.804 405.282 110.962C403.805 113.721 401.809 116.17 399.404 118.175C398.746 118.66 398.153 119.229 397.641 119.867C397.213 120.505 396.924 121.225 396.791 121.981C396.489 123.132 396.62 124.353 397.159 125.415C397.9 126.676 399.323 127.229 400.682 127.51C402.518 127.891 402.941 127.266 404.2 125.964Z" fill="#BE6F72"/>
<path d="M368.954 68.6602C369.346 67.9264 369.945 67.3238 370.677 66.9277C371.41 66.5316 372.243 66.3595 373.073 66.4329C373.908 66.5806 374.686 66.9589 375.317 67.5249C375.949 68.0909 376.409 68.8221 376.645 69.6355C376.859 70.3114 376.945 71.0599 377.318 71.6406C377.882 72.5161 378.927 72.7701 379.709 73.4052C380.176 73.8379 380.551 74.3594 380.814 74.9389C381.076 75.5185 381.22 76.1445 381.236 76.7801C381.28 78.0786 381.074 79.3734 380.632 80.5951C380.444 81.1164 380.292 81.6499 380.177 82.1919C380.086 82.7181 380.077 83.2534 379.995 83.7796C379.895 84.4619 379.658 85.1172 379.3 85.7069C378.941 86.2967 378.469 86.8089 377.909 87.2135C377.75 87.3432 377.551 87.4152 377.345 87.4177C376.991 87.3769 376.773 86.964 376.641 86.5921C375.918 84.5099 376.091 81.9651 374.759 80.3048C374.153 79.6351 373.421 79.0909 372.604 78.7035C372.271 78.4892 371.896 78.3484 371.504 78.2907C370.928 78.3217 370.374 78.5239 369.913 78.8714C368.954 79.5136 367.89 79.9834 366.768 80.2595C366.208 80.3918 365.626 80.3977 365.064 80.2769C364.502 80.156 363.973 79.9114 363.518 79.5609C362.891 79.0437 362.432 78.268 361.736 77.8643C361.041 77.4606 360.313 77.4833 359.627 77.2066C359.19 77.0209 358.801 76.738 358.489 76.3795C358.178 76.021 357.953 75.5963 357.831 75.1378C357.709 74.6793 357.694 74.199 357.786 73.7337C357.878 73.2684 358.076 72.8302 358.363 72.4525C358.818 71.9082 359.491 71.5997 359.895 70.9964C360.418 70.2162 360.373 69.1456 360.623 68.2111C360.771 67.6199 361.058 67.0724 361.46 66.6141C361.862 66.1557 362.368 65.7997 362.936 65.5756C363.487 65.3889 364.078 65.3532 364.647 65.4721C365.216 65.591 365.743 65.8601 366.173 66.2515C366.627 66.6597 366.991 67.186 367.436 67.6124C367.876 68.0325 368.414 68.3357 369.002 68.4942C369.59 68.6527 370.208 68.6615 370.8 68.5196" fill="#3F3D56"/>
<path opacity="0.1" d="M376.427 135.431C376.163 135.666 375.975 135.975 375.889 136.318C375.803 136.662 375.823 137.022 375.945 137.354C376.045 137.567 380.736 136.665 381.232 136.597C382.468 136.42 384.636 136.506 385.468 135.376C386.95 133.376 382.359 133.821 381.518 133.893C379.918 134.029 377.645 134.247 376.427 135.431Z" fill="black"/>
<path d="M333.755 76.9121C333.554 77.8065 333.439 78.7178 333.409 79.6339C332.046 79.9106 330.627 79.4569 329.318 79.0033L325.559 77.7241C325.331 77.5782 325.055 77.5248 324.788 77.5745C324.521 77.6242 324.283 77.7734 324.123 77.9917C323.518 78.6177 322.686 79.8062 321.85 80.5093C321.716 80.4951 321.583 80.4662 321.455 80.4232C320.823 80.1601 320.918 79.1848 321.373 78.6722C321.827 78.1596 322.5 77.8738 322.914 77.3113C323.106 76.9775 323.322 76.6577 323.559 76.3541C323.864 76.0937 324.227 75.9115 324.618 75.8234C327.24 75.0523 330.014 74.9478 332.687 75.5195C333.141 75.6193 333.659 75.8007 333.796 76.2407C333.84 76.4643 333.826 76.6955 333.755 76.9121Z" fill="#3F3D56"/>
<path opacity="0.1" d="M333.755 76.9121C333.554 77.8065 333.439 78.7178 333.409 79.6339C332.046 79.9106 330.627 79.4569 329.318 79.0033L325.559 77.7241C325.331 77.5782 325.055 77.5248 324.788 77.5745C324.521 77.6242 324.283 77.7734 324.123 77.9917C323.518 78.6177 322.686 79.8062 321.85 80.5093C321.716 80.4951 321.583 80.4662 321.455 80.4232C320.823 80.1601 320.918 79.1848 321.373 78.6722C321.827 78.1596 322.5 77.8738 322.914 77.3113C323.106 76.9775 323.322 76.6577 323.559 76.3541C323.864 76.0937 324.227 75.9115 324.618 75.8234C327.24 75.0523 330.014 74.9478 332.687 75.5195C333.141 75.6193 333.659 75.8007 333.796 76.2407C333.84 76.4643 333.826 76.6955 333.755 76.9121Z" fill="black"/>
<path opacity="0.1" d="M368.141 163.033C368.795 163.251 369.505 163.568 369.727 164.221L364.464 162.888L361.736 162.194C361.255 162.071 359.527 161.931 359.209 161.554C358.755 161.001 360.368 161.382 360.659 161.423C361.541 161.554 362.423 161.69 363.3 161.849C364.955 162.144 366.545 162.629 368.141 163.033Z" fill="black"/>
<path opacity="0.1" d="M370.182 167.683C369.727 167.379 368.423 167.415 367.864 167.284C367.046 167.089 366.241 166.83 365.436 166.581C363.805 166.05 362.186 165.447 360.509 165.056C360.2 164.988 359.146 164.97 359.196 164.58C359.246 164.19 360.25 164.054 360.5 164.036C361.986 163.927 363.841 164.621 365.223 165.115C366.984 165.745 368.652 166.609 370.182 167.683Z" fill="black"/>
<path opacity="0.1" d="M366.846 158.887C365.177 158.434 363.664 157.399 361.946 157.2C361.498 157.217 361.057 157.082 360.696 156.819C360.494 156.621 360.353 156.368 360.291 156.093C361.441 156.034 362.777 156.519 363.823 156.977C364.398 157.224 364.952 157.518 365.477 157.857C365.859 158.089 366.432 158.756 366.846 158.887Z" fill="black"/>
<path d="M398.645 118.27C398.363 120.155 398.771 122.08 399.795 123.69C400.818 125.3 402.388 126.489 404.218 127.038C403.995 128.113 402.882 128.707 402.095 129.474C400.986 130.549 400.414 132.16 399.104 132.976C397.645 133.883 395.768 133.53 394.104 133.148C393.953 133.132 393.814 133.059 393.714 132.944C393.679 132.89 393.655 132.83 393.641 132.767C393.091 130.758 392.732 128.612 393.295 126.598C393.75 124.883 394.841 123.423 395.714 121.908C396.586 120.393 396.668 118.769 398.645 118.27Z" fill="#3F3D56"/>
<path d="M358.005 92.259C356.245 92.3868 354.537 92.9061 353.005 93.7787C351.986 94.3593 350.941 95.1396 349.777 94.9989C349.091 94.9218 348.414 94.5453 347.745 94.7268C347.369 94.8783 347.018 95.0864 346.705 95.3437C346.546 95.47 346.357 95.5532 346.156 95.5849C345.955 95.6167 345.75 95.5961 345.559 95.5251L345.105 101.803C344.932 104.189 344.764 106.625 345.336 108.952C345.632 110.141 346.282 111.221 346.355 112.427C346.427 113.634 346.318 114.872 346.405 116.093C346.486 117.222 346.736 118.333 346.8 119.463C346.927 121.595 346.4 123.709 345.891 125.782C345.123 128.839 344.659 131.965 343.164 134.732C342.745 135.499 342.255 136.279 342.255 137.15C342.255 137.259 342.255 137.363 342.282 137.467C341.827 137.717 341.405 137.953 341.018 138.198C340.155 138.756 339.232 139.377 338.877 140.343C338.591 141.128 338.723 142.026 338.377 142.784C338.032 143.541 337.241 144.081 337.068 144.898C336.945 145.492 337.182 146.118 337.068 146.712C336.965 147.02 336.882 147.333 336.818 147.651C336.773 148.332 337.35 148.881 337.923 149.253C338.758 149.802 339.68 150.207 340.65 150.45L343.364 139.699C345.838 135.134 347.896 130.356 349.514 125.424C349.976 123.811 350.571 122.239 351.291 120.724C351.805 119.867 352.261 118.976 352.655 118.057C353.068 116.914 353.109 115.675 353.309 114.469C353.547 113.06 353.904 111.675 354.377 110.327C354.868 108.871 355.436 107.419 355.536 105.891C355.686 103.704 354.891 101.395 355.736 99.3719C356.095 98.6146 356.562 97.9133 357.123 97.2897C358.295 95.8563 359.364 94.3548 360.536 92.9213C359.927 92.2726 358.914 92.2046 358.005 92.259Z" fill="#3F3D56"/>
<g opacity="0.1">
<path opacity="0.1" d="M370.813 67.168L370.245 67.2089L370.182 67.2545C370.395 67.2458 370.606 67.2168 370.813 67.168Z" fill="black"/>
<path opacity="0.1" d="M381.214 76.5852C381.119 77.4871 380.924 78.3756 380.632 79.2344C380.444 79.7557 380.292 80.2892 380.177 80.8312C380.086 81.3574 380.077 81.8926 379.995 82.4188C379.895 83.1012 379.658 83.7565 379.3 84.3462C378.942 84.9359 378.469 85.4482 377.909 85.8528C377.75 85.9825 377.551 86.0545 377.345 86.0569C376.991 86.0161 376.773 85.6033 376.641 85.2313C375.918 83.1492 376.091 80.6043 374.759 78.9441C374.153 78.2743 373.421 77.7302 372.604 77.3428C372.271 77.1284 371.896 76.9877 371.504 76.93C370.928 76.9609 370.374 77.1631 369.914 77.5106C368.954 78.1528 367.89 78.6226 366.768 78.8987C366.208 79.031 365.626 79.037 365.064 78.9161C364.502 78.7953 363.974 78.5506 363.518 78.2001C362.891 77.683 362.432 76.9073 361.736 76.5036C361.041 76.0999 360.314 76.1225 359.627 75.8458C359.198 75.6631 358.816 75.3863 358.51 75.036C358.203 74.6858 357.979 74.2711 357.854 73.8226C357.838 73.7661 357.826 73.7085 357.818 73.6503C357.704 74.1566 357.717 74.6831 357.854 75.1835C357.979 75.632 358.203 76.0467 358.51 76.3969C358.816 76.7472 359.198 77.0239 359.627 77.2067C360.314 77.4834 361.086 77.4879 361.736 77.8645C362.386 78.241 362.891 79.0439 363.518 79.561C363.974 79.9115 364.502 80.1561 365.064 80.277C365.626 80.3979 366.208 80.3919 366.768 80.2596C367.89 79.9835 368.954 79.5137 369.914 78.8715C370.374 78.524 370.928 78.3218 371.504 78.2908C371.896 78.3486 372.271 78.4893 372.604 78.7037C373.411 79.0986 374.132 79.6472 374.727 80.3186C376.059 81.9788 375.886 84.5237 376.609 86.6058C376.741 86.9823 376.959 87.3906 377.314 87.4314C377.532 87.4325 377.743 87.3552 377.909 87.2137C378.471 86.8079 378.946 86.2937 379.305 85.7015C379.664 85.1093 379.9 84.4512 380 83.7661C380.082 83.2399 380.091 82.7046 380.182 82.1784C380.297 81.6364 380.448 81.1029 380.636 80.5817C381.079 79.36 381.284 78.0651 381.241 76.7667C381.232 76.7122 381.223 76.6487 381.214 76.5852Z" fill="black"/>
</g>
<path d="M352.454 112.984L352.145 117.126C352.1 117.688 351.023 131.08 343.077 146.73C336.259 160.152 322.991 177.635 297.941 187.461C295.986 188.232 293.958 188.952 291.854 189.62L289.509 182.271C295.397 180.422 301.069 177.946 306.427 174.886C319.195 167.528 329.123 157.027 336.045 143.513C339.718 136.319 342.336 128.634 343.818 120.696H315.318V112.984H352.454Z" fill="#006CB5"/>
<path opacity="0.1" d="M294.873 187.466C319.918 177.64 333.191 160.162 340.005 146.739C347.95 131.089 349.032 117.707 349.073 117.136L349.382 112.994H352.564L352.255 117.136C352.214 117.698 351.132 131.089 343.186 146.739C336.368 160.162 323.1 177.64 298.055 187.466C296.1 188.237 294.07 188.958 291.964 189.63L291.655 188.663C292.752 188.273 293.824 187.874 294.873 187.466Z" fill="#006CB5"/>
<path d="M244.727 182.271L242.382 189.62C240.276 188.949 238.245 188.227 236.291 187.456C211.245 177.631 197.973 160.152 191.159 146.73C183.214 131.08 182.132 117.698 182.091 117.126L181.782 112.984H218.9V120.696H190.395C191.885 128.635 194.511 136.319 198.191 143.513C205.114 157.027 215.036 167.528 227.804 174.882C233.163 177.945 238.837 180.422 244.727 182.271Z" fill="#006CB5"/>
<path opacity="0.1" d="M239.354 187.466C214.309 177.64 201.036 160.162 194.223 146.739C186.277 131.089 185.195 117.707 185.154 117.136L184.845 112.994H181.664L181.973 117.136C182.014 117.698 183.095 131.089 191.041 146.739C197.859 160.162 211.127 177.64 236.173 187.466C238.127 188.237 240.158 188.958 242.264 189.63L242.573 188.663C241.479 188.273 240.406 187.874 239.354 187.466Z" fill="white"/>
<path d="M309.995 253.309V294.893H224.236V253.309L226.964 249.68C254.754 239.836 260.386 214.166 261.509 204.009C261.676 202.605 261.772 201.194 261.795 199.781H272.4C272.424 201.194 272.519 202.605 272.686 204.009C273.827 214.166 279.459 239.845 307.232 249.68L309.995 253.309Z" fill="#006CB5"/>
<path opacity="0.1" d="M309.995 253.31H224.236V258.526H309.995V253.31Z" fill="black"/>
<path opacity="0.1" d="M231.509 249.68C259.3 239.836 264.932 214.166 266.055 204.009C266.222 202.605 266.317 201.194 266.341 199.781H261.795C261.772 201.194 261.676 202.605 261.509 204.009C260.368 214.166 254.736 239.845 226.964 249.68L224.236 253.309V294.893H228.782V253.309L231.509 249.68Z" fill="white"/>
<path opacity="0.1" d="M211.209 112.984H218.9V120.696H211.891C211.615 118.156 211.388 115.585 211.209 112.984Z" fill="black"/>
<path opacity="0.1" d="M244.727 182.272L242.382 189.621C240.276 188.95 238.246 188.228 236.291 187.457C233.076 183.539 230.235 179.329 227.805 174.883C233.163 177.946 238.837 180.423 244.727 182.272Z" fill="black"/>
<path opacity="0.1" d="M289.504 182.272C295.393 180.422 301.065 177.947 306.423 174.887C303.991 179.334 301.15 183.545 297.936 187.466C295.982 188.237 293.953 188.957 291.85 189.625L289.504 182.272Z" fill="black"/>
<path opacity="0.1" d="M323.018 112.984C322.839 115.585 322.612 118.156 322.336 120.696H315.332V112.984H323.018Z" fill="black"/>
<path opacity="0.1" d="M272.705 204.009C269.013 204.723 265.219 204.723 261.527 204.009C261.694 202.605 261.79 201.194 261.814 199.781H272.418C272.442 201.194 272.537 202.605 272.705 204.009Z" fill="black"/>
<path d="M212.118 100.21C212.314 157.394 236.859 203.637 267.118 203.637C297.377 203.637 321.918 157.394 322.118 100.21H212.118Z" fill="#006CB5"/>
<path opacity="0.1" d="M221.891 100.21H212.118C212.314 157.394 236.859 203.637 267.118 203.637C268.756 203.634 270.39 203.496 272.005 203.224C244.032 198.561 222.077 154.282 221.891 100.21Z" fill="white"/>
<path d="M296.282 269.227H237.95V284.196H296.282V269.227Z" fill="#3F3D56"/>
<path opacity="0.1" d="M240.677 271.268H296.282V269.227H237.95V284.196H240.677V271.268Z" fill="white"/>
<path d="M181.009 155.421C179.959 155.072 173.777 150.191 173.309 147.982C172.841 145.773 176.577 125.192 176.577 125.192C176.577 125.192 176.232 125.192 175.668 125.124V124.793L176.437 97.7565C176.437 97.7565 179.586 79.6115 173.636 80.6685C167.687 81.7254 171.418 97.7565 171.418 97.7565C171.418 97.7565 170.741 105.895 170.264 108.335C169.809 110.689 167.727 120.279 169.146 123.259C169.198 123.365 169.255 123.468 169.318 123.568C169.318 123.568 169.555 133.797 166.986 135.194C164.536 136.523 163.518 143.214 163.432 143.813L163.3 143.759C162.569 143.302 161.926 142.716 161.405 142.03C161.35 141.962 161.309 141.89 161.259 141.817C162.932 139.94 163.833 137.502 163.783 134.99C163.733 132.478 162.736 130.078 160.991 128.267C160.179 127.426 159.227 126.732 158.177 126.217C158.147 125.35 157.941 124.499 157.573 123.713C156.391 121.191 149.846 117.893 145.196 117.816C143.05 117.752 141.291 118.36 140.65 120.034C140.323 120.882 140.423 121.849 140.287 122.729C140.014 124.543 138.846 125.963 137.346 127.093C136.74 126.418 136.085 125.789 135.387 125.21C133.868 124.049 130.841 120.22 130.841 120.22C130.841 120.22 121.391 110.454 120.691 107.777C119.991 105.101 110.55 89.0288 108.45 91.8277C106.35 94.6265 115.682 106.825 115.682 106.825C115.682 106.825 117.455 111.256 118.818 112.753C120.182 114.25 130.637 129.401 130.637 129.401L131.137 130.436C128.927 131.597 126.909 133.076 126.196 135.38C125.15 138.773 127.437 142.185 129.018 145.36C132.1 151.557 132.541 159.459 128.564 165.12C125 170.119 118.818 172.496 113.032 174.574C115.826 176.764 119.298 177.914 122.85 177.826C121.514 181.691 116.777 182.97 112.741 183.687C114.859 185.719 117.891 186.459 120.8 186.908C122.225 187.15 123.669 187.264 125.114 187.248H125.468L125.823 187.221C126.316 187.188 126.806 187.126 127.291 187.035C129.391 186.608 131.432 185.465 132.505 183.614C133.414 182.031 133.732 179.872 135.382 179.078C135.812 178.884 136.275 178.775 136.746 178.756H136.696C137.005 178.756 137.323 178.756 137.632 178.756L144.509 178.824C144.796 178.824 145.091 178.824 145.387 178.824C147.327 178.779 149.4 178.443 150.387 176.842C150.792 176.064 151.006 175.201 151.009 174.324C151.155 172.151 151.009 169.915 151.068 167.724C151.655 171.711 152.268 177.926 150.809 180.221C149.624 181.96 148.187 183.515 146.546 184.835C146.133 185.181 145.755 185.567 145.418 185.987C145.196 186.146 145.064 186.232 145.064 186.232L144.923 186.654C144.405 187.438 144.029 188.307 143.814 189.221C143.734 189.456 143.705 189.705 143.727 189.951C143.886 190.274 142.591 191.603 142.968 192.161C139.732 195.948 139.118 201.687 139.118 201.687L133.209 210.641C130.173 218.602 125.627 219.419 125.627 219.419C125.627 219.419 114.95 212.27 114.659 211.921C114.368 211.571 110.287 209.825 110.287 209.825C109.805 208.983 109.071 208.313 108.187 207.911C106.787 207.33 106.668 205.189 106.668 205.189C106.496 200.131 103.518 199.745 103.518 199.745C101.118 199.541 99.2865 199.968 97.8774 200.748L97.4502 200.78C95.3865 200.947 92.9047 201.133 90.1774 201.315C82.5911 201.814 80.7865 206.717 80.7865 206.717C80.7865 206.717 79.8547 207.765 81.0774 208.899C82.3002 210.033 90.1274 208.899 90.4593 208.872C89.8627 208.937 89.2595 208.895 88.6774 208.75C89.9093 208.704 91.6047 208.659 93.0502 208.659H93.4002C93.3092 209.424 93.2651 210.193 93.2683 210.963C93.2683 212.415 97.2911 213.345 97.2911 213.345L109.541 224.232C109.541 224.232 117.241 227.666 122.141 232.606C127.041 237.546 131.373 233.282 131.373 233.282C136.559 232.003 151.482 213.998 151.496 213.98C151.496 214.506 151.809 232.016 152.405 235.532C152.428 235.71 152.473 235.885 152.536 236.053C153.236 237.564 152.3 241.692 151.896 243.434C151.638 244.892 151.539 246.373 151.6 247.852C151.6 247.852 146.005 269.173 146.468 271.046C146.932 272.92 143.437 281.625 143.437 281.625V288.883L144.046 288.851C143.966 288.968 143.894 289.089 143.827 289.214L143.787 289.291C143.787 289.291 147.518 290.103 150.027 289.872C152.536 289.64 156.846 291.8 156.846 291.8C156.846 291.8 158.305 292.489 162.796 292.779C167.286 293.07 167.286 290.802 167.286 290.802C166.773 287.712 159.677 286.678 159.459 286.646C158.886 286.288 158.35 285.898 157.909 285.562L157.818 285.49C157.848 285.422 157.874 285.352 157.896 285.281C158.655 282.196 154.455 280.858 154.455 280.858V280.105C157.182 278.708 157.723 269.118 157.723 269.118C157.723 269.118 161.814 257.26 162.386 255.283C162.959 253.305 162.386 250.343 162.386 250.343L162.796 247.784C162.796 247.784 163.673 246.042 163.673 245.693C163.786 244.808 164.128 243.967 164.664 243.253C165.305 242.495 163.964 240.694 163.964 240.694L165.132 237.673V234.357L167.859 222.327C167.859 222.327 170.718 208.314 169.727 203.728C168.736 199.142 170.896 196.81 170.896 196.81C170.701 196.912 170.501 197.003 170.296 197.082C170.569 196.453 170.804 195.808 171 195.15L177.136 195.908V195.998H179.35C179.35 195.998 178.65 187.379 178.65 183.905C178.65 180.43 181.009 167.96 181.009 167.96C181.009 167.96 182.059 155.771 181.009 155.421ZM153.768 145.36C153.768 145.7 153.736 146.054 153.714 146.417L153.591 146.603L153.364 146.412L153.087 146.843L153.005 146.884C152.405 146.576 152.096 144.811 151.664 145.192L151.605 145.242C151.509 145.133 151.414 145.101 151.314 145.192L151.223 145.269C151.223 145.138 151.223 145.002 151.223 144.866C152.054 145.079 152.91 145.187 153.768 145.188C153.773 145.247 153.768 145.306 153.768 145.36ZM174.177 185.497H174.309L174.091 186.068C174.118 185.878 174.146 185.692 174.177 185.497ZM151.773 288.366L150.937 288.157L151.391 288.08L151.814 288.357L151.864 288.393L151.773 288.366ZM160.318 287.145C160.041 287 159.759 286.832 159.486 286.66C159.577 286.71 159.936 286.896 160.318 287.145Z" fill="url(#paint1_linear)"/>
<path d="M177.196 176.928L171.691 191.244H173.027L167.85 195.363L177.196 196.524V176.928Z" fill="#F86D70"/>
<path opacity="0.1" d="M177.196 176.928L171.691 191.244L170.305 190.872L167.85 195.363L177.196 196.524V176.928Z" fill="black"/>
<path d="M168.564 186.087H177.196L180.364 160.071H168.564V186.087Z" fill="#F86D70"/>
<path opacity="0.1" d="M168.564 186.087H177.196L180.364 160.071H168.564V186.087Z" fill="black"/>
<path d="M151.704 166.231L153.568 165.918L157.85 165.192C157.85 165.192 170.709 162.298 173.364 162.062C174.972 161.85 176.54 161.404 178.018 160.737C178.714 160.438 179.154 160.211 179.154 160.211L174.523 151.769L167.336 146.453C167.336 146.453 162.791 145.486 160.868 142.846C160.439 142.278 160.16 141.612 160.056 140.908C159.952 140.204 160.026 139.486 160.273 138.818C161.445 135.189 153.268 142.288 153.268 142.288C153.268 142.288 153.345 143.989 153.268 146.158C153.268 146.584 153.227 147.029 153.195 147.482C153.195 147.782 153.154 148.081 153.123 148.39C152.923 150.544 152.514 152.763 151.704 154.087C149.727 157.326 151.704 166.231 151.704 166.231Z" fill="#FBBEBE"/>
<path opacity="0.1" d="M153.268 146.34H153.45C153.777 146.34 154.041 145.646 154.359 145.614C156.918 145.369 159.254 144.834 160.877 143.024C160.449 142.456 160.171 141.79 160.066 141.088C159.962 140.385 160.036 139.667 160.282 139C161.454 135.371 153.277 142.466 153.277 142.466C153.277 142.466 153.364 144.172 153.268 146.34Z" fill="black"/>
<path d="M143.313 136.051C143.313 137.357 143.57 138.65 144.071 139.857C144.571 141.063 145.305 142.16 146.23 143.083C147.156 144.007 148.254 144.739 149.463 145.238C150.673 145.738 151.969 145.995 153.277 145.994C153.604 145.994 153.927 145.994 154.25 145.949C156.17 145.761 157.994 145.021 159.5 143.818C161.007 142.616 162.131 141.003 162.737 139.175C163.343 137.347 163.404 135.383 162.913 133.522C162.422 131.66 161.399 129.981 159.971 128.687C158.542 127.394 156.767 126.542 154.863 126.236C152.958 125.93 151.006 126.182 149.242 126.961C147.478 127.741 145.979 129.015 144.927 130.628C143.874 132.242 143.314 134.126 143.313 136.051Z" fill="#FBBEBE"/>
<path d="M140.255 120.96C139.927 121.803 140.027 122.747 139.895 123.64C139.409 126.866 136.123 128.798 133.15 130.15C130.177 131.502 126.823 133.103 125.877 136.219C124.841 139.59 127.105 142.969 128.677 146.131C131.741 152.291 132.177 160.148 128.223 165.782C124.709 170.772 118.586 173.14 112.823 175.218C115.597 177.396 119.044 178.541 122.573 178.457C121.25 182.299 116.545 183.573 112.536 184.281C114.641 186.304 117.655 187.039 120.541 187.484C122.645 187.81 124.805 188.024 126.905 187.602C129.005 187.18 130.995 186.041 132.077 184.199C132.986 182.625 133.295 180.48 134.936 179.686C135.677 179.395 136.475 179.279 137.268 179.346L144.086 179.418C146.209 179.418 148.723 179.255 149.818 177.445C150.222 176.672 150.434 175.813 150.436 174.941C150.732 170.477 149.873 165.76 151.714 161.686C152.268 160.457 148.709 158.511 149.082 157.209C150.364 152.731 150.686 149.207 150.673 144.548C150.673 140.942 153.023 137.834 154.964 134.791C156.905 131.747 158.527 127.905 156.995 124.638C155.268 120.996 142.295 115.702 140.255 120.96Z" fill="#3F3D56"/>
<path d="M149.332 287.058L151.068 288.206L151.336 288.383L151.386 288.415L153.445 289.776L158.255 290.583L162.482 290.293C162.482 290.293 163.7 287.752 161.786 287.811C161.173 287.78 160.576 287.608 160.041 287.308L159.777 287.176C159.5 287.031 159.223 286.868 158.95 286.695C158.382 286.337 157.845 285.947 157.414 285.616C156.777 285.126 156.354 284.754 156.354 284.754L149.332 287.058Z" fill="#FBBEBE"/>
<path opacity="0.1" d="M151.091 288.207L151.359 288.384L151.409 288.415L153.468 289.776L158.277 290.584L162.504 290.293C162.504 290.293 163.723 287.753 161.809 287.812C161.196 287.781 160.599 287.608 160.064 287.309C160.4 287.572 160.682 287.858 160.709 288.098C160.786 288.747 157.582 289.912 157.582 289.912L153.064 288.719C153.064 288.719 152.295 288.502 151.245 288.229L151.145 288.202L151.091 288.207Z" fill="black"/>
<path d="M143.364 289.314C143.364 289.314 147.068 290.121 149.559 289.89C152.05 289.659 156.341 291.8 156.341 291.8C156.341 291.8 157.791 292.48 162.25 292.771C166.709 293.061 166.709 290.802 166.709 290.802C166.2 287.731 159.155 286.719 158.937 286.674C159.023 286.719 159.391 286.905 159.764 287.155C160.264 287.481 160.805 287.908 160.846 288.252C160.923 288.897 157.718 290.067 157.718 290.067L153.2 288.878C153.2 288.878 152.432 288.656 151.382 288.384H151.282C149.725 287.961 148.143 287.635 146.546 287.409C144.6 287.2 143.605 288.851 143.4 289.223C143.385 289.252 143.373 289.283 143.364 289.314Z" fill="#3F3D56"/>
<path d="M84.9727 207.738L86.9408 209.244C86.9408 209.244 87.5136 209.217 88.3681 209.189H88.6408C89.8636 209.144 91.5499 209.099 92.9818 209.099C93.9073 209.057 94.8347 209.109 95.7499 209.253C96.7317 209.598 98.4772 203.646 98.4772 203.646L96.5045 203.192L95.8499 203.038L95.3954 202.929L93.7908 202.553L88.9272 203.106L85.509 205.302L84.9727 207.738Z" fill="#FBBEBE"/>
<path opacity="0.1" d="M84.9727 207.738L86.9408 209.244C86.9408 209.244 87.5136 209.216 88.3681 209.189C87.976 209.038 87.6527 208.75 87.459 208.377C86.1863 204.853 92.4999 203.347 92.4999 203.347L95.4408 203.22L96.0136 203.192H96.4681L95.8136 203.038L95.359 202.929L93.7545 202.553L88.8908 203.106L85.4727 205.302L84.9727 207.738Z" fill="black"/>
<path d="M81.0908 209.331C82.2817 210.428 90.0817 209.331 90.409 209.303C89.8171 209.37 89.2179 209.329 88.6408 209.181C88.3551 209.13 88.0845 209.016 87.8485 208.847C87.6126 208.678 87.4174 208.459 87.2772 208.206C86.0045 204.676 92.3181 203.175 92.3181 203.175L95.259 203.048L95.8272 203.021L102.977 202.712L103.323 200.748C103.323 200.748 101 200.966 97.3545 201.256C95.3045 201.424 92.809 201.61 90.1136 201.787C82.5817 202.286 80.7908 207.162 80.7908 207.162C80.7908 207.162 79.8772 208.206 81.0908 209.331Z" fill="#3F3D56"/>
<path d="M168.568 124.185C168.617 124.293 168.674 124.396 168.741 124.493L170.477 127.034L174.996 127.487L175.046 125.7L175.805 98.8091C175.805 98.8091 178.932 80.773 173.023 81.8118C167.114 82.8506 170.823 98.8091 170.823 98.8091C170.823 98.8091 170.15 106.902 169.677 109.333C169.218 111.683 167.159 121.236 168.568 124.185Z" fill="#FBBEBE"/>
<path d="M158.427 190.977L159.714 193.172L162.591 198.085C162.591 198.085 167.809 199.995 169.145 198.539C169.877 197.745 170.668 194.973 171.223 192.641C171.677 190.754 171.982 189.162 171.982 189.162L158.427 190.977Z" fill="#FBBEBE"/>
<path opacity="0.1" d="M158.427 190.976L159.714 193.172C159.794 193.103 159.867 193.025 159.932 192.941C161.386 191.09 167.791 192.546 171.223 192.664C171.677 190.777 171.982 189.185 171.982 189.185L158.427 190.976Z" fill="black"/>
<path opacity="0.1" d="M92.9819 209.09C93.9075 209.049 94.8349 209.1 95.7501 209.244C96.7319 209.589 98.4774 203.638 98.4774 203.638L95.8501 203.021L103 202.712L103.346 200.748C103.346 200.748 101.023 200.966 97.3774 201.256C96.6241 201.689 95.952 202.249 95.391 202.912L95.2819 203.048C93.7592 204.912 93.1956 207.317 92.9819 209.09Z" fill="black"/>
<path opacity="0.1" d="M149.332 287.059L151.336 288.383C154.327 287.844 157.059 286.995 157.382 285.662C157.383 285.641 157.383 285.619 157.382 285.598C156.745 285.108 156.323 284.736 156.323 284.736L149.332 287.059Z" fill="black"/>
<path opacity="0.1" d="M143.405 289.236C146.046 289.105 148.677 288.823 151.286 288.392C149.728 287.966 148.145 287.637 146.545 287.408C144.605 287.199 143.609 288.85 143.405 289.236Z" fill="black"/>
<path d="M93.2 211.38C93.2 212.827 97.1954 213.753 97.1954 213.753L109.364 224.563C109.364 224.563 117.009 227.974 121.873 232.887C126.736 237.799 131.027 233.581 131.027 233.581C136.182 232.31 151.027 214.388 151.027 214.388C151.027 214.388 151.373 234.855 152.068 236.357C152.764 237.858 151.836 241.964 151.432 243.701C151.177 245.15 151.079 246.622 151.141 248.092C151.141 248.092 145.582 269.308 146.045 271.159C146.509 273.01 143.032 281.683 143.032 281.683V288.909C143.032 288.909 156.645 288.388 157.395 285.326C158.145 282.264 153.982 280.93 153.982 280.93V280.177C156.709 278.789 157.223 269.254 157.223 269.254C157.223 269.254 161.282 257.46 161.859 255.495C162.436 253.531 161.859 250.578 161.859 250.578L162.264 248.038C162.264 248.038 163.132 246.3 163.132 245.956C163.245 245.075 163.585 244.239 164.118 243.529C164.755 242.776 163.423 240.984 163.423 240.984L164.582 237.976V234.683L167.309 222.716C167.309 222.716 170.15 208.781 169.164 204.213C168.177 199.645 170.323 197.336 170.323 197.336C165.673 199.767 163.327 194.356 162.559 192.029C162.364 191.43 162.268 191.031 162.268 191.031C162.268 191.031 155.882 188.681 149.936 189.243C148.729 189.341 147.539 189.592 146.395 189.992C139.791 192.364 138.75 202.19 138.75 202.19L132.9 211.094C129.886 219.015 125.368 219.822 125.368 219.822C125.368 219.822 114.768 212.714 114.459 212.365C114.15 212.015 110.114 210.282 110.114 210.282C109.636 209.444 108.906 208.777 108.027 208.377C106.636 207.797 106.523 205.655 106.523 205.655C106.35 200.625 103.395 200.212 103.395 200.212C93.1409 199.359 93.2 209.938 93.2 211.38Z" fill="#3F3D56"/>
<path d="M152.173 183.115H158.427V163.75H152.173V183.115Z" fill="#F86D70"/>
<path opacity="0.1" d="M152.173 183.115H158.427V163.75H152.173V183.115Z" fill="black"/>
<path opacity="0.1" d="M168.564 124.144C168.563 124.157 168.563 124.171 168.564 124.184C168.612 124.292 168.67 124.395 168.736 124.493L170.473 127.033L174.991 127.487L175.041 125.699C173.632 125.591 170.423 125.205 168.564 124.144Z" fill="black"/>
<path d="M168.741 124.493C168.741 124.493 168.973 134.663 166.423 136.052C163.873 137.44 162.882 144.67 162.882 144.67C162.882 144.67 170.609 149.742 172.332 151.974C174.055 154.206 178.009 159.522 177.195 160.792C176.382 162.062 179.168 167.846 179.168 167.846C179.168 167.846 174.068 178.252 175.227 182.185C176.386 186.118 176.5 196.52 176.5 196.52H178.705C178.705 196.52 178.009 187.965 178.009 184.494C178.009 181.024 180.323 168.654 180.323 168.654C180.323 168.654 181.368 156.515 180.323 156.17C179.277 155.825 173.141 150.967 172.677 148.767C172.214 146.567 175.923 126.085 175.923 126.085C175.923 126.085 171.173 125.881 168.741 124.493Z" fill="#F86D70"/>
<path opacity="0.1" d="M152.055 161.953C152.266 163.368 152.783 164.721 153.568 165.918L157.85 165.192C157.85 165.192 170.709 162.298 173.364 162.062C174.972 161.85 176.54 161.404 178.018 160.737C176.999 157.134 175.011 153.879 172.268 151.324L170.636 149.814C168.232 147.586 165.445 145.808 162.409 144.565C162.6 144.724 176.091 156.219 173.136 158.474C170.182 160.728 162.227 155.239 162.227 155.239L153.182 147.482L152.855 147.201L152.332 148.013C152.598 148.122 152.857 148.246 153.109 148.385C156.192 150.074 158.48 152.911 159.473 156.278C161.332 162.515 152.055 161.953 152.055 161.953Z" fill="black"/>
<path d="M149.273 190.858C149.273 190.858 157.845 195.599 159.927 192.941C160.382 192.355 161.341 192.101 162.536 192.033C162.341 191.435 162.245 191.035 162.245 191.035C162.245 191.035 155.859 188.686 149.914 189.248C149.523 190.228 149.273 190.858 149.273 190.858Z" fill="#444053"/>
<path d="M153.218 147.21L162.591 155.257C162.591 155.257 170.514 160.764 173.5 158.492C176.486 156.219 162.768 144.579 162.768 144.579C165.797 145.825 168.581 147.598 170.991 149.814L172.623 151.325C176.914 155.294 177.882 155.294 178.027 161.127C178.064 162.565 177.573 164.629 177.195 165.001C175.805 166.362 174.832 176.247 175.045 177.404C175.259 178.56 172.455 188.545 173.364 191.321C174.273 194.097 162 189.933 159.923 192.595C157.845 195.258 149.273 190.513 149.273 190.513C149.273 190.513 154.023 178.37 155.182 177.562C156.341 176.755 157.732 170.508 155.182 167.619C152.632 164.729 152.405 161.953 152.405 161.953C152.405 161.953 161.677 162.525 159.818 156.287C159.295 154.479 158.388 152.805 157.158 151.379C155.928 149.953 154.404 148.808 152.691 148.022L153.218 147.21Z" fill="#E8E8F0"/>
<path opacity="0.1" d="M165.727 167.679C165.727 167.679 162.132 174.442 157.482 176.198C157.332 176.252 157.186 176.302 157.027 176.348C152.173 177.822 166.091 169.774 165.727 167.679Z" fill="black"/>
<path d="M115.445 107.841C115.445 107.841 117.182 112.236 118.573 113.738C119.964 115.239 130.273 130.273 130.273 130.273L131.145 132.087L131.895 133.634L138.5 132.94L138.955 130.282L138.7 129.973C138.036 129.179 136.227 127.047 135.014 126.117C133.509 124.965 130.495 121.15 130.495 121.15C130.495 121.15 121.114 111.433 120.418 108.775C119.723 106.117 110.336 90.1765 108.255 92.9346C106.173 95.6926 115.445 107.841 115.445 107.841Z" fill="#FBBEBE"/>
<g opacity="0.1">
<path opacity="0.1" d="M134.609 179.345C133.816 179.277 133.018 179.391 132.277 179.681C130.641 180.475 130.332 182.62 129.423 184.194C128.359 186.036 126.332 187.175 124.246 187.597C123.831 187.677 123.412 187.734 122.991 187.769C124.32 187.898 125.66 187.84 126.973 187.597C129.059 187.175 131.086 186.036 132.15 184.194C133.059 182.62 133.368 180.475 135.005 179.681C135.434 179.488 135.897 179.38 136.368 179.363L134.609 179.345Z" fill="black"/>
<path opacity="0.1" d="M150.755 144.547C150.755 140.941 153.105 137.834 155.041 134.79C156.977 131.746 158.605 127.904 157.073 124.638C155.764 121.848 147.873 118.105 143.318 118.845C147.777 119.421 153.273 122.351 154.345 124.638C155.877 127.904 154.25 131.746 152.314 134.79C150.377 137.834 148.018 140.941 148.027 144.547C148.027 149.201 147.714 152.712 146.432 157.208C146.064 158.501 149.614 160.456 149.068 161.681C147.223 165.763 148.086 170.472 147.791 174.936C147.785 175.808 147.571 176.666 147.168 177.44C146.259 178.932 144.395 179.318 142.582 179.399H144.168C146.286 179.399 148.8 179.236 149.895 177.426C150.299 176.652 150.512 175.794 150.518 174.922C150.814 170.458 149.95 165.745 151.795 161.667C152.35 160.442 148.791 158.492 149.159 157.194C150.441 152.731 150.764 149.201 150.755 144.547Z" fill="black"/>
</g>
<path opacity="0.1" d="M131.146 132.078L131.896 133.625L138.5 132.931L138.955 130.272L138.7 129.964C137.996 130.309 132.718 132.844 131.146 132.078Z" fill="black"/>
<path opacity="0.1" d="M155.532 149.465C155.532 149.465 153.909 146.925 152.982 147.615C152.054 148.304 151.695 145.532 151.164 145.995C150.632 146.458 149.082 147.746 148.436 145.945C147.932 144.512 142.441 135.444 140.214 131.797C139.641 130.853 139.282 130.272 139.282 130.272C139.282 130.272 133.027 133.393 131.523 132.355V134.55L132.795 134.668L139.614 147.37C139.614 147.37 141.759 150.776 141.614 151.965C141.468 153.153 144.364 158.356 144.827 158.701C145.291 159.046 150.282 164.83 150.282 164.83C150.282 164.83 152.832 177.318 150.627 180.788C148.423 184.258 144.605 186.799 144.605 186.799C144.605 186.799 143.455 190.151 143.623 190.5C143.791 190.85 142.286 192.351 142.982 192.814C143.677 193.277 144.605 196.511 144.605 196.511C144.605 196.511 147.85 191.308 149.604 190.5C151.359 189.693 153.604 179.051 153.604 179.051C153.604 179.051 154.245 172.782 154.295 168.735C154.345 164.689 154.141 149.465 155.532 149.465Z" fill="black"/>
<path d="M155.182 149.465C155.182 149.465 153.564 146.925 152.636 147.615C151.709 148.304 151.346 145.532 150.818 145.995C150.291 146.458 148.741 147.746 148.091 145.945C147.582 144.512 142.091 135.444 139.868 131.797L138.936 130.272C138.936 130.272 132.682 133.393 131.173 132.355V134.55L132.45 134.668L139.268 147.37C139.268 147.37 141.418 150.776 141.268 151.965C141.118 153.153 143.996 158.356 144.482 158.701C144.968 159.046 149.936 164.83 149.936 164.83C149.936 164.83 152.487 177.318 150.287 180.788C149.124 182.531 147.711 184.093 146.091 185.424C144.731 186.544 143.773 188.076 143.364 189.788C143.285 190.021 143.257 190.269 143.282 190.514C143.45 190.859 141.946 192.365 142.641 192.827C143.336 193.29 144.273 196.538 144.273 196.538C144.273 196.538 147.518 191.335 149.273 190.528C151.027 189.72 153.277 179.078 153.277 179.078C153.277 179.078 153.914 172.809 153.968 168.763C154.023 164.716 153.818 149.465 155.182 149.465Z" fill="#F86D70"/>
<path opacity="0.1" d="M139.309 202.077C139.309 202.077 144.177 202.984 146.127 204.386C148.077 205.788 138.714 202.191 138.714 202.191L139.309 202.077Z" fill="black"/>
<path opacity="0.1" d="M151.014 214.388C151.014 214.388 156.091 218.611 155.182 222.426C154.273 226.241 151.927 235.84 151.927 235.84L151.014 214.388Z" fill="black"/>
<path opacity="0.1" d="M106.609 206.269C106.609 206.269 99.4544 207.049 99.9181 207.974C100.382 208.9 106.609 207.121 106.609 207.121V206.269Z" fill="black"/>
<path opacity="0.1" d="M161.546 241.387C161.546 241.387 162 241.964 159.346 241.387C156.691 240.811 158.65 239.033 158.65 239.033L161.546 241.387Z" fill="black"/>
<path opacity="0.1" d="M160.636 249.367C160.636 249.367 157 249.943 155.05 249.367C153.1 248.791 160.636 249.367 160.636 249.367Z" fill="black"/>
<path opacity="0.1" d="M153.155 280.586C153.155 280.586 152.518 279.892 149.332 281.162C146.145 282.432 144.873 282.491 143.945 282.069C143.018 281.647 153.155 280.586 153.155 280.586Z" fill="black"/>
<path opacity="0.1" d="M156.691 205.283L152.173 211.557C152.173 211.557 154.605 206.063 156.691 205.283Z" fill="black"/>
<path opacity="0.1" d="M147.909 147.614C147.909 147.614 147.714 149.696 144.8 150.508C141.886 151.32 141.332 151.978 141.332 151.978" fill="black"/>
<path opacity="0.1" d="M140.336 132.522C140.336 132.522 136.491 135.244 132.477 134.668L140.336 132.522Z" fill="black"/>
<path opacity="0.1" d="M143.264 190.8C143.264 190.8 144.386 191.503 147.082 188.428L143.264 190.8Z" fill="black"/>
<path opacity="0.1" d="M171.259 158.189C171.368 157.626 170.977 157.104 170.609 156.664L169.855 155.757C169.707 155.571 169.541 155.401 169.359 155.249C168.905 154.9 168.323 154.795 167.85 154.482" fill="black"/>
<path d="M428.45 295.202C438.544 295.202 446.727 293.82 446.727 292.117C446.727 290.413 438.544 289.032 428.45 289.032C418.356 289.032 410.173 290.413 410.173 292.117C410.173 293.82 418.356 295.202 428.45 295.202Z" fill="#535461"/>
<path d="M436.009 287.072C436.844 286.394 437.451 285.478 437.75 284.446C437.977 283.407 437.532 282.178 436.532 281.774C435.414 281.348 434.218 282.123 433.314 282.904C432.409 283.684 431.368 284.577 430.186 284.41C430.795 283.858 431.251 283.158 431.509 282.378C431.767 281.598 431.819 280.765 431.659 279.96C431.607 279.626 431.466 279.312 431.25 279.052C430.627 278.39 429.504 278.671 428.759 279.193C426.395 280.853 425.736 284.06 425.723 286.941C425.486 285.902 425.686 284.818 425.682 283.765C425.677 282.713 425.382 281.497 424.477 280.939C423.919 280.64 423.292 280.493 422.659 280.513C421.6 280.472 420.414 280.581 419.691 281.357C418.782 282.318 419.023 283.933 419.804 284.986C420.586 286.038 421.782 286.714 422.882 287.444C423.762 287.968 424.512 288.683 425.077 289.536C425.145 289.655 425.2 289.781 425.241 289.912H431.904C433.395 289.155 434.776 288.199 436.009 287.072Z" fill="#57B894"/>
</g>
<defs>
<linearGradient id="paint0_linear" x1="379.505" y1="229.05" x2="379.505" y2="46.5561" gradientUnits="userSpaceOnUse">
<stop stop-color="#808080" stop-opacity="0.25"/>
<stop offset="0.54" stop-color="#808080" stop-opacity="0.12"/>
<stop offset="1" stop-color="#808080" stop-opacity="0.1"/>
</linearGradient>
<linearGradient id="paint1_linear" x1="18126.3" y1="113672" x2="40577" y2="113672" gradientUnits="userSpaceOnUse">
<stop stop-color="#808080" stop-opacity="0.25"/>
<stop offset="0.54" stop-color="#808080" stop-opacity="0.12"/>
<stop offset="1" stop-color="#808080" stop-opacity="0.1"/>
</linearGradient>
<clipPath id="clip0">
<rect width="544" height="296" fill="white"/>
</clipPath>
</defs>
</svg>
